<svg width="524" height="324" viewBox="0 0 524 324" fill="none" xmlns="http://www.w3.org/2000/svg">
<path d="M0 10C0 4.47715 4.47715 0 10 0H474V259H10C4.47716 259 0 254.523 0 249V10Z" fill="#1E2027"/>
<path d="M40 37C40 31.4772 44.4772 27 50 27H524V306H50C44.4772 306 40 301.523 40 296V37Z" fill="#0A0B0D"/>
<path d="M22.9435 152.815V262.975C22.9435 270.707 29.2116 276.975 36.9435 276.975H69.5852C77.3172 276.975 83.5852 283.243 83.5852 290.975V308.815C83.5852 316.547 89.8532 322.815 97.5852 322.815H471.944" stroke="url(#paint0_linear_37_34)"/>
<path d="M22.9435 152.815V262.975C22.9435 270.707 29.2116 276.975 36.9435 276.975H69.5852C77.3172 276.975 83.5852 283.243 83.5852 290.975V308.815C83.5852 316.547 89.8532 322.815 97.5852 322.815H471.944" stroke="#535662"/>
<defs>
<linearGradient id="paint0_linear_37_34" x1="5.6826" y1="7.12628" x2="492.616" y2="43.94" gradientUnits="userSpaceOnUse">
<stop offset="0.0144231" stop-color="#141519"/>
<stop offset="0.389423" stop-color="#717171"/>
<stop offset="1" stop-color="white"/>
</linearGradient>
</defs>
</svg>
