<svg width="670" height="565" viewBox="0 0 670 565" fill="none" xmlns="http://www.w3.org/2000/svg">
<path d="M109.632 505.028H36.334V565H109.632V505.028Z" fill="#CA3F29"/>
<path d="M109.632 565H132.002V488.846L109.632 505.028V565Z" fill="#9B2D19"/>
<path d="M109.632 505.028H36.334L58.7053 488.846H132.002L109.632 505.028Z" fill="#E94931"/>
<path d="M234.334 466.952H161.036V565H234.334V466.952Z" fill="#E6A423"/>
<path d="M234.334 565H256.704V450.769L234.334 466.952V565Z" fill="#E27D27"/>
<path d="M234.334 466.952H161.036L183.407 450.769H256.704L234.334 466.952Z" fill="#EBC217"/>
<path d="M359.988 398.414H286.69V565H359.988V398.414Z" fill="#46B38A"/>
<path d="M359.987 565H382.358V382.231L359.987 398.414V565Z" fill="#00A78A"/>
<path d="M359.987 398.414H286.69L309.06 382.231H382.358L359.987 398.414Z" fill="#70BB89"/>
<path d="M485.641 337.491H412.343V565H485.641V337.491Z" fill="#46B38A"/>
<path d="M485.641 565H508.011V321.309L485.641 337.491V565Z" fill="#00A78A"/>
<path d="M485.641 337.491H412.343L434.713 321.309H508.011L485.641 337.491Z" fill="#70BB89"/>
<path d="M611.295 228.971H537.997V565H611.295V228.971Z" fill="#00ABA1"/>
<path d="M611.295 565H633.666V212.789L611.295 228.971V565Z" fill="#008C83"/>
<path d="M611.295 228.971H537.997L560.368 212.789H633.666L611.295 228.971Z" fill="#00BCA3"/>
<path d="M607.461 107.591L601.66 54.46L558.543 86.0438L576.871 94.1173L548.117 159.395L486.393 147.05L478.971 145.565L478.4 153.115L472.134 235.81L424.279 239.399L421.19 239.629L419.365 242.134L363.835 318.327L285.64 315.764L281.983 315.643L279.904 318.656L228.904 392.608L168.698 378.339L165.529 377.589L163.752 380.128L120.865 441.385L57.6199 444.4L123.189 450.214L125.46 450.415L126.942 448.311L169.337 388.107L230.068 406.647L234.553 408.016L237.335 403.984L288.857 329.277L366.94 331.836L370.484 331.953L372.575 329.085L428.371 252.531L478.881 248.741L484.626 248.31L485.06 242.566L491.189 161.675L550.767 173.59L556.042 174.645L558.212 169.721L589.134 99.5188L607.461 107.591Z" fill="#F1544C"/>
<path d="M323.426 334.038C324.17 330.22 326.68 331.727 327.042 332.129C328.691 333.969 330.724 336.708 332.018 337.223C334.839 338.344 339.615 334.835 345.617 332.223C348.207 330.074 352.046 324.911 354.544 324.721C357.268 324.513 359.806 326.279 359.208 328.955C351.627 340.604 323.04 359.279 323.04 359.279C323.04 359.279 323.507 356.98 319.755 355.559C317.262 354.376 312.807 350.477 312.164 345.926C312.941 341.519 319.65 337.577 323.426 334.038Z" fill="#988203"/>
<path d="M315.219 324.416C317.749 328.371 321.838 334.16 324.228 336.874C324.907 341.083 323.751 341.741 321.361 344.305C321.361 344.305 316.745 348.224 313.67 345.35C312.551 344.078 307.428 339.6 303.074 335.043L315.219 324.416Z" fill="#282119"/>
<path d="M359.107 327.419C359.25 327.92 359.722 328.534 359.83 329.436C349.152 341.802 323.041 359.279 323.041 359.279C323.041 359.279 322.117 358.414 319.812 355.668C332.203 353.517 355.568 330.887 359.107 327.419Z" fill="#282119"/>
<path d="M132.07 288.29C132.992 291.379 130.569 291.237 130.15 291.08C128.233 290.363 125.687 289.133 124.539 289.253C122.038 289.513 119.88 293.926 116.478 298.15C115.402 300.724 114.567 305.99 112.806 307.089C110.885 308.289 108.344 307.966 107.755 305.773C108.844 294.308 122.654 269.613 122.654 269.613C122.654 269.613 123.195 271.481 126.496 271.082C128.781 270.993 133.548 272.143 135.77 275.238C136.894 278.769 133.483 284.24 132.07 288.29Z" fill="#988203"/>
<path d="M141.793 292.199C138.416 290.268 133.19 287.59 130.394 286.516C128.277 283.687 128.874 282.758 129.642 279.958C129.642 279.958 131.525 275.307 134.887 276.235C136.197 276.739 141.679 278.058 146.627 279.731L141.793 292.199Z" fill="#282119"/>
<path d="M108.419 306.858C108.122 306.547 107.539 306.277 107.113 305.656C110.201 292.476 122.655 269.61 122.655 269.61C122.655 269.61 123.666 269.89 126.413 271.023C118.142 277.362 109.686 302.954 108.419 306.858Z" fill="#282119"/>
<path d="M237.275 231.191C231.096 230.111 212.076 227.165 204.288 230.268C214.858 236.067 220.206 246.66 220.206 246.66C220.206 246.66 204.125 291.419 193.941 294.999C185.367 298.013 149.931 284.975 138.944 280.778C136.172 286.823 134.73 294.876 137.638 296.763C152.166 306.188 195.049 317.389 195.049 317.389C198.507 318.786 202.452 317.281 204.095 313.932C209.247 303.42 222.303 280.135 226.946 271.555C238.217 250.723 237.275 231.191 237.275 231.191Z" fill="#CCBB00"/>
<path d="M193.941 294.999C204.125 291.419 220.206 246.66 220.206 246.66C220.206 246.66 214.857 236.067 204.288 230.268C202.363 231.036 201.114 232.165 200.926 233.793C198.947 250.99 190.737 286.614 186.698 285.398C186.698 285.398 156.648 279.47 146.175 274.024C143.863 272.822 141.028 276.234 138.944 280.778C149.931 284.973 185.366 298.013 193.941 294.999Z" fill="#988203"/>
<path d="M179.458 240.114C179.458 240.114 173.995 251.973 182.222 260.327C190.449 268.68 253.252 288.606 259.976 293.688C266.7 298.769 300.477 342.575 300.477 342.575C300.477 342.575 316.287 341.288 322 327.446C322 327.446 282.31 279.528 278.217 275.129C274.93 271.595 248.335 255.917 237.915 244.196C235.359 241.32 238.074 235.104 237.362 233.513C233.749 225.441 179.458 240.114 179.458 240.114Z" fill="#CCBB00"/>
<path d="M269.743 287.921C265.737 284.525 204.879 264.927 195.015 258.983C185.153 253.039 188.622 239.66 188.622 239.66C188.622 239.66 190.711 238.399 194.261 236.474C185.784 238.403 179.458 240.114 179.458 240.114C179.458 240.114 173.995 251.973 182.222 260.327C190.449 268.68 253.252 288.606 259.976 293.688C266.7 298.769 300.477 342.575 300.477 342.575C300.477 342.575 306.326 342.094 312.196 338.604C297.647 325.372 273.1 290.768 269.743 287.921Z" fill="#988203"/>
<path d="M165.895 144.004C165.895 144.004 130.701 158.7 127.004 167.344C123.307 175.989 127.565 202.231 127.565 202.231C127.565 202.231 124.375 216.289 111.294 202.874C111.294 202.874 94.9778 160.063 107.946 147.92C120.916 135.777 137.087 124.45 147.815 118.156C170.845 104.643 161.781 114.4 168.682 119.616C175.801 124.996 179.454 138.974 165.895 144.004Z" fill="#988203"/>
<path d="M127.564 202.231C127.564 202.231 123.307 175.989 127.003 167.344C130.117 160.063 163.601 145.087 163.601 145.087C175.06 141.882 174.581 133.671 174.957 133.665C173.606 136.293 165.114 139.052 161.089 140.232C159.506 140.697 157.966 141.263 156.46 141.938C146.66 146.325 125.29 156.516 122.455 163.147C118.758 171.792 123.015 198.034 123.015 198.034C123.015 198.034 120.56 208.84 111.137 202.456C111.236 202.727 111.292 202.876 111.292 202.876C124.373 216.289 127.564 202.231 127.564 202.231Z" fill="#CCBB00"/>
<path d="M114.511 204.121C113.805 200.454 114.08 197.776 117.344 196.822C118.374 196.52 121.665 195.349 123.11 196.394C124.751 197.551 125.384 198.493 126.333 200.667C127.273 203.449 125.389 206.478 122.125 207.432C118.861 208.386 115.452 206.904 114.511 204.121Z" fill="#DCE5E3"/>
<path d="M217.093 105.283C217.093 105.283 247.598 129.143 257.175 128.408C266.754 127.672 288.214 111.994 288.214 111.994C288.214 111.994 302.402 108.348 296.795 125.832C296.795 125.832 266.395 159.548 249.115 153.828C231.835 148.106 202.785 132.786 202.785 132.786C202.785 132.786 199.258 113.163 217.093 105.283Z" fill="#988203"/>
<path d="M288.214 111.994C288.214 111.994 266.754 127.672 257.175 128.408C249.342 129.01 227.516 113.163 219.823 107.369C219.574 109.476 218.932 111.415 217.952 113.106C218.331 113.329 218.712 113.551 219.066 113.815C227.358 120.018 248.061 134.857 255.645 134.274C265.223 133.539 286.685 117.861 286.685 117.861C286.685 117.861 297.592 115.06 296.498 126.159C296.692 125.949 296.796 125.832 296.796 125.832C302.402 108.347 288.214 111.994 288.214 111.994Z" fill="#CCBB00"/>
<path d="M296.333 122.469C293.39 124.756 290.851 125.74 288.388 123.34C287.611 122.583 284.94 120.259 285.168 118.528C285.397 116.574 285.933 115.595 287.417 113.779C289.452 111.691 293.097 111.945 295.56 114.345C298.021 116.743 298.367 120.381 296.333 122.469Z" fill="#DCE5E3"/>
<path d="M177.583 241.32C177.352 238.781 177.117 236.251 176.884 233.743C176.292 227.388 183.88 222.461 190.234 221.87C191.113 221.786 192.05 221.792 193.009 221.878L216.272 217.902C218.1 216.266 220.411 215.11 222.894 214.702C229.183 213.665 235.135 217.939 236.167 224.238C236.605 226.913 237.207 230.596 237.908 234.91C231.717 238.79 226.496 240.087 214.981 241.523C198.191 243.61 183.06 242.057 177.583 241.32Z" fill="#595200"/>
<path d="M165.264 239.246L156.14 146.195L153.489 121.043C155.843 117.909 160.678 112.1 164.663 109.904L188.246 97.8961L216.213 104.589C222.433 107.05 227.5 122.624 228.285 127.249L246.764 221.754C242.005 227.727 227.217 234.035 215.487 236.183C192.503 240.392 165.313 239.533 165.264 239.246Z" fill="#8B7F00"/>
<path d="M155.189 143.468L156.141 146.195L165.265 239.246C165.306 239.494 174.094 239.554 174.942 239.499C174.942 239.499 162.864 174.05 165.101 145.28C164.362 140.956 155.189 143.468 155.189 143.468Z" fill="#CCBB00"/>
<path d="M200.343 170.287L186.925 134.229L173.152 105.625L188.247 97.8948L200.012 99.4599C203.034 99.8619 205.315 102.399 205.395 105.446L206.255 138.465L200.343 170.287Z" fill="#DCE5E3"/>
<path d="M191.872 121.102C192.041 121.743 194.725 123.873 195.365 123.706L197.773 123.071C198.412 122.902 199.487 119.825 199.318 119.186L197.137 115.217C196.583 114.291 196.313 114.195 195.673 114.363L192.873 115.1C192.232 115.269 192.143 115.809 192.019 116.564L191.872 121.102Z" fill="#231A70"/>
<path d="M205.261 178.667C205.072 183.958 206.037 177.069 203.191 178.108C203.191 178.108 205.939 121.504 205.575 118.497C203.933 104.94 195.212 97.3038 195.212 97.3038C206.159 98.3973 208.985 104.299 211.283 109.479C211.283 109.479 216.216 121.481 215.379 122.862C214.274 124.689 208.588 125.799 208.588 125.799C208.588 125.799 212.949 132.014 213.595 134.711C212.851 148.204 205.261 178.667 205.261 178.667Z" fill="#5E4C00"/>
<path d="M208.93 190.721C209.655 192.081 209.678 191.514 210.815 190.79C210.815 190.79 204.931 145.563 191.099 131.486C181.92 122.145 178.887 101.816 178.887 101.816C169.844 102.239 170.916 115.702 171.954 118.548C171.954 118.548 178.764 134.758 180.292 135.277C182.315 135.963 186.474 133.871 186.474 133.871C186.474 133.871 183.567 143.014 184.81 145.493C192.136 153.754 208.93 190.721 208.93 190.721Z" fill="#5E4C00"/>
<path d="M179.836 106.522C182.542 113.243 187.214 112.455 190.303 112.081C196.255 111.359 201.161 109.219 200.217 103.673L197.697 88.8363C196.755 83.2887 191.198 79.6064 185.287 80.6101C179.376 81.6151 174.353 79.9133 175.296 85.4609L179.836 106.522Z" fill="#E8836A"/>
<path d="M162.212 28.9102C162.136 28.4252 161.869 27.8677 161.109 27.4697C159.606 26.6818 156.076 27.6989 159.067 25.4249C162.057 23.1509 166.549 26.0614 166.549 26.0614C168.063 24.6879 171.068 22.7945 172.465 23.1469C173.407 23.3841 171.425 25.1033 170.03 26.2035L179.431 23.5744C192.346 20.412 193.544 31.6264 196.707 44.54L201.251 63.0963C204.413 76.0099 196.507 89.0427 183.593 92.2051C170.68 95.3675 157.647 87.4615 154.485 74.548L149.941 55.9916C147.246 44.9902 152.588 33.9084 162.212 28.9102Z" fill="#681829"/>
<path d="M158.194 26.9525C157.701 26.7944 157.742 26.4339 159.067 25.4249C159.299 25.2494 159.542 25.114 159.788 24.9961C159.22 25.6205 158.691 26.2745 158.194 26.9525Z" fill="#540E21"/>
<path d="M154.132 35.767C153.301 39.33 153.254 43.1303 154.184 46.9278L158.728 65.4841C161.891 78.3991 174.924 86.3037 187.839 83.1413C193.437 81.7705 198.092 78.5424 201.314 74.2745C199.318 82.8264 192.705 89.9753 183.592 92.2064C170.678 95.3688 157.646 87.4628 154.483 74.5493L149.939 55.9929C148.149 48.6792 149.925 41.3414 154.132 35.767Z" fill="#540E21"/>
<path d="M157.378 60.167C157.94 60.029 158.509 59.9727 159.077 59.9861C162.912 50.1291 170.243 34.1 179.597 31.8086C192.512 28.6462 205.545 36.5509 208.708 49.4658L214.652 82.5946C215.899 90.2058 210.94 103.981 197.874 106.441C186.965 108.495 178.444 105.184 169.869 93.2931C167.445 89.9324 167.653 88.7345 164.217 82.3829C163.808 82.5812 163.385 82.7514 162.936 82.8613C158.316 83.9922 153.327 79.8288 151.791 73.563C150.257 67.2971 152.757 61.2993 157.378 60.167Z" fill="#F2967F"/>
<path d="M208.708 49.4659L214.996 81.4825C216.118 88.3272 212.197 101.108 201.619 105.345C191.69 106.609 184.274 104.435 176.25 93.3093C175.632 92.4531 175.422 92.3579 174.674 91.0474C168.19 79.6815 163.765 47.76 163.765 47.76C167.968 40.4704 175.368 34.0344 182.595 31.2767C194.471 29.9086 205.79 37.5519 208.708 49.4659Z" fill="#FFA587"/>
<path d="M191.529 70.0938C192.025 72.5072 190.942 74.7691 189.114 75.1443C187.286 75.5195 185.402 73.8659 184.907 71.4526C184.412 69.0392 185.494 66.7787 187.321 66.4021C189.149 66.0269 191.033 67.6792 191.529 70.0938Z" fill="#540E21"/>
<path d="M190.662 70.3176C190.927 71.6094 190.348 72.8194 189.369 73.0204C188.391 73.2214 189.498 72.132 189.232 70.8402C188.967 69.5484 187.43 68.5421 188.41 68.3411C189.388 68.1401 190.397 69.0245 190.662 70.3176Z" fill="#681829"/>
<path d="M206.527 67.0171C207.022 69.4305 205.941 71.6911 204.113 72.0676C202.284 72.4428 200.4 70.7892 199.905 68.3759C199.409 65.9625 200.492 63.7006 202.32 63.3254C204.149 62.9502 206.032 64.6038 206.527 67.0171Z" fill="#540E21"/>
<path d="M205.659 67.2409C205.925 68.5327 205.346 69.7441 204.367 69.9451C203.389 70.1461 204.496 69.0566 204.231 67.7649C203.965 66.4731 202.428 65.4668 203.408 65.2658C204.386 65.0648 205.395 65.9492 205.659 67.2409Z" fill="#681829"/>
<path d="M189.162 62.9583C189.039 63.8454 188.219 64.4658 187.332 64.3412L181.44 63.5211C180.553 63.3978 179.934 62.5778 180.057 61.6907C180.18 60.8036 181 60.1832 181.888 60.3078L187.78 61.1279C188.667 61.2512 189.287 62.0712 189.162 62.9583Z" fill="#540E21"/>
<path d="M204.165 56.6442C204.642 57.4026 204.414 58.4036 203.657 58.8807L198.623 62.0511C197.864 62.5281 196.863 62.3017 196.386 61.5432C195.908 60.7848 196.136 59.7838 196.894 59.3054L201.927 56.1363C202.686 55.6579 203.687 55.8857 204.165 56.6442Z" fill="#540E21"/>
<path d="M189.621 89.3924C189.621 89.3924 197.583 84.815 207.713 85.0843C207.713 85.0843 210.081 93.4647 202.711 95.9088C199.242 97.0586 191.25 98.1212 189.621 89.3924Z" fill="#F1544C"/>
<path d="M194.423 88.752C192.709 89.103 191.185 89.7797 189.934 90.6574C192.077 97.9953 199.422 96.9983 202.711 95.9076C203.64 95.5994 204.414 95.196 205.058 94.727C205.068 94.3384 205.047 93.9471 204.966 93.5585C204.209 89.8655 199.489 87.7135 194.423 88.752Z" fill="#D13B37"/>
<path d="M199.305 78.9418C199.719 80.0553 198.959 81.2211 197.997 81.4181L196.908 81.6405C195.946 81.8375 194.97 81.0496 194.731 79.8798L193.355 73.169C193.115 71.9979 193.342 71.1068 194.3 71.5034C196.251 72.3101 198.467 76.6865 199.305 78.9418Z" fill="#F2967F"/>
<path d="M189.621 89.3924C189.823 90.4778 190.124 91.4105 190.504 92.2118C192.309 91.2524 197.812 88.8752 208.06 88.6501C208.158 86.6628 207.713 85.083 207.713 85.083C197.584 84.815 189.621 89.3924 189.621 89.3924Z" fill="#DCE5E3"/>
<path d="M202.482 78.2893C201.644 76.0354 199.427 71.6589 197.477 70.8509C196.981 70.6459 196.685 70.7893 196.544 71.1323C198.465 72.069 200.605 76.298 201.425 78.505C196.678 78.6042 198.508 81.311 197.544 81.5093L201.174 80.7642C202.136 80.5686 202.896 79.4028 202.482 78.2893Z" fill="#F2967F"/>
<path d="M162.313 67.86C165.195 75.4645 171.235 74.7998 170.871 71.1108C170.484 68.5836 169.127 65.9652 168.498 60.7942C189.693 54.9866 194.17 40.938 194.17 40.938C196.912 39.7521 198.031 46.4186 201.015 47.898C206.31 50.5244 208.686 49.0008 208.686 49.0008C207.586 31.0743 196.628 19.4672 180.231 23.4832C167.237 26.6657 153.62 35.4776 155.937 53.2299C158.053 54.0232 158.42 56.2208 158.876 59.1125C159.626 62.2467 160.927 64.4055 162.313 67.86Z" fill="#681829"/>
<path d="M157.348 158.508L165.264 239.246C165.266 239.259 165.348 239.275 165.467 239.289L157.541 158.441C157.478 158.464 157.411 158.487 157.348 158.508Z" fill="#CCBB00"/>
<path d="M198.08 121.916C198.08 121.916 199.683 126.149 192.611 135.294C185.54 144.44 162.08 147.559 155.566 141C149.051 134.439 139.974 126.8 136.66 127.167C133.345 127.534 130.576 128.161 129.576 126.886C128.577 125.61 122.499 115.449 122.803 114.524C123.107 113.6 136.382 110.398 141.22 111.754C146.056 113.11 150.543 122.117 157.443 130.262C164.343 138.408 182.908 137.58 189.148 133.72C195.387 129.859 194.749 124.011 194.197 122.213C193.646 120.416 198.08 121.916 198.08 121.916Z" fill="#231A70"/>
<path d="M116.671 203.492C116.671 203.492 118.812 200.996 121.915 200.631C125.019 200.268 127.094 201.679 131.073 204.131C134.955 206.523 133.61 208.707 132.921 210.695C132.233 212.681 133.15 215.322 131.502 216.583C129.854 217.844 127.73 217.271 126.127 218.024C124.525 218.779 120.059 218.637 117.838 216.264C115.619 213.892 115.265 204.903 116.671 203.492Z" fill="#F2967F"/>
<path d="M295.902 102.487C295.902 102.487 299.928 98.8086 302.021 99.2187C304.116 99.6287 304.353 102.005 305.507 102.892C306.662 103.779 309.541 107.958 309.454 110.192C309.369 112.427 304.085 118.907 298.565 119.203C293.045 119.498 295.902 102.487 295.902 102.487Z" fill="#F2967F"/>
<path d="M289.937 111.891C289.937 111.891 290.699 107.557 293.355 103.635C295.988 99.7466 302.186 100.748 302.982 105.376C303.002 105.494 303.014 105.601 303.015 105.696C302.411 109.206 296.89 101.452 296.952 110.042C296.977 113.565 301.742 120.223 294.576 120.754C294.301 120.781 294.027 120.807 293.744 120.821C286.406 119.355 288.836 114.008 289.937 111.891Z" fill="#FFA587"/>
</svg>
