<svg width="233" height="80" viewBox="0 0 233 80" fill="none" xmlns="http://www.w3.org/2000/svg">
<rect width="232.872" height="79.5745" rx="8" fill="#14161D"/>
<g clip-path="url(#clip0_605_530)">
<path d="M52.1532 53.9098V46.6445H44.2502C42.101 46.6445 40.1102 47.774 39.0094 49.618L36.4473 53.9098H52.1532Z" fill="#63D2F9"/>
<path d="M27 26V33.2653H47.816L52.1533 26H27Z" fill="#4E5EE4"/>
<path d="M36.9618 37.3545L27.0225 53.9106H35.4906L47.3763 34.1035H42.7002C40.3481 34.1035 38.1691 35.338 36.9618 37.3545Z" fill="#63B0F9"/>
<path d="M70.1698 46.9407C65.9117 46.9407 62.7783 43.8421 62.7783 39.6839C62.7783 35.5658 65.9318 32.4272 70.1899 32.4272C74.448 32.4272 77.6015 35.6058 77.6015 39.6839C77.6015 43.8021 74.428 46.9407 70.1698 46.9407ZM70.1899 44.4018C72.8814 44.4018 74.8096 42.4027 74.8096 39.6839C74.8096 37.0051 72.8814 34.966 70.1899 34.966C67.4783 34.966 65.5501 37.0051 65.5501 39.6839C65.5501 42.4027 67.4783 44.4018 70.1899 44.4018ZM80.4529 51.2788V36.1655H83.0238V37.5049H83.1644C83.4456 37.0651 84.4097 35.9056 86.338 35.9056C89.2905 35.9056 91.3192 38.1046 91.3192 41.3832C91.3192 44.6617 89.3106 46.9407 86.4183 46.9407C84.5503 46.9407 83.5461 45.9012 83.2046 45.3214H83.064V51.2788H80.4529ZM85.8358 44.5818C87.523 44.5818 88.6679 43.2823 88.6679 41.4232C88.6679 39.504 87.523 38.2646 85.8157 38.2646C84.0884 38.2646 83.0037 39.644 83.0037 41.4232C83.0037 43.3823 84.2089 44.5818 85.8358 44.5818ZM98.7903 46.9407C95.677 46.9407 93.4676 44.6217 93.4676 41.4831C93.4676 38.1646 95.6971 35.9056 98.7903 35.9056C102.185 35.9056 104.033 38.4045 104.033 41.3632V42.1828H95.9984C96.0787 43.7821 97.1834 44.8616 98.8706 44.8616C100.156 44.8616 101.14 44.2619 101.502 43.4023H103.932C103.41 45.5413 101.522 46.9407 98.7903 46.9407ZM96.0385 40.3436H101.542C101.421 38.9243 100.317 37.9847 98.7903 37.9847C97.324 37.9847 96.1992 39.0242 96.0385 40.3436ZM106.844 46.6808V36.1655H109.334V37.4449H109.475C109.897 36.6653 110.941 35.9056 112.448 35.9056C114.818 35.9056 116.264 37.5649 116.264 39.8039V46.6808H113.653V40.4836C113.653 39.2042 112.829 38.3445 111.624 38.3445C110.359 38.3445 109.455 39.3441 109.455 40.6635V46.6808H106.844ZM118.854 46.6808V44.3019L126.165 35.126V34.986H119.115V32.6871H129.5V35.046L122.188 44.2219V44.3819H129.54V46.6808H118.854ZM136.609 46.9407C133.496 46.9407 131.286 44.6217 131.286 41.4831C131.286 38.1646 133.516 35.9056 136.609 35.9056C140.004 35.9056 141.852 38.4045 141.852 41.3632V42.1828H133.817C133.898 43.7821 135.002 44.8616 136.69 44.8616C137.975 44.8616 138.959 44.2619 139.321 43.4023H141.751C141.229 45.5413 139.341 46.9407 136.609 46.9407ZM133.857 40.3436H139.361C139.24 38.9243 138.136 37.9847 136.609 37.9847C135.143 37.9847 134.018 39.0242 133.857 40.3436ZM144.663 51.2788V36.1655H147.234V37.5049H147.374C147.655 37.0651 148.62 35.9056 150.548 35.9056C153.5 35.9056 155.529 38.1046 155.529 41.3832C155.529 44.6617 153.52 46.9407 150.628 46.9407C148.76 46.9407 147.756 45.9012 147.414 45.3214H147.274V51.2788H144.663ZM150.046 44.5818C151.733 44.5818 152.878 43.2823 152.878 41.4232C152.878 39.504 151.733 38.2646 150.026 38.2646C148.298 38.2646 147.214 39.644 147.214 41.4232C147.214 43.3823 148.419 44.5818 150.046 44.5818ZM158.34 51.2788V36.1655H160.911V37.5049H161.052C161.333 37.0651 162.297 35.9056 164.225 35.9056C167.178 35.9056 169.207 38.1046 169.207 41.3832C169.207 44.6617 167.198 46.9407 164.306 46.9407C162.438 46.9407 161.433 45.9012 161.092 45.3214H160.951V51.2788H158.34ZM163.723 44.5818C165.41 44.5818 166.555 43.2823 166.555 41.4232C166.555 39.504 165.41 38.2646 163.703 38.2646C161.976 38.2646 160.891 39.644 160.891 41.4232C160.891 43.3823 162.096 44.5818 163.723 44.5818ZM176.678 46.9407C173.564 46.9407 171.355 44.6217 171.355 41.4831C171.355 38.1646 173.584 35.9056 176.678 35.9056C180.072 35.9056 181.92 38.4045 181.92 41.3632V42.1828H173.886C173.966 43.7821 175.071 44.8616 176.758 44.8616C178.043 44.8616 179.028 44.2619 179.389 43.4023H181.82C181.297 45.5413 179.409 46.9407 176.678 46.9407ZM173.926 40.3436H179.429C179.309 38.9243 178.204 37.9847 176.678 37.9847C175.211 37.9847 174.087 39.0242 173.926 40.3436ZM187.302 46.6808C185.454 46.6808 184.41 45.5813 184.41 43.7221V31.6875H187.021V43.4823C187.021 44.082 187.322 44.4018 187.865 44.4018H188.286V46.6808H187.302ZM192.102 34.7661C191.158 34.7661 190.495 34.1864 190.495 33.2468C190.495 32.3472 191.158 31.7475 192.102 31.7475C193.046 31.7475 193.709 32.3472 193.709 33.2468C193.709 34.1864 193.046 34.7661 192.102 34.7661ZM190.796 46.6808V36.1655H193.407V46.6808H190.796ZM196.58 46.6808V36.1655H199.071V37.4449H199.211C199.633 36.6653 200.678 35.9056 202.184 35.9056C204.554 35.9056 206 37.5649 206 39.8039V46.6808H203.389V40.4836C203.389 39.2042 202.566 38.3445 201.361 38.3445C200.095 38.3445 199.191 39.3441 199.191 40.6635V46.6808H196.58Z" fill="white"/>
</g>
<defs>
<clipPath id="clip0_605_530">
<rect width="179" height="28" fill="white" transform="translate(27 26)"/>
</clipPath>
</defs>
</svg>
