<svg width="233" height="80" viewBox="0 0 233 80" fill="none" xmlns="http://www.w3.org/2000/svg">
<rect width="232.872" height="79.5745" rx="8" fill="#14161D"/>
<g clip-path="url(#clip0_605_541)">
<path d="M75.1684 52.4446V50.1549C75.1684 49.7292 74.4524 49.3234 73.1673 48.9575L73.1982 46.108C73.1967 41.7128 71.8335 37.4261 69.2962 33.8373C66.747 30.2327 63.1538 27.4964 59.0012 25.9974L58.909 25.4262C58.8616 25.1202 58.7278 24.8341 58.5236 24.6014C58.3181 24.3679 58.0508 24.1971 57.7526 24.1087C53.7608 22.9481 49.5212 22.9481 45.5294 24.1087C45.2294 24.1968 44.9619 24.3667 44.7555 24.6007C44.5502 24.8328 44.4158 25.1189 44.3681 25.4251L44.2797 25.9576C40.1017 27.4424 36.4821 30.1775 33.9128 33.7912C31.3562 37.3893 29.9819 41.6934 29.9802 46.1072V48.9689C28.7128 49.3338 28.0063 49.7351 28.0063 50.1578V52.4471C27.9859 52.5815 28.0153 52.7187 28.0889 52.833C28.721 52.3658 29.4454 52.0387 30.2138 51.8733C32.1743 51.4002 34.1664 51.0696 36.1745 50.8842C36.7368 50.8212 37.3061 50.8777 37.8451 51.05C38.3841 51.2222 38.8807 51.5063 39.3023 51.8837C40.8597 53.2922 42.8852 54.0715 44.9851 54.0702H58.1911C60.291 54.0713 62.3163 53.2913 63.8728 51.8818C64.2937 51.5025 64.7899 51.2163 65.3291 51.0421C65.8682 50.8679 66.4381 50.8096 67.0013 50.8709C69.0089 51.0561 71.0006 51.3855 72.9609 51.8564C73.6891 51.9942 74.3774 52.293 74.9753 52.7309C75.0085 52.7641 75.049 52.7936 75.0774 52.8245C75.1516 52.7126 75.1841 52.578 75.1684 52.4446Z" fill="#FFF100"/>
<path d="M39.3335 47.6256C39.3157 47.0984 39.3063 46.571 39.3051 46.0435C39.3118 38.0842 41.1891 30.9461 44.2814 25.9609C40.1036 27.4454 36.4841 30.1801 33.9146 33.7934C31.3579 37.3906 29.9831 41.6937 29.9805 46.1069V48.9685C33.0519 48.2426 36.1819 47.7932 39.3335 47.6256Z" fill="url(#paint0_linear_605_541)"/>
<path d="M73.1967 46.1089C73.201 41.1326 71.4551 36.3132 68.2646 32.4941C69.649 36.8755 70.3389 41.4467 70.3093 46.0415C70.3093 46.8172 70.2886 47.583 70.2529 48.3448C71.2324 48.4954 72.2029 48.6998 73.1599 48.9573L73.1956 46.1085L73.1967 46.1089Z" fill="url(#paint1_linear_605_541)"/>
<path d="M72.9611 51.8662C71.0005 51.3931 69.0083 51.0624 67 50.8767C66.4373 50.8145 65.8678 50.8718 65.3287 51.045C64.7896 51.2181 64.2932 51.5031 63.8719 51.8813C62.3149 53.2907 60.2892 54.0703 58.1891 54.0686H44.9882C42.8894 54.0693 40.8652 53.29 39.3087 51.8821C38.8881 51.5022 38.3919 51.2155 37.8526 51.041C37.3134 50.8664 36.7433 50.808 36.1799 50.8693C34.1718 51.0551 32.1797 51.3854 30.2192 51.8578C29.452 52.0253 28.7286 52.3521 28.0957 52.8171C29.0981 54.338 39.238 55.9334 51.5927 55.9334C63.9486 55.9334 74.084 54.3321 75.0883 52.8182C75.0533 52.7879 75.0146 52.7585 74.9851 52.7253C74.3799 52.297 73.6896 52.004 72.9611 51.8662Z" fill="url(#paint2_radial_605_541)"/>
<path d="M51.5866 29.9617L46.5303 38.494L51.5866 41.6055V29.9609V29.9617Z" fill="#0A0A0A"/>
<path d="M51.5879 29.9629V41.6008L56.6427 38.4952L51.5879 29.9629ZM51.5879 43.2909V47.3489C51.6822 47.2147 56.6427 40.1805 56.6427 40.1772L51.5879 43.2917V43.2909Z" fill="#4B4D4D"/>
<path d="M51.5885 43.2933L46.5322 40.1836L51.5885 47.3523V43.2911V43.2933Z" fill="#0A0A0A"/>
</g>
<path d="M95.8975 32.7354H98.6045V48H95.8975V41.3721H87.7334V48H85.0264V32.7354H87.7334V38.8799H95.8975V32.7354ZM108.305 32.7354H111.27L117.307 48H114.524L112.816 44.0039H106.586L104.878 48H102.257L108.305 32.7354ZM111.871 41.5225L109.701 35.8613L107.521 41.5225H111.871ZM132.432 37.1074C132.432 37.5944 132.371 38.0599 132.249 38.5039C132.134 38.9408 131.948 39.3633 131.69 39.7715C131.44 40.1797 131.092 40.5449 130.648 40.8672C130.212 41.1895 129.692 41.4401 129.091 41.6191L133.699 48H130.176L125.9 42.0811H123.312V48H120.604V32.7354H127.104C127.426 32.7354 127.719 32.7461 127.984 32.7676C128.257 32.7819 128.582 32.8249 128.962 32.8965C129.349 32.9609 129.689 33.0505 129.982 33.165C130.283 33.2796 130.591 33.4479 130.906 33.6699C131.229 33.8919 131.493 34.1533 131.701 34.4541C131.916 34.7477 132.091 35.1237 132.228 35.582C132.364 36.0332 132.432 36.5417 132.432 37.1074ZM123.312 35.2168V39.5889H125.804C126.233 39.5889 126.613 39.5745 126.942 39.5459C127.272 39.5173 127.612 39.46 127.963 39.374C128.314 39.2809 128.6 39.1556 128.822 38.998C129.051 38.8405 129.238 38.6221 129.381 38.3428C129.531 38.0635 129.606 37.734 129.606 37.3545C129.606 35.9294 128.507 35.2168 126.309 35.2168H123.312ZM143.389 35.2275H140.606V45.5078H142.572C143.066 45.5078 143.475 45.5007 143.797 45.4863C144.119 45.472 144.542 45.4219 145.064 45.3359C145.587 45.25 146.031 45.1318 146.396 44.9814C146.769 44.8239 147.152 44.5911 147.546 44.2832C147.947 43.9681 148.28 43.5885 148.545 43.1445C149.032 42.3281 149.275 41.3721 149.275 40.2764C149.275 39.6462 149.186 39.0661 149.007 38.5361C148.835 38.0062 148.602 37.5622 148.309 37.2041C148.022 36.8389 147.682 36.5202 147.288 36.248C146.901 35.9759 146.507 35.7646 146.106 35.6143C145.705 35.4639 145.294 35.36 144.871 35.3027C144.513 35.2526 144.019 35.2275 143.389 35.2275ZM143.313 32.7354C144.273 32.7354 145.158 32.8105 145.967 32.9609C146.776 33.1113 147.474 33.3154 148.062 33.5732C148.649 33.8311 149.172 34.1426 149.63 34.5078C150.088 34.873 150.464 35.2633 150.758 35.6787C151.051 36.0941 151.291 36.5452 151.478 37.0322C151.671 37.5192 151.803 37.999 151.875 38.4717C151.954 38.9372 151.993 39.4206 151.993 39.9219C151.993 40.5807 151.939 41.2181 151.832 41.834C151.725 42.4427 151.535 43.0658 151.263 43.7031C150.991 44.3333 150.64 44.9027 150.21 45.4111C149.787 45.9124 149.232 46.3672 148.545 46.7754C147.865 47.1764 147.084 47.4736 146.203 47.667C145.752 47.7673 145.251 47.846 144.699 47.9033C144.148 47.9535 143.693 47.9821 143.335 47.9893C142.984 47.9964 142.49 48 141.853 48H137.899V32.7354H143.313ZM167.698 32.7354H170.405V48H167.698V41.3721H159.534V48H156.827V32.7354H159.534V38.8799H167.698V32.7354ZM180.105 32.7354H183.07L189.107 48H186.325L184.617 44.0039H178.387L176.679 48H174.058L180.105 32.7354ZM183.672 41.5225L181.502 35.8613L179.321 41.5225H183.672ZM190.203 32.7354H203.996V35.2275H198.453V48H195.746V35.2275H190.203V32.7354Z" fill="white"/>
<defs>
<linearGradient id="paint0_linear_605_541" x1="37.1309" y1="48.9686" x2="37.1309" y2="25.9611" gradientUnits="userSpaceOnUse">
<stop stop-color="#EDCF00"/>
<stop offset="0.33" stop-color="#F0D500"/>
<stop offset="0.77" stop-color="#F9E500"/>
<stop offset="1" stop-color="#FFF100"/>
</linearGradient>
<linearGradient id="paint1_linear_605_541" x1="70.7302" y1="49.139" x2="70.7302" y2="32.4942" gradientUnits="userSpaceOnUse">
<stop stop-color="#EDCF00"/>
<stop offset="0.59" stop-color="#F7E100"/>
<stop offset="1" stop-color="#FFF100"/>
</linearGradient>
<radialGradient id="paint2_radial_605_541" cx="0" cy="0" r="1" gradientUnits="userSpaceOnUse" gradientTransform="translate(30.643 64.689) scale(17.5335 17.4141)">
<stop stop-color="#FFF100"/>
<stop offset="0.23" stop-color="#F9E500"/>
<stop offset="0.67" stop-color="#F0D500"/>
<stop offset="1" stop-color="#EDCF00"/>
</radialGradient>
<clipPath id="clip0_605_541">
<rect width="47.1724" height="47.1724" fill="white" transform="translate(28 16)"/>
</clipPath>
</defs>
</svg>
