<svg width="233" height="80" viewBox="0 0 233 80" fill="none" xmlns="http://www.w3.org/2000/svg">
<rect width="232.872" height="79.5745" rx="8" fill="#14161D"/>
<g clip-path="url(#clip0_605_490)">
<path d="M57.9522 58.9763C68.7358 58.9763 77.4776 50.2512 77.4776 39.4882C77.4776 28.7252 68.7358 20 57.9522 20C47.1686 20 38.4268 28.7252 38.4268 39.4882C38.4268 50.2512 47.1686 58.9763 57.9522 58.9763Z" fill="#5E464D"/>
<path d="M51.8121 56.768C52.6109 57.037 55.2933 57.8975 55.4074 57.0561C55.4693 56.5944 54.0536 56.1212 52.137 55.1195C49.4112 53.6982 46.9175 51.8805 44.7396 49.7275C41.5607 46.6524 39.7328 42.4688 39.6493 38.0773C39.4869 32.1817 41.8231 27.4155 45.666 24.3398C40.9667 27.9182 38.1531 33.396 38.0074 39.2508C37.8933 43.5151 39.102 47.1078 41.3725 50.3781C42.0776 51.2765 42.9017 52.0774 43.8229 52.7593C45.9986 54.383 49.18 55.8846 51.8121 56.7661" fill="white"/>
<path d="M77.747 35.0203C76.5363 29.4032 72.7728 25.4709 67.7386 22.6928C71.5969 25.3964 77.0121 31.1452 73.8113 36.2166C71.1038 40.2787 64.5282 39.4831 60.9214 37.5522C56.6434 35.2626 51.2902 30.1111 56.5699 25.0759C59.9931 21.8171 70.8814 25.4709 68.9648 30.3419C67.8469 33.1753 63.4955 32.5457 61.5383 31.1605C60.0956 30.1378 58.881 28.3805 59.525 26.566C59.73 25.9841 59.701 25.0816 58.8675 25.7456C58.2525 26.2417 57.9334 27.0583 57.8251 27.8215C56.9142 34.1732 68.3846 39.0977 71.7884 32.9521C73.5541 29.7619 70.6918 25.1293 67.0888 23.2328C64.3813 21.8018 61.5635 20.7963 58.1094 21.0405C52.5859 21.4221 47.9521 24.8374 47.37 30.4049C46.7898 35.9381 50.5398 40.9179 54.9551 43.8963C59.5966 47.0254 65.8356 49.0879 71.5447 47.2219C76.662 45.5486 78.7759 39.754 77.747 35.0241" fill="white"/>
<path d="M70.5451 30.719C71.0943 27.0786 67.7582 24.5791 64.6774 23.4439C61.0454 22.1083 56.2472 22.6921 53.6015 25.659C51.6675 27.838 51.7932 31.0014 52.7912 33.5619C54.2997 37.4294 57.7054 40.2246 61.67 41.4324C64.4879 42.2909 67.8936 42.6649 70.7481 41.7586C74.912 40.4364 76.2677 36.153 75.4071 32.2282C75.2228 31.3798 74.9399 30.5552 74.5639 29.7707C74.0378 28.6813 72.4268 26.4756 74.647 29.1621C74.8798 29.4615 75.0942 29.7743 75.2891 30.0989C75.7471 30.8412 76.1102 31.6365 76.3702 32.4667C77.5809 36.1301 76.6313 40.404 73.2758 42.6153C70.7017 44.3077 67.4294 44.5099 64.4434 44.0864C60.44 43.514 56.6669 41.606 54.0444 38.536C51.6501 35.737 50.0159 31.7169 51.0003 28.0421C51.7217 25.3538 53.9341 23.3466 56.5837 22.5089C59.9353 21.4386 63.6253 21.9365 66.6404 23.6747C68.1527 24.5429 69.5413 25.7449 70.3149 27.3209C70.6648 28.0309 70.8529 28.8078 70.8661 29.5971C70.8738 29.9168 70.8485 30.2365 70.7907 30.5511C70.7694 30.6656 70.5238 30.988 70.5586 30.7228" fill="#3FE0C5"/>
</g>
<path d="M95.76 31.49H90.54V29H103.74V31.49H98.52V50H95.76V31.49ZM106.458 29H111.858C114.058 29 115.768 29.55 116.988 30.65C118.228 31.73 118.848 33.32 118.848 35.42C118.848 36.62 118.558 37.71 117.978 38.69C117.418 39.65 116.628 40.41 115.608 40.97L119.808 50H116.568L112.818 41.78C112.498 41.82 112.168 41.84 111.828 41.84H109.188V50H106.458V29ZM111.618 39.32C113.138 39.32 114.248 38.99 114.948 38.33C115.648 37.67 115.998 36.7 115.998 35.42C115.998 34.12 115.648 33.14 114.948 32.48C114.248 31.82 113.138 31.49 111.618 31.49H109.188V39.32H111.618ZM129.738 50.42C127.198 50.42 125.318 49.66 124.098 48.14C122.878 46.62 122.268 44.47 122.268 41.69V29H124.998V40.91C124.998 42.37 125.108 43.6 125.328 44.6C125.568 45.6 126.038 46.41 126.738 47.03C127.438 47.63 128.438 47.93 129.738 47.93C131.058 47.93 132.068 47.63 132.768 47.03C133.468 46.41 133.928 45.6 134.148 44.6C134.388 43.6 134.508 42.37 134.508 40.91V29H137.238V41.69C137.238 44.49 136.628 46.65 135.408 48.17C134.188 49.67 132.298 50.42 129.738 50.42ZM140.994 29H152.064V31.49H143.724V37.73H150.174V40.25H143.724V50H140.994V29ZM154.5 29H165.57V31.49H157.23V37.73H163.68V40.25H157.23V50H154.5V29ZM168.005 29H170.735V47.51H178.745V50H168.005V29ZM180.896 29H192.116V31.49H183.626V37.76H190.346V40.28H183.626V47.51H192.356V50H180.896V29Z" fill="white"/>
<defs>
<clipPath id="clip0_605_490">
<rect width="40" height="39" fill="white" transform="translate(38 20)"/>
</clipPath>
</defs>
</svg>
