<svg width="233" height="80" viewBox="0 0 233 80" fill="none" xmlns="http://www.w3.org/2000/svg">
<rect width="232.872" height="79.5745" rx="8" fill="#14161D"/>
<path d="M106.667 26.3322H111.334V53.5528H106.667V26.3322ZM116.002 26.3322H125.52C127.591 26.3322 129.322 26.5655 130.659 27.0062C131.996 27.4469 133.071 28.0691 133.832 28.8468C134.586 29.582 135.145 30.4905 135.457 31.4911C135.773 32.5073 135.932 33.5648 135.929 34.628C135.934 35.7593 135.775 36.8855 135.457 37.9722C135.147 39.0196 134.59 39.9792 133.832 40.7721C132.938 41.6391 131.851 42.2872 130.659 42.6645C129.322 43.1312 127.643 43.3645 125.598 43.3645H120.59V53.5528H116.002V26.3322ZM125.493 39.5536C126.475 39.5823 127.456 39.4688 128.404 39.2166C129.067 39.0431 129.679 38.714 130.187 38.2574C130.619 37.8426 130.935 37.3247 131.105 36.7538C131.278 36.111 131.366 35.4487 131.367 34.7835C131.382 34.1088 131.294 33.4358 131.105 32.7874C130.93 32.2345 130.603 31.7407 130.161 31.3615C129.633 30.936 129.014 30.6347 128.351 30.4801C127.417 30.2521 126.456 30.1475 125.493 30.169H120.643V39.5536H125.493ZM156.932 26.3322V30.2986H144.031V37.9981H156.172V41.9905H144.031V53.5528H139.364V26.3322H156.932ZM163.802 45.231C164.011 47.0198 164.667 48.316 165.742 49.1197C166.817 49.9233 168.469 50.3381 170.619 50.3381C171.514 50.3636 172.408 50.2499 173.267 50.0011C173.895 49.8059 174.482 49.4984 174.998 49.0938C175.419 48.7327 175.736 48.2675 175.916 47.7457C176.098 47.2115 176.187 46.6503 176.178 46.0865C176.183 45.6563 176.121 45.2278 175.994 44.8163C175.85 44.3856 175.618 43.9886 175.313 43.6497C174.931 43.2577 174.477 42.941 173.975 42.7164C173.287 42.4229 172.565 42.214 171.825 42.0942L168.312 41.4461C167.055 41.226 165.819 40.9052 164.615 40.4869C163.622 40.1507 162.699 39.6414 161.888 38.9833C161.156 38.3686 160.588 37.5851 160.236 36.7019C159.842 35.649 159.656 34.5316 159.685 33.4095C159.643 32.2731 159.893 31.1446 160.411 30.1293C160.929 29.1139 161.699 28.2447 162.648 27.6025C163.646 26.9146 164.767 26.4218 165.952 26.1507C167.309 25.8304 168.7 25.6737 170.095 25.6841C171.983 25.6841 173.582 25.8915 174.867 26.3322C176.01 26.684 177.07 27.2568 177.987 28.0173C178.752 28.6886 179.368 29.5095 179.796 30.4282C180.206 31.3366 180.488 32.296 180.635 33.2799L176.23 33.9539C175.863 32.4244 175.26 31.3097 174.369 30.5579C173.477 29.8061 172.087 29.4431 170.147 29.4431C169.221 29.4283 168.297 29.5241 167.394 29.7283C166.753 29.8798 166.147 30.1527 165.611 30.5319C165.189 30.8403 164.855 31.2511 164.641 31.7245C164.452 32.1678 164.354 32.6435 164.352 33.1244C164.352 34.3169 164.667 35.1983 165.323 35.7946C165.978 36.3908 167.132 36.8316 168.784 37.1686L172.586 37.8944C175.496 38.4389 177.62 39.3462 178.983 40.6165C180.347 41.8868 181.029 43.7534 181.029 46.1643C181.038 47.2582 180.824 48.3428 180.399 49.353C179.974 50.3447 179.307 51.2174 178.459 51.8936C177.497 52.6663 176.393 53.2473 175.208 53.6046C173.738 54.0453 172.207 54.2552 170.672 54.2268C167.158 54.2268 164.379 53.5009 162.386 52.0232C160.393 50.5455 159.266 48.2901 159.082 45.231H163.802Z" fill="white"/>
<path d="M51.9453 52.5168L73.9706 65.0901L95.9959 52.5168V27.3702L73.9706 14.7969L51.9453 27.3702V52.5168Z" fill="#469EA2"/>
<path d="M71.7154 17.8047L55.7208 26.9301C55.747 27.2146 55.747 27.501 55.7208 27.7856L71.6891 36.9109C72.3457 36.431 73.1407 36.172 73.9572 36.172C74.7738 36.172 75.5688 36.431 76.2253 36.9109L92.1937 27.7856C92.1675 27.501 92.1675 27.2146 92.1937 26.9301L76.2515 17.8047C75.595 18.2846 74.8 18.5436 73.9835 18.5436C73.1669 18.5436 72.3719 18.2846 71.7154 17.8047ZM93.7407 30.3002L77.7461 39.5293C77.8328 40.3297 77.6614 41.1368 77.2564 41.8352C76.8514 42.5335 76.2336 43.0875 75.4911 43.4179L75.5174 61.565C75.7759 61.6778 76.022 61.8168 76.2515 61.9798L92.2199 52.8544C92.1332 52.054 92.3046 51.2469 92.7096 50.5485C93.1146 49.8502 93.7324 49.2962 94.4749 48.9658V30.715C94.2192 30.5965 93.9737 30.4578 93.7407 30.3002ZM54.2 30.4039C53.9705 30.5669 53.7244 30.7059 53.4658 30.8187V49.0695C54.2174 49.3882 54.8437 49.9399 55.2505 50.6413C55.6572 51.3427 55.8223 52.1558 55.7208 52.9581L71.6891 62.0835C71.9187 61.9205 72.1647 61.7815 72.4233 61.6687V43.4179C71.6718 43.0992 71.0454 42.5475 70.6387 41.8461C70.2319 41.1447 70.0669 40.3316 70.1684 39.5293L54.2 30.4039Z" fill="#6ACAD1"/>
<path d="M73.9706 17.5179L93.6623 28.769V51.2454L73.9706 62.4966L54.2789 51.2454V28.7431L73.9706 17.5179ZM73.9706 14.8477L51.9453 27.421V52.5676L73.9706 65.1409L95.9959 52.5676V27.421L73.9706 14.8477Z" fill="#469EA2"/>
<path d="M74.128 44.2199H73.8133C73.2723 44.2213 72.7364 44.117 72.2363 43.9129C71.7362 43.7089 71.2819 43.4091 70.8993 43.0309C70.5168 42.6527 70.2136 42.2034 70.0072 41.709C69.8008 41.2146 69.6953 40.6847 69.6967 40.1498V39.8387C69.6953 39.3038 69.8008 38.774 70.0072 38.2795C70.2136 37.7851 70.5168 37.3359 70.8993 36.9577C71.2819 36.5794 71.7362 36.2797 72.2363 36.0756C72.7364 35.8716 73.2723 35.7672 73.8133 35.7686H74.128C74.6689 35.7672 75.2049 35.8716 75.705 36.0756C76.205 36.2797 76.6594 36.5794 77.0419 36.9577C77.4245 37.3359 77.7277 37.7851 77.934 38.2795C78.1404 38.774 78.246 39.3038 78.2446 39.8387V40.1498C78.246 40.6847 78.1404 41.2146 77.934 41.709C77.7277 42.2034 77.4245 42.6527 77.0419 43.0309C76.6594 43.4091 76.205 43.7089 75.705 43.9129C75.2049 44.117 74.6689 44.2213 74.128 44.2199ZM74.128 60.9412H73.8133C73.0819 60.939 72.3633 61.1301 71.7317 61.4947C71.1001 61.8594 70.5786 62.3843 70.2211 63.0151L73.9706 65.1409L77.7202 63.0151C77.3627 62.3843 76.8411 61.8594 76.2096 61.4947C75.578 61.1301 74.8593 60.939 74.128 60.9412ZM96.0222 48.3678H95.8648C95.3238 48.3665 94.7879 48.4708 94.2878 48.6749C93.7878 48.8789 93.3334 49.1787 92.9509 49.5569C92.5683 49.9351 92.2651 50.3844 92.0587 50.8788C91.8524 51.3732 91.7468 51.9031 91.7482 52.438V52.7491C91.7444 53.44 91.9253 54.1197 92.2726 54.7193L96.0222 52.5676V48.3678ZM92.2726 25.2952C91.9284 25.896 91.7477 26.5749 91.7482 27.2654V27.5765C91.7468 28.1114 91.8524 28.6413 92.0587 29.1357C92.2651 29.6301 92.5683 30.0794 92.9509 30.4576C93.3334 30.8358 93.7878 31.1355 94.2878 31.3396C94.7879 31.5437 95.3238 31.648 95.8648 31.6466H96.0222V27.421L92.2726 25.2952ZM73.9706 14.8477L70.2211 16.9735C70.5769 17.6077 71.0973 18.1366 71.7288 18.5057C72.3602 18.8748 73.0798 19.0708 73.8133 19.0733H74.128C74.8593 19.0755 75.578 18.8844 76.2096 18.5197C76.8411 18.1551 77.3627 17.6302 77.7202 16.9994L73.9706 14.8477ZM55.6949 25.2692L51.9453 27.421V31.6466H52.1026C52.6436 31.648 53.1796 31.5437 53.6796 31.3396C54.1797 31.1355 54.6341 30.8358 55.0166 30.4576C55.3992 30.0794 55.7023 29.6301 55.9087 29.1357C56.1151 28.6413 56.2207 28.1114 56.2193 27.5765V27.2654C56.2104 26.5679 56.0304 25.8829 55.6949 25.2692ZM52.1026 48.3678H51.9453V52.5676L55.6949 54.7193C56.0391 54.1185 56.2197 53.4396 56.2193 52.7491V52.438C56.2207 51.9031 56.1151 51.3732 55.9087 50.8788C55.7023 50.3844 55.3992 49.9351 55.0166 49.5569C54.6341 49.1787 54.1797 48.8789 53.6796 48.6749C53.1796 48.4708 52.6436 48.3665 52.1026 48.3678Z" fill="#469EA2"/>
<path d="M73.9706 65.2693V40.0967L51.9453 27.5234V52.696L73.9706 65.2693Z" fill="#083B54" fill-opacity="0.15"/>
<path d="M96.0214 52.463V27.3164L73.9961 39.8897V65.0623L96.0214 52.463Z" fill="#083B54" fill-opacity="0.05"/>
</svg>
