<svg width="233" height="80" viewBox="0 0 233 80" fill="none" xmlns="http://www.w3.org/2000/svg">
<rect width="232.872" height="79.5745" rx="8" fill="#14161D"/>
<path d="M95.55 48L90.675 30.85H93.45L97.025 43.675H97.125L100.75 30.85H103.35L106.95 43.675H107.05L110.625 30.85H113.125L108.225 48H105.475L101.975 35.575H101.85L98.35 48H95.55ZM116.054 48V30.85H127.404L127.079 32.95H118.704V38.2H126.279V40.3H118.704V45.9H127.229L127.579 48H116.054ZM130.922 48V30.85H138.697C139.597 30.85 140.372 31.025 141.022 31.375C141.689 31.7083 142.197 32.1833 142.547 32.8C142.914 33.4 143.097 34.0917 143.097 34.875C143.097 35.725 142.947 36.4333 142.647 37C142.347 37.5667 141.964 38.0083 141.497 38.325C141.047 38.6417 140.597 38.875 140.147 39.025V39.175C140.431 39.225 140.764 39.325 141.147 39.475C141.531 39.625 141.897 39.85 142.247 40.15C142.614 40.4333 142.914 40.8167 143.147 41.3C143.381 41.7833 143.497 42.3833 143.497 43.1C143.497 44.0333 143.281 44.875 142.847 45.625C142.431 46.3583 141.856 46.9417 141.122 47.375C140.389 47.7917 139.547 48 138.597 48H130.922ZM133.497 45.925H138.097C138.631 45.925 139.106 45.8 139.522 45.55C139.939 45.2833 140.264 44.9333 140.497 44.5C140.747 44.0667 140.872 43.5917 140.872 43.075C140.872 42.525 140.747 42.0417 140.497 41.625C140.247 41.2083 139.914 40.8833 139.497 40.65C139.081 40.4167 138.614 40.3 138.097 40.3H133.497V45.925ZM133.497 38.225H137.822C138.356 38.225 138.822 38.1 139.222 37.85C139.639 37.5833 139.956 37.2417 140.172 36.825C140.406 36.3917 140.522 35.925 140.522 35.425C140.522 34.625 140.314 34.0083 139.897 33.575C139.497 33.125 138.906 32.9 138.122 32.9H133.497V38.225ZM152.28 48.25C151.08 48.25 150.039 48.0417 149.155 47.625C148.289 47.2083 147.622 46.6333 147.155 45.9C146.689 45.1667 146.455 44.3333 146.455 43.4V42.95H148.83C148.83 44.1 149.164 44.9333 149.83 45.45C150.497 45.9667 151.397 46.225 152.53 46.225C153.614 46.225 154.505 45.9667 155.205 45.45C155.905 44.9333 156.255 44.1667 156.255 43.15C156.255 42.45 156.097 41.8833 155.78 41.45C155.464 41 155.03 40.675 154.48 40.475C153.947 40.2583 153.364 40.15 152.73 40.15H150.58V38.325H152.505C153.105 38.325 153.664 38.2167 154.18 38C154.697 37.7833 155.105 37.4583 155.405 37.025C155.722 36.5917 155.88 36.0583 155.88 35.425C155.88 34.7917 155.73 34.275 155.43 33.875C155.13 33.4583 154.722 33.15 154.205 32.95C153.705 32.75 153.139 32.65 152.505 32.65C151.472 32.65 150.655 32.9083 150.055 33.425C149.455 33.9417 149.155 34.6917 149.155 35.675H146.88V35.25C146.88 34.3 147.13 33.4833 147.63 32.8C148.147 32.1 148.83 31.5583 149.68 31.175C150.53 30.7917 151.489 30.6 152.555 30.6H152.905C153.939 30.6 154.872 30.7833 155.705 31.15C156.539 31.5167 157.197 32.05 157.68 32.75C158.164 33.4333 158.405 34.25 158.405 35.2C158.405 35.8667 158.28 36.45 158.03 36.95C157.797 37.4333 157.48 37.85 157.08 38.2C156.68 38.5333 156.23 38.8167 155.73 39.05V39.175C156.614 39.4583 157.347 39.9417 157.93 40.625C158.514 41.2917 158.805 42.1917 158.805 43.325C158.805 44.2917 158.539 45.1417 158.005 45.875C157.472 46.6083 156.739 47.1917 155.805 47.625C154.889 48.0417 153.847 48.25 152.68 48.25H152.28ZM162.211 48V45.325H164.886V48H162.211ZM172.483 48.25C171.533 48.25 170.683 48.075 169.933 47.725C169.2 47.375 168.617 46.8583 168.183 46.175C167.767 45.4917 167.558 44.6583 167.558 43.675V42.8H170.008V43.525C170.008 44.4417 170.25 45.1083 170.733 45.525C171.233 45.9417 171.858 46.15 172.608 46.15C173.108 46.15 173.558 46.0583 173.958 45.875C174.358 45.6917 174.675 45.4 174.908 45C175.142 44.6 175.258 44.075 175.258 43.425V30.85H177.933V43.375C177.933 44.4083 177.7 45.2917 177.233 46.025C176.783 46.7583 176.175 47.3167 175.408 47.7C174.642 48.0667 173.775 48.25 172.808 48.25H172.483ZM187.814 48.25C186.631 48.25 185.547 48.0833 184.564 47.75C183.597 47.4167 182.822 46.875 182.239 46.125C181.656 45.375 181.364 44.375 181.364 43.125C181.364 43.0583 181.364 42.9833 181.364 42.9C181.364 42.8 181.372 42.7083 181.389 42.625H183.864C183.847 42.725 183.839 42.8167 183.839 42.9C183.839 42.9833 183.839 43.075 183.839 43.175C183.839 43.8583 184.006 44.4167 184.339 44.85C184.672 45.2833 185.139 45.6083 185.739 45.825C186.339 46.0417 187.031 46.15 187.814 46.15C188.647 46.15 189.364 46.0583 189.964 45.875C190.564 45.6917 191.022 45.3917 191.339 44.975C191.672 44.5417 191.839 43.9833 191.839 43.3C191.839 42.6833 191.656 42.1917 191.289 41.825C190.922 41.4417 190.439 41.1417 189.839 40.925C189.239 40.7083 188.581 40.5167 187.864 40.35C187.147 40.1667 186.431 39.9667 185.714 39.75C185.014 39.5333 184.364 39.25 183.764 38.9C183.164 38.55 182.681 38.0833 182.314 37.5C181.947 36.9167 181.764 36.175 181.764 35.275C181.764 34.2083 182.047 33.3333 182.614 32.65C183.197 31.9667 183.956 31.4583 184.889 31.125C185.839 30.775 186.872 30.6 187.989 30.6C189.106 30.6 190.122 30.7667 191.039 31.1C191.972 31.4167 192.714 31.925 193.264 32.625C193.814 33.3083 194.089 34.2167 194.089 35.35V35.675H191.664V35.275C191.664 34.7083 191.506 34.2333 191.189 33.85C190.872 33.4667 190.447 33.1833 189.914 33C189.381 32.8 188.756 32.7 188.039 32.7C187.339 32.7 186.714 32.7833 186.164 32.95C185.631 33.1 185.206 33.35 184.889 33.7C184.572 34.0333 184.414 34.4833 184.414 35.05C184.414 35.6333 184.597 36.1 184.964 36.45C185.331 36.8 185.814 37.0833 186.414 37.3C187.014 37.5 187.672 37.6833 188.389 37.85C189.122 38.0167 189.847 38.2083 190.564 38.425C191.281 38.6417 191.939 38.9333 192.539 39.3C193.139 39.65 193.622 40.1167 193.989 40.7C194.356 41.2833 194.539 42.0333 194.539 42.95C194.539 44.2333 194.239 45.2667 193.639 46.05C193.039 46.8167 192.231 47.375 191.214 47.725C190.197 48.075 189.064 48.25 187.814 48.25Z" fill="white"/>
<path d="M50.8249 26.2202C50.8249 26.2202 49.2282 27.142 49.2282 28.9828V38.1835C49.2282 38.1835 49.2282 40.0271 47.6316 39.1053C46.035 38.1835 46.035 36.3428 46.035 36.3428V27.142C46.035 27.0272 46.0407 26.9152 46.0522 26.8061C46.2274 25.1864 47.6287 24.3766 47.6287 24.3766L44.4383 22.5359C44.4383 22.5359 44.4354 22.5359 44.4326 22.5387C44.3378 22.5933 42.8417 23.5151 42.8417 25.2984V34.4992C42.8417 34.4992 42.8417 36.3428 41.2451 35.421C39.6484 34.4992 39.6484 32.6585 39.6484 32.6585V23.4577C39.6484 21.6169 41.2451 20.6952 41.2451 20.6952L38.0546 18.8516C38.0546 18.8516 36.458 19.7734 36.458 21.6141V30.8149C36.458 30.8149 36.458 36.3428 41.2451 39.1053C42.7125 39.9525 43.7291 40.0185 44.4354 39.7055C45.1419 40.8341 46.1584 41.9425 47.6258 42.7897C52.4129 45.5522 52.4129 40.0271 52.4129 40.0271V30.8264C52.4129 28.9828 54.0096 28.0638 54.0096 28.0638C53.5188 27.4464 53.0824 27.0272 52.7003 26.8061C52.3746 26.6175 51.7495 26.4222 50.8249 26.2202Z" fill="#808285"/>
<path d="M68.3738 41.8775C68.3738 36.4213 73.1609 39.1149 73.1609 39.1149L79.5417 42.7993V46.4836L73.1609 42.7993C73.1609 42.7993 73.1408 42.7876 73.1051 42.7696L73.084 42.7592C72.7654 42.6034 71.5642 42.1224 71.5642 43.7239C71.5642 45.5647 73.1609 46.4865 73.1609 46.4865L76.3513 48.3272C76.3513 48.3272 79.5417 50.1708 79.5417 55.6959C79.5417 61.2209 74.7546 58.4584 74.7546 58.4584L68.3738 54.7741V51.0897L74.7575 54.7741C74.7575 54.7741 76.3541 55.6959 76.3541 53.8523C76.3541 52.0115 74.7575 51.0897 74.7575 51.0897L73.1609 50.1679C73.0656 50.111 68.3738 47.279 68.3738 41.8775ZM63.5868 33.5898C64.5409 33.6995 65.1877 33.8524 65.5272 34.0486C65.8967 34.2621 66.3133 34.7237 66.7772 35.4334C66.7772 35.4334 65.1806 36.3552 65.1806 38.196L65.1804 47.4113C65.1763 47.7208 65.0369 52.839 60.3935 50.1593C55.7501 47.4796 55.6108 42.198 55.6066 41.8835L55.6064 41.8689L58.7969 43.7125L58.7969 43.7186C58.7987 43.8355 58.8507 45.5842 60.3935 46.475C61.9413 47.3685 61.9886 45.6634 61.9901 45.5582L61.9902 36.3524C61.9902 34.5116 63.5868 33.5898 63.5868 33.5898ZM55.6122 34.5318L58.8026 36.3725V40.0568L55.6122 38.2161V34.5318Z" fill="#BCBEC0"/>
<path d="M73.1609 26.2199C71.6906 25.3699 70.3725 24.9564 69.2497 24.7898C68.9568 24.1494 68.2389 23.3971 66.7801 22.5643C61.993 19.8305 57.2089 22.5356 57.2089 22.5356L50.8252 26.2199L54.0156 28.0606L60.3964 24.3763C60.3964 24.3763 61.993 23.4545 63.5868 24.3763C65.1835 25.2981 63.5868 26.2199 63.5868 26.2199L57.206 29.9042L60.3964 31.745L66.783 28.0578C66.8777 28.0032 68.4227 27.1676 69.9676 28.0606C71.5643 28.9824 69.9676 29.9014 69.9676 29.9014L63.5868 33.5857L66.7772 35.4293L74.7547 30.8232C74.7547 30.8232 77.9451 28.9824 73.1609 26.2199Z" fill="#F16822"/>
</svg>
