<svg width="233" height="80" viewBox="0 0 233 80" fill="none" xmlns="http://www.w3.org/2000/svg">
<rect width="232.872" height="79.5745" rx="8" fill="#14161D"/>
<g clip-path="url(#clip0_605_749)">
<path d="M67.59 14.5416C67.376 14.559 67.162 14.5807 66.9501 14.6045L65.0715 12.5891C64.771 12.2706 64.2695 12.2532 63.9517 12.5545C63.8631 12.6368 63.7961 12.7387 63.7528 12.8514L62.7887 15.4323C62.5833 15.493 62.3779 15.5537 62.1747 15.6187L59.9373 14.0064C59.5827 13.7507 59.0898 13.8309 58.8347 14.1863C58.7634 14.2859 58.7158 14.4008 58.6964 14.5221L58.2511 17.2548C58.063 17.3523 57.8749 17.4542 57.6911 17.556L55.177 16.4075C55.0732 16.3598 54.9629 16.336 54.8505 16.336C54.4117 16.3381 54.0572 16.6979 54.0593 17.1378C54.0593 17.1443 54.0593 17.1508 54.0593 17.1573L54.1566 19.9333C53.9945 20.0633 53.8345 20.1955 53.6767 20.3298L50.9766 19.6927C50.5507 19.593 50.1248 19.8618 50.0254 20.2887C49.9973 20.4057 49.9973 20.5292 50.0254 20.6462L50.661 23.3529C50.5269 23.5111 50.3951 23.6736 50.2654 23.8339L47.4961 23.7364H47.4658C47.0313 23.7386 46.6789 24.0918 46.6768 24.5274C46.6768 24.6423 46.7005 24.7528 46.7481 24.8568L47.8939 27.3771C47.7923 27.5613 47.6906 27.7498 47.5934 27.9383L44.8673 28.3847C44.435 28.4584 44.1431 28.868 44.2166 29.3014C44.2361 29.4206 44.2836 29.5311 44.3528 29.6286L45.9612 31.8715C45.8963 32.0774 45.8337 32.2811 45.7753 32.487L43.2006 33.4535C42.792 33.6073 42.5845 34.0646 42.738 34.4763C42.7812 34.589 42.8482 34.693 42.9368 34.7754L44.9473 36.6585C44.9235 36.8709 44.9019 37.0854 44.8846 37.3L42.5456 38.7519C42.1737 38.9816 42.0592 39.4714 42.2905 39.8441C42.3553 39.9481 42.4418 40.037 42.5456 40.0998L44.8868 41.5517C44.9041 41.7663 44.9257 41.9808 44.9495 42.1932L42.939 44.0763C42.6191 44.3732 42.6018 44.8738 42.8979 45.1945C42.9822 45.2856 43.086 45.3549 43.2027 45.3982L45.7775 46.3647C45.838 46.5706 45.8985 46.7765 45.9634 46.9802L44.355 49.2231C44.0999 49.5763 44.1777 50.0726 44.5323 50.3283C44.6317 50.3998 44.7484 50.4496 44.8695 50.4691L47.5955 50.9155C47.6928 51.1041 47.7944 51.2904 47.896 51.4746L46.7503 53.9971C46.5687 54.3958 46.7438 54.8661 47.1415 55.0459C47.2453 55.0936 47.3577 55.1174 47.4701 55.1174H47.4982L50.2697 55.0199C50.3994 55.1825 50.5313 55.3428 50.6631 55.501L50.0276 58.2077C49.9281 58.6346 50.1962 59.0615 50.622 59.1612C50.7388 59.1893 50.862 59.1893 50.9787 59.1612L53.681 58.524C53.8388 58.6584 53.9988 58.7884 54.1588 58.9184L54.0615 61.6966V61.7269C54.0636 62.1625 54.416 62.5157 54.8505 62.5179C54.9651 62.5179 55.0775 62.4941 55.1791 62.4464L57.6955 61.2979C57.8814 61.4019 58.0673 61.5016 58.2554 61.5991L58.7007 64.3317C58.772 64.7651 59.1806 65.0577 59.613 64.984C59.7319 64.9645 59.8443 64.9168 59.9437 64.8475L62.1812 63.2352C62.3844 63.3002 62.5898 63.3631 62.7952 63.4216L63.7593 66.0025C63.9128 66.4121 64.369 66.6201 64.7775 66.4663C64.8921 66.4229 64.9937 66.3557 65.078 66.2647L66.9566 64.2494C67.1685 64.2732 67.3825 64.2949 67.5965 64.3122L69.0449 66.657C69.2741 67.0297 69.7605 67.1446 70.1323 66.9148C70.2361 66.8498 70.3247 66.761 70.3896 66.657L71.838 64.3122C72.052 64.2949 72.266 64.2732 72.4779 64.2494L74.3565 66.2647C74.5424 66.4641 74.8191 66.5551 75.0893 66.5009C75.3574 66.4468 75.5801 66.2582 75.6752 66.0025L76.6393 63.4216C76.8447 63.3609 77.0501 63.3002 77.2533 63.2352L79.4908 64.8475C79.8453 65.1032 80.3404 65.0209 80.5954 64.6633C80.6668 64.5636 80.7122 64.4509 80.7338 64.3296L81.1791 61.5969C81.3672 61.4994 81.5531 61.3975 81.7369 61.2957L84.2532 62.4442C84.357 62.4919 84.4694 62.5157 84.5818 62.5157C85.0142 62.5157 85.3709 62.1582 85.3709 61.7248V61.6966L85.2736 58.9184C85.4357 58.7884 85.5957 58.6584 85.7535 58.524L88.4536 59.1612C88.8795 59.2608 89.3053 58.9921 89.4048 58.5652C89.4329 58.4482 89.4329 58.3247 89.4048 58.2077L88.7692 55.501C88.9033 55.3428 89.033 55.1825 89.1627 55.0199L91.9341 55.1174H91.9622C92.3967 55.1174 92.7534 54.7599 92.7534 54.3243C92.7534 54.2094 92.7296 54.0989 92.6821 53.9949L91.5363 51.4725C91.6401 51.2883 91.7395 51.0997 91.8368 50.9134L94.5628 50.467C94.9952 50.3954 95.2871 49.988 95.2157 49.5546C95.1963 49.4354 95.1487 49.3206 95.0774 49.2209L93.469 46.978C93.5338 46.7743 93.5965 46.5684 93.6549 46.3626L96.2296 45.3961C96.6382 45.2444 96.8457 44.7893 96.6944 44.3797C96.6512 44.2627 96.582 44.1587 96.4912 44.0742L94.4807 42.191C94.5045 41.9765 94.5261 41.7641 94.5434 41.5496L96.8825 40.0976C97.2543 39.8658 97.3689 39.3782 97.1376 39.0054C97.0727 38.9014 96.9862 38.8147 96.8825 38.7497L94.5434 37.2978C94.5261 37.0833 94.5045 36.8687 94.4807 36.6564L96.4912 34.7732C96.8111 34.4741 96.8263 33.9714 96.5279 33.6507C96.4458 33.5618 96.3442 33.4946 96.2296 33.4513L93.6549 32.4848C93.5944 32.2789 93.5338 32.0731 93.469 31.8694L95.0774 29.6265C95.3325 29.2711 95.2503 28.7748 94.8958 28.5191C94.7963 28.4476 94.6817 28.3999 94.5628 28.3804L91.8368 27.934C91.7395 27.7455 91.6379 27.5591 91.5363 27.3727L92.6821 24.8503C92.7296 24.7463 92.7534 24.6336 92.7534 24.5209C92.7534 24.0853 92.3967 23.7299 91.9644 23.7299H91.9363L89.1648 23.8274C89.0351 23.6649 88.9054 23.5067 88.7714 23.3485L89.4069 20.6397C89.5042 20.2106 89.2383 19.7859 88.8103 19.6862C88.6936 19.6602 88.5725 19.6602 88.4558 19.6862L85.747 20.3298C85.5892 20.1955 85.4292 20.0655 85.2671 19.9354L85.3644 17.1573V17.1291C85.3644 16.6935 85.0077 16.336 84.5732 16.336C84.4607 16.336 84.3483 16.3598 84.2446 16.4075L81.7282 17.556C81.5423 17.4542 81.3564 17.3523 81.1705 17.2548L80.7251 14.5221C80.6538 14.0909 80.2474 13.7962 79.8172 13.8677C79.6961 13.8872 79.5837 13.9349 79.4843 14.0064L77.2468 15.6187C77.0436 15.5537 76.8382 15.4908 76.6329 15.4323L75.6687 12.8514C75.5174 12.4418 75.0634 12.2337 74.6548 12.3854C74.5402 12.4288 74.4365 12.4981 74.3522 12.587L72.4736 14.6023C72.2595 14.5785 72.0477 14.5568 71.8337 14.5395L70.3852 12.1926C70.1561 11.8198 69.6697 11.705 69.2979 11.9347C69.1941 11.9997 69.1055 12.0886 69.0406 12.1926C69.0384 12.1947 67.59 14.5416 67.59 14.5416ZM65.1407 41.2917H70.355C70.8284 41.2917 72.9016 41.4282 73.5588 44.0807C73.7641 44.8933 74.2225 47.5458 74.5337 48.3974C74.845 49.3488 76.1054 51.2514 77.4479 51.2514H85.9546C85.3838 52.0164 84.7612 52.7402 84.0889 53.4185L80.6257 52.673C79.8194 52.504 79.026 53.0176 78.8487 53.8237L78.0272 57.6702C72.6768 60.0973 66.5351 60.067 61.2084 57.59L60.3869 53.7435C60.214 52.9374 59.4206 52.4216 58.6164 52.5928L55.2267 53.321C54.5976 52.6708 54.0139 51.9796 53.4756 51.2493H69.9572C70.141 51.2493 70.2685 51.2168 70.2685 51.0434V45.201C70.2685 45.032 70.141 44.9952 69.9572 44.9952H65.1342C65.1364 44.9952 65.1407 41.2917 65.1407 41.2917ZM81.8082 54.749C82.6924 54.7816 83.3928 55.5053 83.3993 56.3917C83.3993 57.2932 82.66 58.0343 81.7607 58.0343C80.8592 58.0256 80.1307 57.2953 80.122 56.3917C80.1307 55.488 80.8592 54.7555 81.7607 54.749H81.8082ZM57.5355 54.6754C58.4197 54.7079 59.1201 55.4317 59.1266 56.318C59.1179 57.2216 58.3894 57.9519 57.4879 57.9606C56.5865 57.9519 55.8579 57.2216 55.8493 56.318C55.8579 55.4143 56.5865 54.6819 57.4879 54.6754H57.5355ZM185.246 27.973H177.985V29.5181C177.985 30.9939 177.198 32.0254 175.382 32.0254V37.6554H176.889V43.8683C176.889 49.7042 179.561 51.5938 184.183 51.5938C187.505 51.5938 190.073 50.5645 190.073 50.5645V45.175C190.073 45.175 188.497 45.4849 187.231 45.4849C185.929 45.4849 185.244 44.8326 185.244 43.2875V37.6575H189.868V32.0276H185.244L185.246 27.973ZM158.154 50.5298C158.154 50.5298 161.203 51.5938 166.408 51.5938C172.334 51.5938 175.04 49.0865 175.04 45.0017C175.04 41.0186 172.574 39.0965 167.299 38.5482C165.176 38.3423 164.696 38.1018 164.696 37.5535C164.696 37.0053 165.483 36.73 167.333 36.73C170.142 36.73 173.84 37.2111 173.84 37.2111V32.5758C173.84 32.5758 171.136 31.5465 165.896 31.5465C159.663 31.5465 157.162 34.2574 157.162 37.8287C157.162 41.6731 160.04 43.6993 164.8 44.3516C166.957 44.6614 167.437 44.8673 167.437 45.4849C167.437 46.0332 166.992 46.3777 164.971 46.3777C162.437 46.3777 158.154 45.7601 158.154 45.7601V50.5298ZM143.257 32.0254H133.873V37.6554H135.38V43.2854C135.38 49.0194 137.708 51.5938 141.442 51.5938C144.524 51.5938 146.133 49.8775 147.229 48.7788V51.1127H156.613V45.4827H155.106V32.0254H145.38V37.6554H147.229V43.2854C147.229 44.8305 146.543 45.4827 145.242 45.4827C143.941 45.4827 143.255 44.8305 143.255 43.2854L143.257 32.0254ZM119.318 39.8528C122.16 39.8528 123.326 40.2992 123.326 43.0448V51.1127H134.182V45.4827H132.574V42.8389C132.574 40.4357 131.478 39.1311 129.286 38.7887L129.251 38.4463C131.579 37.5535 132.814 35.1503 132.814 32.1294C132.814 26.4647 129.355 24.4039 123.739 24.4039H107.676V30.0339H109.73V45.4827H107.676V51.1127H121.581V45.4827H119.32C119.318 45.4827 119.318 39.8528 119.318 39.8528ZM73.4269 19.3763C79.2508 20.4729 84.2986 24.0767 87.2365 29.2364L85.3017 33.6117C84.9753 34.3701 85.3125 35.2499 86.0605 35.5923L89.7809 37.2458C89.8955 38.4117 89.9107 39.5862 89.822 40.7543H87.751C87.5456 40.7543 87.4613 40.8908 87.4613 41.0923V42.0436C87.4613 44.2844 86.201 44.7763 85.0942 44.8976C84.0392 45.019 82.874 44.4534 82.727 43.8098C82.1044 40.3057 81.071 39.5602 79.4367 38.2665C81.4666 36.9771 83.5744 35.0701 83.5744 32.5238C83.5744 29.7717 81.6936 28.038 80.4117 27.1885C78.6087 25.9988 76.6156 25.7626 76.0794 25.7626H54.6798C57.6393 22.4492 61.6062 20.2063 65.9644 19.3807L68.4893 22.0331C69.0557 22.6291 69.9961 22.6529 70.5906 22.0873C70.5928 22.0851 70.5949 22.083 70.5971 22.0808C70.6014 22.0765 73.4269 19.3763 73.4269 19.3763ZM53.2184 31.8759H56.0763V44.7893H50.3108C49.5995 42.282 49.3769 39.6621 49.6579 37.0703L53.1903 35.4948C53.9426 35.1589 54.282 34.2748 53.9491 33.5185C53.9469 33.5206 53.2184 31.8759 53.2184 31.8759ZM65.1407 32.0146H71.9461C72.2984 32.0146 74.43 32.422 74.43 34.0212C74.43 35.3475 72.7957 35.8221 71.451 35.8221H65.1364L65.1407 32.0146ZM119.318 35.6639V30.0339H121.166C122.467 30.0339 123.153 30.6862 123.153 32.2313V33.4665C123.153 35.0116 122.467 35.6639 121.166 35.6639H119.318ZM89.2124 31.6136C90.0966 31.6462 90.797 32.3699 90.8035 33.2563C90.7948 34.1599 90.0663 34.8902 89.1648 34.8989C88.2634 34.8902 87.5348 34.1599 87.5262 33.2563C87.5348 32.3504 88.2677 31.618 89.1735 31.6136H89.2124ZM50.1292 31.5378C51.0133 31.5703 51.7138 32.2941 51.7202 33.1804C51.7116 34.0841 50.9831 34.8144 50.0816 34.823C49.1801 34.8144 48.4516 34.0841 48.443 33.1804C48.4516 32.2768 49.1801 31.5443 50.0816 31.5378H50.1292ZM69.674 16.6697C70.5582 16.7022 71.2608 17.426 71.2651 18.3123C71.2651 19.2138 70.5258 19.9549 69.6265 19.9549C68.725 19.9463 67.9965 19.216 67.9878 18.3123V18.3101C67.9878 17.4087 68.7271 16.6675 69.6265 16.6675C69.6265 16.6697 69.674 16.6697 69.674 16.6697Z" fill="white"/>
</g>
<defs>
<clipPath id="clip0_605_749">
<rect width="148" height="55" fill="white" transform="translate(42 12)"/>
</clipPath>
</defs>
</svg>
