<svg width="233" height="80" viewBox="0 0 233 80" fill="none" xmlns="http://www.w3.org/2000/svg">
<rect width="232.872" height="79.5745" rx="8" fill="#14161D"/>
<path d="M101.985 28.699H107.672L99.9403 53.3996H95.0896L89.4329 39.5632L84 53.385H79.1493L71.209 28.699H77L81.9254 45.0978L88.5373 28.9479H90.3732L97.1642 45.0978L101.985 28.699ZM126.164 53.3996L124.403 48.7143H114.358L112.627 53.3996H106.881L116.731 28.699H121.881L132.06 53.3996H126.164ZM119.358 35.2292L116.09 44.0436H122.672L119.358 35.2292ZM145.239 40.4856H158.657C158.627 44.395 157.418 47.6161 155.03 50.1492C152.627 52.6675 149.552 53.9267 145.791 53.9267C142.075 53.9267 138.97 52.7115 136.478 50.2956C134.015 47.8504 132.776 44.7756 132.776 41.0859C132.776 37.3669 134 34.2922 136.448 31.847C138.896 29.4018 141.97 28.1719 145.687 28.1719C148.821 28.1719 151.567 29.0504 153.925 30.822C156.269 32.5644 157.731 34.8193 158.313 37.6012H152.702C152.343 36.708 151.821 35.9467 151.149 35.3024C150.478 34.6436 149.672 34.1311 148.746 33.7797C147.836 33.4283 146.851 33.2526 145.791 33.2526C143.567 33.2526 141.746 33.9847 140.358 35.4342C138.97 36.8984 138.269 38.7725 138.269 41.0713C138.269 42.5794 138.582 43.9118 139.209 45.0978C139.836 46.2691 140.702 47.1915 141.836 47.8504C142.985 48.5093 144.299 48.8314 145.791 48.8314C146.866 48.8314 147.896 48.6557 148.851 48.3043C149.806 47.9529 150.627 47.4551 151.299 46.8255C152 46.1666 152.493 45.4199 152.806 44.5999H145.254V40.4856H145.239ZM193.463 53.3996H187.925L185.448 37.2791L177.94 53.3703H176.612L169.09 37.2791L166.597 53.3996H161.03L164.985 28.699H170.448L177.239 43.8386L184.075 28.699H189.537L193.463 53.3996ZM197.657 53.3996V28.699H203.119V53.3996H197.657Z" fill="white"/>
<path d="M69.9702 40.3985L66.6568 38.5243C65.7165 30.1347 58.9254 23.458 50.3732 22.5356L48.4777 19.3437C48.403 19.2266 48.2388 19.2266 48.1642 19.3437L46.2986 22.5356C37.7016 23.4434 30.8807 30.164 29.9703 38.6122L26.821 40.3985C26.7016 40.4717 26.7016 40.6327 26.821 40.6913L29.9852 42.4776C30.9106 50.8966 37.7314 57.5879 46.3135 58.4957L48.1791 61.6583C48.2538 61.7754 48.418 61.7754 48.4926 61.6583L50.3583 58.4957C58.9105 57.5879 65.7015 50.9405 66.6568 42.5655L69.9702 40.6767C70.0896 40.6327 70.0896 40.457 69.9702 40.3985ZM48.3135 25.0101C48.8508 25.3908 49.403 25.7861 49.9553 26.1668C49.9403 26.7817 49.9403 27.382 49.9254 27.997C48.8956 27.997 47.8508 27.997 46.8209 28.0116C46.8209 27.3967 46.806 26.7817 46.806 26.1814C47.2985 25.7861 47.806 25.4054 48.3135 25.0101ZM31.9553 40.5156C31.9553 39.2271 32.1046 37.9826 32.4031 36.7673C33.2389 34.3075 34.5673 32.5798 35.4628 31.5842C35.2389 32.2137 34.5673 34.3222 35.4628 36.738C36.5673 39.7542 39.2389 40.9695 39.7165 41.1891C37.1344 41.1745 34.5523 41.1452 31.9703 41.1306C31.9703 40.9256 31.9553 40.7206 31.9553 40.5156ZM44.9403 43.4293C44.5224 44.2639 43.6418 44.4542 43.5224 44.4835C43 44.9228 41.9851 45.9038 41.5672 47.4704C40.6717 50.838 43.4777 53.5614 43.612 53.6785C42.612 53.5468 38.3583 52.8586 35.4628 49.1689C33.8956 47.1776 33.3732 45.1278 33.1792 43.9564C33.7165 44.3664 34.4926 44.8349 35.5225 45.0399C38.7762 45.6695 41.3583 42.9754 41.5672 42.7412C41.5523 42.6533 41.403 41.7309 42.0597 41.1159C42.7165 40.501 43.8359 40.5742 44.5075 41.1599C45.1941 41.7602 45.2986 42.7265 44.9403 43.4293ZM49.9553 55.582C49.4777 56.2701 48.6269 56.2994 48.4926 56.3141C48.3583 56.3141 47.3732 56.3433 46.8359 55.5527C46.4627 54.9963 46.4478 54.2789 46.7911 53.6785C46.806 53.6493 46.9254 53.5321 46.8956 53.3418C46.8806 53.2246 46.8209 53.1514 46.7911 53.1075V35.7717C47.8359 35.7717 48.8806 35.7863 49.9254 35.7863C49.9254 41.5405 49.9105 47.2947 49.9105 53.0489C49.8956 53.0489 49.7612 53.1514 49.7612 53.3125C49.7612 53.4882 49.8956 53.5907 49.9105 53.5907C50.3284 54.2349 50.3433 55.0109 49.9553 55.582ZM50.015 33.7218C48.9403 33.7218 47.8508 33.7072 46.7762 33.7072C46.5821 33.6926 46.2986 33.6926 45.9702 33.7218C44.2986 33.9122 43.209 34.9957 42.9254 35.2739C41.8359 36.3866 41.5523 37.6605 41.4777 38.1729C41.1493 37.8801 38.4628 35.4349 38.7165 31.5696C38.9106 28.6851 40.612 26.811 41.5672 25.9471C42.2239 28.2459 44.3732 29.9443 46.9254 29.9443H49.7314C52.2986 29.9443 54.4627 28.2459 55.1045 25.9179C55.5523 26.3132 57.7165 28.3045 57.9105 31.6135C58.1344 35.3471 55.6568 37.7776 55.2986 38.129C55.2388 37.6898 55.015 36.2988 53.806 35.1421C52.7314 34.1172 51.5075 33.8829 51.1194 33.8097C50.6866 33.7218 50.2985 33.7072 50.015 33.7218ZM61.3433 49.1835C61.0299 49.5935 59.4627 51.5116 56.6269 52.7415C55.2687 53.3271 54.0448 53.5761 53.1941 53.6932C53.6866 53.2393 54.6269 52.2437 55.0896 50.677C55.2687 50.0913 55.612 48.92 55.2388 47.4704C54.806 45.8159 53.7165 44.8349 53.2836 44.4835C52.3881 44.2639 51.7463 43.5465 51.6717 42.7412C51.6717 42.6826 51.5971 41.7894 52.2985 41.1891C52.8956 40.6767 53.9254 40.4863 54.6269 41.0427C55.1194 41.438 55.3433 42.0969 55.2239 42.7558C55.4478 43.0047 58.015 45.6695 61.2687 45.0546C62.2986 44.8642 63.0896 44.3957 63.612 43.9857C63.4478 45.0546 62.9553 47.1337 61.3433 49.1835ZM64.6568 41.1745C62.0597 41.1745 59.4627 41.1745 56.8657 41.1599C57.3284 40.9695 60.0597 39.7542 61.1642 36.7088C62.0299 34.3075 61.3583 32.243 61.1344 31.6135C61.9851 32.4773 63.403 34.1611 64.209 36.7088C64.209 36.7088 64.209 36.7088 64.209 36.7234C64.5075 37.9533 64.6717 39.2271 64.6717 40.5156C64.6717 40.7352 64.6717 40.9549 64.6568 41.1745Z" fill="white"/>
</svg>
