<svg width="233" height="80" viewBox="0 0 233 80" fill="none" xmlns="http://www.w3.org/2000/svg">
<rect width="232.872" height="79.5745" rx="8" fill="#14161D"/>
<g clip-path="url(#clip0_605_518)">
<path d="M33.0798 29.4823V32.6406L40.6332 31.8676H43.416V36.9915L38.7338 38.4271L32.373 39.951L33.3227 43.0431L39.4184 40.7019L43.4381 39.4651V47.8578H40.6553L33.1019 47.0848V50.243H56.1595V47.0848L48.6062 47.8578H45.7792V39.4651L49.7767 40.6799L55.8945 43.021L56.8442 39.9289L50.5056 38.405L45.8013 36.9694V31.8455H48.5841L56.1375 32.6185V29.4602L33.0798 29.4823ZM116.189 28.8111V49.5719H118.95V39.7437H130.92V37.005H118.95V31.5719H132.422V28.8111H116.189ZM151.239 41.6872C151.239 41.9081 151.173 47.1424 145.895 47.1424C140.991 47.1424 140.572 42.9682 140.55 41.6872V28.8111H137.789V41.6872C137.789 45.4418 139.909 49.8369 145.895 49.8369C151.88 49.8369 154 45.4418 154 41.6872V28.8111H151.239V41.6872ZM177.72 35.3707C177.72 32.1019 175.445 28.8111 170.366 28.8111H161.465V49.5719H164.226V41.9302H169.548L174.209 49.5719H177.544L172.685 41.6431C173.988 41.3338 177.72 40.0529 177.72 35.3707ZM164.248 39.1694V31.5498H170.388C172.11 31.5498 174.982 32.0578 174.982 35.3707C174.982 38.5069 172.486 39.1694 170.388 39.1694H164.248ZM104.815 28.8111V45.3093H104.218L94.4786 28.8111H90.9007V49.5719H93.6614V33.6038H94.2577L103.556 49.5719H107.576V28.8111H104.815ZM68.5718 28.8111V31.3731H74.7117V47.0099H68.5718V49.5719H83.6123V47.0099H77.4724V31.3731H83.6123V28.8111H68.5718ZM193.534 28.7891H190.221L182.668 49.5719H185.561L187.836 43.2774H195.875L198.15 49.5719H201.065L193.534 28.7891ZM188.829 40.5829L191.546 33.0737H192.209L194.925 40.5829H188.829Z" fill="#FF6B4A"/>
</g>
<defs>
<clipPath id="clip0_605_518">
<rect width="169" height="25" fill="white" transform="translate(32 27)"/>
</clipPath>
</defs>
</svg>
