<svg width="233" height="80" viewBox="0 0 233 80" fill="none" xmlns="http://www.w3.org/2000/svg">
<rect width="232.872" height="79.5745" rx="8" fill="#14161D"/>
<g clip-path="url(#clip0_605_554)">
<path d="M179.4 39.8004C178.5 39.2004 177.5 38.8004 176.6 38.3004C176 38.0004 175.4 37.7004 174.8 37.2004C173.9 36.5004 174.1 35.0004 175 34.4004C176.3 33.5004 178.5 34.0004 178.8 35.8004C178.8 35.8004 178.8 35.9004 178.9 35.9004H180.9C181 35.9004 181 35.9004 181 35.8004C180.9 34.6004 180.4 33.5004 179.5 32.9004C178.7 32.3004 177.7 31.9004 176.7 31.9004C171.4 31.9004 170.9 37.5004 173.8 39.2004C174.1 39.4004 176.9 40.8004 177.9 41.4004C178.9 42.0004 179.2 43.1004 178.8 44.0004C178.4 44.8004 177.4 45.4004 176.4 45.3004C175.3 45.2004 174.4 44.6004 174.1 43.7004C174 43.5004 174 43.2004 174 43.1004C174 43.1004 174 43.0004 173.9 43.0004H171.7C171.7 43.0004 171.6 43.0004 171.6 43.1004C171.6 44.7004 172 45.5004 173.1 46.3004C174.1 47.1004 175.2 47.4004 176.3 47.4004C179.3 47.4004 180.8 45.7004 181.1 44.0004C181.4 42.3004 180.9 40.8004 179.4 39.8004Z" fill="white"/>
<path d="M85.2004 32.1996H84.2004H83.1004C83.1004 32.1996 83.0004 32.1996 83.0004 32.2996L81.2004 38.1996C81.2004 38.2996 81.1004 38.2996 81.0004 38.1996L79.2004 32.2996C79.2004 32.2996 79.2004 32.1996 79.1004 32.1996H78.0004H77.0004H76.0004C76.0004 32.1996 75.9004 32.1996 75.9004 32.2996V47.2996C75.9004 47.2996 75.9004 47.3996 76.0004 47.3996H78.2004C78.2004 47.3996 78.3004 47.3996 78.3004 47.2996V35.7996C78.3004 35.6996 78.4004 35.6996 78.5004 35.7996L80.3004 41.6996L80.4004 42.0996C80.4004 42.0996 80.4004 42.1996 80.5004 42.1996H82.2004C82.2004 42.1996 82.3004 42.1996 82.3004 42.0996L82.4004 41.6996L84.2004 35.7996C84.2004 35.6996 84.4004 35.6996 84.4004 35.7996V47.1996C84.4004 47.1996 84.4004 47.2996 84.5004 47.2996H86.7004C86.7004 47.2996 86.8004 47.2996 86.8004 47.1996V32.1996C86.8004 32.1996 86.8004 32.0996 86.7004 32.0996H85.2004V32.1996Z" fill="white"/>
<path d="M146.2 32.1996C146.1 32.1996 146.1 32.1996 146.2 32.1996L144.3 38.0996C144.3 38.1996 144.2 38.1996 144.1 38.0996L142.3 32.1996C142.3 32.1996 142.3 32.0996 142.2 32.0996H139C139 32.0996 138.9 32.0996 138.9 32.1996V47.1996C138.9 47.1996 138.9 47.2996 139 47.2996H141.2C141.2 47.2996 141.3 47.2996 141.3 47.1996V35.7996C141.3 35.6996 141.4 35.6996 141.5 35.7996L143.3 41.6996L143.4 42.0996C143.4 42.0996 143.4 42.1996 143.5 42.1996H145.2C145.2 42.1996 145.3 42.1996 145.3 42.0996L145.4 41.6996L147.2 35.7996C147.2 35.6996 147.4 35.6996 147.4 35.7996V47.1996C147.4 47.1996 147.4 47.2996 147.5 47.2996H149.7C149.7 47.2996 149.8 47.2996 149.8 47.1996V32.1996C149.8 32.1996 149.8 32.0996 149.7 32.0996H146.2V32.1996Z" fill="white"/>
<path d="M118.2 32.1992H114.2H112H108C108 32.1992 107.9 32.1992 107.9 32.2992V34.1992C107.9 34.1992 107.9 34.2992 108 34.2992H112V47.2992C112 47.2992 112 47.3992 112.1 47.3992H114.3C114.3 47.3992 114.4 47.3992 114.4 47.2992V34.2992H118.4C118.4 34.2992 118.5 34.2992 118.5 34.1992L118.2 32.1992Z" fill="white"/>
<path d="M131 47.2996H133C133.1 47.2996 133.1 47.1996 133.1 47.1996L129 32.1996C129 32.1996 129 32.0996 128.9 32.0996H128.1H126.8H126C126 32.0996 125.9 32.0996 125.9 32.1996L121.8 47.1996C121.8 47.2996 121.8 47.2996 121.9 47.2996H123.9C123.9 47.2996 124 47.2996 124 47.1996L125.2 42.7996C125.2 42.7996 125.2 42.6996 125.3 42.6996H129.7C129.7 42.6996 129.8 42.6996 129.8 42.7996L131 47.2996C130.9 47.2996 130.9 47.2996 131 47.2996ZM125.8 40.6996L127.4 34.8996C127.4 34.7996 127.5 34.7996 127.6 34.8996L129.2 40.6996C129.2 40.7996 129.2 40.7996 129.1 40.7996H125.9C125.8 40.7996 125.8 40.6996 125.8 40.6996Z" fill="white"/>
<path d="M164.6 47.2996H166.6C166.7 47.2996 166.7 47.1996 166.7 47.1996L162.6 32.1996C162.6 32.1996 162.6 32.0996 162.5 32.0996H161.7H160.4H159.6C159.6 32.0996 159.5 32.0996 159.5 32.1996L155.4 47.1996C155.4 47.2996 155.4 47.2996 155.5 47.2996H157.5C157.5 47.2996 157.6 47.2996 157.6 47.1996L158.8 42.7996C158.8 42.7996 158.8 42.6996 158.9 42.6996H163.3C163.3 42.6996 163.4 42.6996 163.4 42.7996L164.6 47.2996ZM159.5 40.6996L161.1 34.8996C161.1 34.7996 161.2 34.7996 161.3 34.8996L162.9 40.6996C162.9 40.7996 162.9 40.7996 162.8 40.7996H159.6C159.5 40.7996 159.5 40.6996 159.5 40.6996Z" fill="white"/>
<path d="M95.3 45.0992V40.4992C95.3 40.4992 95.3 40.3992 95.4 40.3992H101.2C101.2 40.3992 101.3 40.3992 101.3 40.2992V38.3992C101.3 38.3992 101.3 38.2992 101.2 38.2992H95.4C95.4 38.2992 95.3 38.2992 95.3 38.1992V34.1992C95.3 34.1992 95.3 34.0992 95.4 34.0992H102C102 34.0992 102.1 34.0992 102.1 33.9992V32.2992C102.1 32.2992 102.1 32.1992 102 32.1992H95.3H93.1C93.1 32.1992 93 32.1992 93 32.2992V34.1992V38.2992V40.2992V45.0992V47.0992C93 47.0992 93 47.1992 93.1 47.1992H95.3H102.2C102.2 47.1992 102.3 47.1992 102.3 47.0992V45.0992C102.3 45.0992 102.3 44.9992 102.2 44.9992L95.3 45.0992Z" fill="white"/>
<path d="M199.2 47.1992L191.7 39.4992V39.3992L198.5 32.3992C198.6 32.2992 198.5 32.2992 198.4 32.2992H195.6C195.6 32.2992 195.6 32.2992 195.5 32.2992L189.8 38.1992C189.7 38.2992 189.7 38.1992 189.7 38.0992V32.2992C189.7 32.2992 189.7 32.1992 189.6 32.1992H187.4C187.4 32.1992 187.3 32.1992 187.3 32.2992V47.2992C187.3 47.2992 187.3 47.3992 187.4 47.3992H189.6C189.6 47.3992 189.7 47.3992 189.7 47.2992V40.6992C189.7 40.5992 189.8 40.5992 189.8 40.5992L196.3 47.2992C196.3 47.2992 196.3 47.2992 196.4 47.2992H199.2C199.2 47.2992 199.3 47.1992 199.2 47.1992Z" fill="white"/>
<path d="M66.1004 24.0996L52.9004 33.7996L55.3004 28.0996L66.1004 24.0996Z" fill="#E17726" stroke="#E17726" stroke-width="0.25" stroke-linecap="round" stroke-linejoin="round"/>
<path d="M35.7998 24.0996L48.7998 33.8996L46.4998 28.0996L35.7998 24.0996Z" fill="#E27625" stroke="#E27625" stroke-width="0.25" stroke-linecap="round" stroke-linejoin="round"/>
<path d="M61.4004 46.6992L57.9004 51.9992L65.4004 54.0992L67.5004 46.7992L61.4004 46.6992Z" fill="#E27625" stroke="#E27625" stroke-width="0.25" stroke-linecap="round" stroke-linejoin="round"/>
<path d="M34.4004 46.7992L36.5004 54.0992L44.0004 51.9992L40.5004 46.6992L34.4004 46.7992Z" fill="#E27625" stroke="#E27625" stroke-width="0.25" stroke-linecap="round" stroke-linejoin="round"/>
<path d="M43.6 37.6L41.5 40.7L48.9 41L48.7 33L43.6 37.6Z" fill="#E27625" stroke="#E27625" stroke-width="0.25" stroke-linecap="round" stroke-linejoin="round"/>
<path d="M58.3004 37.6L53.1004 33L52.9004 41.1L60.3004 40.8L58.3004 37.6Z" fill="#E27625" stroke="#E27625" stroke-width="0.25" stroke-linecap="round" stroke-linejoin="round"/>
<path d="M44 52.0008L48.5 49.8008L44.6 46.8008L44 52.0008Z" fill="#E27625" stroke="#E27625" stroke-width="0.25" stroke-linecap="round" stroke-linejoin="round"/>
<path d="M53.4004 49.8008L57.9004 52.0008L57.3004 46.8008L53.4004 49.8008Z" fill="#E27625" stroke="#E27625" stroke-width="0.25" stroke-linecap="round" stroke-linejoin="round"/>
<path d="M57.9004 52.0008L53.4004 49.8008L53.8004 52.7008V53.9008L57.9004 52.0008Z" fill="#D5BFB2" stroke="#D5BFB2" stroke-width="0.25" stroke-linecap="round" stroke-linejoin="round"/>
<path d="M44 52.0004L48.2 54.0004V52.8004L48.6 49.9004L44 52.0004Z" fill="#D5BFB2" stroke="#D5BFB2" stroke-width="0.25" stroke-linecap="round" stroke-linejoin="round"/>
<path d="M48.2 44.8996L44.5 43.7996L47.1 42.5996L48.2 44.8996Z" fill="#233447" stroke="#233447" stroke-width="0.25" stroke-linecap="round" stroke-linejoin="round"/>
<path d="M53.5996 44.8996L54.6996 42.5996L57.2996 43.7996L53.5996 44.8996Z" fill="#233447" stroke="#233447" stroke-width="0.25" stroke-linecap="round" stroke-linejoin="round"/>
<path d="M44 51.9992L44.6 46.6992L40.5 46.7992L44 51.9992Z" fill="#CC6228" stroke="#CC6228" stroke-width="0.25" stroke-linecap="round" stroke-linejoin="round"/>
<path d="M57.2002 46.6992L57.8002 51.9992L61.3002 46.7992L57.2002 46.6992Z" fill="#CC6228" stroke="#CC6228" stroke-width="0.25" stroke-linecap="round" stroke-linejoin="round"/>
<path d="M60.4 40.8008L53 41.1008L53.7 44.9008L54.8 42.6008L57.4 43.8008L60.4 40.8008Z" fill="#CC6228" stroke="#CC6228" stroke-width="0.25" stroke-linecap="round" stroke-linejoin="round"/>
<path d="M44.5 43.8008L47.1 42.6008L48.2 44.9008L48.9 41.1008L41.5 40.8008L44.5 43.8008Z" fill="#CC6228" stroke="#CC6228" stroke-width="0.25" stroke-linecap="round" stroke-linejoin="round"/>
<path d="M41.5 40.8008L44.6 46.9008L44.5 43.9008L41.5 40.8008Z" fill="#E27525" stroke="#E27525" stroke-width="0.25" stroke-linecap="round" stroke-linejoin="round"/>
<path d="M57.3998 43.7992L57.2998 46.7992L60.3998 40.6992L57.3998 43.7992Z" fill="#E27525" stroke="#E27525" stroke-width="0.25" stroke-linecap="round" stroke-linejoin="round"/>
<path d="M48.9002 41.0996L48.2002 44.8996L49.1002 49.3996L49.3002 43.4996L48.9002 41.0996Z" fill="#E27525" stroke="#E27525" stroke-width="0.25" stroke-linecap="round" stroke-linejoin="round"/>
<path d="M52.9 41.0996L52.5 43.4996L52.7 49.3996L53.6 44.8996L52.9 41.0996Z" fill="#E27525" stroke="#E27525" stroke-width="0.25" stroke-linecap="round" stroke-linejoin="round"/>
<path d="M53.6002 44.9008L52.7002 49.4008L53.3002 49.8008L57.2002 46.8008L57.3002 43.8008L53.6002 44.9008Z" fill="#F5841F" stroke="#F5841F" stroke-width="0.25" stroke-linecap="round" stroke-linejoin="round"/>
<path d="M44.5 43.8008L44.6 46.8008L48.5 49.8008L49.1 49.4008L48.2 44.9008L44.5 43.8008Z" fill="#F5841F" stroke="#F5841F" stroke-width="0.25" stroke-linecap="round" stroke-linejoin="round"/>
<path d="M53.7 54V52.8L53.4 52.5H48.4L48.1 52.8V54L44 52L45.5 53.2L48.4 55.2H53.5L56.5 53.2L57.9 52L53.7 54Z" fill="#C0AC9D" stroke="#C0AC9D" stroke-width="0.25" stroke-linecap="round" stroke-linejoin="round"/>
<path d="M53.3996 49.8004L52.7996 49.4004H49.0996L48.4996 49.8004L48.0996 52.7004L48.3996 52.4004H53.3996L53.6996 52.7004L53.3996 49.8004Z" fill="#161616" stroke="#161616" stroke-width="0.25" stroke-linecap="round" stroke-linejoin="round"/>
<path d="M66.6004 34.4996L67.7004 29.0996L66.0004 24.0996L53.4004 33.4996L58.3004 37.5996L65.2004 39.5996L66.7004 37.7996L66.0004 37.3996L67.1004 36.3996L66.3004 35.7996L67.4004 34.9996L66.6004 34.4996Z" fill="#763E1A" stroke="#763E1A" stroke-width="0.25" stroke-linecap="round" stroke-linejoin="round"/>
<path d="M34.0996 29.0996L35.1996 34.4996L34.4996 34.9996L35.5996 35.7996L34.7996 36.3996L35.8996 37.3996L35.1996 37.8996L36.6996 39.6996L43.5996 37.6996L48.4996 33.5996L35.7996 24.0996L34.0996 29.0996Z" fill="#763E1A" stroke="#763E1A" stroke-width="0.25" stroke-linecap="round" stroke-linejoin="round"/>
<path d="M65.1998 39.5996L58.2998 37.5996L60.3998 40.6996L57.2998 46.7996L61.3998 46.6996H67.4998L65.1998 39.5996Z" fill="#F5841F" stroke="#F5841F" stroke-width="0.25" stroke-linecap="round" stroke-linejoin="round"/>
<path d="M43.6004 37.5996L36.7004 39.5996L34.4004 46.6996H40.5004L44.6004 46.7996L41.5004 40.6996L43.6004 37.5996Z" fill="#F5841F" stroke="#F5841F" stroke-width="0.25" stroke-linecap="round" stroke-linejoin="round"/>
<path d="M52.9004 41.0996L53.3004 33.4996L55.3004 28.0996H46.4004L48.4004 33.4996L48.8004 41.0996L49.0004 43.4996V49.3996H52.7004V43.4996L52.9004 41.0996Z" fill="#F5841F" stroke="#F5841F" stroke-width="0.25" stroke-linecap="round" stroke-linejoin="round"/>
</g>
<defs>
<clipPath id="clip0_605_554">
<rect width="165.2" height="31.3" fill="white" transform="translate(34 24)"/>
</clipPath>
</defs>
</svg>
