<svg width="233" height="80" viewBox="0 0 233 80" fill="none" xmlns="http://www.w3.org/2000/svg">
<rect width="232.872" height="79.5745" rx="8" fill="#14161D"/>
<g clip-path="url(#clip0_580_5144)">
<path d="M127.32 31.8838C124.784 31.8838 122.895 33.1307 122.895 36.1315C122.895 38.3924 124.14 39.9622 127.184 39.9622C129.763 39.9622 131.516 38.4401 131.516 36.0381C131.516 33.3158 129.948 31.8838 127.32 31.8838ZM122.25 53.0727C121.65 53.8099 121.052 54.5937 121.052 55.5181C121.052 57.3632 123.401 57.9185 126.629 57.9185C129.303 57.9185 132.945 57.7308 132.945 55.2418C132.945 53.7621 131.193 53.6709 128.979 53.5319L122.25 53.0727ZM135.895 32.0233C136.723 33.0851 137.6 34.5627 137.6 36.6857C137.6 41.8089 133.59 44.8086 127.783 44.8086C126.306 44.8086 124.969 44.6246 124.14 44.3939L122.618 46.8399L127.136 47.1162C135.112 47.6254 139.812 47.8566 139.812 53.9928C139.812 59.3022 135.157 62.3009 127.136 62.3009C118.792 62.3009 115.611 60.1778 115.611 56.5316C115.611 54.4542 116.534 53.349 118.147 51.8231C116.625 51.1793 116.119 50.0258 116.119 48.7789C116.119 47.7627 116.625 46.8399 117.456 45.9622C118.286 45.0865 119.207 44.2083 120.314 43.1932C118.055 42.0853 116.349 39.6849 116.349 36.2688C116.349 30.9615 119.853 27.3164 126.905 27.3164C128.887 27.3164 130.086 27.4988 131.147 27.7778H140.137V31.6998L135.895 32.0233Z" fill="white"/>
<path d="M148.247 23.6367C145.618 23.6367 144.098 22.1125 144.098 19.4803C144.098 16.8519 145.618 15.4199 148.247 15.4199C150.92 15.4199 152.442 16.8519 152.442 19.4803C152.442 22.1125 150.92 23.6367 148.247 23.6367ZM142.299 51.3749V47.7303L144.651 47.4084C145.296 47.315 145.388 47.1772 145.388 46.4835V32.9132C145.388 32.4067 145.25 32.0821 144.788 31.9448L142.299 31.067L142.806 27.3296H152.349V46.4835C152.349 47.2233 152.393 47.315 153.087 47.4084L155.438 47.7303V51.3749H142.299Z" fill="white"/>
<path d="M173.667 49.5851C171.684 50.5536 168.781 51.4308 166.152 51.4308C160.666 51.4308 158.593 49.2176 158.593 43.9994V31.9068C158.593 31.6304 158.593 31.4453 158.222 31.4453H154.996V27.3372C159.054 26.8747 160.666 24.8435 161.173 19.8125H165.553V26.3688C165.553 26.6907 165.553 26.8302 165.922 26.8302H172.422V31.4453H165.553V42.4762C165.553 45.1996 166.199 46.2603 168.687 46.2603C169.98 46.2603 171.315 45.9379 172.422 45.5226L173.667 49.5851Z" fill="white"/>
<path d="M105.364 37.4736L84.2868 16.3707C83.0739 15.1551 81.1051 15.1551 79.8905 16.3707L75.5137 20.753L81.0659 26.3122C82.3562 25.8757 83.8356 26.1685 84.8642 27.1984C85.8976 28.2347 86.1879 29.7288 85.7413 31.025L91.0922 36.3826C92.3867 35.9361 93.8804 36.2251 94.9144 37.262C96.3593 38.7082 96.3593 41.0524 94.9144 42.4998C93.4689 43.9471 91.1277 43.9471 89.6816 42.4998C88.5947 41.4104 88.3262 39.8119 88.8765 38.4712L83.8864 33.4747L83.8859 46.6233C84.2381 46.7983 84.5708 47.0311 84.8642 47.3239C86.3092 48.7702 86.3092 51.1143 84.8642 52.5627C83.4187 54.0096 81.0765 54.0096 79.6331 52.5627C78.1881 51.1143 78.1881 48.7702 79.6331 47.3239C79.9901 46.967 80.4032 46.697 80.8439 46.5156V33.2445C80.4032 33.0642 79.9906 32.7958 79.6331 32.4362C78.5382 31.3416 78.275 29.733 78.8359 28.387L73.3632 22.9063L58.9109 37.376C57.6964 38.5926 57.6964 40.564 58.9109 41.7795L79.9885 62.883C81.202 64.0985 83.1703 64.0985 84.3854 62.883L105.364 41.8777C106.578 40.6615 106.578 38.6891 105.364 37.4736Z" fill="#DE4C36"/>
</g>
<defs>
<clipPath id="clip0_580_5144">
<rect width="116" height="49" fill="white" transform="translate(58 15)"/>
</clipPath>
</defs>
</svg>
