<svg width="233" height="81" viewBox="0 0 233 81" fill="none" xmlns="http://www.w3.org/2000/svg">
<rect y="0.87207" width="232.872" height="79.5745" rx="8" fill="#14161D"/>
<path d="M65.5 27.8721C60.0334 27.8721 56.6166 30.6499 55.25 36.2054C57.3 33.4276 59.6916 32.3859 62.425 33.0804C63.9844 33.4766 65.0991 34.6265 66.333 35.8991C68.3429 37.9725 70.669 40.3721 75.75 40.3721C81.2166 40.3721 84.6334 37.5942 86 32.0387C83.95 34.8166 81.5584 35.8582 78.825 35.1637C77.2656 34.7676 76.1509 33.6177 74.917 32.3451C72.9071 30.2716 70.581 27.8721 65.5 27.8721ZM55.25 40.3721C49.7834 40.3721 46.3666 43.1499 45 48.7054C47.05 45.9276 49.4416 44.8859 52.175 45.5804C53.7344 45.9766 54.8491 47.1265 56.083 48.3991C58.0929 50.4725 60.419 52.8721 65.5 52.8721C70.9666 52.8721 74.3834 50.0942 75.75 44.5387C73.7 47.3166 71.3084 48.3582 68.575 47.6637C67.0156 47.2676 65.9009 46.1177 64.667 44.8451C62.6571 42.7716 60.331 40.3721 55.25 40.3721Z" fill="url(#paint0_linear_580_4952)"/>
<path d="M100.578 44.8721C100.429 44.8721 100.298 44.8207 100.186 44.7181C100.083 44.6061 100.032 44.4754 100.032 44.3261V33.9381H101.124V44.3261C101.124 44.4754 101.073 44.6061 100.97 44.7181C100.867 44.8207 100.737 44.8721 100.578 44.8721ZM96.714 34.9321C96.5647 34.9321 96.4433 34.8854 96.35 34.7921C96.2567 34.6987 96.21 34.5821 96.21 34.4421C96.21 34.2927 96.2567 34.1714 96.35 34.0781C96.4433 33.9847 96.5647 33.9381 96.714 33.9381H104.456C104.605 33.9381 104.727 33.9847 104.82 34.0781C104.913 34.1714 104.96 34.2927 104.96 34.4421C104.96 34.5821 104.913 34.6987 104.82 34.7921C104.727 34.8854 104.605 34.9321 104.456 34.9321H96.714ZM107.702 44.9421C106.984 44.9421 106.34 44.7741 105.77 44.4381C105.201 44.0927 104.748 43.6261 104.412 43.0381C104.086 42.4501 103.922 41.7874 103.922 41.0501C103.922 40.3034 104.09 39.6361 104.426 39.0481C104.772 38.4601 105.238 37.9981 105.826 37.6621C106.414 37.3167 107.077 37.1441 107.814 37.1441C108.552 37.1441 109.21 37.3167 109.788 37.6621C110.376 37.9981 110.838 38.4601 111.174 39.0481C111.52 39.6361 111.697 40.3034 111.706 41.0501L111.272 41.3861C111.272 42.0581 111.114 42.6647 110.796 43.2061C110.488 43.7381 110.064 44.1627 109.522 44.4801C108.99 44.7881 108.384 44.9421 107.702 44.9421ZM107.814 43.9621C108.356 43.9621 108.836 43.8361 109.256 43.5841C109.686 43.3321 110.022 42.9867 110.264 42.5481C110.516 42.1001 110.642 41.6007 110.642 41.0501C110.642 40.4901 110.516 39.9907 110.264 39.5521C110.022 39.1134 109.686 38.7681 109.256 38.5161C108.836 38.2547 108.356 38.1241 107.814 38.1241C107.282 38.1241 106.802 38.2547 106.372 38.5161C105.943 38.7681 105.602 39.1134 105.35 39.5521C105.098 39.9907 104.972 40.4901 104.972 41.0501C104.972 41.6007 105.098 42.1001 105.35 42.5481C105.602 42.9867 105.943 43.3321 106.372 43.5841C106.802 43.8361 107.282 43.9621 107.814 43.9621ZM111.16 44.8721C111.002 44.8721 110.871 44.8254 110.768 44.7321C110.666 44.6294 110.614 44.4987 110.614 44.3401V41.9461L110.88 40.8401L111.706 41.0501V44.3401C111.706 44.4987 111.655 44.6294 111.552 44.7321C111.45 44.8254 111.319 44.8721 111.16 44.8721ZM114.573 44.8721C114.405 44.8721 114.27 44.8254 114.167 44.7321C114.074 44.6294 114.027 44.4941 114.027 44.3261V37.7601C114.027 37.5921 114.074 37.4614 114.167 37.3681C114.27 37.2654 114.405 37.2141 114.573 37.2141C114.732 37.2141 114.858 37.2654 114.951 37.3681C115.054 37.4614 115.105 37.5921 115.105 37.7601V44.3261C115.105 44.4941 115.054 44.6294 114.951 44.7321C114.858 44.8254 114.732 44.8721 114.573 44.8721ZM114.559 35.7581C114.354 35.7581 114.176 35.6834 114.027 35.5341C113.878 35.3847 113.803 35.2027 113.803 34.9881C113.803 34.7547 113.878 34.5727 114.027 34.4421C114.186 34.3021 114.368 34.2321 114.573 34.2321C114.769 34.2321 114.942 34.3021 115.091 34.4421C115.25 34.5727 115.329 34.7547 115.329 34.9881C115.329 35.2027 115.254 35.3847 115.105 35.5341C114.956 35.6834 114.774 35.7581 114.559 35.7581ZM119.502 44.8721C119.129 44.8721 118.793 44.7694 118.494 44.5641C118.205 44.3587 117.976 44.0741 117.808 43.7101C117.649 43.3461 117.57 42.9261 117.57 42.4501V34.4701C117.57 34.3114 117.617 34.1854 117.71 34.0921C117.813 33.9894 117.943 33.9381 118.102 33.9381C118.261 33.9381 118.387 33.9894 118.48 34.0921C118.583 34.1854 118.634 34.3114 118.634 34.4701V42.4501C118.634 42.8514 118.713 43.1781 118.872 43.4301C119.04 43.6821 119.25 43.8081 119.502 43.8081H119.852C119.992 43.8081 120.104 43.8594 120.188 43.9621C120.272 44.0554 120.314 44.1814 120.314 44.3401C120.314 44.4987 120.253 44.6294 120.132 44.7321C120.02 44.8254 119.871 44.8721 119.684 44.8721H119.502ZM123.113 44.8721C122.992 44.8721 122.885 44.8394 122.791 44.7741C122.698 44.7087 122.633 44.6247 122.595 44.5221L120.411 37.9701C120.355 37.7367 120.36 37.5547 120.425 37.4241C120.491 37.2841 120.621 37.2141 120.817 37.2141C120.939 37.2141 121.046 37.2467 121.139 37.3121C121.233 37.3774 121.303 37.4801 121.349 37.6201L123.295 43.5701H122.987L124.793 37.6341C124.831 37.5127 124.891 37.4147 124.975 37.3401C125.069 37.2561 125.185 37.2141 125.325 37.2141C125.465 37.2141 125.577 37.2514 125.661 37.3261C125.755 37.4007 125.82 37.5034 125.857 37.6341L127.579 43.4301H127.341L129.245 37.6201C129.339 37.3494 129.511 37.2141 129.763 37.2141C129.969 37.2141 130.109 37.2934 130.183 37.4521C130.258 37.6014 130.258 37.7741 130.183 37.9701L127.999 44.5221C127.962 44.6247 127.897 44.7087 127.803 44.7741C127.719 44.8394 127.617 44.8721 127.495 44.8721C127.374 44.8721 127.262 44.8394 127.159 44.7741C127.066 44.7087 127.005 44.6247 126.977 44.5221L125.213 38.6701H125.381L123.617 44.5221C123.58 44.6341 123.515 44.7227 123.421 44.7881C123.328 44.8441 123.225 44.8721 123.113 44.8721ZM132.51 44.8721C132.342 44.8721 132.207 44.8254 132.104 44.7321C132.011 44.6294 131.964 44.4941 131.964 44.3261V37.7601C131.964 37.5921 132.011 37.4614 132.104 37.3681C132.207 37.2654 132.342 37.2141 132.51 37.2141C132.669 37.2141 132.795 37.2654 132.888 37.3681C132.991 37.4614 133.042 37.5921 133.042 37.7601V44.3261C133.042 44.4941 132.991 44.6294 132.888 44.7321C132.795 44.8254 132.669 44.8721 132.51 44.8721ZM132.496 35.7581C132.291 35.7581 132.114 35.6834 131.964 35.5341C131.815 35.3847 131.74 35.2027 131.74 34.9881C131.74 34.7547 131.815 34.5727 131.964 34.4421C132.123 34.3021 132.305 34.2321 132.51 34.2321C132.706 34.2321 132.879 34.3021 133.028 34.4421C133.187 34.5727 133.266 34.7547 133.266 34.9881C133.266 35.2027 133.192 35.3847 133.042 35.5341C132.893 35.6834 132.711 35.7581 132.496 35.7581ZM142.353 44.8721C142.195 44.8721 142.064 44.8207 141.961 44.7181C141.859 44.6154 141.807 44.4894 141.807 44.3401V40.7001C141.807 40.1214 141.695 39.6454 141.471 39.2721C141.257 38.8987 140.958 38.6187 140.575 38.4321C140.202 38.2454 139.777 38.1521 139.301 38.1521C138.844 38.1521 138.429 38.2407 138.055 38.4181C137.691 38.5954 137.402 38.8381 137.187 39.1461C136.973 39.4541 136.865 39.8041 136.865 40.1961H136.095C136.114 39.6081 136.273 39.0854 136.571 38.6281C136.87 38.1614 137.267 37.7974 137.761 37.5361C138.256 37.2654 138.807 37.1301 139.413 37.1301C140.076 37.1301 140.669 37.2701 141.191 37.5501C141.714 37.8207 142.125 38.2221 142.423 38.7541C142.731 39.2861 142.885 39.9347 142.885 40.7001V44.3401C142.885 44.4894 142.834 44.6154 142.731 44.7181C142.629 44.8207 142.503 44.8721 142.353 44.8721ZM136.333 44.8721C136.165 44.8721 136.03 44.8254 135.927 44.7321C135.834 44.6294 135.787 44.4987 135.787 44.3401V37.7601C135.787 37.5921 135.834 37.4614 135.927 37.3681C136.03 37.2654 136.165 37.2141 136.333 37.2141C136.492 37.2141 136.618 37.2654 136.711 37.3681C136.814 37.4614 136.865 37.5921 136.865 37.7601V44.3401C136.865 44.4987 136.814 44.6294 136.711 44.7321C136.618 44.8254 136.492 44.8721 136.333 44.8721ZM148.748 44.9421C148.011 44.9421 147.348 44.7741 146.76 44.4381C146.172 44.0927 145.705 43.6261 145.36 43.0381C145.024 42.4501 144.856 41.7827 144.856 41.0361C144.856 40.2987 145.019 39.6361 145.346 39.0481C145.682 38.4601 146.135 37.9981 146.704 37.6621C147.273 37.3167 147.917 37.1441 148.636 37.1441C149.261 37.1441 149.826 37.2794 150.33 37.5501C150.834 37.8114 151.24 38.1614 151.548 38.6001V34.4841C151.548 34.3161 151.599 34.1854 151.702 34.0921C151.805 33.9894 151.935 33.9381 152.094 33.9381C152.253 33.9381 152.383 33.9894 152.486 34.0921C152.589 34.1854 152.64 34.3161 152.64 34.4841V41.0921C152.621 41.8201 152.439 42.4781 152.094 43.0661C151.758 43.6447 151.296 44.1021 150.708 44.4381C150.129 44.7741 149.476 44.9421 148.748 44.9421ZM148.748 43.9621C149.289 43.9621 149.77 43.8361 150.19 43.5841C150.619 43.3227 150.955 42.9727 151.198 42.5341C151.45 42.0954 151.576 41.5961 151.576 41.0361C151.576 40.4854 151.45 39.9907 151.198 39.5521C150.955 39.1041 150.619 38.7541 150.19 38.5021C149.77 38.2501 149.289 38.1241 148.748 38.1241C148.216 38.1241 147.735 38.2501 147.306 38.5021C146.877 38.7541 146.536 39.1041 146.284 39.5521C146.032 39.9907 145.906 40.4854 145.906 41.0361C145.906 41.5961 146.032 42.0954 146.284 42.5341C146.536 42.9727 146.877 43.3227 147.306 43.5841C147.735 43.8361 148.216 43.9621 148.748 43.9621ZM164.316 45.0121C163.56 45.0121 162.851 44.8674 162.188 44.5781C161.535 44.2887 160.956 43.8874 160.452 43.3741C159.957 42.8514 159.57 42.2541 159.29 41.5821C159.01 40.9007 158.87 40.1727 158.87 39.3981C158.87 38.6327 159.005 37.9141 159.276 37.2421C159.556 36.5607 159.943 35.9634 160.438 35.4501C160.942 34.9367 161.521 34.5354 162.174 34.2461C162.837 33.9474 163.551 33.7981 164.316 33.7981C164.988 33.7981 165.599 33.8961 166.15 34.0921C166.701 34.2881 167.233 34.6007 167.746 35.0301C167.83 35.0954 167.877 35.1747 167.886 35.2681C167.905 35.3521 167.895 35.4361 167.858 35.5201C167.821 35.5947 167.765 35.6507 167.69 35.6881C167.671 35.7627 167.625 35.8187 167.55 35.8561C167.475 35.8934 167.387 35.9074 167.284 35.8981C167.191 35.8887 167.097 35.8467 167.004 35.7721C166.64 35.4547 166.243 35.2214 165.814 35.0721C165.385 34.9134 164.885 34.8341 164.316 34.8341C163.709 34.8341 163.14 34.9554 162.608 35.1981C162.085 35.4407 161.623 35.7721 161.222 36.1921C160.821 36.6121 160.503 37.0974 160.27 37.6481C160.046 38.1987 159.934 38.7821 159.934 39.3981C159.934 40.0327 160.046 40.6254 160.27 41.1761C160.503 41.7267 160.821 42.2121 161.222 42.6321C161.623 43.0521 162.085 43.3834 162.608 43.6261C163.14 43.8594 163.709 43.9761 164.316 43.9761C164.829 43.9761 165.315 43.8921 165.772 43.7241C166.229 43.5561 166.663 43.3134 167.074 42.9961C167.186 42.9027 167.303 42.8654 167.424 42.8841C167.555 42.9027 167.667 42.9587 167.76 43.0521C167.853 43.1454 167.9 43.2667 167.9 43.4161C167.9 43.4907 167.886 43.5607 167.858 43.6261C167.839 43.6821 167.802 43.7427 167.746 43.8081C167.27 44.2467 166.738 44.5594 166.15 44.7461C165.562 44.9234 164.951 45.0121 164.316 45.0121ZM173.508 45.0121C172.911 45.0121 172.355 44.9281 171.842 44.7601C171.338 44.5827 170.899 44.3354 170.526 44.0181C170.153 43.7007 169.868 43.3321 169.672 42.9121C169.597 42.7627 169.593 42.6274 169.658 42.5061C169.733 42.3754 169.854 42.2867 170.022 42.2401C170.153 42.2027 170.279 42.2167 170.4 42.2821C170.531 42.3474 170.629 42.4454 170.694 42.5761C170.834 42.8467 171.039 43.0894 171.31 43.3041C171.581 43.5187 171.903 43.6867 172.276 43.8081C172.649 43.9201 173.06 43.9761 173.508 43.9761C174.003 43.9761 174.441 43.8967 174.824 43.7381C175.207 43.5701 175.505 43.3321 175.72 43.0241C175.944 42.7067 176.056 42.3241 176.056 41.8761C176.056 41.3067 175.846 40.8167 175.426 40.4061C175.006 39.9954 174.348 39.7341 173.452 39.6221C172.36 39.4914 171.506 39.1554 170.89 38.6141C170.274 38.0634 169.966 37.3914 169.966 36.5981C169.966 36.0287 170.115 35.5341 170.414 35.1141C170.722 34.6941 171.142 34.3721 171.674 34.1481C172.206 33.9147 172.817 33.7981 173.508 33.7981C174.021 33.7981 174.488 33.8821 174.908 34.0501C175.328 34.2087 175.692 34.4234 176 34.6941C176.317 34.9554 176.574 35.2447 176.77 35.5621C176.863 35.7114 176.891 35.8561 176.854 35.9961C176.826 36.1361 176.747 36.2434 176.616 36.3181C176.476 36.3834 176.331 36.3927 176.182 36.3461C176.042 36.2994 175.935 36.2107 175.86 36.0801C175.72 35.8654 175.543 35.6647 175.328 35.4781C175.123 35.2821 174.871 35.1281 174.572 35.0161C174.273 34.9041 173.914 34.8434 173.494 34.8341C172.757 34.8341 172.164 34.9927 171.716 35.3101C171.268 35.6181 171.044 36.0707 171.044 36.6681C171.044 36.9854 171.128 37.2794 171.296 37.5501C171.464 37.8114 171.739 38.0401 172.122 38.2361C172.514 38.4227 173.037 38.5627 173.69 38.6561C174.857 38.8241 175.72 39.1834 176.28 39.7341C176.849 40.2754 177.134 40.9847 177.134 41.8621C177.134 42.3661 177.041 42.8141 176.854 43.2061C176.677 43.5981 176.42 43.9294 176.084 44.2001C175.757 44.4614 175.37 44.6621 174.922 44.8021C174.483 44.9421 174.012 45.0121 173.508 45.0121ZM182.778 45.0121C182.18 45.0121 181.625 44.9281 181.112 44.7601C180.608 44.5827 180.169 44.3354 179.796 44.0181C179.422 43.7007 179.138 43.3321 178.942 42.9121C178.867 42.7627 178.862 42.6274 178.928 42.5061C179.002 42.3754 179.124 42.2867 179.292 42.2401C179.422 42.2027 179.548 42.2167 179.67 42.2821C179.8 42.3474 179.898 42.4454 179.964 42.5761C180.104 42.8467 180.309 43.0894 180.58 43.3041C180.85 43.5187 181.172 43.6867 181.546 43.8081C181.919 43.9201 182.33 43.9761 182.778 43.9761C183.272 43.9761 183.711 43.8967 184.094 43.7381C184.476 43.5701 184.775 43.3321 184.99 43.0241C185.214 42.7067 185.326 42.3241 185.326 41.8761C185.326 41.3067 185.116 40.8167 184.696 40.4061C184.276 39.9954 183.618 39.7341 182.722 39.6221C181.63 39.4914 180.776 39.1554 180.16 38.6141C179.544 38.0634 179.236 37.3914 179.236 36.5981C179.236 36.0287 179.385 35.5341 179.684 35.1141C179.992 34.6941 180.412 34.3721 180.944 34.1481C181.476 33.9147 182.087 33.7981 182.778 33.7981C183.291 33.7981 183.758 33.8821 184.178 34.0501C184.598 34.2087 184.962 34.4234 185.27 34.6941C185.587 34.9554 185.844 35.2447 186.04 35.5621C186.133 35.7114 186.161 35.8561 186.124 35.9961C186.096 36.1361 186.016 36.2434 185.886 36.3181C185.746 36.3834 185.601 36.3927 185.452 36.3461C185.312 36.2994 185.204 36.2107 185.13 36.0801C184.99 35.8654 184.812 35.6647 184.598 35.4781C184.392 35.2821 184.14 35.1281 183.842 35.0161C183.543 34.9041 183.184 34.8434 182.764 34.8341C182.026 34.8341 181.434 34.9927 180.986 35.3101C180.538 35.6181 180.314 36.0707 180.314 36.6681C180.314 36.9854 180.398 37.2794 180.566 37.5501C180.734 37.8114 181.009 38.0401 181.392 38.2361C181.784 38.4227 182.306 38.5627 182.96 38.6561C184.126 38.8241 184.99 39.1834 185.55 39.7341C186.119 40.2754 186.404 40.9847 186.404 41.8621C186.404 42.3661 186.31 42.8141 186.124 43.2061C185.946 43.5981 185.69 43.9294 185.354 44.2001C185.027 44.4614 184.64 44.6621 184.192 44.8021C183.753 44.9421 183.282 45.0121 182.778 45.0121Z" fill="white"/>
<defs>
<linearGradient id="paint0_linear_580_4952" x1="-246.579" y1="1256.67" x2="-121.226" y2="2640.79" gradientUnits="userSpaceOnUse">
<stop stop-color="#2298BD"/>
<stop offset="1" stop-color="#0ED7B5"/>
</linearGradient>
</defs>
</svg>
