<svg width="233" height="81" viewBox="0 0 233 81" fill="none" xmlns="http://www.w3.org/2000/svg">
<rect y="0.723633" width="232.872" height="79.5745" rx="8" fill="#14161D"/>
<g clip-path="url(#clip0_581_5)">
<path fill-rule="evenodd" clip-rule="evenodd" d="M93.6287 17.4648H104.09L77.6749 62.9845L51.0859 17.4648H61.7851L77.6749 44.8685L93.6287 17.4648Z" fill="#41B883"/>
<path fill-rule="evenodd" clip-rule="evenodd" d="M83.7424 17.4561H93.6919L77.661 44.9169L61.7588 17.4561H71.5528L77.661 28.028L83.7424 17.4561Z" fill="#35495E"/>
<path fill-rule="evenodd" clip-rule="evenodd" d="M110.332 26.4419C110.332 26.1061 110.518 25.8263 110.891 25.6024C111.264 25.3785 111.654 25.2666 112.061 25.2666C112.625 25.2666 112.976 25.4793 113.111 25.9047L119.076 45.8515L125.008 25.9047C125.166 25.4793 125.505 25.2666 126.024 25.2666C126.454 25.2666 126.855 25.3897 127.228 25.636C127.6 25.8822 127.787 26.1621 127.787 26.4755C127.787 26.4979 127.781 26.5315 127.77 26.5763C127.758 26.621 127.753 26.6658 127.753 26.7106L120.873 49.0417C120.624 49.6909 120.025 50.0155 119.076 50.0155C118.127 50.0155 117.551 49.6909 117.348 49.0417L110.4 26.7106C110.355 26.5763 110.332 26.4867 110.332 26.4419ZM128.054 43.635V34.9042C128.054 34.6356 128.195 34.4005 128.478 34.199C128.76 33.9976 129.093 33.8968 129.477 33.8968C129.839 33.8968 130.161 34.0032 130.443 34.2158C130.726 34.4285 130.867 34.658 130.867 34.9042V43.6349C130.867 44.6424 131.251 45.549 132.019 46.355C132.788 47.1609 133.703 47.5639 134.765 47.5639C135.804 47.5639 136.708 47.1665 137.476 46.3718C138.244 45.577 138.628 44.6647 138.628 43.6349V34.8701C138.628 34.6239 138.77 34.4 139.052 34.1985C139.335 33.997 139.668 33.8963 140.052 33.8963C140.459 33.8963 140.792 33.9914 141.052 34.1817C141.312 34.372 141.442 34.6015 141.442 34.8701V43.635C141.442 45.3588 140.781 46.8643 139.459 48.1515C138.137 49.4388 136.572 50.0824 134.765 50.0824C132.934 50.0824 131.359 49.4388 130.037 48.1515C128.715 46.8643 128.054 45.3588 128.054 43.635ZM143.742 43.5678V40.0418C143.742 38.318 144.403 36.8293 145.724 35.5756C147.046 34.3219 148.633 33.6951 150.486 33.6951C152.249 33.6951 153.774 34.2828 155.062 35.4581C156.35 36.6334 156.994 38.1054 156.994 39.874C156.994 40.5232 156.915 41.0437 156.756 41.4355C156.598 41.8273 156.355 42.1071 156.028 42.275C155.7 42.4429 155.395 42.5492 155.113 42.594C154.83 42.6388 154.452 42.6612 153.977 42.6612H146.555V43.6686C146.555 44.8999 147.001 45.8849 147.893 46.6237C148.786 47.3625 149.944 47.7319 151.367 47.7319C152.113 47.7319 152.763 47.6199 153.316 47.3961C153.87 47.1722 154.316 46.9539 154.655 46.7413C154.994 46.5286 155.265 46.4223 155.468 46.4223C155.785 46.4223 156.056 46.5622 156.282 46.842C156.508 47.1218 156.621 47.4073 156.621 47.6983C156.621 48.2132 156.107 48.7393 155.079 49.2765C154.051 49.8138 152.78 50.0825 151.266 50.0825C149.051 50.0825 147.244 49.4836 145.843 48.2859C144.442 47.0882 143.742 45.5155 143.742 43.5678ZM146.555 40.7806H152.825C153.412 40.7806 153.808 40.7079 154.011 40.5624C154.215 40.4168 154.316 40.1314 154.316 39.7061C154.316 38.6987 153.943 37.8144 153.198 37.0532C152.452 36.292 151.537 35.9114 150.452 35.9114C149.39 35.9114 148.475 36.264 147.707 36.9692C146.939 37.6744 146.555 38.5419 146.555 39.5717L146.555 40.7806ZM158.413 48.269C158.413 47.7765 158.583 47.3567 158.921 47.0097C159.26 46.6627 159.678 46.4892 160.175 46.4892C160.65 46.4892 161.057 46.6627 161.396 47.0097C161.735 47.3567 161.904 47.7765 161.904 48.269C161.904 48.7391 161.735 49.1477 161.396 49.4947C161.057 49.8417 160.65 50.0152 160.175 50.0152C159.678 50.0152 159.26 49.8417 158.921 49.4947C158.583 49.1477 158.413 48.7391 158.413 48.269ZM160.917 56.2948C160.917 55.9366 161.03 55.64 161.256 55.4049C161.482 55.1699 161.753 55.0523 162.069 55.0523C162.95 55.0523 163.527 54.7277 163.798 54.0785C164.069 53.4293 164.205 52.4555 164.205 51.157V34.8704C164.205 34.5794 164.334 34.3443 164.594 34.1652C164.854 33.9861 165.187 33.8966 165.594 33.8966C166.001 33.8966 166.34 33.9861 166.611 34.1652C166.882 34.3443 167.018 34.5794 167.018 34.8704V51.157C167.018 53.1047 166.634 54.6494 165.865 55.7911C165.097 56.9329 163.933 57.5037 162.374 57.5037C161.403 57.5037 160.917 57.1008 160.917 56.2948ZM163.832 27.9192C163.832 27.4938 164.001 27.1245 164.34 26.811C164.679 26.4976 165.097 26.3409 165.594 26.3409C166.069 26.3409 166.475 26.4976 166.814 26.811C167.153 27.1245 167.323 27.4938 167.323 27.9192C167.323 28.3445 167.153 28.7195 166.814 29.0441C166.475 29.3688 166.069 29.5311 165.594 29.5311C165.12 29.5311 164.707 29.3688 164.357 29.0441C164.007 28.7195 163.832 28.3445 163.832 27.9192ZM169.115 47.53C169.115 47.239 169.211 46.9535 169.403 46.6737C169.595 46.3939 169.826 46.254 170.098 46.254C170.278 46.254 170.538 46.3883 170.877 46.6569C171.216 46.9256 171.702 47.1886 172.334 47.4461C172.967 47.7035 173.713 47.8322 174.571 47.8322C175.701 47.8322 176.52 47.6308 177.029 47.2278C177.537 46.8248 177.791 46.3211 177.791 45.7167C177.791 44.9779 177.509 44.3902 176.944 43.9537C176.379 43.5171 175.69 43.1869 174.876 42.963C174.063 42.7392 173.249 42.4929 172.436 42.2243C171.623 41.9556 170.933 41.5078 170.369 40.881C169.804 40.2542 169.521 39.4259 169.521 38.3961C169.521 37.12 169.979 36.0175 170.894 35.0884C171.809 34.1594 173.204 33.6948 175.08 33.6948C176.277 33.6948 177.373 33.8795 178.367 34.2489C179.361 34.6183 179.858 35.038 179.858 35.5082C179.858 35.7768 179.751 36.079 179.537 36.4148C179.322 36.7506 179.056 36.9185 178.74 36.9185C178.65 36.9185 178.215 36.7562 177.435 36.4316C176.656 36.107 175.882 35.9447 175.113 35.9447C174.074 35.9447 173.3 36.1853 172.792 36.6667C172.283 37.148 172.029 37.6909 172.029 38.2953C172.029 38.9222 172.312 39.4147 172.877 39.7729C173.441 40.1311 174.136 40.4109 174.961 40.6124C175.786 40.8139 176.605 41.0601 177.418 41.3512C178.232 41.6422 178.921 42.1403 179.486 42.8455C180.051 43.5507 180.333 44.463 180.333 45.5823C180.333 46.9703 179.836 48.0673 178.842 48.8732C177.848 49.6791 176.458 50.0821 174.673 50.0821C173.136 50.0821 171.826 49.8079 170.741 49.2594C169.657 48.7109 169.115 48.1344 169.115 47.53Z" fill="white"/>
</g>
<defs>
<clipPath id="clip0_581_5">
<rect width="136" height="45" fill="white" transform="translate(48 17.7236)"/>
</clipPath>
</defs>
</svg>
