<svg width="233" height="80" viewBox="0 0 233 80" fill="none" xmlns="http://www.w3.org/2000/svg">
<rect width="232.872" height="79.5745" rx="8" fill="#14161D"/>
<g clip-path="url(#clip0_580_5327)">
<path d="M43.6986 53.9883V48.3508C49.7869 48.3508 54.4833 42.4578 52.136 36.2218C51.7089 35.0644 51.0279 34.0132 50.1412 33.1428C49.2545 32.2723 48.1837 31.6037 47.0047 31.1844C45.6364 30.6793 44.1639 30.5063 42.7127 30.6802C41.2616 30.8541 39.8748 31.3698 38.6703 32.1832C37.4659 32.9967 36.4796 34.0839 35.7954 35.3522C35.1112 36.6205 34.7494 38.0324 34.7408 39.4675H29C29 30.0716 38.3071 22.6407 48.4823 25.7166C50.6689 26.3909 52.6572 27.574 54.2777 29.1652C55.8982 30.7564 57.103 32.7085 57.7894 34.8553C60.9209 44.8496 53.3533 53.9883 43.6986 53.9883Z" fill="#0080FF"/>
<path d="M43.7859 48.351H38.0451V42.7992H43.7859M38.0451 52.7077H33.6963V48.351H38.0451V52.7077ZM33.6963 48.351H30.0479V44.7641H33.6963M81.4475 33.4033C79.7953 32.2922 77.621 31.6887 75.1846 31.6887H69.8804V48.3441H75.1863C77.6221 48.3441 79.7098 47.7463 81.4493 46.5507C82.3994 45.8721 83.1496 44.9587 83.6237 43.9034C84.1476 42.7923 84.4061 41.4258 84.4061 39.9735C84.4061 38.5213 84.1459 37.1548 83.6237 36.1294C83.0997 34.8555 82.4046 34.0017 81.4475 33.4033ZM73.0119 34.5143H74.6641C76.491 34.5143 78.0558 34.8572 79.2731 35.6254C80.5778 36.3935 81.1943 37.8543 81.1943 39.9821C81.1943 42.1099 80.4957 43.6547 79.2731 44.5086C78.1432 45.1944 76.6639 45.6197 74.7497 45.6197H73.0119V34.5143ZM88.1454 31.4401C87.9037 31.4337 87.6632 31.4761 87.4388 31.5646C87.2144 31.653 87.0109 31.7857 86.8408 31.9544C86.6426 32.1048 86.4838 32.2995 86.3778 32.5223C86.2718 32.7451 86.2215 32.9895 86.2312 33.2352C86.2312 33.7109 86.4237 34.1671 86.7663 34.5034C87.1089 34.8397 87.5736 35.0287 88.0581 35.0287C88.5426 35.0287 89.0072 34.8397 89.3498 34.5034C89.6925 34.1671 89.8849 33.7109 89.8849 33.2352C89.8913 32.9979 89.8481 32.7619 89.758 32.5416C89.6678 32.3213 89.5327 32.1215 89.361 31.9544C89.1007 31.6115 88.6624 31.4401 88.1384 31.4401M86.5666 36.565H89.6107V48.267H86.5788V36.565M100.495 37.5937C99.6217 36.8256 98.5738 36.3129 97.4508 36.3129C96.6842 36.2963 95.9229 36.4407 95.2178 36.7364C94.5126 37.0321 93.88 37.4723 93.3622 38.0275C92.2758 39.1572 91.6828 40.6594 91.71 42.2128C91.71 43.8365 92.234 45.287 93.2819 46.3981C94.3298 47.5091 95.7165 48.0218 97.3705 48.0218C98.4348 48.0382 99.4746 47.7077 100.327 47.0822V47.3377C100.327 48.2773 100.067 49.0522 99.5449 49.5666C99.0227 50.081 98.3223 50.3347 97.3705 50.3347C95.9732 50.3347 95.1087 49.8204 94.0661 48.3698L91.9702 50.3347L92.0576 50.4205C92.4925 51.0189 93.1876 51.6207 94.0573 52.2139C94.9271 52.8072 96.0571 53.0712 97.3617 53.0712C99.1886 53.0712 100.581 52.5568 101.623 51.4475C102.666 50.3382 103.275 48.9699 103.275 47.1765V36.565H100.322V37.5937H100.497M99.7143 44.512C99.1903 45.1104 98.4917 45.3693 97.6185 45.3693C96.7452 45.3693 96.0466 45.1139 95.5227 44.512C94.9987 43.9102 94.7402 43.1404 94.7402 42.2059C94.7402 41.2715 95.0179 40.4931 95.5419 39.8947C96.0658 39.2963 96.7644 39.0374 97.6377 39.0374C98.5109 39.0374 99.2095 39.2929 99.7335 39.8947C100.257 40.4965 100.516 41.2663 100.516 42.2008C100.516 43.1352 100.256 43.9154 99.7335 44.5069M106.082 36.5632H109.126V48.2652H106.063V36.565M107.542 31.4401C107.301 31.4342 107.06 31.4766 106.836 31.5646C106.612 31.6527 106.408 31.7845 106.237 31.9523C106.066 32.12 105.932 32.3201 105.842 32.5403C105.752 32.7606 105.709 32.9964 105.715 33.2335C105.715 33.7092 105.908 34.1653 106.25 34.5017C106.593 34.838 107.058 35.027 107.542 35.027C108.027 35.027 108.491 34.838 108.834 34.5017C109.176 34.1653 109.369 33.7092 109.369 33.2335C109.375 32.9963 109.332 32.7603 109.242 32.5399C109.152 32.3195 109.018 32.1194 108.847 31.9516C108.676 31.7839 108.472 31.652 108.247 31.5641C108.022 31.4761 107.782 31.434 107.54 31.4401M115.627 33.4033H112.673V36.565H110.927V39.2123H112.673V44.0817C112.673 45.6248 113.023 46.729 113.63 47.3274C114.238 47.9258 115.377 48.267 116.849 48.267C117.344 48.281 117.839 48.2524 118.329 48.1812H118.503V45.5322L117.455 45.6179C116.757 45.6179 116.233 45.5322 116.058 45.275C115.798 45.0195 115.709 44.5069 115.709 43.7319V39.298H118.493V36.649H115.718L115.627 33.4033ZM132.5 31.6887H135.544V48.3441H132.503V31.699M165.903 44.1691C165.459 44.6741 164.963 45.1337 164.424 45.5408C163.95 45.8228 163.406 45.9705 162.852 45.9677C162.444 45.9642 162.041 45.8782 161.669 45.7151C161.296 45.552 160.962 45.3152 160.687 45.0195C160.077 44.3337 159.813 43.5673 159.813 42.542C159.813 41.5167 160.074 40.7485 160.687 40.0644C160.951 39.7539 161.284 39.5075 161.662 39.3445C162.039 39.1815 162.449 39.1063 162.861 39.1248C163.818 39.1248 164.861 39.7232 165.73 40.7485L167.73 38.8625C166.426 37.2388 164.773 36.4707 162.772 36.4707C161.12 36.4707 159.728 37.069 158.51 38.2641C157.371 39.4368 156.744 41.0005 156.764 42.6209C156.764 44.3354 157.373 45.8666 158.51 46.9776C159.051 47.5551 159.711 48.0135 160.445 48.3226C161.18 48.6318 161.973 48.7846 162.772 48.7711C164.946 48.7711 166.686 47.8315 167.903 46.1237L165.903 44.1588M178.167 38.2658C177.71 37.6739 177.11 37.2026 176.421 36.8942C175.631 36.5352 174.769 36.3592 173.899 36.3798C172.247 36.3798 170.855 36.9782 169.81 38.1732C168.822 39.4154 168.299 40.954 168.331 42.53C168.331 44.3234 168.855 45.7757 169.983 46.8867C171.111 47.9978 172.505 48.6013 174.332 48.6013C176.332 48.6013 177.986 47.8332 179.29 46.2095L179.378 46.1237L177.378 44.2377C177.203 44.4932 176.943 44.6646 176.679 44.9235C176.432 45.1789 176.135 45.3825 175.806 45.5219C175.354 45.7652 174.842 45.8837 174.327 45.8648C173.569 45.8756 172.83 45.6338 172.231 45.179C171.707 44.7521 171.449 44.1503 171.358 43.3856H179.36V42.2745C179.38 41.517 179.261 40.7622 179.011 40.0456C178.884 39.3833 178.583 38.7652 178.138 38.2521M171.644 41.0057C171.777 40.4888 172.047 40.0156 172.427 39.6341C172.632 39.4329 172.878 39.2759 173.149 39.1729C173.419 39.0698 173.709 39.0231 173.998 39.0357C174.697 39.0357 175.303 39.2071 175.651 39.6341C176 39.977 176.175 40.4913 176.26 41.0057H171.644ZM189.736 37.5028C188.863 36.7347 187.562 36.3918 185.997 36.3918C185.04 36.4184 184.097 36.622 183.217 36.9919C182.434 37.4188 181.645 38.0206 181.217 38.8779L183.138 40.6714C183.92 39.3906 184.79 38.9568 186.007 38.9568C186.577 38.942 187.133 39.1241 187.579 39.4712C187.777 39.6215 187.936 39.8162 188.042 40.039C188.148 40.2618 188.199 40.5062 188.189 40.752V41.3503C187.488 41.1184 186.754 41.0025 186.014 41.0074C184.536 41.0074 183.318 41.3503 182.361 42.0362C181.404 42.722 180.964 43.7508 180.964 44.9407C180.964 46.0517 181.313 46.9056 182.094 47.588C182.874 48.2704 183.84 48.5276 184.963 48.5276C186.086 48.5276 187.137 48.1006 188.182 47.3274V48.267H191.139V40.7502C191.139 39.3786 190.704 38.2727 189.741 37.5045M184.436 43.8245C184.785 43.569 185.218 43.4816 185.833 43.4816C186.605 43.5071 187.368 43.6512 188.094 43.9085V45.0195C187.375 45.6414 186.444 45.9765 185.485 45.9591C184.961 45.9591 184.528 45.8734 184.263 45.6162C183.997 45.359 183.828 45.1018 183.828 44.7589C183.859 44.5697 183.928 44.3887 184.033 44.2271C184.138 44.0655 184.276 43.9267 184.437 43.8193M202.695 37.6743C201.822 36.7347 200.696 36.3026 199.216 36.3026C197.998 36.3026 197.042 36.6455 196.347 37.3314V36.6455H193.388V48.3475H196.432V41.8596C196.432 41.0023 196.607 40.2359 197.042 39.7249C197.255 39.4755 197.523 39.2767 197.825 39.1437C198.128 39.0106 198.457 38.9467 198.788 38.9568C199.087 38.9425 199.384 38.9971 199.657 39.1162C199.93 39.2353 200.171 39.4156 200.36 39.6426C200.769 40.1886 200.983 40.8513 200.97 41.5287V48.3613H204V41.5184C203.913 39.8952 203.478 38.6139 202.695 37.6743ZM128.764 37.5028C127.891 36.7347 126.59 36.3918 125.025 36.3918C124.067 36.4174 123.122 36.6204 122.241 36.9902C121.458 37.4171 120.669 38.0189 120.241 38.8762L122.162 40.6697C122.945 39.3889 123.814 38.9551 125.032 38.9551C125.601 38.9403 126.157 39.1223 126.603 39.4695C126.802 39.6198 126.96 39.8145 127.066 40.0373C127.172 40.2601 127.223 40.5045 127.213 40.7502V41.3486C126.513 41.1166 125.778 41.0008 125.039 41.0057C123.56 41.0057 122.342 41.3486 121.385 42.0345C120.428 42.7203 119.988 43.749 119.988 44.939C119.988 46.05 120.337 46.9039 121.118 47.5863C121.898 48.2687 122.864 48.5259 123.987 48.5259C125.11 48.5259 126.162 48.0989 127.206 47.3257V48.2652H130.163V40.7502C130.163 39.3786 129.639 38.2727 128.766 37.5045M123.372 43.8245C123.722 43.569 124.155 43.4816 124.77 43.4816C125.542 43.5071 126.305 43.6512 127.031 43.9085V45.0195C126.312 45.6414 125.381 45.9765 124.422 45.9591C123.898 45.9591 123.465 45.8734 123.2 45.6162C122.934 45.359 122.765 45.1018 122.765 44.7589C122.895 44.4054 123.103 44.0845 123.374 43.8193M146.428 48.603C144.707 48.6037 143.024 48.1033 141.593 47.1651C140.162 46.2269 139.046 44.8931 138.387 43.3323C137.728 41.7715 137.555 40.0538 137.89 38.3966C138.226 36.7394 139.054 35.217 140.271 34.0221C141.487 32.8271 143.038 32.0132 144.726 31.6833C146.414 31.3535 148.163 31.5224 149.754 32.1688C151.344 32.8153 152.703 33.9101 153.659 35.3149C154.615 36.7197 155.126 38.3714 155.126 40.061C155.117 42.3234 154.199 44.4908 152.569 46.0909C150.94 47.691 148.733 48.594 146.428 48.603ZM146.428 34.4252C145.309 34.4235 144.215 34.7475 143.284 35.3564C142.353 35.9653 141.627 36.8315 141.197 37.8456C140.768 38.8598 140.655 39.9761 140.872 41.0535C141.088 42.131 141.626 43.121 142.416 43.8984C143.206 44.6759 144.214 45.2057 145.311 45.421C146.408 45.6363 147.545 45.5274 148.579 45.108C149.613 44.6885 150.497 43.9775 151.119 43.0648C151.741 42.152 152.074 41.0787 152.075 39.9804C152.076 39.251 151.931 38.5285 151.648 37.8543C151.364 37.1802 150.948 36.5676 150.422 36.0518C149.897 35.5359 149.273 35.127 148.587 34.8485C147.9 34.5699 147.164 34.4272 146.421 34.4286" fill="#0080FF"/>
</g>
<defs>
<clipPath id="clip0_580_5327">
<rect width="175" height="29" fill="white" transform="translate(29 25)"/>
</clipPath>
</defs>
</svg>
