<svg width="233" height="80" viewBox="0 0 233 80" fill="none" xmlns="http://www.w3.org/2000/svg">
<rect width="232.872" height="79.5745" rx="8" fill="#14161D"/>
<path d="M64.4176 34.5569H65.169L67.3104 32.4194L67.4156 31.5119C66.1889 30.4311 64.7063 29.6803 63.1081 29.3304C61.5098 28.9806 59.8486 29.0432 58.2813 29.5124C56.714 29.9815 55.2924 30.8418 54.1508 32.0118C53.0092 33.1819 52.1853 34.6231 51.7568 36.1994C51.9954 36.1018 52.2597 36.0859 52.5082 36.1544L56.7911 35.4494C56.7911 35.4494 57.009 35.0894 57.1217 35.1119C58.0394 34.1059 59.3076 33.488 60.6667 33.3849C62.0259 33.2817 63.3731 33.701 64.4326 34.5569H64.4176Z" fill="#EA4335"/>
<path d="M70.361 36.1995C69.8688 34.3903 68.8581 32.7637 67.4531 31.5195L64.4476 34.5195C65.074 35.0304 65.576 35.6766 65.9157 36.4093C66.2554 37.1421 66.424 37.9423 66.4087 38.7495V39.282C66.76 39.282 67.1078 39.3511 67.4324 39.4853C67.7569 39.6195 68.0518 39.8161 68.3002 40.0641C68.5485 40.312 68.7456 40.6063 68.88 40.9303C69.0144 41.2542 69.0836 41.6014 69.0836 41.952C69.0836 42.3027 69.0144 42.6499 68.88 42.9738C68.7456 43.2977 68.5485 43.5921 68.3002 43.84C68.0518 44.0879 67.7569 44.2846 67.4324 44.4188C67.1078 44.553 66.76 44.622 66.4087 44.622H61.0589L60.5254 45.162V48.3645L61.0589 48.897H66.4087C67.9026 48.9086 69.3606 48.44 70.567 47.5604C71.7734 46.6807 72.6641 45.4369 73.1074 44.0128C73.5506 42.5888 73.5229 41.0601 73.0283 39.653C72.5337 38.2458 71.5985 37.035 70.361 36.1995Z" fill="#4285F4"/>
<path d="M55.7012 48.8666H61.051V44.5916H55.7012C55.32 44.5915 54.9434 44.5096 54.5967 44.3516L53.8453 44.5841L51.6888 46.7216L51.501 47.4716C52.7103 48.383 54.1859 48.8731 55.7012 48.8666Z" fill="#34A853"/>
<path d="M55.7014 35C54.2518 35.0087 52.8412 35.469 51.6665 36.3167C50.4917 37.1645 49.6116 38.3573 49.149 39.7285C48.6864 41.0998 48.6644 42.581 49.0861 43.9653C49.5078 45.3496 50.3521 46.5679 51.5012 47.45L54.6044 44.3525C54.21 44.1747 53.8648 43.904 53.5983 43.5637C53.3318 43.2234 53.1519 42.8237 53.0743 42.3987C52.9966 41.9738 53.0233 41.5364 53.1522 41.1241C53.2811 40.7118 53.5083 40.3368 53.8142 40.0314C54.1202 39.726 54.4959 39.4992 54.909 39.3705C55.3221 39.2419 55.7603 39.2152 56.186 39.2927C56.6117 39.3703 57.0122 39.5498 57.3531 39.8158C57.694 40.0818 57.9652 40.4264 58.1434 40.82L61.2466 37.7225C60.5952 36.8726 59.7558 36.1846 58.7938 35.7123C57.8318 35.24 56.7734 34.9962 55.7014 35Z" fill="#FBBC05"/>
<path d="M87.665 45.8831C86.7439 45.8948 85.8299 45.7208 84.9778 45.3716C84.1257 45.0223 83.3529 44.505 82.7059 43.8506C82.0384 43.2239 81.5088 42.4657 81.1505 41.6239C80.7922 40.7821 80.6131 39.8751 80.6245 38.9606C80.6135 38.0461 80.7928 37.1393 81.1511 36.2976C81.5094 35.4558 82.0388 34.6975 82.7059 34.0706C83.3498 33.4094 84.1211 32.8851 84.9733 32.5294C85.8256 32.1736 86.7412 31.9938 87.665 32.0006C88.5452 31.9889 89.4189 32.1519 90.2354 32.4802C91.052 32.8086 91.795 33.2956 92.4212 33.9131L91.0838 35.2706C90.1678 34.3871 88.9386 33.9016 87.665 33.9206C87.0043 33.9125 86.3492 34.0417 85.7412 34.2999C85.1332 34.5581 84.5857 34.9398 84.1335 35.4206C83.6635 35.886 83.2927 36.4416 83.0435 37.0538C82.7943 37.6661 82.6717 38.3223 82.6833 38.9831C82.6778 39.6363 82.8033 40.284 83.0523 40.8881C83.3014 41.4922 83.669 42.0404 84.1335 42.5006C85.064 43.4262 86.3196 43.9527 87.6332 43.9681C88.9467 43.9835 90.2144 43.4866 91.1664 42.5831C91.7558 41.9388 92.1174 41.1195 92.1958 40.2506H87.6875V38.3306H94.0668C94.1294 38.7173 94.1546 39.1091 94.1419 39.5006C94.1816 40.3109 94.0562 41.1208 93.7734 41.8814C93.4905 42.642 93.0561 43.3374 92.4964 43.9256C91.874 44.5724 91.1221 45.081 90.2897 45.4182C89.4572 45.7555 88.5629 45.9139 87.665 45.8831ZM102.497 44.6081C101.641 45.4272 100.501 45.8846 99.3151 45.8846C98.1292 45.8846 96.9892 45.4272 96.133 44.6081C95.7069 44.1957 95.3713 43.6994 95.1476 43.1507C94.9238 42.602 94.8167 42.0128 94.8332 41.4206C94.8172 40.8284 94.9245 40.2394 95.1482 39.6908C95.372 39.1421 95.7073 38.6458 96.133 38.2331C96.99 37.4157 98.1298 36.9595 99.3151 36.9595C100.501 36.9595 101.64 37.4157 102.497 38.2331C102.923 38.6458 103.258 39.1421 103.482 39.6908C103.706 40.2394 103.813 40.8284 103.797 41.4206C103.813 42.0133 103.704 42.6028 103.479 43.1516C103.254 43.7003 102.917 44.1963 102.49 44.6081H102.497ZM97.5381 43.3556C97.7659 43.5983 98.0411 43.7918 98.3467 43.9241C98.6524 44.0564 98.982 44.1247 99.3151 44.1247C99.6483 44.1247 99.9779 44.0564 100.284 43.9241C100.589 43.7918 100.864 43.5983 101.092 43.3556C101.34 43.0994 101.535 42.7963 101.664 42.4639C101.793 42.1316 101.854 41.7769 101.844 41.4206C101.855 41.0631 101.794 40.7071 101.665 40.3734C101.536 40.0398 101.341 39.7354 101.092 39.4781C100.861 39.2378 100.584 39.0467 100.278 38.9161C99.971 38.7855 99.6411 38.7181 99.3076 38.7181C98.9742 38.7181 98.6442 38.7855 98.3376 38.9161C98.0309 39.0467 97.7538 39.2378 97.5231 39.4781C97.2742 39.7354 97.0795 40.0398 96.9505 40.3734C96.8214 40.7071 96.7607 41.0631 96.7717 41.4206C96.7622 41.7774 96.8245 42.1324 96.9548 42.4648C97.0852 42.7972 97.281 43.1001 97.5306 43.3556H97.5381ZM112.28 44.6081C111.424 45.4272 110.284 45.8846 109.098 45.8846C107.912 45.8846 106.772 45.4272 105.916 44.6081C105.49 44.1957 105.154 43.6994 104.931 43.1507C104.707 42.602 104.6 42.0128 104.616 41.4206C104.6 40.8284 104.707 40.2394 104.931 39.6908C105.155 39.1421 105.49 38.6458 105.916 38.2331C106.772 37.414 107.912 36.9566 109.098 36.9566C110.284 36.9566 111.424 37.414 112.28 38.2331C112.706 38.6458 113.041 39.1421 113.265 39.6908C113.489 40.2394 113.596 40.8284 113.58 41.4206C113.597 42.0128 113.489 42.602 113.266 43.1507C113.042 43.6994 112.706 44.1957 112.28 44.6081ZM107.321 43.3556C107.549 43.5983 107.824 43.7918 108.13 43.9241C108.435 44.0564 108.765 44.1247 109.098 44.1247C109.431 44.1247 109.761 44.0564 110.067 43.9241C110.372 43.7918 110.647 43.5983 110.875 43.3556C111.123 43.0994 111.318 42.7963 111.447 42.4639C111.576 42.1316 111.637 41.7769 111.627 41.4206C111.638 41.0631 111.577 40.7071 111.448 40.3734C111.319 40.0398 111.124 39.7354 110.875 39.4781C110.644 39.2378 110.367 39.0467 110.061 38.9161C109.754 38.7855 109.424 38.7181 109.091 38.7181C108.757 38.7181 108.427 38.7855 108.121 38.9161C107.814 39.0467 107.537 39.2378 107.306 39.4781C107.057 39.7354 106.863 40.0398 106.733 40.3734C106.604 40.7071 106.544 41.0631 106.555 41.4206C106.545 41.7774 106.607 42.1324 106.738 42.4648C106.868 42.7972 107.064 43.1001 107.314 43.3556H107.321ZM118.712 49.8881C117.811 49.9167 116.928 49.6361 116.21 49.0931C115.572 48.6145 115.07 47.9787 114.752 47.2481L116.465 46.5356C116.652 46.9722 116.944 47.3561 117.314 47.6531C117.712 47.9726 118.21 48.1401 118.72 48.1256C119.043 48.1452 119.367 48.0951 119.669 47.9786C119.971 47.8621 120.244 47.682 120.47 47.4506C120.923 46.9055 121.146 46.2066 121.094 45.5006V44.8556H121.026C120.74 45.195 120.378 45.4633 119.97 45.639C119.562 45.8148 119.118 45.8932 118.674 45.8681C118.11 45.8698 117.552 45.7547 117.035 45.5301C116.517 45.3055 116.052 44.9762 115.669 44.5631C115.253 44.1533 114.925 43.6635 114.704 43.1233C114.483 42.5832 114.374 42.0039 114.384 41.4206C114.374 40.8339 114.482 40.2511 114.703 39.7072C114.924 39.1634 115.252 38.6696 115.669 38.2556C116.051 37.8408 116.516 37.5099 117.033 37.2839C117.551 37.0579 118.11 36.9419 118.674 36.9431C119.152 36.9423 119.625 37.0473 120.057 37.2506C120.431 37.4136 120.765 37.6569 121.034 37.9631H121.101V37.2506H122.965V45.2381C123.014 45.8699 122.933 46.5052 122.728 47.1048C122.522 47.7045 122.197 48.256 121.77 48.7256C121.364 49.1134 120.884 49.4161 120.359 49.6157C119.834 49.8154 119.274 49.908 118.712 49.8881ZM118.847 44.1281C119.168 44.1351 119.487 44.0716 119.78 43.942C120.074 43.8123 120.335 43.6198 120.545 43.3781C121.009 42.8478 121.253 42.1615 121.229 41.4581C121.257 40.7428 121.013 40.0435 120.545 39.5006C120.335 39.2584 120.074 39.0656 119.78 38.936C119.487 38.8063 119.168 38.743 118.847 38.7506C118.518 38.7438 118.19 38.8072 117.887 38.9365C117.584 39.0659 117.312 39.2581 117.089 39.5006C116.592 40.024 116.322 40.7221 116.338 41.4431C116.33 41.7967 116.392 42.1484 116.521 42.4779C116.65 42.8074 116.843 43.1082 117.089 43.3631C117.311 43.6079 117.582 43.8027 117.886 43.9346C118.189 44.0665 118.517 44.1325 118.847 44.1281ZM126.278 32.5031V45.6131H124.317V32.5031H126.278ZM131.658 45.8831C131.071 45.8982 130.487 45.792 129.943 45.5713C129.398 45.3507 128.905 45.0202 128.495 44.6006C128.079 44.1841 127.751 43.6874 127.533 43.1408C127.315 42.5941 127.21 42.0089 127.225 41.4206C127.203 40.8309 127.3 40.2427 127.51 39.6912C127.721 39.1397 128.04 38.6362 128.45 38.2106C128.836 37.8044 129.303 37.4832 129.82 37.2676C130.338 37.0519 130.895 36.9465 131.455 36.9581C131.971 36.9527 132.482 37.0522 132.958 37.2506C133.387 37.4233 133.777 37.6781 134.108 38.0006C134.392 38.274 134.644 38.5784 134.859 38.9081C135.034 39.1864 135.182 39.4802 135.303 39.7856L135.505 40.2956L129.494 42.7631C129.676 43.18 129.98 43.5322 130.367 43.7732C130.753 44.0142 131.203 44.1327 131.658 44.1131C132.101 44.1143 132.537 44.0009 132.923 43.784C133.308 43.5672 133.631 43.2542 133.86 42.8756L135.363 43.8881C134.979 44.4357 134.488 44.9001 133.92 45.2531C133.244 45.6794 132.458 45.8984 131.658 45.8831ZM129.149 41.2856L133.146 39.6281C133.023 39.3358 132.803 39.0948 132.522 38.9456C132.209 38.7687 131.853 38.6781 131.493 38.6831C130.882 38.6989 130.301 38.9549 129.878 39.3956C129.624 39.6376 129.427 39.9325 129.301 40.2593C129.175 40.586 129.123 40.9364 129.149 41.2856Z" fill="white"/>
<path d="M145.777 45.8821C144.943 45.8965 144.114 45.7425 143.341 45.4294C142.569 45.1162 141.867 44.6504 141.279 44.0599C140.691 43.4694 140.228 42.7664 139.919 41.9931C139.61 41.2197 139.461 40.392 139.48 39.5596C139.461 38.7272 139.61 37.8995 139.919 37.1262C140.228 36.3528 140.691 35.6498 141.279 35.0593C141.867 34.4688 142.569 34.003 143.341 33.6899C144.114 33.3767 144.943 33.2227 145.777 33.2371C146.621 33.2108 147.46 33.3752 148.232 33.718C149.003 34.0609 149.687 34.5733 150.232 35.2171L149.15 36.2671C148.75 35.7645 148.237 35.3633 147.652 35.0962C147.067 34.829 146.427 34.7034 145.784 34.7296C145.166 34.7157 144.55 34.8268 143.976 35.0562C143.401 35.2856 142.879 35.6286 142.441 36.0646C141.985 36.5221 141.629 37.0688 141.395 37.6702C141.161 38.2717 141.054 38.9149 141.081 39.5596C141.054 40.2043 141.161 40.8475 141.395 41.449C141.629 42.0504 141.985 42.5971 142.441 43.0546C142.879 43.4906 143.401 43.8336 143.976 44.063C144.55 44.2924 145.166 44.4035 145.784 44.3896C146.502 44.3976 147.213 44.244 147.863 43.9402C148.514 43.6364 149.087 43.1901 149.541 42.6346L150.623 43.7146C150.057 44.3908 149.345 44.9316 148.542 45.2971C147.676 45.6963 146.731 45.8962 145.777 45.8821Z" fill="white"/>
<path d="M153.532 45.6125H151.977V33.5H153.532V45.6125Z" fill="white"/>
<path d="M156.071 38.3219C156.886 37.514 157.988 37.0605 159.137 37.0605C160.286 37.0605 161.388 37.514 162.203 38.3219C162.601 38.7419 162.913 39.2364 163.119 39.777C163.325 40.3176 163.422 40.8936 163.405 41.4719C163.422 42.0501 163.325 42.6261 163.119 43.1667C162.913 43.7073 162.601 44.2018 162.203 44.6219C161.388 45.4298 160.286 45.8832 159.137 45.8832C157.988 45.8832 156.886 45.4298 156.071 44.6219C155.673 44.2018 155.361 43.7073 155.155 43.1667C154.949 42.6261 154.852 42.0501 154.869 41.4719C154.852 40.8936 154.949 40.3176 155.155 39.777C155.361 39.2364 155.673 38.7419 156.071 38.3219ZM157.229 43.6469C157.474 43.9054 157.769 44.1113 158.096 44.252C158.424 44.3927 158.777 44.4653 159.133 44.4653C159.49 44.4653 159.843 44.3927 160.17 44.252C160.498 44.1113 160.793 43.9054 161.038 43.6469C161.31 43.3557 161.521 43.0134 161.659 42.64C161.797 42.2666 161.859 41.8695 161.842 41.4719C161.859 41.0742 161.797 40.6771 161.659 40.3037C161.521 39.9303 161.31 39.588 161.038 39.2969C160.793 39.0383 160.498 38.8324 160.17 38.6917C159.843 38.551 159.49 38.4784 159.133 38.4784C158.777 38.4784 158.424 38.551 158.096 38.6917C157.769 38.8324 157.474 39.0383 157.229 39.2969C156.957 39.588 156.746 39.9303 156.608 40.3037C156.47 40.6771 156.407 41.0742 156.425 41.4719C156.409 41.8688 156.473 42.2648 156.613 42.6368C156.752 43.0089 156.964 43.3497 157.236 43.6394L157.229 43.6469Z" fill="white"/>
<path d="M172.023 45.612H170.521V44.4645H170.475C170.208 44.9004 169.829 45.2575 169.378 45.4995C168.91 45.7703 168.379 45.9126 167.838 45.912C167.399 45.942 166.959 45.8726 166.55 45.709C166.142 45.5453 165.775 45.2917 165.479 44.967C164.91 44.2484 164.624 43.3467 164.675 42.432V37.332H166.23V42.147C166.23 43.692 166.914 44.4645 168.281 44.4645C168.585 44.474 168.887 44.4109 169.161 44.2804C169.436 44.15 169.675 43.9559 169.859 43.7145C170.262 43.2046 170.477 42.5716 170.468 41.922V37.332H172.023V45.612Z" fill="white"/>
<path d="M177.305 45.8825C176.777 45.8842 176.255 45.7718 175.776 45.553C175.296 45.3342 174.869 45.0142 174.525 44.615C173.746 43.7562 173.329 42.6306 173.36 41.4725C173.329 40.3144 173.746 39.1888 174.525 38.33C174.869 37.9308 175.296 37.6108 175.776 37.392C176.255 37.1732 176.777 37.0608 177.305 37.0625C177.896 37.0532 178.48 37.1925 179.003 37.4675C179.463 37.6984 179.852 38.048 180.13 38.48H180.198L180.13 37.3325V33.5H181.685V45.6125H180.183V44.465H180.115C179.837 44.897 179.448 45.2466 178.988 45.4775C178.469 45.7501 177.891 45.8893 177.305 45.8825ZM177.56 44.465C177.912 44.4701 178.26 44.4005 178.583 44.2609C178.906 44.1212 179.195 43.9147 179.431 43.655C179.96 43.0545 180.23 42.2703 180.183 41.4725C180.23 40.6747 179.96 39.8905 179.431 39.29C179.193 39.0289 178.903 38.8203 178.58 38.6775C178.256 38.5348 177.906 38.461 177.553 38.461C177.199 38.461 176.849 38.5348 176.526 38.6775C176.202 38.8203 175.912 39.0289 175.674 39.29C175.412 39.5854 175.21 39.9295 175.081 40.3027C174.953 40.676 174.899 41.0709 174.923 41.465C174.899 41.8591 174.953 42.254 175.081 42.6273C175.21 43.0005 175.412 43.3446 175.674 43.64C175.911 43.9043 176.202 44.1148 176.527 44.2572C176.853 44.3995 177.205 44.4704 177.56 44.465Z" fill="white"/>
</svg>
