<svg width="53" height="53" viewBox="0 0 53 53" fill="none" xmlns="http://www.w3.org/2000/svg">
<g filter="url(#filter0_d_41_199)">
<rect x="4.5" y="0.59375" width="44" height="44" rx="15" fill="white" shape-rendering="crispEdges"/>
</g>
<g clip-path="url(#clip0_41_199)">
<path d="M19.1818 31.5054V22.2806L16.1862 19.6633L13.5 18.2109V29.8775C13.5 30.7782 14.2642 31.5054 15.2046 31.5054H19.1818Z" fill="#4285F4"/>
<path d="M32.8184 31.5053H36.7956C37.7389 31.5053 38.5002 30.7754 38.5002 29.8774V18.2109L35.4576 19.8745L32.8184 22.2805V31.5053Z" fill="#34A853"/>
<path d="M19.182 22.2807L18.7744 18.6763L19.182 15.2266L26.0002 20.1103L32.8184 15.2266L33.2743 18.4901L32.8184 22.2807L26.0002 27.1644L19.182 22.2807Z" fill="#EA4335"/>
<path d="M32.8184 15.2262V22.2804L38.5002 18.2107V16.0401C38.5002 14.027 36.0939 12.8794 34.4094 14.0867L32.8184 15.2262Z" fill="#FBBC04"/>
<path d="M13.5 18.2107L16.1132 20.0825L19.1818 22.2804V15.2263L17.5908 14.0868C15.9033 12.8794 13.5 14.0271 13.5 16.0401V18.2107Z" fill="#C5221F"/>
</g>
<defs>
<filter id="filter0_d_41_199" x="0.5" y="0.59375" width="52" height="52" filterUnits="userSpaceOnUse" color-interpolation-filters="sRGB">
<feFlood flood-opacity="0" result="BackgroundImageFix"/>
<feColorMatrix in="SourceAlpha" type="matrix" values="0 0 0 0 0 0 0 0 0 0 0 0 0 0 0 0 0 0 127 0" result="hardAlpha"/>
<feOffset dy="4"/>
<feGaussianBlur stdDeviation="2"/>
<feComposite in2="hardAlpha" operator="out"/>
<feColorMatrix type="matrix" values="0 0 0 0 0 0 0 0 0 0 0 0 0 0 0 0 0 0 0.25 0"/>
<feBlend mode="normal" in2="BackgroundImageFix" result="effect1_dropShadow_41_199"/>
<feBlend mode="normal" in="SourceGraphic" in2="effect1_dropShadow_41_199" result="shape"/>
</filter>
<clipPath id="clip0_41_199">
<rect width="25" height="18" fill="white" transform="translate(13.5 13.5938)"/>
</clipPath>
</defs>
</svg>
