<svg width="70" height="70" viewBox="0 0 70 70" fill="none" xmlns="http://www.w3.org/2000/svg">
<path d="M67.1027 17.3262C67.1027 11.8655 60.9259 8.74844 56.6006 12.0209L52.5098 15.1198V15.1289L35 28.3834L17.4902 15.1198L13.4085 12.0293C9.07409 8.75684 2.89729 11.8746 2.89729 17.3346V23.2237V54.8924C2.89729 57.3354 4.85659 59.3136 7.27719 59.3136H17.4902V34.2725L35 47.527L52.5098 34.2725V34.2634L52.5301 34.248L52.5098 34.2725V59.3136H62.7228C65.1427 59.3136 67.1027 57.3354 67.1027 54.8924V23.2244L67.0761 23.2349L67.1027 23.2153V17.3262Z" fill="#B5332A"/>
<path d="M7.27719 59.3138H17.4902V34.2727L2.89729 23.2246V54.8933C2.89729 57.3356 4.85659 59.3138 7.27719 59.3138Z" fill="#4E85EB"/>
<path d="M52.5098 59.3138H62.7228C65.1427 59.3138 67.1027 57.3356 67.1027 54.8926V23.2246L52.5098 34.2727V59.3138Z" fill="#58A45C"/>
<path d="M52.5098 15.1198V34.2634L67.1027 23.2153V17.3262C67.1027 11.8655 60.9259 8.74844 56.6006 12.0209L52.5098 15.1198Z" fill="#F2BC42"/>
<path d="M17.4902 34.2723V15.1196L35 28.3832L52.5098 15.1287V34.2723L35 47.5268L17.4902 34.2723Z" fill="#D85040"/>
<path d="M2.89729 17.3353V23.2244L17.4902 34.2725V15.1198L13.4085 12.0293C9.07409 8.75749 2.89729 11.8746 2.89729 17.3353Z" fill="#B5332A"/>
</svg>
