<svg width="53" height="53" viewBox="0 0 53 53" fill="none" xmlns="http://www.w3.org/2000/svg">
<g filter="url(#filter0_d_41_184)">
<rect x="4.5" y="0.59375" width="44" height="44" rx="15" fill="white" shape-rendering="crispEdges"/>
</g>
<g clip-path="url(#clip0_41_184)">
<path d="M15.0084 22.45C15.0079 24.4665 15.5347 26.4354 16.5366 28.1709L14.9126 34.1004L20.9807 32.5093C22.659 33.423 24.5395 33.9017 26.4505 33.9019H26.4555C32.7639 33.9019 37.899 28.7686 37.9017 22.4591C37.9029 19.4017 36.7133 16.5267 34.552 14.3637C32.3911 12.2009 29.5172 11.0092 26.455 11.0078C20.1459 11.0078 15.0111 16.1408 15.0085 22.45" fill="url(#paint0_linear_41_184)"/>
<path d="M14.5995 22.4464C14.5989 24.5354 15.1447 26.5748 16.1822 28.3724L14.5 34.5144L20.7857 32.8663C22.5176 33.8106 24.4675 34.3084 26.4517 34.3092H26.4568C32.9915 34.3092 38.3112 28.9912 38.314 22.4559C38.3151 19.2886 37.0827 16.3103 34.8442 14.0698C32.6054 11.8297 29.6287 10.5951 26.4568 10.5938C19.921 10.5938 14.6021 15.911 14.5995 22.4464ZM18.3429 28.0628L18.1082 27.6902C17.1216 26.1215 16.6008 24.3086 16.6016 22.4471C16.6036 17.0151 21.0245 12.5956 26.4606 12.5956C29.0931 12.5967 31.5672 13.623 33.428 15.4849C35.2887 17.3471 36.3127 19.8224 36.312 22.4551C36.3096 27.8872 31.8887 32.3072 26.4568 32.3072H26.4529C24.6843 32.3063 22.9497 31.8313 21.4369 30.9338L21.0769 30.7203L17.3469 31.6982L18.3429 28.0628Z" fill="url(#paint1_linear_41_184)"/>
<path d="M23.4935 17.4915C23.2716 16.9982 23.038 16.9882 22.8269 16.9795C22.6541 16.9721 22.4565 16.9727 22.2591 16.9727C22.0615 16.9727 21.7405 17.047 21.4692 17.3433C21.1975 17.6398 20.4321 18.3565 20.4321 19.8141C20.4321 21.2717 21.4938 22.6804 21.6418 22.8782C21.79 23.0757 23.6914 26.1626 26.7027 27.3502C29.2054 28.337 29.7147 28.1408 30.2579 28.0913C30.8012 28.042 32.0108 27.3748 32.2576 26.683C32.5046 25.9913 32.5046 25.3983 32.4305 25.2744C32.3565 25.151 32.1589 25.0769 31.8626 24.9288C31.5663 24.7806 30.1097 24.0638 29.8382 23.9649C29.5665 23.8662 29.3691 23.8169 29.1715 24.1135C28.9739 24.4097 28.4065 25.0769 28.2336 25.2744C28.0609 25.4725 27.8879 25.4971 27.5918 25.3489C27.2953 25.2003 26.3412 24.8878 25.2092 23.8786C24.3284 23.0933 23.7338 22.1235 23.561 21.8269C23.3881 21.5307 23.5425 21.3702 23.691 21.2225C23.8241 21.0898 23.9874 20.8766 24.1357 20.7036C24.2834 20.5306 24.3327 20.4072 24.4315 20.2096C24.5304 20.0118 24.4809 19.8388 24.4069 19.6906C24.3327 19.5424 23.757 18.0772 23.4935 17.4915Z" fill="white"/>
</g>
<defs>
<filter id="filter0_d_41_184" x="0.5" y="0.59375" width="52" height="52" filterUnits="userSpaceOnUse" color-interpolation-filters="sRGB">
<feFlood flood-opacity="0" result="BackgroundImageFix"/>
<feColorMatrix in="SourceAlpha" type="matrix" values="0 0 0 0 0 0 0 0 0 0 0 0 0 0 0 0 0 0 127 0" result="hardAlpha"/>
<feOffset dy="4"/>
<feGaussianBlur stdDeviation="2"/>
<feComposite in2="hardAlpha" operator="out"/>
<feColorMatrix type="matrix" values="0 0 0 0 0 0 0 0 0 0 0 0 0 0 0 0 0 0 0.25 0"/>
<feBlend mode="normal" in2="BackgroundImageFix" result="effect1_dropShadow_41_184"/>
<feBlend mode="normal" in="SourceGraphic" in2="effect1_dropShadow_41_184" result="shape"/>
</filter>
<linearGradient id="paint0_linear_41_184" x1="1164.37" y1="2320.26" x2="1164.37" y2="11.0078" gradientUnits="userSpaceOnUse">
<stop stop-color="#1FAF38"/>
<stop offset="1" stop-color="#60D669"/>
</linearGradient>
<linearGradient id="paint1_linear_41_184" x1="1205.2" y1="2402.66" x2="1205.2" y2="10.5938" gradientUnits="userSpaceOnUse">
<stop stop-color="#F9F9F9"/>
<stop offset="1" stop-color="white"/>
</linearGradient>
<clipPath id="clip0_41_184">
<rect width="23.814" height="24" fill="white" transform="translate(14.5 10.5938)"/>
</clipPath>
</defs>
</svg>
