<svg width="40" height="41" viewBox="0 0 40 41" fill="none" xmlns="http://www.w3.org/2000/svg">
<rect y="0.382812" width="39.814" height="40" rx="8" fill="white"/>
<g clip-path="url(#clip0_140_508)">
<path d="M8.50792 20.2391C8.50737 22.2556 9.03425 24.2245 10.0361 25.9599L8.41211 31.8894L14.4802 30.2984C16.1586 31.212 18.039 31.6908 19.95 31.6909H19.955C26.2634 31.6909 31.3985 26.5576 31.4012 20.2481C31.4024 17.1907 30.2129 14.3158 28.0516 12.1528C25.8906 9.98999 23.0167 8.79827 19.9545 8.79688C13.6454 8.79688 8.51062 13.9299 8.50802 20.2391" fill="url(#paint0_linear_140_508)"/>
<path d="M8.09953 20.2355C8.09888 22.3245 8.64465 24.3638 9.68223 26.1614L8 32.3035L14.2857 30.6554C16.0176 31.5997 17.9675 32.0975 19.9517 32.0983H19.9568C26.4915 32.0983 31.8112 26.7803 31.814 20.245C31.8151 17.0777 30.5827 14.0994 28.3442 11.8589C26.1054 9.61872 23.1287 8.38411 19.9568 8.38281C13.421 8.38281 8.10214 13.7 8.09953 20.2355ZM11.8429 25.8518L11.6082 25.4793C10.6216 23.9105 10.1008 22.0977 10.1016 20.2362C10.1036 14.8041 14.5245 10.3847 19.9606 10.3847C22.5931 10.3858 25.0672 11.412 26.928 13.274C28.7887 15.1361 29.8127 17.6115 29.812 20.2442C29.8096 25.6763 25.3887 30.0963 19.9568 30.0963H19.9529C18.1843 30.0954 16.4497 29.6204 14.9369 28.7228L14.5769 28.5093L10.8469 29.4873L11.8429 25.8518Z" fill="url(#paint1_linear_140_508)"/>
<path d="M16.993 15.2766C16.7711 14.7833 16.5375 14.7734 16.3264 14.7647C16.1536 14.7573 15.956 14.7578 15.7586 14.7578C15.561 14.7578 15.24 14.8321 14.9687 15.1284C14.697 15.425 13.9316 16.1416 13.9316 17.5992C13.9316 19.0569 14.9933 20.4655 15.1413 20.6634C15.2895 20.8609 17.1909 23.9478 20.2022 25.1353C22.7049 26.1222 23.2142 25.9259 23.7574 25.8764C24.3007 25.8271 25.5103 25.16 25.7571 24.4681C26.0041 23.7764 26.0041 23.1835 25.9301 23.0596C25.856 22.9361 25.6584 22.862 25.3622 22.7139C25.0658 22.5657 23.6092 21.849 23.3377 21.7501C23.0661 21.6513 22.8686 21.602 22.671 21.8987C22.4734 22.1948 21.9061 22.862 21.7331 23.0596C21.5604 23.2576 21.3875 23.2823 21.0913 23.1341C20.7948 22.9854 19.8407 22.673 18.7087 21.6638C17.8279 20.8785 17.2333 19.9087 17.0605 19.6121C16.8876 19.3159 17.042 19.1553 17.1905 19.0077C17.3236 18.8749 17.4869 18.6617 17.6352 18.4888C17.7829 18.3158 17.8322 18.1923 17.931 17.9948C18.0299 17.797 17.9804 17.624 17.9064 17.4758C17.8322 17.3276 17.2565 15.8624 16.993 15.2766Z" fill="white"/>
</g>
<defs>
<linearGradient id="paint0_linear_140_508" x1="1157.87" y1="2318.05" x2="1157.87" y2="8.79688" gradientUnits="userSpaceOnUse">
<stop stop-color="#1FAF38"/>
<stop offset="1" stop-color="#60D669"/>
</linearGradient>
<linearGradient id="paint1_linear_140_508" x1="1198.7" y1="2400.45" x2="1198.7" y2="8.38281" gradientUnits="userSpaceOnUse">
<stop stop-color="#F9F9F9"/>
<stop offset="1" stop-color="white"/>
</linearGradient>
<clipPath id="clip0_140_508">
<rect width="23.814" height="24" fill="white" transform="translate(8 8.38281)"/>
</clipPath>
</defs>
</svg>
