<svg width="41" height="41" viewBox="0 0 41 41" fill="none" xmlns="http://www.w3.org/2000/svg">
<rect x="0.813477" y="0.382812" width="40" height="40" rx="8" fill="white"/>
<g clip-path="url(#clip0_140_513)">
<path d="M27.1885 8.38281H14.4385C11.3319 8.38281 8.81348 10.9012 8.81348 14.0078V26.7578C8.81348 29.8644 11.3319 32.3828 14.4385 32.3828H27.1885C30.2951 32.3828 32.8135 29.8644 32.8135 26.7578V14.0078C32.8135 10.9012 30.2951 8.38281 27.1885 8.38281Z" fill="white"/>
<path d="M27.1885 8.38281H14.4385C11.3319 8.38281 8.81348 10.9012 8.81348 14.0078V26.7578C8.81348 29.8644 11.3319 32.3828 14.4385 32.3828H27.1885C30.2951 32.3828 32.8135 29.8644 32.8135 26.7578V14.0078C32.8135 10.9012 30.2951 8.38281 27.1885 8.38281Z" fill="#0A66C2"/>
<path d="M26.1305 28.7908H28.8746C28.974 28.7908 29.0694 28.7513 29.1397 28.681C29.21 28.6107 29.2495 28.5153 29.2496 28.4159L29.251 22.6182C29.251 19.5879 28.598 17.2587 25.0568 17.2587C23.7106 17.2086 22.4412 17.9026 21.7561 19.0613C21.7528 19.0669 21.7477 19.0713 21.7416 19.0738C21.7355 19.0762 21.7288 19.0766 21.7225 19.0749C21.7162 19.0732 21.7106 19.0695 21.7066 19.0643C21.7026 19.0591 21.7004 19.0528 21.7004 19.0462V17.9134C21.7004 17.814 21.6608 17.7186 21.5905 17.6483C21.5202 17.5779 21.4248 17.5384 21.3254 17.5384H18.7213C18.6218 17.5384 18.5264 17.5779 18.4561 17.6483C18.3858 17.7186 18.3463 17.814 18.3463 17.9134V28.4153C18.3463 28.5148 18.3858 28.6102 18.4561 28.6805C18.5264 28.7508 18.6218 28.7903 18.7213 28.7903H21.4651C21.5646 28.7903 21.66 28.7508 21.7303 28.6805C21.8006 28.6102 21.8401 28.5148 21.8401 28.4153V23.2241C21.8401 21.7563 22.1186 20.3347 23.9384 20.3347C25.7323 20.3347 25.7555 22.0143 25.7555 23.3192V28.4158C25.7555 28.5152 25.795 28.6106 25.8653 28.6809C25.9357 28.7513 26.0311 28.7908 26.1305 28.7908ZM12.376 13.9729C12.376 15.0852 13.2916 16.0004 14.404 16.0004C15.516 16.0003 16.4311 15.0845 16.4311 13.9725C16.4309 12.8604 15.5158 11.9453 14.4036 11.9453C13.2912 11.9453 12.376 12.8607 12.376 13.9729ZM13.0284 28.7908H15.7759C15.8754 28.7908 15.9708 28.7513 16.0411 28.6809C16.1114 28.6106 16.1509 28.5152 16.1509 28.4158V17.9134C16.1509 17.814 16.1114 17.7186 16.0411 17.6483C15.9708 17.5779 15.8754 17.5384 15.7759 17.5384H13.0284C12.9289 17.5384 12.8335 17.5779 12.7632 17.6483C12.6929 17.7186 12.6534 17.814 12.6534 17.9134V28.4158C12.6534 28.5152 12.6929 28.6106 12.7632 28.6809C12.8335 28.7513 12.9289 28.7908 13.0284 28.7908Z" fill="white"/>
</g>
<defs>
<clipPath id="clip0_140_513">
<rect width="24" height="24" fill="white" transform="translate(8.81348 8.38281)"/>
</clipPath>
</defs>
</svg>
