<svg width="70" height="70" viewBox="0 0 70 70" fill="none" xmlns="http://www.w3.org/2000/svg">
<g clip-path="url(#clip0_660_496)">
<path d="M70 34.9983V35.4587C70 35.7479 69.9897 36.0372 69.9795 36.3247V36.3914C69.9795 36.5369 69.9675 36.6824 69.9606 36.8279C69.5004 45.6086 65.7523 53.8945 59.4618 60.0379C53.1712 66.1813 44.7989 69.7323 36.0098 69.9846H35.9961C35.6652 69.9949 35.3332 70 35 70C15.6704 70 0 54.3296 0 35C0.000453876 25.7176 3.68809 16.8154 10.2518 10.2518C16.8154 3.68809 25.7176 0.000453876 35 0C35.3332 0 35.6652 0.00513448 35.9961 0.0154034C44.8683 0.268267 53.3131 3.88231 59.6214 10.1261C65.9297 16.3699 69.6303 24.7771 69.9743 33.6462C69.9863 33.9457 69.9932 34.2452 69.9966 34.5465C70 34.6971 70 34.8477 70 34.9983Z" fill="#07BA39"/>
<path fill-rule="evenodd" clip-rule="evenodd" d="M41.7604 33.915C42.6161 32.9018 42.9156 32.0649 42.9156 30.1497C42.9156 27.3292 40.9098 24.5412 37.8342 24.5412H29.9408C28.9396 24.5412 28.6401 25.1179 28.6401 25.8556V42.1285C28.6401 43.1964 29.2032 43.6551 30.1804 43.6551H38.1217C40.6616 43.6551 43.4154 41.3959 43.4154 37.8771C43.412 35.9876 42.7599 34.8375 41.7604 33.915ZM32.3249 28.1884H37.5997C38.0321 28.1897 38.4463 28.3619 38.7522 28.6675C39.058 28.973 39.2307 29.3871 39.2325 29.8194V30.593C39.2307 31.0252 39.058 31.4391 38.7521 31.7443C38.4462 32.0496 38.0319 32.2214 37.5997 32.2223H32.3249V28.1884ZM39.6193 38.3717C39.6184 38.8037 39.4465 39.2178 39.1412 39.5235C38.8359 39.8291 38.422 40.0014 37.99 40.0028H32.3249V35.9671H37.9951C38.4273 35.9689 38.8412 36.1416 39.1464 36.4475C39.4517 36.7534 39.6235 37.1677 39.6244 37.5999L39.6193 38.3717ZM41.7638 33.9219C42.6195 32.9087 42.9191 32.0717 42.9191 30.1566C42.9191 27.336 40.9132 24.548 37.8376 24.548H29.9408C28.9396 24.548 28.6401 25.1248 28.6401 25.8624V42.1353C28.6401 43.2033 29.2032 43.662 30.1804 43.662H38.1217C40.6616 43.662 43.4154 41.4028 43.4154 37.884C43.412 35.9876 42.7599 34.8375 41.7604 33.915L41.7638 33.9219ZM32.3249 28.1884H37.5997C38.0321 28.1897 38.4463 28.3619 38.7522 28.6675C39.058 28.973 39.2307 29.3871 39.2325 29.8194V30.593C39.2307 31.0252 39.058 31.4391 38.7521 31.7443C38.4462 32.0496 38.0319 32.2214 37.5997 32.2223H32.3249V28.1884ZM39.6193 38.3717C39.6184 38.8037 39.4465 39.2178 39.1412 39.5235C38.8359 39.8291 38.422 40.0014 37.99 40.0028H32.3249V35.9671H37.9951C38.4273 35.9689 38.8412 36.1416 39.1464 36.4475C39.4517 36.7534 39.6235 37.1677 39.6244 37.5999L39.6193 38.3717ZM41.7638 33.9219C42.6195 32.9087 42.9191 32.0717 42.9191 30.1566C42.9191 27.336 40.9132 24.548 37.8376 24.548H29.9408C28.9396 24.548 28.6401 25.1248 28.6401 25.8624V42.1353C28.6401 43.2033 29.2032 43.662 30.1804 43.662H38.1217C40.6616 43.662 43.4154 41.4028 43.4154 37.884C43.412 35.9876 42.7599 34.8375 41.7604 33.915L41.7638 33.9219ZM32.3249 28.1884H37.5997C38.0321 28.1897 38.4463 28.3619 38.7522 28.6675C39.058 28.973 39.2307 29.3871 39.2325 29.8194V30.593C39.2307 31.0252 39.058 31.4391 38.7521 31.7443C38.4462 32.0496 38.0319 32.2214 37.5997 32.2223H32.3249V28.1884ZM39.6193 38.3717C39.6184 38.8037 39.4465 39.2178 39.1412 39.5235C38.8359 39.8291 38.422 40.0014 37.99 40.0028H32.3249V35.9671H37.9951C38.4273 35.9689 38.8412 36.1416 39.1464 36.4475C39.4517 36.7534 39.6235 37.1677 39.6244 37.5999L39.6193 38.3717ZM41.7638 33.9219C42.6195 32.9087 42.9191 32.0717 42.9191 30.1566C42.9191 27.336 40.9132 24.548 37.8376 24.548H29.9408C28.9396 24.548 28.6401 25.1248 28.6401 25.8624V42.1353C28.6401 43.2033 29.2032 43.662 30.1804 43.662H38.1217C40.6616 43.662 43.4154 41.4028 43.4154 37.884C43.412 35.9876 42.7599 34.8375 41.7604 33.915L41.7638 33.9219ZM32.3249 28.1884H37.5997C38.0321 28.1897 38.4463 28.3619 38.7522 28.6675C39.058 28.973 39.2307 29.3871 39.2325 29.8194V30.593C39.2307 31.0252 39.058 31.4391 38.7521 31.7443C38.4462 32.0496 38.0319 32.2214 37.5997 32.2223H32.3249V28.1884ZM39.6193 38.3717C39.6184 38.8037 39.4465 39.2178 39.1412 39.5235C38.8359 39.8291 38.422 40.0014 37.99 40.0028H32.3249V35.9671H37.9951C38.4273 35.9689 38.8412 36.1416 39.1464 36.4475C39.4517 36.7534 39.6235 37.1677 39.6244 37.5999L39.6193 38.3717ZM35.9961 13.2676C35.8027 13.2676 35.6076 13.2676 35.4125 13.2676H35.3526C31.7551 13.2793 28.2251 14.2449 25.1225 16.0657C22.0199 17.8866 19.4557 20.4977 17.6912 23.6327C15.9268 26.7677 15.0252 30.3146 15.0785 33.9116C15.1318 37.5087 16.1381 41.0273 17.9946 44.1087L14.4672 54.9629L25.5697 51.3962C28.5637 53.0552 31.9296 53.9279 35.3526 53.9326H35.4125C35.6076 53.9326 35.8027 53.9326 35.9961 53.9241C41.2906 53.7783 46.3193 51.5726 50.0126 47.7763C53.706 43.9799 55.7724 38.8923 55.7724 33.5958C55.7724 28.2993 53.706 23.2118 50.0126 19.4154C46.3193 15.619 41.2906 13.4133 35.9961 13.2676ZM35.9961 50.6157C35.7821 50.626 35.5682 50.6294 35.3526 50.6294C32.0187 50.6344 28.7578 49.653 25.9804 47.8089L19.5829 49.8867L21.6743 43.7099C19.8129 41.1807 18.6894 38.1848 18.4288 35.0553C18.1682 31.9257 18.7807 28.7853 20.1981 25.983C21.6156 23.1808 23.7824 20.8266 26.4578 19.1821C29.1332 17.5377 32.2122 16.6675 35.3526 16.6683C35.5682 16.6683 35.7821 16.6683 35.9961 16.682C40.385 16.847 44.5391 18.7065 47.5858 21.8699C50.6325 25.0333 52.3347 29.2543 52.3347 33.6463C52.3347 38.0383 50.6325 42.2594 47.5858 45.4227C44.5391 48.5861 40.385 50.4456 35.9961 50.6106V50.6157ZM41.7604 33.915C42.6161 32.9018 42.9156 32.0649 42.9156 30.1497C42.9156 27.3292 40.9098 24.5412 37.8342 24.5412H29.9408C28.9396 24.5412 28.6401 25.1179 28.6401 25.8556V42.1285C28.6401 43.1964 29.2032 43.6551 30.1804 43.6551H38.1217C40.6616 43.6551 43.4154 41.3959 43.4154 37.8771C43.412 35.9876 42.7599 34.8375 41.7604 33.915ZM32.3249 28.1884H37.5997C38.0321 28.1897 38.4463 28.3619 38.7522 28.6675C39.058 28.973 39.2307 29.3871 39.2325 29.8194V30.593C39.2307 31.0252 39.058 31.4391 38.7521 31.7443C38.4462 32.0496 38.0319 32.2214 37.5997 32.2223H32.3249V28.1884ZM39.6193 38.3717C39.6184 38.8037 39.4465 39.2178 39.1412 39.5235C38.8359 39.8291 38.422 40.0014 37.99 40.0028H32.3249V35.9671H37.9951C38.4273 35.9689 38.8412 36.1416 39.1464 36.4475C39.4517 36.7534 39.6235 37.1677 39.6244 37.5999L39.6193 38.3717ZM41.7638 33.9219C42.6195 32.9087 42.9191 32.0717 42.9191 30.1566C42.9191 27.336 40.9132 24.548 37.8376 24.548H29.9408C28.9396 24.548 28.6401 25.1248 28.6401 25.8624V42.1353C28.6401 43.2033 29.2032 43.662 30.1804 43.662H38.1217C40.6616 43.662 43.4154 41.4028 43.4154 37.884C43.412 35.9876 42.7599 34.8375 41.7604 33.915L41.7638 33.9219ZM32.3249 28.1884H37.5997C38.0321 28.1897 38.4463 28.3619 38.7522 28.6675C39.058 28.973 39.2307 29.3871 39.2325 29.8194V30.593C39.2307 31.0252 39.058 31.4391 38.7521 31.7443C38.4462 32.0496 38.0319 32.2214 37.5997 32.2223H32.3249V28.1884ZM39.6193 38.3717C39.6184 38.8037 39.4465 39.2178 39.1412 39.5235C38.8359 39.8291 38.422 40.0014 37.99 40.0028H32.3249V35.9671H37.9951C38.4273 35.9689 38.8412 36.1416 39.1464 36.4475C39.4517 36.7534 39.6235 37.1677 39.6244 37.5999L39.6193 38.3717ZM41.7638 33.9219C42.6195 32.9087 42.9191 32.0717 42.9191 30.1566C42.9191 27.336 40.9132 24.548 37.8376 24.548H29.9408C28.9396 24.548 28.6401 25.1248 28.6401 25.8624V42.1353C28.6401 43.2033 29.2032 43.662 30.1804 43.662H38.1217C40.6616 43.662 43.4154 41.4028 43.4154 37.884C43.412 35.9876 42.7599 34.8375 41.7604 33.915L41.7638 33.9219ZM32.3249 28.1884H37.5997C38.0321 28.1897 38.4463 28.3619 38.7522 28.6675C39.058 28.973 39.2307 29.3871 39.2325 29.8194V30.593C39.2307 31.0252 39.058 31.4391 38.7521 31.7443C38.4462 32.0496 38.0319 32.2214 37.5997 32.2223H32.3249V28.1884ZM39.6193 38.3717C39.6184 38.8037 39.4465 39.2178 39.1412 39.5235C38.8359 39.8291 38.422 40.0014 37.99 40.0028H32.3249V35.9671H37.9951C38.4273 35.9689 38.8412 36.1416 39.1464 36.4475C39.4517 36.7534 39.6235 37.1677 39.6244 37.5999L39.6193 38.3717Z" fill="white"/>
<path opacity="0.17" fill-rule="evenodd" clip-rule="evenodd" d="M70 34.9985V35.4589C70 35.7481 69.9897 36.0374 69.9794 36.3249V36.3917C69.9794 36.5371 69.9675 36.6826 69.9606 36.8281C69.5003 45.6088 65.7523 53.8947 59.4617 60.0381C53.1712 66.1815 44.7989 69.7325 36.0098 69.9848H35.9961V0.015625C44.8682 0.268489 53.313 3.88253 59.6213 10.1263C65.9296 16.3701 69.6303 24.7773 69.9743 33.6464C69.9863 33.9459 69.9931 34.2455 69.9966 34.5467C70 34.6973 70 34.8479 70 34.9985Z" fill="black"/>
</g>
<defs>
<clipPath id="clip0_660_496">
<rect width="70" height="70" fill="white"/>
</clipPath>
</defs>
</svg>
