<svg width="40" height="41" viewBox="0 0 40 41" fill="none" xmlns="http://www.w3.org/2000/svg">
<rect y="0.382812" width="40" height="40" rx="8" fill="white"/>
<g clip-path="url(#clip0_140_504)">
<path d="M32 20.3828C32 13.7554 26.6274 8.38281 20 8.38281C13.3726 8.38281 8 13.7554 8 20.3828C8 26.3723 12.3882 31.3368 18.125 32.237V23.8516H15.0781V20.3828H18.125V17.7391C18.125 14.7316 19.9166 13.0703 22.6576 13.0703C23.9705 13.0703 25.3438 13.3047 25.3438 13.3047V16.2578H23.8306C22.3399 16.2578 21.875 17.1828 21.875 18.1319V20.3828H25.2031L24.6711 23.8516H21.875V32.237C27.6118 31.3368 32 26.3724 32 20.3828Z" fill="#1877F2"/>
<path d="M24.6711 23.8516L25.2031 20.3828H21.875V18.1319C21.875 17.1827 22.3399 16.2578 23.8306 16.2578H25.3438V13.3047C25.3438 13.3047 23.9705 13.0703 22.6575 13.0703C19.9166 13.0703 18.125 14.7316 18.125 17.7391V20.3828H15.0781V23.8516H18.125V32.237C18.7453 32.3342 19.3722 32.383 20 32.3828C20.6278 32.383 21.2547 32.3343 21.875 32.237V23.8516H24.6711Z" fill="white"/>
</g>
<defs>
<clipPath id="clip0_140_504">
<rect width="24" height="24" fill="white" transform="translate(8 8.38281)"/>
</clipPath>
</defs>
</svg>
