<svg width="70" height="70" viewBox="0 0 70 70" fill="none" xmlns="http://www.w3.org/2000/svg">
<g clip-path="url(#clip0_660_501)">
<path d="M35 70C54.33 70 70 54.33 70 35C70 15.67 54.33 0 35 0C15.67 0 0 15.67 0 35C0 54.33 15.67 70 35 70Z" fill="#2196F3"/>
<path d="M52.5 42.2363C48.7244 42.2363 45.1238 41.4138 41.8031 39.7906C41.2825 39.5413 40.6787 39.5019 40.1275 39.69C39.5763 39.8825 39.1256 40.285 38.8719 40.8056L37.2969 44.065C32.5719 41.3525 28.6519 37.4281 25.935 32.7031L29.1987 31.1281C29.7237 30.8744 30.1219 30.4237 30.3144 29.8725C30.5025 29.3212 30.4675 28.7175 30.2138 28.1969C28.5863 24.8806 27.7638 21.28 27.7638 17.5C27.7638 16.2925 26.7838 15.3125 25.5763 15.3125H17.5C16.2925 15.3125 15.3125 16.2925 15.3125 17.5C15.3125 38.0056 31.9944 54.6875 52.5 54.6875C53.7075 54.6875 54.6875 53.7075 54.6875 52.5V44.4238C54.6875 43.2163 53.7075 42.2363 52.5 42.2363Z" fill="#FAFAFA"/>
</g>
<defs>
<clipPath id="clip0_660_501">
<rect width="70" height="70" fill="white"/>
</clipPath>
</defs>
</svg>
