<svg width="66" height="62" viewBox="0 0 66 62" fill="none" xmlns="http://www.w3.org/2000/svg">
<path d="M56.8175 21.117C60.8754 21.117 64.1766 17.8067 64.1766 13.739C63.7727 3.95085 49.8616 3.95365 49.4584 13.739C49.4584 17.8067 52.7603 21.117 56.8175 21.117Z" fill="#464EB8"/>
<path d="M61.6706 23.0971H48.5351H48.5099C48.5064 23.0971 48.5078 23.0971 48.5036 23.0971C47.7175 23.0971 37.4401 23.0971 34.127 23.0971V20.5211C34.6758 20.6184 35.2505 20.6835 35.8539 20.7087C35.919 20.7094 35.9841 20.7045 36.0492 20.7038C36.2998 20.6996 36.5483 20.6877 36.7933 20.6667C36.8773 20.659 36.9606 20.652 37.0432 20.6422C37.3253 20.6107 37.6039 20.5694 37.8783 20.5155C37.8951 20.512 37.9133 20.5099 37.9301 20.5071C39.2307 20.2418 40.4571 19.7231 41.547 18.9881C42.555 18.3084 43.4279 17.446 44.1321 16.4576C44.3141 16.2189 44.48 15.9697 44.6347 15.7149C44.6494 15.6897 44.6655 15.6659 44.6802 15.64C44.7992 15.4391 44.9042 15.2312 45.0064 15.0212C45.0512 14.9302 45.0974 14.8392 45.1394 14.7468C45.2472 14.5053 45.3466 14.2596 45.4341 14.0097C45.4418 13.9887 45.4495 13.9684 45.4565 13.9481C46.4554 11.0025 45.9983 7.53887 44.2833 4.94887C43.8297 4.28457 43.2914 3.68467 42.6957 3.14707C42.5725 3.03997 42.4549 2.92727 42.3254 2.82717C41.8256 2.41557 41.2859 2.05087 40.7126 1.74077C40.4256 1.58537 40.1309 1.44327 39.8285 1.31587C39.5247 1.18147 39.2076 1.07087 38.8856 0.970771C38.7008 0.914071 38.509 0.872071 38.32 0.825871C38.1527 0.785271 37.9875 0.741172 37.8181 0.709672C37.6781 0.683072 37.5346 0.666272 37.3932 0.645272C37.1468 0.610272 36.9004 0.578071 36.6512 0.560571C36.5658 0.554271 36.4797 0.552172 36.3936 0.547972C36.1402 0.535372 35.8861 0.536071 35.632 0.543071C34.176 0.627771 32.8838 0.933671 31.7519 1.41107C31.5209 1.51537 31.2871 1.61687 31.0694 1.74007C28.8 2.97627 27.064 5.08047 26.2625 7.54517C25.7067 9.38547 25.6591 11.3728 26.1316 13.2355C26.1365 13.253 26.1407 13.2712 26.1456 13.2887C26.168 13.3692 26.1911 13.4497 26.2135 13.5302C26.2408 13.6261 26.273 13.7213 26.3031 13.8165C26.3304 13.8935 26.3591 13.9698 26.3878 14.0468H4.14181C2.14961 14.0468 0.528412 15.668 0.528412 17.6602V44.0306C0.528412 46.0235 2.14961 47.644 4.14181 47.644H18.2272C18.2454 47.7266 18.2685 47.8064 18.2881 47.8883C20.2271 55.5176 27.0122 60.9132 35.03 61.1078C41.6821 60.9461 47.3962 57.1031 50.2571 51.5934C50.2998 51.6088 50.3439 51.62 50.3866 51.6347C57.514 54.3304 65.613 48.6744 65.4688 41.043V26.8855C65.4695 24.7967 63.765 23.0971 61.6706 23.0971Z" fill="#464EB8"/>
<path d="M52.2108 26.9624C52.2591 24.8827 50.6099 23.1488 48.5351 23.0977C48.5267 23.0977 33.5327 23.0977 33.5327 23.0977C32.9804 23.0977 32.5324 23.5464 32.5324 24.1008V44.4673C32.5324 45.4067 31.7701 46.1704 30.8328 46.1704H19.1393C18.839 46.1704 18.5541 46.3062 18.3644 46.5393C18.1747 46.7731 18.0991 47.0797 18.16 47.3751C19.8169 55.4678 26.7336 61.261 35.03 61.4633C44.7292 61.2253 52.4362 53.1235 52.2108 43.4264V26.9624Z" fill="#7B83EB"/>
<path d="M35.8539 20.7086C35.919 20.7093 35.9841 20.7044 36.0492 20.7037C36.2998 20.7002 36.5483 20.6876 36.794 20.6666C36.878 20.6589 36.9613 20.6519 37.0439 20.6421C37.3253 20.6106 37.6046 20.5693 37.879 20.5154C37.8958 20.5119 37.914 20.5098 37.9308 20.5063C39.2314 20.241 40.4578 19.7223 41.5477 18.9873C42.5564 18.3076 43.4286 17.4452 44.1335 16.4568C44.3155 16.2181 44.4814 15.9689 44.6361 15.7141C44.6508 15.6889 44.6669 15.6651 44.6816 15.6392C44.8006 15.4383 44.9056 15.2297 45.0078 15.0204C45.0526 14.9294 45.0988 14.8391 45.1408 14.746C45.2486 14.5045 45.3487 14.2588 45.4355 14.0089C45.4432 13.9879 45.4509 13.9676 45.4579 13.9473C46.4568 11.0017 45.9997 7.53739 44.2847 4.94809C43.8311 4.28379 43.2928 3.68389 42.6971 3.14629C42.5739 3.03919 42.4563 2.92649 42.3268 2.82639C41.827 2.41479 41.2873 2.05009 40.714 1.73999C40.427 1.58459 40.1323 1.44249 39.8299 1.31509C39.5261 1.18069 39.209 1.07009 38.887 0.96999C38.7022 0.91329 38.5104 0.87199 38.3214 0.82509C38.1541 0.78449 37.9889 0.74039 37.8195 0.70889C37.6795 0.68229 37.5367 0.66549 37.3946 0.64449C37.1482 0.60949 36.9018 0.57729 36.6526 0.55979C36.5672 0.55349 36.4811 0.55139 36.3957 0.54719C36.1423 0.53599 35.8882 0.53669 35.6341 0.54369C34.1781 0.62839 32.8859 0.93359 31.754 1.41169C31.523 1.51599 31.2892 1.61749 31.0715 1.74069C28.8021 2.97759 27.0654 5.08179 26.2646 7.54649C25.7088 9.38679 25.6612 11.3741 26.1337 13.2368C26.1386 13.2543 26.1428 13.2725 26.1477 13.29C26.1701 13.3705 26.1932 13.451 26.2156 13.5315C26.2429 13.6274 26.2751 13.7226 26.3052 13.8178C26.3472 13.9375 26.3913 14.0558 26.4361 14.1748H26.4172C27.6597 17.6587 30.8048 20.4951 35.8539 20.7086Z" fill="#7B83EB"/>
<path d="M30.5136 14.0483H4.14181C2.14961 14.0483 0.528412 15.6695 0.528412 17.6617V44.0321C0.528412 46.025 2.14961 47.6455 4.14181 47.6455H30.5136C32.5058 47.6455 34.1263 46.0243 34.1263 44.0321V17.6617C34.127 15.6695 32.5065 14.0483 30.5136 14.0483Z" fill="#464EB8"/>
<path d="M23.9763 21.3901H10.4803C9.94061 21.3901 9.50381 21.8276 9.50381 22.3673V24.8271C9.50381 25.3668 9.94061 25.8043 10.4803 25.8043H14.8343V39.5068C14.8343 40.0465 15.2711 40.484 15.8108 40.484H18.7046C19.2443 40.484 19.6811 40.0465 19.6811 39.5068V25.8043H23.9763C24.516 25.8043 24.9528 25.3668 24.9528 24.8271V22.3673C24.9528 21.8276 24.516 21.3901 23.9763 21.3901Z" fill="white"/>
</svg>
