<svg width="233" height="80" viewBox="0 0 233 80" fill="none" xmlns="http://www.w3.org/2000/svg">
<rect width="232.872" height="79.5745" rx="8" fill="#14161D"/>
<g clip-path="url(#clip0_605_427)">
<path d="M87.5254 29.018C87.5226 28.5453 87.5173 28.0729 87.5041 27.5997C87.4763 26.5703 87.4147 25.5315 87.2297 24.5131C87.042 23.4789 86.735 22.5172 86.2514 21.5777C85.7766 20.655 85.1559 19.8107 84.4155 19.0786C83.6752 18.3464 82.8214 17.7327 81.888 17.2629C80.9387 16.7852 79.966 16.4818 78.9211 16.2961C77.8907 16.1126 76.8403 16.0522 75.7985 16.0243C75.3202 16.0115 74.8423 16.0061 74.3642 16.0032C73.7966 16 73.2287 16 72.6613 16H60.0798H54.8675C54.2996 16 53.7323 16 53.1649 16.0032C52.6865 16.0062 52.2081 16.0116 51.7305 16.0244C51.4701 16.0313 51.2092 16.0404 50.948 16.0528C50.1647 16.0901 49.3802 16.1586 48.6078 16.2962C47.8241 16.4355 47.081 16.6409 46.358 16.9365C46.1171 17.0349 45.8782 17.1435 45.6409 17.2629C44.9408 17.6153 44.2854 18.0485 43.6893 18.552C43.4906 18.7198 43.2984 18.8954 43.1134 19.0785C42.3728 19.8107 41.7521 20.655 41.2773 21.5776C40.7937 22.5171 40.4872 23.4788 40.2993 24.513C40.1144 25.5314 40.0529 26.5702 40.0249 27.5996C40.0118 28.0728 40.0063 28.5453 40.0032 29.0179C39.9996 29.5793 40 30.1408 40 30.702V38.364V48.2976C40 48.8593 39.9995 49.4203 40.0032 49.9821C40.0063 50.4547 40.0118 50.9272 40.0249 51.3996C40.0529 52.4296 40.1143 53.4686 40.2993 54.4865C40.4872 55.5204 40.7937 56.483 41.2773 57.4222C41.7521 58.3451 42.3728 59.1892 43.1134 59.921C43.8534 60.6535 44.7075 61.2671 45.641 61.7372C46.5903 62.215 47.5629 62.5181 48.608 62.7037C49.6378 62.887 50.6891 62.9479 51.7306 62.9755C52.2082 62.988 52.6866 62.9937 53.1649 62.9964C53.7323 63.0004 54.2996 62.9998 54.8676 62.9998H72.6613C73.2287 62.9998 73.7966 63.0004 74.3641 62.9964C74.8422 62.9937 75.3201 62.988 75.7984 62.9755C76.8402 62.9479 77.8906 62.8869 78.9211 62.7037C79.966 62.5181 80.9386 62.215 81.8879 61.7372C82.8213 61.2672 83.6751 60.6535 84.4154 59.921C85.1558 59.1891 85.7766 58.3451 86.2513 57.4222C86.735 56.483 87.0419 55.5205 87.2296 54.4865C87.4146 53.4686 87.4762 52.4296 87.504 51.3996C87.5172 50.9272 87.5224 50.4548 87.5253 49.9821C87.529 49.4203 87.5287 48.8593 87.5287 48.2976V30.702C87.5288 30.1408 87.529 29.5793 87.5254 29.018Z" fill="#F05138"/>
<path d="M77.6609 45.0122C77.6597 45.0108 77.6587 45.0097 77.6575 45.0084C77.7101 44.8314 77.7643 44.6556 77.8104 44.4742C79.783 36.7023 74.9685 27.5138 66.8214 22.6758C70.3916 27.4619 71.9702 33.2589 70.5677 38.3286C70.4426 38.7808 70.2922 39.2147 70.126 39.6365C69.9456 39.5193 69.7183 39.3863 69.4131 39.2199C69.4131 39.2199 61.3089 34.2717 52.5252 25.5196C52.2947 25.2899 57.209 32.4654 62.7862 38.2922C60.1586 36.8339 52.8358 31.5653 48.2 27.3695C48.7695 28.3088 49.447 29.2132 50.1916 30.084C54.0629 34.9389 59.1116 40.9292 65.1601 45.529C60.9103 48.1007 54.9054 48.3007 48.9265 45.5316C47.4476 44.8463 46.0574 44.0194 44.7705 43.0799C47.3014 47.083 51.1992 50.5369 55.9433 52.5532C61.6008 54.9574 67.2268 54.7944 71.417 52.5926L71.4137 52.5973C71.4328 52.5854 71.4572 52.5723 71.477 52.5602C71.6491 52.4687 71.8199 52.3756 71.9869 52.2772C74.0001 51.2439 77.9766 50.1955 80.111 54.3022C80.6338 55.3072 81.7446 49.981 77.6609 45.0122Z" fill="white"/>
<path d="M105.567 46.5022C105.938 49.7629 109.083 51.9007 113.451 51.9007C117.6 51.9007 120.592 49.7629 120.592 46.8048C120.592 44.2564 118.78 42.7008 114.608 41.6647L110.568 40.6498C104.759 39.2243 102.138 36.6325 102.138 32.3569C102.138 27.0876 106.79 23.4375 113.407 23.4375C119.828 23.4375 124.392 27.1088 124.545 32.4003H120.287C119.959 29.1608 117.294 27.1734 113.298 27.1734C109.345 27.1734 106.593 29.182 106.593 32.1188C106.593 34.4079 108.297 35.7689 112.49 36.8272L115.853 37.6908C122.361 39.2677 125.026 41.7727 125.026 46.2864C125.026 52.0309 120.417 55.6376 113.079 55.6376C106.266 55.6376 101.614 52.0521 101.265 46.5024L105.567 46.5022Z" fill="white"/>
<path d="M152.077 55.1191H147.797L142.795 37.8856H142.708L137.729 55.1191H133.449L127.115 32.5508H131.264L135.676 50.6701H135.764L140.743 32.5508H144.761L149.784 50.6701H149.872L154.283 32.5508H158.389L152.077 55.1191Z" fill="white"/>
<path d="M161.152 26.4831C161.152 25.1231 162.288 24.0215 163.664 24.0215C165.062 24.0215 166.197 25.1231 166.197 26.4831C166.197 27.844 165.062 28.967 163.664 28.967C162.288 28.967 161.152 27.8441 161.152 26.4831ZM161.589 32.5515H165.761V55.1199H161.589V32.5515Z" fill="white"/>
<path d="M193.001 35.8776V32.5513H188.589V27.1529H184.44V32.5513H181.055H176.466V30.5648C176.488 28.5562 177.274 27.7138 179.153 27.7138C179.764 27.7138 180.375 27.7793 180.878 27.8651V24.6256C180.135 24.5177 179.458 24.4531 178.672 24.4531C174.217 24.4531 172.339 26.2892 172.339 30.5003V32.5513H169.15V35.8776H172.339V55.1197H176.488V35.8776H181.055H184.44V49.2027C184.44 53.565 186.122 55.2488 190.489 55.2488C191.428 55.2488 192.498 55.1843 192.979 55.0763V51.7077C192.695 51.7511 191.865 51.8157 191.406 51.8157C189.463 51.8157 188.59 50.9087 188.59 48.8788V35.8776H193.001Z" fill="white"/>
</g>
<defs>
<clipPath id="clip0_605_427">
<rect width="153" height="47" fill="white" transform="translate(40 16)"/>
</clipPath>
</defs>
</svg>
