<svg width="233" height="80" viewBox="0 0 233 80" fill="none" xmlns="http://www.w3.org/2000/svg">
<rect width="232.872" height="79.5745" rx="8" fill="#14161D"/>
<path d="M84.0147 24.3349H90.8406L90.8406 37.944L103.429 24.3349H111.673L99.0409 37.5438L112.249 55.467L104.049 55.467L94.431 42.2139L90.8406 45.9496L90.8406 55.467H84.0146L84.0147 24.334V24.3349Z" fill="white"/>
<path d="M108.62 43.6809V43.5922C108.62 36.7432 114.117 31.1836 121.519 31.1836C128.877 31.1836 134.329 36.654 134.329 43.503V43.592C134.329 50.441 128.832 56 121.43 56C114.072 56 108.62 50.5299 108.62 43.6809ZM127.68 43.6809V43.5922C127.68 40.0786 125.153 37.0099 121.43 37.0099C117.574 37.0099 115.269 39.9896 115.269 43.5033V43.5923C115.269 47.1056 117.795 50.1743 121.519 50.1743C125.375 50.1743 127.68 47.1945 127.68 43.6809Z" fill="white"/>
<path d="M136.189 48.7064V37.41H133.353V31.6282H136.189L136.189 25.5352H142.927V31.6282H148.511V37.41H142.927V47.5947C142.927 49.1511 143.591 49.9074 145.099 49.9074C146.34 49.9074 147.448 49.5961 148.423 49.0621V54.4881C147.004 55.3331 145.364 55.8668 143.104 55.8668C138.982 55.8668 136.189 54.221 136.189 48.7064Z" fill="white"/>
<path d="M150.447 23H157.185L157.185 55.4653H150.447L150.447 23Z" fill="white"/>
<path d="M159.619 23H166.711V29.0042H159.619V23ZM159.797 31.628H166.534L166.534 55.4662L159.797 55.4662L159.797 31.628Z" fill="white"/>
<path d="M169.097 31.6282H175.834V35.0082C177.385 33.0069 179.38 31.1836 182.793 31.1836C187.891 31.1836 190.86 34.5636 190.86 40.034V55.4664L184.123 55.4664V42.1686C184.123 38.9667 182.616 37.321 180.045 37.321C177.474 37.321 175.834 38.9667 175.834 42.1686L175.834 55.4664H169.097L169.097 31.6282L169.097 31.6282Z" fill="white"/>
<path d="M58.5751 24.3184L43 40.7531V55.4436L58.5529 39.8123L74.0232 24.3184H58.5751Z" fill="url(#paint0_linear_605_440)"/>
<path d="M43 55.4438L58.5529 39.8125L74.0231 55.4438H43Z" fill="url(#paint1_linear_605_440)"/>
<path d="M43 24.3184H58.5754L43 40.7531V24.3184Z" fill="url(#paint2_linear_605_440)"/>
<defs>
<linearGradient id="paint0_linear_605_440" x1="39.484" y1="51.2236" x2="64.442" y2="26.3494" gradientUnits="userSpaceOnUse">
<stop offset="0.10753" stop-color="#C757BC"/>
<stop offset="0.21383" stop-color="#D0609A"/>
<stop offset="0.42537" stop-color="#E1725C"/>
<stop offset="0.60485" stop-color="#EE7E2F"/>
<stop offset="0.74303" stop-color="#F58613"/>
<stop offset="0.82323" stop-color="#F88909"/>
</linearGradient>
<linearGradient id="paint1_linear_605_440" x1="53.9414" y1="60.018" x2="67.0894" y2="46.913" gradientUnits="userSpaceOnUse">
<stop offset="0.09677" stop-color="#0095D5"/>
<stop offset="0.30073" stop-color="#238AD9"/>
<stop offset="0.62106" stop-color="#557BDE"/>
<stop offset="0.86432" stop-color="#7472E2"/>
<stop offset="1" stop-color="#806EE3"/>
</linearGradient>
<linearGradient id="paint2_linear_605_440" x1="41.5772" y1="33.9633" x2="53.0692" y2="22.5099" gradientUnits="userSpaceOnUse">
<stop offset="0.09677" stop-color="#0095D5"/>
<stop offset="0.30073" stop-color="#238AD9"/>
<stop offset="0.62106" stop-color="#557BDE"/>
<stop offset="0.86432" stop-color="#7472E2"/>
<stop offset="1" stop-color="#806EE3"/>
</linearGradient>
</defs>
</svg>
