<svg width="233" height="80" viewBox="0 0 233 80" fill="none" xmlns="http://www.w3.org/2000/svg">
<rect width="232.872" height="79.5745" rx="8" fill="#14161D"/>
<g clip-path="url(#clip0_605_470)">
<path d="M67.1471 28.6055C64.8802 28.6055 62.6642 29.2737 60.7794 30.5258C58.8946 31.7778 57.4255 33.5574 56.558 35.6395C55.6905 37.7216 55.4635 40.0127 55.9058 42.223C56.348 44.4333 57.4396 46.4636 59.0426 48.0572C60.6455 49.6508 62.6877 50.736 64.9111 51.1756C67.1344 51.6153 69.4389 51.3896 71.5332 50.5272C73.6276 49.6648 75.4176 48.2043 76.677 46.3305C77.9364 44.4567 78.6086 42.2537 78.6086 40C78.605 36.9791 77.3963 34.0829 75.2476 31.9468C73.099 29.8107 70.1858 28.6091 67.1471 28.6055Z" fill="#478AFF"/>
<path d="M83.6038 29.6153C86.4873 29.6153 88.8248 27.2915 88.8248 24.4249C88.8248 21.5582 86.4873 19.2344 83.6038 19.2344C80.7203 19.2344 78.3828 21.5582 78.3828 24.4249C78.3828 27.2915 80.7203 29.6153 83.6038 29.6153Z" fill="#478AFF"/>
<path d="M90.0327 29.6429L89.8137 29.1667L89.4716 29.5612C88.6157 30.5268 87.5333 31.2675 86.3205 31.7177L85.9784 31.8401L86.1153 32.1803C87.9591 36.5886 88.1925 41.4995 86.7749 46.061C85.3573 50.6225 82.3783 54.5467 78.3546 57.1528C74.3309 59.7589 69.5164 60.8825 64.7466 60.3285C59.9767 59.7745 55.5524 57.578 52.2413 54.12C48.9302 50.6621 46.9412 46.1609 46.6194 41.3974C46.2976 36.6339 47.6633 31.9087 50.4796 28.0416C53.2959 24.1745 57.385 21.4096 62.0375 20.2265C66.69 19.0434 71.6123 19.5168 75.9504 21.5646L76.272 21.7177L76.4123 21.3776C76.9236 20.1953 77.7203 19.1567 78.732 18.3538L79.1425 18.0136L78.6738 17.7721C75.1129 15.9322 71.157 14.9764 67.1438 14.9864C61.7104 14.9872 56.4233 16.7372 52.0739 19.9747C47.7244 23.2121 44.5465 27.7628 43.0158 32.9457C41.4851 38.1286 41.6838 43.6649 43.5823 48.7261C45.4807 53.7874 48.9768 58.1013 53.5474 61.0222C58.1179 63.9432 63.517 65.3141 68.9366 64.9299C74.3563 64.5456 79.5051 62.4268 83.6123 58.8905C87.7196 55.3543 90.5645 50.5908 91.7213 45.3129C92.878 40.0351 92.2844 34.5267 90.0293 29.6123L90.0327 29.6429Z" fill="#478AFF"/>
<path d="M110.54 29.1152H105.237V50.8839H110.54V29.1152Z" fill="#478AFF"/>
<path d="M167.769 29.1152H162.466V50.8839H167.769V29.1152Z" fill="#478AFF"/>
<path d="M150.22 28.6055C146.491 28.6055 143.61 30.8402 142.95 31.4558L142.608 29.1157H138.194V50.8844H143.497V37.7041C143.497 35.1327 147.028 33.0034 149.611 33.0034C152.195 33.0034 154.134 35.4592 154.134 38.3844V50.8844H159.438V38.9048C159.42 33.1973 156.943 28.6055 150.22 28.6055Z" fill="#478AFF"/>
<path d="M181.691 46.9286C177.705 46.9286 175.07 43.8266 175.07 40C175.07 36.1735 177.705 33.0715 181.691 33.0715C185.091 33.0715 187.165 36.347 187.165 36.347L191.007 33.7925C189.895 32.0919 188.612 31.0715 186.86 30.017C185.348 29.1052 183.616 28.6174 181.848 28.6055C175.214 28.6055 170.147 33.5578 170.116 40C170.147 46.4422 175.214 51.3946 181.848 51.3946C183.609 51.379 185.334 50.8913 186.84 49.983C188.592 48.932 189.875 47.9082 190.986 46.2075L187.144 43.6531C187.144 43.6531 185.091 46.9286 181.691 46.9286Z" fill="#478AFF"/>
<path d="M124.37 28.605C122.865 28.5809 121.371 28.8561 119.975 29.4143C118.579 29.9725 117.309 30.8025 116.24 31.8555C115.172 32.9085 114.325 34.1633 113.751 35.5461C113.177 36.9289 112.887 38.4118 112.898 39.9077C112.898 46.0812 117.544 51.3941 124.448 51.3941C130.699 51.3941 135.821 46.6322 135.821 40.0403C135.821 32.4927 129.864 28.605 124.37 28.605ZM124.435 33.0812C127.722 33.0812 130.836 35.7342 130.836 40.0097C130.836 44.1934 127.736 46.9213 124.421 46.9213C120.777 46.9213 117.92 44.0097 117.92 39.9757C117.92 36.0301 120.757 33.0812 124.452 33.0812H124.435Z" fill="#478AFF"/>
</g>
<defs>
<clipPath id="clip0_605_470">
<rect width="149" height="50" fill="white" transform="translate(42 15)"/>
</clipPath>
</defs>
</svg>
