<svg width="233" height="80" viewBox="0 0 233 80" fill="none" xmlns="http://www.w3.org/2000/svg">
<rect width="232.872" height="79.5745" rx="8" fill="#14161D"/>
<path d="M86.694 40.8935H83.0541V46.7992H81V32.2003H86.1299C87.8753 32.2003 89.2164 32.5749 90.153 33.3236C91.0966 34.0718 91.5685 35.1615 91.5685 36.5918C91.5685 37.5012 91.306 38.2931 90.7809 38.9686C90.263 39.6436 89.5392 40.1483 88.6098 40.4823L92.2497 46.6788V46.7992H90.0572L86.694 40.8935ZM83.0541 39.3193H86.1938C87.2084 39.3193 88.0137 39.0718 88.6098 38.5772C89.2128 38.0826 89.5144 37.4209 89.5144 36.5918C89.5144 35.6896 89.227 34.9979 88.6523 34.5165C88.0847 34.0352 87.2616 33.7912 86.1831 33.7846H83.0541V39.3193ZM98.9124 47C97.3512 47 96.0811 46.5187 95.102 45.556C94.1228 44.5867 93.6332 43.2931 93.6332 41.6757V41.3347C93.6332 40.2586 93.8496 39.2995 94.2824 38.4572C94.7224 37.6079 95.3326 36.9461 96.1131 36.4719C96.9007 35.9905 97.7521 35.7496 98.6674 35.7496C100.165 35.7496 101.328 36.2142 102.158 37.1433C102.989 38.0725 103.403 39.4027 103.403 41.1339V41.906H95.6022C95.6306 42.9759 95.9605 43.8415 96.592 44.5033C97.2306 45.158 98.0394 45.4858 99.0187 45.4858C99.7141 45.4858 100.303 45.3521 100.785 45.0848C101.268 44.8174 101.69 44.4632 102.052 44.022L103.254 44.9043C102.289 46.3011 100.842 47 98.9124 47ZM98.6674 37.274C97.8727 37.274 97.2058 37.5479 96.6665 38.0959C96.1272 38.6377 95.7938 39.3996 95.6661 40.3821H101.435V40.2418C101.378 39.2995 101.108 38.5706 100.626 38.0557C100.143 37.5347 99.4902 37.274 98.6674 37.274ZM112.801 46.7992C112.688 46.5852 112.595 46.2045 112.525 45.6561C111.609 46.5517 110.517 47 109.246 47C108.111 47 107.178 46.6991 106.447 46.0973C105.724 45.4889 105.362 44.7204 105.362 43.7912C105.362 42.6618 105.816 41.786 106.724 41.1644C107.639 40.5356 108.924 40.2215 110.577 40.2215H112.493V39.3696C112.493 38.7211 112.287 38.2062 111.876 37.8254C111.464 37.4376 110.857 37.244 110.055 37.244C109.353 37.244 108.764 37.4107 108.289 37.7452C107.814 38.0791 107.576 38.4837 107.576 38.9584H105.596C105.596 38.4171 105.798 37.8956 106.202 37.3939C106.614 36.8861 107.168 36.4851 107.863 36.1908C108.566 35.897 109.335 35.7496 110.172 35.7496C111.5 35.7496 112.539 36.0637 113.291 36.6925C114.043 37.3141 114.433 38.1731 114.462 39.269V44.2624C114.462 45.2586 114.596 46.0505 114.866 46.6386V46.7992H112.801ZM109.534 45.3857C110.151 45.3857 110.737 45.2352 111.29 44.9343C111.843 44.6334 112.244 44.2426 112.493 43.7612V41.5354H110.949C108.537 41.5354 107.331 42.2003 107.331 43.5304C107.331 44.1119 107.537 44.5668 107.948 44.8942C108.36 45.2215 108.888 45.3857 109.534 45.3857ZM122.167 45.4858C122.87 45.4858 123.484 45.2851 124.008 44.884C124.533 44.483 124.824 43.9818 124.881 43.38H126.744C126.708 44.0016 126.481 44.5933 126.062 45.1549C125.644 45.7166 125.083 46.1644 124.381 46.4983C123.685 46.8328 122.948 47 122.167 47C120.599 47 119.35 46.5085 118.421 45.526C117.499 44.5363 117.037 43.1863 117.037 41.4749V41.1644C117.037 40.1082 117.243 39.1689 117.654 38.347C118.066 37.5246 118.655 36.8861 119.421 36.4317C120.195 35.9768 121.106 35.7496 122.156 35.7496C123.448 35.7496 124.519 36.1141 125.371 36.8429C126.229 37.5713 126.687 38.5172 126.744 39.6802H124.881C124.824 38.9782 124.54 38.4034 124.03 37.9556C123.526 37.5012 122.901 37.274 122.156 37.274C121.156 37.274 120.379 37.6145 119.826 38.2966C119.28 38.9716 119.006 39.9511 119.006 41.2345V41.5852C119.006 42.8351 119.28 43.7978 119.826 44.4728C120.372 45.1483 121.153 45.4858 122.167 45.4858ZM131.629 33.3236V35.9504H133.779V37.3843H131.629V44.1119C131.629 44.5465 131.725 44.8738 131.916 45.0944C132.108 45.3084 132.434 45.4157 132.896 45.4157C133.122 45.4157 133.435 45.3755 133.832 45.2952V46.7992C133.314 46.9329 132.81 47 132.32 47C131.441 47 130.777 46.7489 130.33 46.2477C129.883 45.7466 129.66 45.0345 129.66 44.1119V37.3843H127.563V35.9504H129.66V33.3236H131.629ZM153.713 46.7992H151.659L143.858 35.5493V46.7992H141.804V32.2003H143.858L151.68 43.5005V32.2003H153.713V46.7992ZM164.143 46.7992C164.029 46.5852 163.937 46.2045 163.867 45.6561C162.951 46.5517 161.858 47 160.588 47C159.453 47 158.52 46.6991 157.789 46.0973C157.066 45.4889 156.704 44.7204 156.704 43.7912C156.704 42.6618 157.158 41.786 158.066 41.1644C158.981 40.5356 160.266 40.2215 161.919 40.2215H163.835V39.3696C163.835 38.7211 163.629 38.2062 163.217 37.8254C162.806 37.4376 162.199 37.244 161.397 37.244C160.695 37.244 160.106 37.4107 159.631 37.7452C159.155 38.0791 158.917 38.4837 158.917 38.9584H156.938C156.938 38.4171 157.14 37.8956 157.544 37.3939C157.956 36.8861 158.51 36.4851 159.205 36.1908C159.908 35.897 160.677 35.7496 161.514 35.7496C162.841 35.7496 163.881 36.0637 164.633 36.6925C165.385 37.3141 165.775 38.1731 165.803 39.269V44.2624C165.803 45.2586 165.938 46.0505 166.208 46.6386V46.7992H164.143ZM160.876 45.3857C161.493 45.3857 162.079 45.2352 162.632 44.9343C163.185 44.6334 163.586 44.2426 163.835 43.7612V41.5354H162.291C159.879 41.5354 158.673 42.2003 158.673 43.5304C158.673 44.1119 158.879 44.5668 159.29 44.8942C159.701 45.2215 160.23 45.3857 160.876 45.3857ZM171.561 33.3236V35.9504H173.711V37.3843H171.561V44.1119C171.561 44.5465 171.657 44.8738 171.849 45.0944C172.04 45.3084 172.367 45.4157 172.828 45.4157C173.055 45.4157 173.367 45.3755 173.765 45.2952V46.7992C173.246 46.9329 172.743 47 172.253 47C171.374 47 170.71 46.7489 170.263 46.2477C169.816 45.7466 169.593 45.0345 169.593 44.1119V37.3843H167.496V35.9504H169.593V33.3236H171.561ZM178.16 46.7992H176.191V35.9504H178.16V46.7992ZM176.031 33.0725C176.031 32.7721 176.127 32.5179 176.319 32.3106C176.517 32.1032 176.808 32 177.191 32C177.575 32 177.866 32.1032 178.064 32.3106C178.263 32.5179 178.362 32.7721 178.362 33.0725C178.362 33.3734 178.263 33.624 178.064 33.8247C177.866 34.025 177.575 34.1256 177.191 34.1256C176.808 34.1256 176.517 34.025 176.319 33.8247C176.127 33.624 176.031 33.3734 176.031 33.0725ZM185.121 44.2827L187.973 35.9504H189.984L185.855 46.7992H184.354L180.182 35.9504H182.194L185.121 44.2827ZM196.508 47C194.948 47 193.678 46.5187 192.698 45.556C191.719 44.5867 191.23 43.2931 191.23 41.6757V41.3347C191.23 40.2586 191.446 39.2995 191.879 38.4572C192.318 37.6079 192.929 36.9461 193.709 36.4719C194.497 35.9905 195.348 35.7496 196.263 35.7496C197.761 35.7496 198.924 36.2142 199.755 37.1433C200.585 38.0725 201 39.4027 201 41.1339V41.906H193.198C193.227 42.9759 193.557 43.8415 194.188 44.5033C194.827 45.158 195.636 45.4858 196.615 45.4858C197.31 45.4858 197.899 45.3521 198.382 45.0848C198.864 44.8174 199.286 44.4632 199.648 44.022L200.851 44.9043C199.886 46.3011 198.438 47 196.508 47ZM196.263 37.274C195.469 37.274 194.802 37.5479 194.263 38.0959C193.723 38.6377 193.39 39.3996 193.263 40.3821H199.031V40.2418C198.974 39.2995 198.704 38.5706 198.222 38.0557C197.74 37.5347 197.087 37.274 196.263 37.274Z" fill="#61DAFB"/>
<g clip-path="url(#clip0_605_454)">
<path d="M75.6112 41.0355C75.6112 38.6443 72.6645 36.3781 68.1466 34.9728C69.1892 30.2933 68.7259 26.5703 66.684 25.3784C66.2134 25.0988 65.6632 24.9663 65.0623 24.9663V26.6071C65.3953 26.6071 65.6632 26.6733 65.8876 26.7984C66.8723 27.3723 67.2995 29.5576 66.9663 32.3682C66.8869 33.0598 66.7565 33.7882 66.5972 34.5314C65.178 34.1782 63.6287 33.906 61.9996 33.7294C61.0223 32.3682 60.0086 31.1321 58.9877 30.0505C61.348 27.8211 63.5636 26.5997 65.0696 26.5997V24.959C63.0784 24.959 60.472 26.4011 57.8366 28.9027C55.2011 26.4158 52.5947 24.9884 50.6037 24.9884V26.6292C52.1023 26.6292 54.325 27.8432 56.6853 30.0579C55.6717 31.1395 54.6581 32.3682 53.6951 33.7294C52.0588 33.906 50.5094 34.1782 49.0904 34.5387C48.9238 33.8029 48.8008 33.0892 48.7138 32.405C48.3737 29.5943 48.7935 27.4091 49.771 26.8278C49.9881 26.6954 50.2705 26.6366 50.6037 26.6366V24.9958C49.9954 24.9958 49.4451 25.1282 48.9674 25.4078C46.9328 26.5997 46.4767 30.3154 47.5265 34.9802C43.0231 36.3929 40.0908 38.6517 40.0908 41.0355C40.0908 43.4269 43.0376 45.693 47.5554 47.0983C46.5128 51.7779 46.9762 55.5007 49.018 56.6927C49.4887 56.9722 50.0388 57.1047 50.647 57.1047C52.6381 57.1047 55.2446 55.6626 57.88 53.161C60.5154 55.648 63.1219 57.0754 65.1129 57.0754C65.721 57.0754 66.2713 56.943 66.7492 56.6633C68.7837 55.4713 69.2399 51.7556 68.19 47.091C72.6789 45.6856 75.6112 43.4195 75.6112 41.0355ZM66.1845 36.128C65.9166 37.0772 65.5836 38.0556 65.207 39.0342C64.9102 38.4457 64.5989 37.857 64.2586 37.2684C63.9256 36.6798 63.5707 36.1059 63.216 35.5467C64.244 35.7012 65.236 35.8925 66.1845 36.128ZM62.8684 43.9639C62.3037 44.9573 61.7246 45.899 61.1236 46.7746C60.0447 46.8702 58.9516 46.9217 57.851 46.9217C56.7577 46.9217 55.6644 46.8702 54.593 46.7819C53.992 45.9063 53.4055 44.9719 52.8408 43.9859C52.2905 43.0221 51.791 42.0435 51.3348 41.0577C51.7837 40.0717 52.2905 39.0857 52.8336 38.1219C53.3983 37.1287 53.9774 36.1868 54.5784 35.3113C55.6573 35.2156 56.7504 35.1641 57.851 35.1641C58.9443 35.1641 60.0376 35.2156 61.109 35.3039C61.71 36.1795 62.2966 37.1139 62.8613 38.0999C63.4116 39.0637 63.911 40.0423 64.3672 41.0283C63.911 42.0141 63.4116 43.0001 62.8684 43.9639ZM65.207 43.0075C65.5871 43.9664 65.9206 44.9436 66.2062 45.9357C65.2577 46.1712 64.2586 46.3699 63.2233 46.5244C63.578 45.9579 63.9327 45.3767 64.2659 44.7806C64.5989 44.1921 64.9102 43.596 65.207 43.0075ZM57.8654 50.8582C57.1921 50.1517 56.5188 49.3644 55.8527 48.5036C56.5043 48.5331 57.1704 48.5551 57.8437 48.5551C58.5243 48.5551 59.1977 48.5405 59.8566 48.5036C59.2351 49.3244 58.5704 50.1104 57.8654 50.8582ZM52.4788 46.5244C51.4507 46.3699 50.4588 46.1786 49.5104 45.9431C49.7781 44.994 50.1113 44.0154 50.4877 43.0368C50.7847 43.6255 51.096 44.2141 51.4361 44.8026C51.7764 45.3913 52.124 45.9652 52.4788 46.5244ZM57.8293 31.213C58.5027 31.9194 59.176 32.7066 59.842 33.5675C59.1904 33.5381 58.5243 33.516 57.851 33.516C57.1704 33.516 56.4971 33.5307 55.8383 33.5675C56.4597 32.7468 57.1244 31.9608 57.8293 31.213ZM52.4715 35.5467C52.1168 36.1133 51.762 36.6945 51.429 37.2904C51.096 37.8791 50.7847 38.4678 50.4877 39.0563C50.1076 38.0974 49.7742 37.1201 49.4887 36.128C50.4371 35.8999 51.4361 35.7012 52.4715 35.5467ZM45.9191 44.7585C43.3562 43.6475 41.6981 42.1908 41.6981 41.0355C41.6981 39.8804 43.3562 38.4163 45.9191 37.3126C46.5418 37.0403 47.2224 36.7975 47.9247 36.5694C48.3374 38.0115 48.8804 39.5125 49.5537 41.0503C48.8877 42.5807 48.3518 44.0743 47.9464 45.5091C47.2297 45.2809 46.5491 45.0308 45.9191 44.7585ZM49.8144 55.2727C48.8297 54.6988 48.4025 52.5136 48.7357 49.7029C48.8153 49.0114 48.9455 48.2828 49.1048 47.5397C50.524 47.8929 52.0734 48.1652 53.7024 48.3417C54.6798 49.7029 55.6934 50.9389 56.7143 52.0205C54.354 54.25 52.1384 55.4713 50.6325 55.4713C50.3067 55.464 50.0317 55.3977 49.8144 55.2727ZM66.9882 49.6662C67.3283 52.4768 66.9086 54.662 65.931 55.2433C65.7139 55.3757 65.4316 55.4346 65.0984 55.4346C63.5997 55.4346 61.377 54.2206 59.0167 52.0059C60.0303 50.9243 61.044 49.6956 62.0069 48.3343C63.6432 48.1578 65.1926 47.8855 66.6116 47.525C66.7782 48.2682 66.9085 48.9819 66.9882 49.6662ZM69.7756 44.7585C69.1529 45.0308 68.4723 45.2737 67.77 45.5017C67.3573 44.0596 66.8143 42.5587 66.141 41.0209C66.8072 39.4904 67.3429 37.9969 67.7483 36.5621C68.4652 36.7902 69.1457 37.0403 69.7829 37.3126C72.3459 38.4235 74.0039 39.8804 74.0039 41.0355C73.9966 42.1908 72.3386 43.6549 69.7756 44.7585Z" fill="#61DAFB"/>
<path d="M57.844 44.0855C59.6711 44.0855 61.1521 42.5571 61.1521 40.6716C61.1521 38.7862 59.6711 37.2578 57.844 37.2578C56.0171 37.2578 54.5361 38.7862 54.5361 40.6716C54.5361 42.5571 56.0171 44.0855 57.844 44.0855Z" fill="#61DAFB"/>
</g>
<defs>
<clipPath id="clip0_605_454">
<rect width="36" height="37" fill="white" transform="translate(40 21)"/>
</clipPath>
</defs>
</svg>
