<svg width="233" height="80" viewBox="0 0 233 80" fill="none" xmlns="http://www.w3.org/2000/svg">
<rect width="232.872" height="79.5745" rx="8" fill="#14161D"/>
<path d="M58.8801 17.691L72.5917 17.6758L49.5873 40.8364L43.5919 46.8418L36.7705 39.9621L58.8801 17.691ZM58.7525 38.3707C58.9304 38.1339 59.2578 38.2506 59.5063 38.2202L72.58 38.2236L60.6647 50.214L53.8081 43.3495L58.7525 38.3707Z" fill="#44D1FD"/>
<path opacity="0.54" d="M91.8638 27.3516L106.811 27.3566L106.809 30.3213C102.899 30.3213 98.9874 30.3094 95.0755 30.3263C94.7767 30.4261 94.9177 30.8033 94.8841 31.0349L94.8959 39.0088C94.9949 39.3082 95.371 39.1644 95.6027 39.2016L105.636 39.1966V42.1578C102.516 42.1561 99.3987 42.1561 96.2793 42.1578C95.8159 42.1561 95.3475 42.1274 94.8892 42.2069L94.8539 53.4633C93.8482 53.4227 92.8443 53.4599 91.8386 53.438L91.8369 27.8302L91.8638 27.3516ZM110.436 27.3566H113.505L113.507 45.0734L113.473 53.416C112.474 53.3974 111.475 53.3923 110.478 53.4194C110.401 53.0067 110.433 52.5873 110.433 52.1713L110.436 27.3566ZM140.475 29.5535L143.554 29.5552L143.559 34.7978C145.065 34.835 146.579 34.7302 148.082 34.8502C148.04 35.7905 148.075 36.7308 148.059 37.6711C146.561 37.6745 145.065 37.6863 143.569 37.6644L143.557 48.1057C143.589 49.073 143.794 50.2416 144.728 50.7405C145.794 51.351 147.103 51.0635 148.112 50.475V53.5124C147.001 54.0197 145.733 54.0806 144.54 53.9166C142.857 53.6578 141.246 52.5027 140.737 50.8234C140.399 49.9034 140.477 48.9107 140.47 47.9501L140.463 37.781L140.388 37.6948C139.325 37.6373 138.259 37.7033 137.194 37.666C137.201 36.7088 137.157 35.7516 137.218 34.7961C138.299 34.7775 139.385 34.8452 140.465 34.7623L140.475 29.5535ZM153.483 29.5433C154.507 29.5788 155.531 29.5315 156.554 29.567L156.624 29.6448C156.663 31.3664 156.572 33.0931 156.665 34.8113C158.124 34.7843 159.583 34.8063 161.04 34.7978L161.05 37.6491C159.583 37.7049 158.11 37.6711 156.643 37.6627L156.626 48.2849C156.624 49.21 156.89 50.3042 157.778 50.7591C158.867 51.3578 160.189 51.05 161.201 50.4378L161.198 53.4921C160.118 53.9825 158.901 54.0772 157.736 53.9419C156.223 53.739 154.742 52.8782 154.032 51.483C153.69 50.7524 153.498 49.944 153.466 49.1373V37.6745C152.404 37.6728 151.342 37.6779 150.281 37.6745L150.288 34.7877C151.334 34.8164 152.38 34.7792 153.426 34.8147C153.537 33.0627 153.418 31.2988 153.483 29.5433ZM168.429 34.8959C170.554 34.008 173.007 33.9911 175.178 34.7352C177.664 35.5994 179.588 37.7844 180.294 40.3195C180.755 41.7249 180.737 43.2182 180.671 44.6794L166.056 44.6946C166.177 46.2623 166.642 47.8605 167.724 49.0375C169.26 50.842 171.904 51.5117 174.137 50.8031C175.703 50.338 176.926 49.1238 177.73 47.7285C178.62 48.1294 179.484 48.586 180.371 48.9969C179.159 51.324 176.954 53.1724 174.364 53.673C172.237 54.0738 169.91 54.084 167.959 53.0253C165.427 51.7586 163.684 49.1796 163.187 46.406C162.826 44.2752 162.939 42.0208 163.735 39.9982C164.569 37.7777 166.256 35.8548 168.429 34.8959ZM169.585 37.5697C167.797 38.4017 166.646 40.2502 166.286 42.1578L177.495 42.1223C177.317 40.8759 176.877 39.6092 175.97 38.7078C174.382 36.993 171.667 36.6581 169.585 37.5697ZM187.325 37.8149C188.495 34.9517 192.09 33.4483 194.932 34.6473V37.9891C193.738 37.5155 192.4 37.223 191.139 37.5967C189.417 38.1125 188.142 39.6599 187.654 41.363C187.318 42.513 187.444 43.7137 187.457 44.8924C187.327 46.4179 187.523 47.945 187.424 49.4705C187.504 50.7879 187.353 52.1053 187.464 53.4244C186.42 53.4752 185.376 53.4211 184.333 53.4566C184.273 49.4806 184.325 45.503 184.308 41.5253L184.331 34.8299C185.31 34.857 186.291 34.8266 187.271 34.8502C187.36 35.8379 187.162 36.8306 187.325 37.8149ZM117.907 34.7927C118.948 34.8367 119.997 34.7302 121.033 34.8485L121.018 45.9325C121.008 47.2872 121.199 48.7669 122.129 49.8188C123.33 51.1583 125.363 51.4035 127.005 50.8741C129.199 50.0827 130.731 47.7421 130.642 45.4015L130.675 34.7927L133.81 34.7995L133.791 53.4109C132.797 53.394 131.805 53.4109 130.813 53.3991L130.801 50.7507C130.158 51.5641 129.483 52.3877 128.561 52.9002C126.674 54.0992 124.28 54.2582 122.166 53.6443C120.803 53.2299 119.616 52.2677 118.933 51.0094C118.122 49.626 117.917 47.9907 117.87 46.4145L117.907 34.7927Z" fill="white"/>
<path d="M46.9736 50.2259L53.8085 43.3496L60.6651 50.2141L60.6937 50.2445L53.8101 57.1141L46.9736 50.2259Z" fill="#1FBCFD"/>
<path d="M53.8096 57.1157L60.6931 50.2461L72.5848 62.2365C68.1055 62.2467 63.6278 62.2332 59.1502 62.2433C58.895 62.3008 58.7372 62.0657 58.5743 61.9203L53.8096 57.1157Z" fill="#08589C"/>
</svg>
