<svg width="233" height="80" viewBox="0 0 233 80" fill="none" xmlns="http://www.w3.org/2000/svg">
<rect width="232.872" height="79.5745" rx="8" fill="#14161D"/>
<path fill-rule="evenodd" clip-rule="evenodd" d="M57.035 28.0567C58.0151 28.0513 58.9951 28.0567 59.975 28.073C61.2726 28.2274 62.4826 28.6607 63.605 29.373C64.2245 29.8056 64.7695 30.331 65.24 30.9492C65.5622 31.5621 65.7072 32.223 65.675 32.9317C65.6243 34.2843 65.3793 35.5951 64.94 36.8642C64.3261 38.7039 63.5011 40.4156 62.465 41.9992C62.49 42.01 62.515 42.0209 62.54 42.0317C63.1454 41.9574 63.7504 41.8815 64.355 41.8042C64.8506 41.7826 65.2657 41.9668 65.6 42.3567C65.8655 42.8275 65.8555 43.2934 65.57 43.7542C65.2598 44.1227 64.9048 44.4315 64.505 44.6805C63.3789 45.3158 62.1789 45.6246 60.905 45.6067C60.7445 45.5928 60.5845 45.5874 60.425 45.5905C60.3737 46.2551 60.3187 46.9213 60.26 47.5892C60.1723 48.6108 59.8923 49.5641 59.42 50.4492C58.9026 51.2799 58.1976 51.8377 57.305 52.123C53.9873 53.222 52.1823 51.9057 51.89 48.1742C51.8403 47.5361 51.8153 46.897 51.815 46.2567C50.6176 46.6818 49.4176 46.6872 48.215 46.273C47.8652 46.1459 47.5502 45.9563 47.27 45.7042C45.9844 46.5154 44.7894 46.38 43.685 45.298C43.2284 44.78 42.8333 44.2112 42.5 43.5917C41.6078 41.7755 40.9278 39.8688 40.46 37.8717C40.2047 36.8894 40.0147 35.8928 39.89 34.8817C39.6728 30.8708 41.4078 28.6879 45.095 28.333C46.793 28.2398 48.458 28.451 50.09 28.9667C50.7689 28.6133 51.4839 28.3912 52.235 28.3005C53.2722 28.2008 54.3072 28.2279 55.34 28.3817C55.9049 28.2464 56.4699 28.138 57.035 28.0567Z" fill="#040704"/>
<path fill-rule="evenodd" clip-rule="evenodd" d="M64.2653 30.8834C64.2929 30.9675 64.3429 31.0325 64.4153 31.0784C64.6197 31.3153 64.7547 31.5969 64.8203 31.9234C64.9182 32.6379 64.9182 33.3529 64.8203 34.0684C64.2088 37.1729 63.0039 39.9733 61.2053 42.4696C61.5246 42.646 61.8646 42.7165 62.2253 42.6809C62.8605 42.6666 63.4905 42.5962 64.1153 42.4696C64.4647 42.3972 64.7597 42.5001 65.0003 42.7784C65.0447 43.0566 64.9747 43.2949 64.7903 43.4934C64.0451 44.1705 63.1901 44.5876 62.2253 44.7446C61.5985 44.8464 60.9685 44.8789 60.3353 44.8421C60.1879 44.8296 60.0429 44.8025 59.9003 44.7609C59.8772 44.7656 59.8572 44.7764 59.8403 44.7934C59.6693 46.3187 59.4493 47.8354 59.1803 49.3434C58.9317 50.3168 58.3767 50.9939 57.5153 51.3746C56.6347 51.7377 55.7247 51.8785 54.7853 51.7971C53.6645 51.5363 52.9495 50.8051 52.6403 49.6034C52.5281 48.9149 52.4581 48.2215 52.4303 47.5234C52.4203 46.6892 52.4103 45.8551 52.4003 45.0209C51.8339 45.4782 51.1989 45.7436 50.4953 45.8171C49.801 45.8856 49.121 45.8098 48.4553 45.5896C48.2458 45.5059 48.0508 45.3922 47.8703 45.2484C47.5982 44.9334 47.6132 44.6355 47.9153 44.3546C48.0536 44.2527 48.2036 44.1769 48.3653 44.1271C48.8993 44.0174 49.4293 43.8874 49.9553 43.7371C50.2569 43.5345 50.5169 43.2799 50.7353 42.9734C50.4725 42.9543 50.2125 42.9163 49.9553 42.8596C49.7444 42.8134 49.5444 42.7376 49.3553 42.6321C49.3053 42.6105 49.2553 42.6105 49.2053 42.6321C48.4462 43.4003 47.6962 44.1803 46.9553 44.9721C46.2532 45.5981 45.5032 45.6739 44.7053 45.1996C44.5116 45.0601 44.3316 44.903 44.1653 44.7284C43.9959 44.5069 43.8209 44.2902 43.6403 44.0784C42.9852 43.0056 42.4552 41.8573 42.0503 40.6334C41.3914 38.7097 40.9114 36.7381 40.6103 34.7184C40.5157 33.5609 40.6857 32.4559 41.1203 31.4034C41.8187 30.1281 42.8437 29.3535 44.1953 29.0796C44.4725 29.0182 44.7525 28.9748 45.0353 28.9496C46.7967 28.8656 48.5167 29.0985 50.1953 29.6484C50.8573 29.2451 51.5673 29.0013 52.3253 28.9171C53.2922 28.8175 54.2522 28.8662 55.2053 29.0634C57.0317 28.5461 58.8717 28.4756 60.7253 28.8521C62.0941 29.1653 63.2741 29.8424 64.2653 30.8834Z" fill="#FBFCFD"/>
<path fill-rule="evenodd" clip-rule="evenodd" d="M57.6047 29.2918C58.7309 29.2082 59.8409 29.3111 60.9347 29.6005C62.0662 29.9383 63.0312 30.5721 63.8297 31.5018C64.0048 31.7624 64.1048 32.0549 64.1297 32.3793C64.1788 33.103 64.1288 33.818 63.9797 34.5243C63.5927 36.3354 62.9627 38.0254 62.0897 39.5943C61.7005 40.3712 61.2605 41.1187 60.7697 41.8368C60.6819 41.7858 60.6519 41.7099 60.6797 41.6093C61.1072 40.9512 61.2872 40.2145 61.2197 39.3993C61.1448 38.696 61.0798 37.9919 61.0247 37.2868C61.0407 36.7701 61.1057 36.261 61.2197 35.7593C61.2432 35.4052 61.2682 35.0531 61.2947 34.703C61.2715 34.6249 61.2565 34.5436 61.2497 34.4593C61.045 33.8198 60.765 33.2239 60.4097 32.6718C59.4176 31.1847 58.1326 30.1176 56.5547 29.4705C56.9037 29.3922 57.2537 29.3326 57.6047 29.2918Z" fill="#346790"/>
<path fill-rule="evenodd" clip-rule="evenodd" d="M52.8353 29.5184C54.5873 29.4404 56.2073 29.89 57.6953 30.8672C58.8919 31.7461 59.8018 32.889 60.4253 34.2959C59.8961 34.2844 59.3661 34.3115 58.8353 34.3772C57.5913 34.672 57.0863 35.5008 57.3203 36.8634C57.4768 37.4992 57.6967 38.1058 57.9803 38.6834C58.4762 39.6005 58.9862 40.5105 59.5103 41.4134C59.7484 41.7528 60.0034 42.0778 60.2753 42.3884C59.7347 42.5136 59.3797 42.8603 59.2103 43.4284C59.0535 45.3864 58.7935 47.3255 58.4303 49.2459C58.2239 49.9894 57.7889 50.504 57.1253 50.7897C56.4118 51.0858 55.6718 51.1941 54.9053 51.1147C54.3465 50.9859 53.9215 50.6555 53.6303 50.1234C53.5966 49.9788 53.5366 49.8488 53.4503 49.7334C53.3115 49.159 53.2315 48.574 53.2103 47.9784C53.1829 46.4609 53.1529 44.9443 53.1203 43.4284C52.8189 42.6855 52.2939 42.3497 51.5453 42.4209C51.628 42.109 51.733 41.8057 51.8603 41.5109C52.1886 40.8644 52.4686 40.1927 52.7003 39.4959C52.9193 38.1604 52.8293 36.8496 52.4303 35.5634C52.1117 34.862 51.5867 34.4882 50.8553 34.4422C50.452 34.4094 50.052 34.4311 49.6553 34.5072C49.1442 34.6557 48.6442 34.829 48.1553 35.0272C48.2435 34.2388 48.4185 33.475 48.6803 32.7359C49.1569 31.4939 49.9519 30.5784 51.0653 29.9897C51.3534 29.8748 51.6433 29.7665 51.9353 29.6647C52.2397 29.6142 52.5397 29.5655 52.8353 29.5184Z" fill="#336790"/>
<path fill-rule="evenodd" clip-rule="evenodd" d="M45.215 29.5833C45.9067 29.5657 46.5967 29.5928 47.285 29.6646C47.7622 29.7744 48.2422 29.8719 48.725 29.9571C48.9896 30.0125 49.2496 30.0883 49.505 30.1846C48.6054 31.0558 48.0004 32.1229 47.69 33.3858C47.5369 34.0136 47.437 34.6528 47.39 35.3033C47.4282 36.18 47.4382 37.0575 47.42 37.9358C47.3918 38.453 47.3468 38.9676 47.285 39.4796C47.3261 40.6126 47.7661 41.5172 48.605 42.1933C47.8612 42.9611 47.1212 43.7357 46.385 44.5171C45.9432 44.914 45.4932 44.9249 45.035 44.5496C44.6251 44.1652 44.2751 43.7265 43.985 43.2333C43.388 42.0779 42.893 40.8754 42.5 39.6258C42.1226 38.386 41.8026 37.1294 41.54 35.8558C41.4612 35.4253 41.4012 34.9919 41.36 34.5558C41.1999 31.572 42.4849 29.9145 45.215 29.5833Z" fill="#336790"/>
<path fill-rule="evenodd" clip-rule="evenodd" d="M64.2646 30.8838C64.3374 30.9296 64.3876 30.9946 64.4153 31.0788C64.3425 31.0329 64.2923 30.9679 64.2646 30.8838Z" fill="#879099"/>
<path fill-rule="evenodd" clip-rule="evenodd" d="M146.345 44.0139C146.345 43.7972 146.345 43.5806 146.345 43.3639C146.935 43.3639 147.525 43.3639 148.115 43.3639C148.162 45.2247 149.002 46.4543 150.635 47.0526C151.633 47.3746 152.653 47.5209 153.695 47.4914C154.588 47.5149 155.468 47.412 156.335 47.1826C157.744 46.8312 158.464 45.8724 158.495 44.3064C158.467 43.2434 158.008 42.5013 157.115 42.0801C156.585 41.8878 156.045 41.7361 155.495 41.6251C154.107 41.3546 152.716 41.0946 151.325 40.8451C150.479 40.6836 149.649 40.4561 148.835 40.1626C147.484 39.5681 146.804 38.4739 146.795 36.8801C146.768 35.232 147.438 34.062 148.805 33.3701C149.799 32.9577 150.829 32.7302 151.895 32.6876C153.356 32.5619 154.806 32.6486 156.245 32.9476C157.001 33.1192 157.701 33.4334 158.345 33.8901C159.398 34.7688 159.898 35.9334 159.845 37.3839C159.235 37.3839 158.625 37.3839 158.015 37.3839C157.995 35.8734 157.335 34.8497 156.035 34.3126C155.104 33.9922 154.149 33.8351 153.17 33.8414C152.197 33.8346 151.242 33.97 150.305 34.2476C149.047 34.7348 148.482 35.7044 148.61 37.1564C148.719 37.8862 149.074 38.4225 149.675 38.7651C149.807 38.8238 149.937 38.8888 150.065 38.9601C150.606 39.1474 151.156 39.2991 151.715 39.4151C152.91 39.6707 154.11 39.8982 155.315 40.0976C156.364 40.2787 157.384 40.5712 158.375 40.9751C159.279 41.3586 159.884 42.0465 160.19 43.0389C160.245 43.2523 160.285 43.4689 160.31 43.6889C160.504 45.9062 159.639 47.3958 157.715 48.1576C156.721 48.5115 155.701 48.7065 154.655 48.7426C153.285 48.8286 151.925 48.7419 150.575 48.4826C149.569 48.2838 148.648 47.8722 147.815 47.2476C146.89 46.4077 146.4 45.3298 146.345 44.0139Z" fill="white"/>
<path fill-rule="evenodd" clip-rule="evenodd" d="M169.085 32.6386C170.562 32.5691 172.012 32.7478 173.435 33.1749C175.406 33.8265 176.881 35.1319 177.86 37.0911C178.52 38.7374 178.72 40.449 178.46 42.2261C178.175 44.1512 177.31 45.6787 175.865 46.8086C176.676 47.4269 177.496 48.0336 178.325 48.6286C178.358 48.6684 178.363 48.7117 178.34 48.7586C177.986 49.0885 177.641 49.4298 177.305 49.7824C177.265 49.8041 177.224 49.8041 177.185 49.7824C176.33 49.1298 175.47 48.4852 174.605 47.8486C173.723 48.3121 172.793 48.5884 171.815 48.6774C170.227 48.871 168.647 48.8168 167.075 48.5149C164.96 48.0954 163.275 46.9525 162.02 45.0861C161.127 43.5241 160.757 41.8233 160.91 39.9836C161.133 37.0232 162.478 34.9053 164.945 33.6299C166.27 33.0188 167.65 32.6884 169.085 32.6386ZM169.235 33.8736C170.579 33.7984 171.879 34.0205 173.135 34.5399C175.562 35.747 176.792 37.8054 176.825 40.7149C176.743 44.1394 175.183 46.3061 172.145 47.2149C170.314 47.685 168.504 47.6092 166.715 46.9874C164.072 45.8735 162.712 43.7773 162.635 40.6986C162.728 37.2015 164.338 35.0185 167.465 34.1499C168.053 34.0101 168.643 33.918 169.235 33.8736Z" fill="white"/>
<path fill-rule="evenodd" clip-rule="evenodd" d="M79.385 41.8358C77.0951 41.8358 74.8049 41.8358 72.515 41.8358C72.515 44.0133 72.515 46.1908 72.515 48.3683C71.9651 48.3683 71.4149 48.3683 70.865 48.3683C70.865 43.2658 70.865 38.1633 70.865 33.0608C73.3265 33.0362 75.7967 33.0145 78.275 32.9958C79.0796 32.9659 79.8797 33.0147 80.675 33.1421C82.562 33.5936 83.6171 34.8557 83.84 36.9283C83.975 39.3379 82.9799 40.8925 80.855 41.5921C80.3735 41.7354 79.8836 41.8167 79.385 41.8358ZM72.545 34.2633C74.8355 34.2487 77.1254 34.2649 79.415 34.3121C80.0786 34.3711 80.6786 34.6094 81.215 35.0271C81.6938 35.4925 81.9788 36.0721 82.07 36.7658C82.1747 37.4874 82.1147 38.1916 81.89 38.8783C81.4967 39.718 80.8718 40.2434 80.015 40.4546C79.6874 40.5339 79.3574 40.5935 79.025 40.6333C76.865 40.6333 74.705 40.6333 72.545 40.6333C72.545 38.51 72.545 36.3866 72.545 34.2633Z" fill="white"/>
<path fill-rule="evenodd" clip-rule="evenodd" d="M180.275 33.0293C180.325 33.0293 180.375 33.0293 180.425 33.0293C180.745 33.0293 181.065 33.0293 181.385 33.0293C181.385 37.7201 181.385 42.411 181.385 47.1018C184.905 47.1018 188.425 47.1018 191.945 47.1018C191.945 47.4376 191.945 47.7735 191.945 48.1093C191.945 48.131 191.945 48.1526 191.945 48.1743C191.917 48.2317 191.907 48.2967 191.915 48.3693C187.855 48.3693 183.795 48.3693 179.735 48.3693C179.735 43.2668 179.735 38.1643 179.735 33.0618C179.921 33.0723 180.101 33.0615 180.275 33.0293Z" fill="white"/>
<path fill-rule="evenodd" clip-rule="evenodd" d="M59.1655 35.0116C59.6069 35.0013 60.0469 35.0121 60.4855 35.0441C60.5203 35.1727 60.5253 35.3027 60.5005 35.4341C60.3401 36.2167 60.2701 37.0075 60.2905 37.8066C60.4238 38.5144 60.4838 39.2294 60.4705 39.9516C60.4311 40.1674 60.3911 40.3841 60.3505 40.6016C60.3008 40.7525 60.2358 40.8933 60.1555 41.0241C60.0177 40.7499 59.8728 40.4791 59.7205 40.2116C59.1487 39.3715 58.6687 38.4723 58.2805 37.5141C58.1998 37.2104 58.1198 36.907 58.0405 36.6041C57.8852 35.8841 58.1202 35.3912 58.7455 35.1253C58.8926 35.1007 59.0326 35.0628 59.1655 35.0116Z" fill="#356890"/>
<path opacity="0.861" fill-rule="evenodd" clip-rule="evenodd" d="M112.955 39.3667C112.955 39.02 112.955 38.6734 112.955 38.3267C112.115 38.3267 111.275 38.3267 110.435 38.3267C110.435 37.2325 110.435 36.1384 110.435 35.0442C109.965 35.0442 109.495 35.0442 109.025 35.0442C109.035 36.0465 109.025 37.0431 108.995 38.0342C108.995 37.0267 108.995 36.0192 108.995 35.0117C109.485 35.0117 109.975 35.0117 110.465 35.0117C110.465 36.1059 110.465 37.2 110.465 38.2942C111.305 38.2942 112.145 38.2942 112.985 38.2942C112.995 38.6575 112.985 39.015 112.955 39.3667Z" fill="#1C2125"/>
<path fill-rule="evenodd" clip-rule="evenodd" d="M112.955 39.3664C112.865 39.3664 112.775 39.3664 112.685 39.3664C111.94 39.334 111.19 39.3232 110.435 39.3339C110.425 41.6469 110.435 43.9544 110.465 46.2564C110.457 46.7539 110.657 47.1059 111.065 47.3127C111.24 47.3809 111.42 47.4242 111.605 47.4427C112.071 47.541 112.526 47.5031 112.97 47.3289C112.985 47.6971 112.99 48.0655 112.985 48.4339C112.174 48.5688 111.364 48.5634 110.555 48.4177C110.206 48.3461 109.886 48.2052 109.595 47.9952C109.223 47.6377 109.033 47.1881 109.025 46.6464C109.025 44.2089 109.025 41.7714 109.025 39.3339C108.395 39.3339 107.765 39.3339 107.135 39.3339C107.095 38.9959 107.095 38.6546 107.135 38.3102C107.755 38.2939 108.375 38.2885 108.995 38.2939C108.995 38.2073 108.995 38.1206 108.995 38.0339C109.025 37.0429 109.035 36.0462 109.025 35.0439C109.495 35.0439 109.965 35.0439 110.435 35.0439C110.435 36.1381 110.435 37.2323 110.435 38.3264C111.275 38.3264 112.115 38.3264 112.955 38.3264C112.955 38.6731 112.955 39.0198 112.955 39.3664Z" fill="white"/>
<path fill-rule="evenodd" clip-rule="evenodd" d="M50.165 35.1085C50.4465 35.0982 50.7265 35.1144 51.005 35.1572C51.42 35.2818 51.685 35.5689 51.8 36.0185C52.023 36.8684 52.113 37.7351 52.07 38.6185C52.0138 39.136 51.8938 39.6344 51.71 40.1135C51.4664 40.5737 51.2464 41.0504 51.05 41.5435C50.9656 41.7799 50.8906 42.0182 50.825 42.2585C49.6102 42.226 48.7352 41.6194 48.2 40.4385C48.0632 40.0399 48.0131 39.6282 48.05 39.2035C48.104 38.826 48.1441 38.4468 48.17 38.066C48.1837 37.3398 48.1837 36.614 48.17 35.8885C48.7858 35.4837 49.4508 35.2237 50.165 35.1085Z" fill="#346790"/>
<path fill-rule="evenodd" clip-rule="evenodd" d="M58.9854 35.3359C59.2375 35.3238 59.4875 35.3401 59.7354 35.3846C59.8166 35.4452 59.8417 35.5264 59.8104 35.6284C59.5312 36.0398 59.1762 36.1319 58.7454 35.9046C58.6673 35.8366 58.6073 35.7553 58.5654 35.6609C58.5732 35.606 58.5932 35.5573 58.6254 35.5146C58.7497 35.4574 58.8697 35.3979 58.9854 35.3359Z" fill="#FBFCFD"/>
<path fill-rule="evenodd" clip-rule="evenodd" d="M50.315 35.4985C50.5762 35.4919 50.8362 35.5082 51.095 35.5472C51.5487 35.7333 51.5687 35.9608 51.155 36.2297C50.7066 36.4175 50.3516 36.2929 50.09 35.856C50.0688 35.7757 50.0788 35.6998 50.12 35.6285C50.1894 35.5884 50.2544 35.545 50.315 35.4985Z" fill="#FBFCFD"/>
<path fill-rule="evenodd" clip-rule="evenodd" d="M88.7754 37.9692C89.8635 37.918 90.9336 38.0426 91.9854 38.3429C94.2147 39.1394 95.3448 40.8131 95.3754 43.3642C95.3796 45.7244 94.3797 47.344 92.3754 48.2229C91.0263 48.6887 89.6463 48.8404 88.2354 48.6779C87.0036 48.5802 85.9134 48.1143 84.9654 47.2804C83.9556 46.2296 83.4558 44.9404 83.4654 43.4129C83.4384 41.1733 84.3483 39.57 86.1954 38.6029C87.0255 38.2314 87.8853 38.0202 88.7754 37.9692ZM88.9554 39.0742C89.8896 39.0283 90.7995 39.1637 91.6854 39.4804C93.015 40.0878 93.7299 41.1766 93.8304 42.7467C94.0275 45.7833 92.7225 47.4137 89.9154 47.6379C88.9776 47.7281 88.0674 47.5981 87.1854 47.2479C86.0001 46.6582 85.2852 45.667 85.0404 44.2742C84.8421 43.0565 85.032 41.919 85.6104 40.8617C86.2092 39.9923 87.0042 39.4452 87.9954 39.2204C88.3182 39.1582 88.638 39.1095 88.9554 39.0742Z" fill="white"/>
<path fill-rule="evenodd" clip-rule="evenodd" d="M106.295 40.9911C106.295 41.0994 106.295 41.2078 106.295 41.3161C105.805 41.3161 105.315 41.3161 104.825 41.3161C104.833 41.2641 104.823 41.2208 104.795 41.1861C104.747 40.5123 104.467 39.9869 103.955 39.6098C103.3 39.2321 102.601 39.0371 101.855 39.0248C101.027 38.9748 100.207 39.0398 99.395 39.2198C98.9423 39.3269 98.5472 39.549 98.21 39.8861C97.8032 40.4456 97.763 41.0306 98.09 41.6411C98.3714 41.948 98.7062 42.1592 99.095 42.2748C99.551 42.3856 100.011 42.4723 100.475 42.5348C101.364 42.655 102.254 42.7634 103.145 42.8598C103.843 42.9388 104.522 43.1013 105.185 43.3473C106.482 43.8987 106.977 44.9116 106.67 46.3861C106.493 47.0321 106.138 47.525 105.605 47.8648C104.961 48.2481 104.271 48.4865 103.535 48.5798C102.266 48.7571 100.996 48.7679 99.725 48.6123C98.945 48.5474 98.2052 48.3307 97.505 47.9623C96.5807 47.3421 96.0908 46.4375 96.035 45.2486C96.575 45.2378 97.115 45.2269 97.655 45.2161C97.6295 45.9132 97.8596 46.482 98.345 46.9223C98.8727 47.2984 99.4529 47.5259 100.085 47.6048C101.147 47.7641 102.207 47.7533 103.265 47.5723C103.823 47.4867 104.323 47.2592 104.765 46.8898C105.174 46.4195 105.289 45.8724 105.11 45.2486C104.907 44.7502 104.562 44.4197 104.075 44.2573C102.286 43.9733 100.496 43.6917 98.705 43.4123C96.8075 43.0914 96.0926 41.9268 96.56 39.9186C96.8141 39.2966 97.2293 38.847 97.805 38.5698C98.6582 38.2398 99.5381 38.0557 100.445 38.0173C101.64 37.9193 102.82 38.0168 103.985 38.3098C104.707 38.503 105.313 38.8984 105.8 39.4961C106.099 39.9411 106.264 40.4394 106.295 40.9911Z" fill="white"/>
<path fill-rule="evenodd" clip-rule="evenodd" d="M124.085 48.5316C124.12 47.7896 124.125 47.0421 124.1 46.2891C124.078 46.3067 124.063 46.3284 124.055 46.3541C123.567 47.0061 122.957 47.4774 122.225 47.7678C120.517 48.3339 118.797 48.3772 117.065 47.8978C114.906 47.1662 113.836 45.5683 113.855 43.1041C113.847 40.659 114.917 39.0719 117.065 38.3428C118.318 37.9917 119.589 37.905 120.875 38.0828C121.527 38.1775 122.147 38.3834 122.735 38.7003C123.218 39.0938 123.663 39.5326 124.07 40.0166C124.085 39.4533 124.09 38.89 124.085 38.3266C124.575 38.3266 125.065 38.3266 125.555 38.3266C125.56 41.7824 125.555 45.2382 125.54 48.6941C125.394 50.2811 124.649 51.3915 123.305 52.0253C122.485 52.3692 121.635 52.5642 120.755 52.6103C119.546 52.6893 118.346 52.6135 117.155 52.3828C115.551 52.0756 114.611 51.0573 114.335 49.3278C114.84 49.2795 115.35 49.2633 115.865 49.2791C115.963 49.9096 116.223 50.4458 116.645 50.8878C117.25 51.2904 117.91 51.5179 118.625 51.5703C119.537 51.6517 120.447 51.63 121.355 51.5053C122.941 51.233 123.851 50.2417 124.085 48.5316ZM119.165 39.1066C120.153 39.0231 121.113 39.1585 122.045 39.5128C123.407 40.2205 124.087 41.4013 124.085 43.0553C124.078 45.1532 123.138 46.464 121.265 46.9878C120.129 47.2239 118.999 47.1914 117.875 46.8903C116.568 46.5039 115.763 45.5993 115.46 44.1766C115.254 43.0907 115.374 42.0507 115.82 41.0566C116.324 40.2006 117.029 39.6318 117.935 39.3503C118.344 39.2403 118.754 39.1591 119.165 39.1066Z" fill="white"/>
<path fill-rule="evenodd" clip-rule="evenodd" d="M128.615 43.0061C128.585 44.7881 128.575 46.5756 128.585 48.3686C128.115 48.3686 127.645 48.3686 127.175 48.3686C127.175 45.0319 127.175 41.6952 127.175 38.3586C127.645 38.3586 128.115 38.3586 128.585 38.3586C128.585 38.9544 128.585 39.5502 128.585 40.1461C128.694 40.157 128.745 40.1029 128.735 39.9836C129.123 38.8982 129.852 38.2752 130.925 38.1148C131.164 38.0732 131.404 38.0407 131.645 38.0173C132.225 38.0011 132.805 37.9956 133.385 38.0011C133.395 38.4566 133.385 38.9116 133.355 39.3661C132.4 39.1561 131.46 39.2157 130.535 39.5448C129.543 40.0184 128.948 40.8363 128.75 41.9986C128.689 42.3328 128.644 42.6686 128.615 43.0061Z" fill="white"/>
<path fill-rule="evenodd" clip-rule="evenodd" d="M145.025 43.234C145.025 43.364 145.025 43.494 145.025 43.624C141.585 43.624 138.145 43.624 134.705 43.624C134.697 43.6862 134.707 43.7404 134.735 43.7865C134.87 45.5954 135.73 46.7924 137.315 47.3777C138.445 47.719 139.585 47.7623 140.735 47.5077C141.975 47.1989 142.815 46.4027 143.255 45.119C143.78 45.1083 144.3 45.1191 144.815 45.1515C144.489 46.3722 143.809 47.2876 142.775 47.8977C141.444 48.5697 140.044 48.8405 138.575 48.7102C137.49 48.6578 136.47 48.3544 135.515 47.8002C133.976 46.757 133.206 45.2457 133.205 43.2665C133.239 41.0054 134.209 39.4292 136.115 38.5377C137.359 38.0702 138.639 37.8968 139.955 38.0177C140.981 38.068 141.941 38.3605 142.835 38.8952C144.262 39.9183 144.991 41.3646 145.025 43.234ZM138.545 39.009C139.465 38.9223 140.356 39.0577 141.215 39.4152C142.06 39.821 142.714 40.4547 143.18 41.3165C143.393 41.7536 143.498 42.2195 143.495 42.714C140.575 42.7248 137.655 42.714 134.735 42.6815C134.895 41.6514 135.315 40.7739 135.995 40.049C136.757 39.4454 137.607 39.0987 138.545 39.009Z" fill="white"/>
<path opacity="0.862" fill-rule="evenodd" clip-rule="evenodd" d="M112.685 39.3666C111.945 39.3666 111.205 39.3666 110.465 39.3666C110.465 41.6633 110.465 43.9599 110.465 46.2566C110.435 43.9546 110.425 41.6471 110.435 39.3341C111.19 39.3233 111.94 39.3342 112.685 39.3666Z" fill="#1B2024"/>
<path opacity="0.4" fill-rule="evenodd" clip-rule="evenodd" d="M107.135 39.334C107.765 39.334 108.395 39.334 109.025 39.334C109.025 41.7715 109.025 44.209 109.025 46.6465C108.995 44.2253 108.985 41.7986 108.995 39.3665C108.37 39.3772 107.75 39.3664 107.135 39.334Z" fill="#1E1E20"/>
<path opacity="0.557" fill-rule="evenodd" clip-rule="evenodd" d="M128.735 39.9837C128.744 40.103 128.694 40.1572 128.585 40.1462C128.585 39.5503 128.585 38.9545 128.585 38.3587C128.114 38.3587 127.645 38.3587 127.175 38.3587C127.175 41.6953 127.175 45.032 127.175 48.3687C127.645 48.3687 128.114 48.3687 128.585 48.3687C128.575 46.5757 128.585 44.7882 128.615 43.0062C128.615 44.8045 128.615 46.6028 128.615 48.4012C128.125 48.4012 127.634 48.4012 127.145 48.4012C127.145 45.0428 127.145 41.6845 127.145 38.3262C127.634 38.3262 128.125 38.3262 128.615 38.3262C128.605 38.9224 128.615 39.5182 128.645 40.1137C128.675 40.0681 128.705 40.0248 128.735 39.9837Z" fill="#1C1D20"/>
<path opacity="0.114" fill-rule="evenodd" clip-rule="evenodd" d="M72.5454 34.2637C72.5454 36.387 72.5454 38.5103 72.5454 40.6337C74.7054 40.6337 76.8654 40.6337 79.0254 40.6337C76.8606 40.6661 74.6904 40.677 72.5154 40.6662C72.5055 38.5265 72.5154 36.3924 72.5454 34.2637Z" fill="#191B1D"/>
<path opacity="0.857" fill-rule="evenodd" clip-rule="evenodd" d="M106.295 40.9912C106.324 41.1037 106.334 41.2229 106.325 41.3487C105.815 41.3487 105.305 41.3487 104.795 41.3487C104.795 41.2945 104.795 41.2404 104.795 41.1862C104.823 41.2209 104.833 41.2642 104.825 41.3162C105.315 41.3162 105.805 41.3162 106.295 41.3162C106.295 41.2079 106.295 41.0995 106.295 40.9912Z" fill="#1C2024"/>
<path fill-rule="evenodd" clip-rule="evenodd" d="M60.605 43.0059C60.8382 43.0883 61.0682 43.1804 61.295 43.2821C61.8828 43.3613 62.4728 43.383 63.065 43.3471C63.3841 43.2853 63.7041 43.242 64.025 43.2171C63.2191 43.8311 62.3191 44.1453 61.325 44.1596C61.045 44.1813 60.765 44.1813 60.485 44.1596C60.2977 44.1494 60.1177 44.106 59.945 44.0296C59.8582 43.4534 60.0782 43.1121 60.605 43.0059Z" fill="#386A92"/>
<path fill-rule="evenodd" clip-rule="evenodd" d="M50.0409 44.5693C50.4587 44.5726 50.7087 44.7947 50.7909 45.2356C50.7949 45.3688 50.755 45.4826 50.6709 45.5768C49.8687 46.4528 48.8987 46.7832 47.7609 46.5681C47.4603 46.5432 47.1803 46.4512 46.9209 46.2918C47.407 46.1572 47.8969 46.0326 48.3909 45.9181C48.5893 45.8502 48.7792 45.7635 48.9609 45.6581C49.3117 45.2802 49.6717 44.9172 50.0409 44.5693Z" fill="#366891"/>
<path opacity="0.86" fill-rule="evenodd" clip-rule="evenodd" d="M148.115 43.3637C147.525 43.3637 146.935 43.3637 146.345 43.3637C146.345 43.5803 146.345 43.797 146.345 44.0137C146.315 43.7922 146.305 43.5647 146.315 43.3312C146.92 43.3204 147.52 43.3312 148.115 43.3637Z" fill="#1B2024"/>
<path opacity="0.114" fill-rule="evenodd" clip-rule="evenodd" d="M145.025 43.2334C145.054 43.3678 145.065 43.5086 145.055 43.6559C141.615 43.6559 138.175 43.6559 134.735 43.6559C134.735 43.6992 134.735 43.7426 134.735 43.7859C134.707 43.7398 134.697 43.6856 134.705 43.6234C138.145 43.6234 141.585 43.6234 145.025 43.6234C145.025 43.4934 145.025 43.3634 145.025 43.2334Z" fill="#19191A"/>
<path opacity="0.251" fill-rule="evenodd" clip-rule="evenodd" d="M143.255 45.1183C143.78 45.0752 144.31 45.0752 144.845 45.1183C144.841 45.138 144.831 45.1488 144.815 45.1508C144.3 45.1184 143.78 45.1076 143.255 45.1183Z" fill="#202428"/>
<path opacity="0.557" fill-rule="evenodd" clip-rule="evenodd" d="M70.865 33.0615C70.865 38.164 70.865 43.2665 70.865 48.369C71.4149 48.369 71.9651 48.369 72.515 48.369C72.515 46.1915 72.515 44.014 72.515 41.8365C74.8049 41.8365 77.0951 41.8365 79.385 41.8365C77.1101 41.869 74.8301 41.8798 72.545 41.869C72.545 44.0465 72.545 46.224 72.545 48.4015C71.975 48.4015 71.405 48.4015 70.835 48.4015C70.8251 43.2827 70.835 38.1694 70.865 33.0615Z" fill="#1C1E21"/>
<path opacity="0.556" fill-rule="evenodd" clip-rule="evenodd" d="M180.425 33.0287C180.75 32.9963 181.08 32.9855 181.415 32.9962C181.415 37.687 181.415 42.3778 181.415 47.0687C184.935 47.0687 188.455 47.0687 191.975 47.0687C191.985 47.4211 191.975 47.7678 191.945 48.1087C191.945 47.7728 191.945 47.437 191.945 47.1012C188.425 47.1012 184.905 47.1012 181.385 47.1012C181.385 42.4103 181.385 37.7195 181.385 33.0287C181.065 33.0287 180.745 33.0287 180.425 33.0287Z" fill="#1A1D20"/>
<path opacity="0.251" fill-rule="evenodd" clip-rule="evenodd" d="M124.085 48.5316C124.095 47.8001 124.085 47.0743 124.055 46.3541C124.063 46.3284 124.078 46.3067 124.1 46.2891C124.125 47.0421 124.12 47.7896 124.085 48.5316Z" fill="#1F2225"/>
<path opacity="0.714" fill-rule="evenodd" clip-rule="evenodd" d="M180.275 33.0283C180.101 33.0605 179.921 33.0713 179.735 33.0608C179.735 38.1633 179.735 43.2658 179.735 48.3683C183.795 48.3683 187.855 48.3683 191.915 48.3683C191.906 48.2957 191.916 48.2307 191.945 48.1733C191.945 48.2491 191.945 48.325 191.945 48.4008C187.865 48.4008 183.785 48.4008 179.705 48.4008C179.705 43.2766 179.705 38.1525 179.705 33.0283C179.895 33.0283 180.085 33.0283 180.275 33.0283Z" fill="#1A2024"/>
</svg>
