<svg width="233" height="80" viewBox="0 0 233 80" fill="none" xmlns="http://www.w3.org/2000/svg">
<rect width="232.872" height="79.5745" rx="8" fill="#14161D"/>
<g clip-path="url(#clip0_197_320)">
<path d="M97.803 36.3115C97.803 31.7702 96.5088 29.4388 93.92 29.3112C92.8898 29.2626 91.8845 29.4266 90.9061 29.8068C90.1253 30.0862 89.5997 30.3631 89.3232 30.6429V41.4825C90.979 42.5222 92.4494 43.0056 93.7317 42.9295C96.4445 42.7496 97.803 40.546 97.803 36.3115ZM100.996 36.4999C100.996 38.807 100.455 40.7222 99.3674 42.245C98.1552 43.9686 96.4751 44.8562 94.3271 44.9049C92.7078 44.9563 91.0395 44.4489 89.3229 43.3848V53.2368L86.5459 52.2457V30.3781C87.0016 29.8189 87.5883 29.3387 88.299 28.9311C89.9519 27.9674 91.96 27.4722 94.324 27.4478L94.3633 27.4871C96.5237 27.46 98.1882 28.3476 99.3581 30.147C100.449 31.7977 100.996 33.9133 100.996 36.4999ZM117.968 42.9657C117.968 46.0603 117.658 48.2031 117.038 49.3947C116.415 50.586 115.23 51.5375 113.48 52.246C112.062 52.8052 110.527 53.1093 108.881 53.161L108.421 51.4103C110.096 51.1826 111.274 50.9543 111.958 50.7263C113.304 50.2704 114.228 49.5715 114.735 48.635C115.142 47.8722 115.343 46.4161 115.343 44.2612V43.5377C113.444 44.4012 111.454 44.8297 109.373 44.8297C108.005 44.8297 106.799 44.4012 105.76 43.5377C104.593 42.5983 104.01 41.407 104.01 39.9631V28.3993L106.787 27.4478V39.0868C106.787 40.3299 107.188 41.2876 107.99 41.9593C108.792 42.6311 109.831 42.9535 111.104 42.9289C112.377 42.9015 113.741 42.409 115.19 41.4454V27.867H117.967L117.968 42.9657ZM128.808 44.753C128.504 44.7787 128.199 44.7918 127.894 44.7923C126.323 44.7923 125.098 44.4187 124.223 43.6677C123.351 42.9171 122.914 41.8807 122.914 40.5581V29.615H121.012V27.8673H122.914V23.2256L125.688 22.2376V27.8673H128.808V29.615H125.688V40.482C125.688 41.5249 125.967 42.2634 126.526 42.6953C127.006 43.0508 127.769 43.2545 128.808 43.3063V44.753H128.808ZM145.622 44.525H142.845V33.8007C142.845 32.7095 142.59 31.7702 142.083 30.9862C141.496 30.0983 140.682 29.6546 139.637 29.6546C138.364 29.6546 136.772 30.3263 134.861 31.6698V44.525H132.084V18.891L134.861 18.0156V29.6911C136.635 28.399 138.573 27.7516 140.679 27.7516C142.15 27.7516 143.34 28.2471 144.252 29.2351C145.167 30.2228 145.622 31.454 145.622 32.9254L145.622 44.525ZM160.382 35.874C160.382 34.1291 160.051 32.6883 159.391 31.5485C158.607 30.1595 157.389 29.4266 155.742 29.3508C152.698 29.527 151.179 31.7094 151.179 35.8924C151.179 37.8103 151.495 39.4124 152.133 40.6982C152.947 42.3367 154.168 43.1453 155.797 43.1179C158.853 43.0933 160.382 40.6798 160.382 35.874ZM163.423 35.8921C163.423 38.3757 162.788 40.4428 161.521 42.0931C160.126 43.9415 158.2 44.8684 155.742 44.8684C153.306 44.8684 151.407 43.9412 150.036 42.0931C148.794 40.4428 148.174 38.3757 148.174 35.8921C148.174 33.5578 148.845 31.594 150.188 29.9951C151.607 28.2989 153.472 27.4478 155.779 27.4478C158.084 27.4478 159.962 28.2989 161.409 29.9951C162.752 31.594 163.423 33.5578 163.423 35.8921ZM179.343 44.525H176.566V33.1929C176.566 31.9499 176.193 30.98 175.445 30.2808C174.698 29.5847 173.701 29.2473 172.459 29.2744C171.14 29.2987 169.885 29.7303 168.694 30.5664V44.525H165.917V30.2231C167.516 29.0592 168.986 28.2989 170.329 27.9434C171.596 27.6122 172.714 27.4478 173.677 27.4478C174.336 27.4478 174.956 27.5115 175.54 27.6393C176.63 27.8916 177.518 28.3597 178.201 29.0467C178.964 29.8068 179.343 30.7183 179.343 31.7855V44.525Z" fill="white"/>
<path d="M59.1186 18.9925C57.6898 18.999 56.3254 19.121 55.125 19.3337C51.5884 19.9589 50.9462 21.2672 50.9462 23.6804V26.8673H59.3038V27.9295H47.8095C45.3807 27.9295 43.2536 29.3902 42.5884 32.1689C41.821 35.3539 41.787 37.3414 42.5884 40.6671C43.1825 43.1426 44.6014 44.9065 47.0302 44.9065H49.9039V41.0862C49.9039 38.3263 52.2907 35.8919 55.125 35.8919H63.4729C65.7967 35.8919 67.6517 33.9777 67.6517 31.6428V23.6801C67.6517 21.4141 65.7409 19.7116 63.4729 19.3334C62.0369 19.0945 60.5475 18.9856 59.1186 18.9925ZM54.5989 21.5554C55.4623 21.5554 56.1671 22.2723 56.1671 23.1536C56.1671 24.0318 55.462 24.7423 54.5989 24.7423C53.7326 24.7423 53.0307 24.0322 53.0307 23.1536C53.0307 22.2723 53.7326 21.5554 54.5989 21.5554Z" fill="url(#paint0_linear_197_320)"/>
<path d="M68.6941 27.9297V31.6427C68.6941 34.5215 66.2547 36.9443 63.473 36.9443H55.1251C52.8384 36.9443 50.9463 38.9022 50.9463 41.1934V49.1555C50.9463 51.4218 52.9157 52.7547 55.1251 53.4046C57.7705 54.183 60.3075 54.3237 63.473 53.4046C65.577 52.7953 67.6517 51.5684 67.6517 49.1555V45.9689H59.3038V44.9067H71.8305C74.2597 44.9067 75.1646 43.2115 76.0093 40.6673C76.8821 38.0483 76.845 35.5291 76.0093 32.1691C75.4089 29.75 74.2625 27.9297 71.8305 27.9297H68.6941ZM63.9988 48.0933C64.8651 48.0933 65.567 48.8034 65.567 49.6819C65.567 50.5633 64.8651 51.2802 63.9988 51.2802C63.1354 51.2802 62.4306 50.5633 62.4306 49.6819C62.4306 48.8038 63.1357 48.0933 63.9988 48.0933Z" fill="url(#paint1_linear_197_320)"/>
<path d="M184.751 25.388H185.238V22.333H186.391V21.9688H183.598V22.333H184.751L184.751 25.388ZM186.823 25.388H187.239V22.5978L188.142 25.3877H188.605L189.546 22.6071V25.388H190V21.9691H189.399L188.371 24.8984L187.494 21.9691H186.823V25.388Z" fill="white"/>
<path opacity="0.444" d="M70.5986 58.8137C70.5986 60.0137 65.5842 60.9864 59.3983 60.9864C53.2127 60.9864 48.1982 60.0137 48.1982 58.8137C48.1982 57.6136 53.2127 56.6406 59.3983 56.6406C65.5842 56.6406 70.5986 57.6136 70.5986 58.8137Z" fill="url(#paint2_radial_197_320)"/>
</g>
<defs>
<linearGradient id="paint0_linear_197_320" x1="41.1757" y1="19.9876" x2="60.456" y2="36.4071" gradientUnits="userSpaceOnUse">
<stop stop-color="#5A9FD4"/>
<stop offset="1" stop-color="#306998"/>
</linearGradient>
<linearGradient id="paint1_linear_197_320" x1="67.6798" y1="46.6584" x2="60.7608" y2="36.9685" gradientUnits="userSpaceOnUse">
<stop stop-color="#FFD43B"/>
<stop offset="1" stop-color="#FFE873"/>
</linearGradient>
<radialGradient id="paint2_radial_197_320" cx="0" cy="0" r="1" gradientUnits="userSpaceOnUse" gradientTransform="translate(59.3947 58.7637) rotate(-90) scale(2.17241 9.54621)">
<stop stop-color="#B8B8B8" stop-opacity="0.498"/>
<stop offset="1" stop-color="#7F7F7F" stop-opacity="0"/>
</radialGradient>
<clipPath id="clip0_197_320">
<rect width="148" height="43" fill="white" transform="translate(42 18)"/>
</clipPath>
</defs>
</svg>
