<svg width="233" height="81" viewBox="0 0 233 81" fill="none" xmlns="http://www.w3.org/2000/svg">
<rect y="0.726562" width="232.872" height="79.5745" rx="8" fill="#14161D"/>
<g clip-path="url(#clip0_197_256)">
<path fill-rule="evenodd" clip-rule="evenodd" d="M93.6287 17.4688H104.09L77.6749 62.9884L51.0859 17.4688H61.7851L77.6749 44.8724L93.6287 17.4688Z" fill="#41B883"/>
<path fill-rule="evenodd" clip-rule="evenodd" d="M83.7424 17.4609H93.6919L77.661 44.9218L61.7588 17.4609H71.5528L77.661 28.0329L83.7424 17.4609Z" fill="#35495E"/>
<path fill-rule="evenodd" clip-rule="evenodd" d="M110.332 26.4488C110.332 26.113 110.518 25.8331 110.891 25.6092C111.264 25.3854 111.654 25.2734 112.061 25.2734C112.625 25.2734 112.976 25.4861 113.111 25.9115L119.076 45.8583L125.008 25.9115C125.166 25.4861 125.505 25.2734 126.024 25.2734C126.454 25.2734 126.855 25.3966 127.228 25.6428C127.6 25.8891 127.787 26.1689 127.787 26.4824C127.787 26.5047 127.781 26.5383 127.77 26.5831C127.758 26.6279 127.753 26.6726 127.753 26.7174L120.873 49.0485C120.624 49.6978 120.025 50.0224 119.076 50.0224C118.127 50.0224 117.551 49.6978 117.348 49.0485L110.4 26.7174C110.355 26.5831 110.332 26.4935 110.332 26.4488ZM128.054 43.6418V34.9111C128.054 34.6424 128.195 34.4074 128.478 34.2059C128.76 34.0044 129.093 33.9037 129.477 33.9037C129.839 33.9037 130.161 34.01 130.443 34.2227C130.726 34.4353 130.867 34.6648 130.867 34.9111V43.6418C130.867 44.6492 131.251 45.5559 132.019 46.3618C132.788 47.1677 133.703 47.5707 134.765 47.5707C135.804 47.5707 136.708 47.1733 137.476 46.3786C138.244 45.5839 138.628 44.6716 138.628 43.6418V34.877C138.628 34.6307 138.77 34.4068 139.052 34.2054C139.335 34.0039 139.668 33.9031 140.052 33.9031C140.459 33.9031 140.792 33.9983 141.052 34.1886C141.312 34.3789 141.442 34.6083 141.442 34.877V43.6418C141.442 45.3656 140.781 46.8711 139.459 48.1584C138.137 49.4456 136.572 50.0892 134.765 50.0892C132.934 50.0892 131.359 49.4456 130.037 48.1584C128.715 46.8711 128.054 45.3656 128.054 43.6418ZM143.742 43.5746V40.0487C143.742 38.3248 144.403 36.8362 145.724 35.5824C147.046 34.3288 148.633 33.702 150.486 33.702C152.249 33.702 153.774 34.2896 155.062 35.465C156.35 36.6403 156.994 38.1122 156.994 39.8808C156.994 40.53 156.915 41.0505 156.756 41.4423C156.598 41.8341 156.355 42.1139 156.028 42.2818C155.7 42.4497 155.395 42.5561 155.113 42.6009C154.83 42.6456 154.452 42.668 153.977 42.668H146.555V43.6754C146.555 44.9067 147.001 45.8918 147.893 46.6305C148.786 47.3693 149.944 47.7387 151.367 47.7387C152.113 47.7387 152.763 47.6268 153.316 47.4029C153.87 47.179 154.316 46.9608 154.655 46.7481C154.994 46.5354 155.265 46.4291 155.468 46.4291C155.785 46.4291 156.056 46.569 156.282 46.8488C156.508 47.1287 156.621 47.4141 156.621 47.7051C156.621 48.22 156.107 48.7461 155.079 49.2834C154.051 49.8207 152.78 50.0893 151.266 50.0893C149.051 50.0893 147.244 49.4905 145.843 48.2928C144.442 47.0951 143.742 45.5223 143.742 43.5746ZM146.555 40.7875H152.825C153.412 40.7875 153.808 40.7147 154.011 40.5692C154.215 40.4237 154.316 40.1382 154.316 39.7129C154.316 38.7055 153.943 37.8212 153.198 37.06C152.452 36.2989 151.537 35.9183 150.452 35.9183C149.39 35.9183 148.475 36.2709 147.707 36.976C146.939 37.6812 146.555 38.5487 146.555 39.5785L146.555 40.7875ZM158.413 48.2758C158.413 47.7833 158.583 47.3636 158.921 47.0166C159.26 46.6696 159.678 46.4961 160.175 46.4961C160.65 46.4961 161.057 46.6696 161.396 47.0166C161.735 47.3636 161.904 47.7833 161.904 48.2758C161.904 48.7459 161.735 49.1545 161.396 49.5015C161.057 49.8485 160.65 50.022 160.175 50.022C159.678 50.022 159.26 49.8485 158.921 49.5015C158.583 49.1545 158.413 48.746 158.413 48.2758ZM160.917 56.3017C160.917 55.9435 161.03 55.6469 161.256 55.4118C161.482 55.1767 161.753 55.0592 162.069 55.0592C162.95 55.0592 163.527 54.7346 163.798 54.0854C164.069 53.4362 164.205 52.4623 164.205 51.1639V34.8772C164.205 34.5862 164.334 34.3511 164.594 34.172C164.854 33.9929 165.187 33.9034 165.594 33.9034C166.001 33.9034 166.34 33.9929 166.611 34.172C166.882 34.3511 167.018 34.5862 167.018 34.8772V51.1639C167.018 53.1116 166.634 54.6562 165.865 55.798C165.097 56.9397 163.933 57.5106 162.374 57.5106C161.403 57.5106 160.917 57.1076 160.917 56.3017ZM163.832 27.926C163.832 27.5007 164.001 27.1313 164.34 26.8179C164.679 26.5044 165.097 26.3477 165.594 26.3477C166.069 26.3477 166.475 26.5045 166.814 26.8179C167.153 27.1313 167.323 27.5007 167.323 27.926C167.323 28.3514 167.153 28.7264 166.814 29.051C166.475 29.3756 166.069 29.5379 165.594 29.5379C165.12 29.5379 164.707 29.3756 164.357 29.051C164.007 28.7264 163.832 28.3514 163.832 27.926ZM169.115 47.5368C169.115 47.2458 169.211 46.9604 169.403 46.6806C169.595 46.4007 169.826 46.2608 170.098 46.2608C170.278 46.2608 170.538 46.3951 170.877 46.6638C171.216 46.9324 171.702 47.1955 172.334 47.4529C172.967 47.7104 173.713 47.8391 174.571 47.8391C175.701 47.8391 176.52 47.6376 177.029 47.2346C177.537 46.8317 177.791 46.328 177.791 45.7235C177.791 44.9847 177.509 44.3971 176.944 43.9605C176.379 43.524 175.69 43.1937 174.876 42.9699C174.063 42.746 173.249 42.4998 172.436 42.2311C171.623 41.9624 170.933 41.5147 170.369 40.8879C169.804 40.261 169.521 39.4327 169.521 38.4029C169.521 37.1269 169.979 36.0243 170.894 35.0953C171.809 34.1662 173.204 33.7017 175.08 33.7017C176.277 33.7017 177.373 33.8864 178.367 34.2557C179.361 34.6251 179.858 35.0449 179.858 35.515C179.858 35.7836 179.751 36.0859 179.537 36.4217C179.322 36.7575 179.056 36.9254 178.74 36.9254C178.65 36.9254 178.215 36.7631 177.435 36.4384C176.656 36.1138 175.882 35.9515 175.113 35.9515C174.074 35.9515 173.3 36.1922 172.792 36.6735C172.283 37.1548 172.029 37.6977 172.029 38.3022C172.029 38.929 172.312 39.4216 172.877 39.7797C173.441 40.1379 174.136 40.4178 174.961 40.6192C175.786 40.8207 176.605 41.067 177.418 41.358C178.232 41.6491 178.921 42.1472 179.486 42.8524C180.051 43.5575 180.333 44.4698 180.333 45.5892C180.333 46.9772 179.836 48.0741 178.842 48.88C177.848 49.686 176.458 50.0889 174.673 50.0889C173.136 50.0889 171.826 49.8147 170.741 49.2662C169.657 48.7177 169.115 48.1413 169.115 47.5368Z" fill="white"/>
</g>
<defs>
<clipPath id="clip0_197_256">
<rect width="136" height="45" fill="white" transform="translate(48 17.7266)"/>
</clipPath>
</defs>
</svg>
