<svg width="233" height="81" viewBox="0 0 233 81" fill="none" xmlns="http://www.w3.org/2000/svg">
<rect y="0.875" width="232.872" height="79.5745" rx="8" fill="#14161D"/>
<path d="M65.5 27.875C60.0334 27.875 56.6166 30.6528 55.25 36.2083C57.3 33.4305 59.6916 32.3888 62.425 33.0833C63.9844 33.4795 65.0991 34.6294 66.333 35.902C68.3429 37.9754 70.669 40.375 75.75 40.375C81.2166 40.375 84.6334 37.5972 86 32.0417C83.95 34.8195 81.5584 35.8612 78.825 35.1667C77.2656 34.7705 76.1509 33.6206 74.917 32.348C72.9071 30.2746 70.581 27.875 65.5 27.875ZM55.25 40.375C49.7834 40.375 46.3666 43.1528 45 48.7083C47.05 45.9305 49.4416 44.8888 52.175 45.5833C53.7344 45.9795 54.8491 47.1294 56.083 48.402C58.0929 50.4754 60.419 52.875 65.5 52.875C70.9666 52.875 74.3834 50.0972 75.75 44.5417C73.7 47.3195 71.3084 48.3612 68.575 47.6667C67.0156 47.2705 65.9009 46.1206 64.667 44.848C62.6571 42.7746 60.331 40.375 55.25 40.375Z" fill="url(#paint0_linear_197_292)"/>
<path d="M100.578 44.875C100.429 44.875 100.298 44.8237 100.186 44.721C100.083 44.609 100.032 44.4783 100.032 44.329V33.941H101.124V44.329C101.124 44.4783 101.073 44.609 100.97 44.721C100.867 44.8237 100.737 44.875 100.578 44.875ZM96.714 34.935C96.5647 34.935 96.4433 34.8883 96.35 34.795C96.2567 34.7017 96.21 34.585 96.21 34.445C96.21 34.2957 96.2567 34.1743 96.35 34.081C96.4433 33.9877 96.5647 33.941 96.714 33.941H104.456C104.605 33.941 104.727 33.9877 104.82 34.081C104.913 34.1743 104.96 34.2957 104.96 34.445C104.96 34.585 104.913 34.7017 104.82 34.795C104.727 34.8883 104.605 34.935 104.456 34.935H96.714ZM107.702 44.945C106.984 44.945 106.34 44.777 105.77 44.441C105.201 44.0957 104.748 43.629 104.412 43.041C104.086 42.453 103.922 41.7903 103.922 41.053C103.922 40.3063 104.09 39.639 104.426 39.051C104.772 38.463 105.238 38.001 105.826 37.665C106.414 37.3197 107.077 37.147 107.814 37.147C108.552 37.147 109.21 37.3197 109.788 37.665C110.376 38.001 110.838 38.463 111.174 39.051C111.52 39.639 111.697 40.3063 111.706 41.053L111.272 41.389C111.272 42.061 111.114 42.6677 110.796 43.209C110.488 43.741 110.064 44.1657 109.522 44.483C108.99 44.791 108.384 44.945 107.702 44.945ZM107.814 43.965C108.356 43.965 108.836 43.839 109.256 43.587C109.686 43.335 110.022 42.9897 110.264 42.551C110.516 42.103 110.642 41.6037 110.642 41.053C110.642 40.493 110.516 39.9937 110.264 39.555C110.022 39.1163 109.686 38.771 109.256 38.519C108.836 38.2577 108.356 38.127 107.814 38.127C107.282 38.127 106.802 38.2577 106.372 38.519C105.943 38.771 105.602 39.1163 105.35 39.555C105.098 39.9937 104.972 40.493 104.972 41.053C104.972 41.6037 105.098 42.103 105.35 42.551C105.602 42.9897 105.943 43.335 106.372 43.587C106.802 43.839 107.282 43.965 107.814 43.965ZM111.16 44.875C111.002 44.875 110.871 44.8283 110.768 44.735C110.666 44.6323 110.614 44.5017 110.614 44.343V41.949L110.88 40.843L111.706 41.053V44.343C111.706 44.5017 111.655 44.6323 111.552 44.735C111.45 44.8283 111.319 44.875 111.16 44.875ZM114.573 44.875C114.405 44.875 114.27 44.8283 114.167 44.735C114.074 44.6323 114.027 44.497 114.027 44.329V37.763C114.027 37.595 114.074 37.4643 114.167 37.371C114.27 37.2683 114.405 37.217 114.573 37.217C114.732 37.217 114.858 37.2683 114.951 37.371C115.054 37.4643 115.105 37.595 115.105 37.763V44.329C115.105 44.497 115.054 44.6323 114.951 44.735C114.858 44.8283 114.732 44.875 114.573 44.875ZM114.559 35.761C114.354 35.761 114.176 35.6863 114.027 35.537C113.878 35.3877 113.803 35.2057 113.803 34.991C113.803 34.7577 113.878 34.5757 114.027 34.445C114.186 34.305 114.368 34.235 114.573 34.235C114.769 34.235 114.942 34.305 115.091 34.445C115.25 34.5757 115.329 34.7577 115.329 34.991C115.329 35.2057 115.254 35.3877 115.105 35.537C114.956 35.6863 114.774 35.761 114.559 35.761ZM119.502 44.875C119.129 44.875 118.793 44.7723 118.494 44.567C118.205 44.3617 117.976 44.077 117.808 43.713C117.649 43.349 117.57 42.929 117.57 42.453V34.473C117.57 34.3143 117.617 34.1883 117.71 34.095C117.813 33.9923 117.943 33.941 118.102 33.941C118.261 33.941 118.387 33.9923 118.48 34.095C118.583 34.1883 118.634 34.3143 118.634 34.473V42.453C118.634 42.8543 118.713 43.181 118.872 43.433C119.04 43.685 119.25 43.811 119.502 43.811H119.852C119.992 43.811 120.104 43.8623 120.188 43.965C120.272 44.0583 120.314 44.1843 120.314 44.343C120.314 44.5017 120.253 44.6323 120.132 44.735C120.02 44.8283 119.871 44.875 119.684 44.875H119.502ZM123.113 44.875C122.992 44.875 122.885 44.8423 122.791 44.777C122.698 44.7117 122.633 44.6277 122.595 44.525L120.411 37.973C120.355 37.7397 120.36 37.5577 120.425 37.427C120.491 37.287 120.621 37.217 120.817 37.217C120.939 37.217 121.046 37.2497 121.139 37.315C121.233 37.3803 121.303 37.483 121.349 37.623L123.295 43.573H122.987L124.793 37.637C124.831 37.5157 124.891 37.4177 124.975 37.343C125.069 37.259 125.185 37.217 125.325 37.217C125.465 37.217 125.577 37.2543 125.661 37.329C125.755 37.4037 125.82 37.5063 125.857 37.637L127.579 43.433H127.341L129.245 37.623C129.339 37.3523 129.511 37.217 129.763 37.217C129.969 37.217 130.109 37.2963 130.183 37.455C130.258 37.6043 130.258 37.777 130.183 37.973L127.999 44.525C127.962 44.6277 127.897 44.7117 127.803 44.777C127.719 44.8423 127.617 44.875 127.495 44.875C127.374 44.875 127.262 44.8423 127.159 44.777C127.066 44.7117 127.005 44.6277 126.977 44.525L125.213 38.673H125.381L123.617 44.525C123.58 44.637 123.515 44.7257 123.421 44.791C123.328 44.847 123.225 44.875 123.113 44.875ZM132.51 44.875C132.342 44.875 132.207 44.8283 132.104 44.735C132.011 44.6323 131.964 44.497 131.964 44.329V37.763C131.964 37.595 132.011 37.4643 132.104 37.371C132.207 37.2683 132.342 37.217 132.51 37.217C132.669 37.217 132.795 37.2683 132.888 37.371C132.991 37.4643 133.042 37.595 133.042 37.763V44.329C133.042 44.497 132.991 44.6323 132.888 44.735C132.795 44.8283 132.669 44.875 132.51 44.875ZM132.496 35.761C132.291 35.761 132.114 35.6863 131.964 35.537C131.815 35.3877 131.74 35.2057 131.74 34.991C131.74 34.7577 131.815 34.5757 131.964 34.445C132.123 34.305 132.305 34.235 132.51 34.235C132.706 34.235 132.879 34.305 133.028 34.445C133.187 34.5757 133.266 34.7577 133.266 34.991C133.266 35.2057 133.192 35.3877 133.042 35.537C132.893 35.6863 132.711 35.761 132.496 35.761ZM142.353 44.875C142.195 44.875 142.064 44.8237 141.961 44.721C141.859 44.6183 141.807 44.4923 141.807 44.343V40.703C141.807 40.1243 141.695 39.6483 141.471 39.275C141.257 38.9017 140.958 38.6217 140.575 38.435C140.202 38.2483 139.777 38.155 139.301 38.155C138.844 38.155 138.429 38.2437 138.055 38.421C137.691 38.5983 137.402 38.841 137.187 39.149C136.973 39.457 136.865 39.807 136.865 40.199H136.095C136.114 39.611 136.273 39.0883 136.571 38.631C136.87 38.1643 137.267 37.8003 137.761 37.539C138.256 37.2683 138.807 37.133 139.413 37.133C140.076 37.133 140.669 37.273 141.191 37.553C141.714 37.8237 142.125 38.225 142.423 38.757C142.731 39.289 142.885 39.9377 142.885 40.703V44.343C142.885 44.4923 142.834 44.6183 142.731 44.721C142.629 44.8237 142.503 44.875 142.353 44.875ZM136.333 44.875C136.165 44.875 136.03 44.8283 135.927 44.735C135.834 44.6323 135.787 44.5017 135.787 44.343V37.763C135.787 37.595 135.834 37.4643 135.927 37.371C136.03 37.2683 136.165 37.217 136.333 37.217C136.492 37.217 136.618 37.2683 136.711 37.371C136.814 37.4643 136.865 37.595 136.865 37.763V44.343C136.865 44.5017 136.814 44.6323 136.711 44.735C136.618 44.8283 136.492 44.875 136.333 44.875ZM148.748 44.945C148.011 44.945 147.348 44.777 146.76 44.441C146.172 44.0957 145.705 43.629 145.36 43.041C145.024 42.453 144.856 41.7857 144.856 41.039C144.856 40.3017 145.019 39.639 145.346 39.051C145.682 38.463 146.135 38.001 146.704 37.665C147.273 37.3197 147.917 37.147 148.636 37.147C149.261 37.147 149.826 37.2823 150.33 37.553C150.834 37.8143 151.24 38.1643 151.548 38.603V34.487C151.548 34.319 151.599 34.1883 151.702 34.095C151.805 33.9923 151.935 33.941 152.094 33.941C152.253 33.941 152.383 33.9923 152.486 34.095C152.589 34.1883 152.64 34.319 152.64 34.487V41.095C152.621 41.823 152.439 42.481 152.094 43.069C151.758 43.6477 151.296 44.105 150.708 44.441C150.129 44.777 149.476 44.945 148.748 44.945ZM148.748 43.965C149.289 43.965 149.77 43.839 150.19 43.587C150.619 43.3257 150.955 42.9757 151.198 42.537C151.45 42.0983 151.576 41.599 151.576 41.039C151.576 40.4883 151.45 39.9937 151.198 39.555C150.955 39.107 150.619 38.757 150.19 38.505C149.77 38.253 149.289 38.127 148.748 38.127C148.216 38.127 147.735 38.253 147.306 38.505C146.877 38.757 146.536 39.107 146.284 39.555C146.032 39.9937 145.906 40.4883 145.906 41.039C145.906 41.599 146.032 42.0983 146.284 42.537C146.536 42.9757 146.877 43.3257 147.306 43.587C147.735 43.839 148.216 43.965 148.748 43.965ZM164.316 45.015C163.56 45.015 162.851 44.8703 162.188 44.581C161.535 44.2917 160.956 43.8903 160.452 43.377C159.957 42.8543 159.57 42.257 159.29 41.585C159.01 40.9037 158.87 40.1757 158.87 39.401C158.87 38.6357 159.005 37.917 159.276 37.245C159.556 36.5637 159.943 35.9663 160.438 35.453C160.942 34.9397 161.521 34.5383 162.174 34.249C162.837 33.9503 163.551 33.801 164.316 33.801C164.988 33.801 165.599 33.899 166.15 34.095C166.701 34.291 167.233 34.6037 167.746 35.033C167.83 35.0983 167.877 35.1777 167.886 35.271C167.905 35.355 167.895 35.439 167.858 35.523C167.821 35.5977 167.765 35.6537 167.69 35.691C167.671 35.7657 167.625 35.8217 167.55 35.859C167.475 35.8963 167.387 35.9103 167.284 35.901C167.191 35.8917 167.097 35.8497 167.004 35.775C166.64 35.4577 166.243 35.2243 165.814 35.075C165.385 34.9163 164.885 34.837 164.316 34.837C163.709 34.837 163.14 34.9583 162.608 35.201C162.085 35.4437 161.623 35.775 161.222 36.195C160.821 36.615 160.503 37.1003 160.27 37.651C160.046 38.2017 159.934 38.785 159.934 39.401C159.934 40.0357 160.046 40.6283 160.27 41.179C160.503 41.7297 160.821 42.215 161.222 42.635C161.623 43.055 162.085 43.3863 162.608 43.629C163.14 43.8623 163.709 43.979 164.316 43.979C164.829 43.979 165.315 43.895 165.772 43.727C166.229 43.559 166.663 43.3163 167.074 42.999C167.186 42.9057 167.303 42.8683 167.424 42.887C167.555 42.9057 167.667 42.9617 167.76 43.055C167.853 43.1483 167.9 43.2697 167.9 43.419C167.9 43.4937 167.886 43.5637 167.858 43.629C167.839 43.685 167.802 43.7457 167.746 43.811C167.27 44.2497 166.738 44.5623 166.15 44.749C165.562 44.9263 164.951 45.015 164.316 45.015ZM173.508 45.015C172.911 45.015 172.355 44.931 171.842 44.763C171.338 44.5857 170.899 44.3383 170.526 44.021C170.153 43.7037 169.868 43.335 169.672 42.915C169.597 42.7657 169.593 42.6303 169.658 42.509C169.733 42.3783 169.854 42.2897 170.022 42.243C170.153 42.2057 170.279 42.2197 170.4 42.285C170.531 42.3503 170.629 42.4483 170.694 42.579C170.834 42.8497 171.039 43.0923 171.31 43.307C171.581 43.5217 171.903 43.6897 172.276 43.811C172.649 43.923 173.06 43.979 173.508 43.979C174.003 43.979 174.441 43.8997 174.824 43.741C175.207 43.573 175.505 43.335 175.72 43.027C175.944 42.7097 176.056 42.327 176.056 41.879C176.056 41.3097 175.846 40.8197 175.426 40.409C175.006 39.9983 174.348 39.737 173.452 39.625C172.36 39.4943 171.506 39.1583 170.89 38.617C170.274 38.0663 169.966 37.3943 169.966 36.601C169.966 36.0317 170.115 35.537 170.414 35.117C170.722 34.697 171.142 34.375 171.674 34.151C172.206 33.9177 172.817 33.801 173.508 33.801C174.021 33.801 174.488 33.885 174.908 34.053C175.328 34.2117 175.692 34.4263 176 34.697C176.317 34.9583 176.574 35.2477 176.77 35.565C176.863 35.7143 176.891 35.859 176.854 35.999C176.826 36.139 176.747 36.2463 176.616 36.321C176.476 36.3863 176.331 36.3957 176.182 36.349C176.042 36.3023 175.935 36.2137 175.86 36.083C175.72 35.8683 175.543 35.6677 175.328 35.481C175.123 35.285 174.871 35.131 174.572 35.019C174.273 34.907 173.914 34.8463 173.494 34.837C172.757 34.837 172.164 34.9957 171.716 35.313C171.268 35.621 171.044 36.0737 171.044 36.671C171.044 36.9883 171.128 37.2823 171.296 37.553C171.464 37.8143 171.739 38.043 172.122 38.239C172.514 38.4257 173.037 38.5657 173.69 38.659C174.857 38.827 175.72 39.1863 176.28 39.737C176.849 40.2783 177.134 40.9877 177.134 41.865C177.134 42.369 177.041 42.817 176.854 43.209C176.677 43.601 176.42 43.9323 176.084 44.203C175.757 44.4643 175.37 44.665 174.922 44.805C174.483 44.945 174.012 45.015 173.508 45.015ZM182.778 45.015C182.18 45.015 181.625 44.931 181.112 44.763C180.608 44.5857 180.169 44.3383 179.796 44.021C179.422 43.7037 179.138 43.335 178.942 42.915C178.867 42.7657 178.862 42.6303 178.928 42.509C179.002 42.3783 179.124 42.2897 179.292 42.243C179.422 42.2057 179.548 42.2197 179.67 42.285C179.8 42.3503 179.898 42.4483 179.964 42.579C180.104 42.8497 180.309 43.0923 180.58 43.307C180.85 43.5217 181.172 43.6897 181.546 43.811C181.919 43.923 182.33 43.979 182.778 43.979C183.272 43.979 183.711 43.8997 184.094 43.741C184.476 43.573 184.775 43.335 184.99 43.027C185.214 42.7097 185.326 42.327 185.326 41.879C185.326 41.3097 185.116 40.8197 184.696 40.409C184.276 39.9983 183.618 39.737 182.722 39.625C181.63 39.4943 180.776 39.1583 180.16 38.617C179.544 38.0663 179.236 37.3943 179.236 36.601C179.236 36.0317 179.385 35.537 179.684 35.117C179.992 34.697 180.412 34.375 180.944 34.151C181.476 33.9177 182.087 33.801 182.778 33.801C183.291 33.801 183.758 33.885 184.178 34.053C184.598 34.2117 184.962 34.4263 185.27 34.697C185.587 34.9583 185.844 35.2477 186.04 35.565C186.133 35.7143 186.161 35.859 186.124 35.999C186.096 36.139 186.016 36.2463 185.886 36.321C185.746 36.3863 185.601 36.3957 185.452 36.349C185.312 36.3023 185.204 36.2137 185.13 36.083C184.99 35.8683 184.812 35.6677 184.598 35.481C184.392 35.285 184.14 35.131 183.842 35.019C183.543 34.907 183.184 34.8463 182.764 34.837C182.026 34.837 181.434 34.9957 180.986 35.313C180.538 35.621 180.314 36.0737 180.314 36.671C180.314 36.9883 180.398 37.2823 180.566 37.553C180.734 37.8143 181.009 38.043 181.392 38.239C181.784 38.4257 182.306 38.5657 182.96 38.659C184.126 38.827 184.99 39.1863 185.55 39.737C186.119 40.2783 186.404 40.9877 186.404 41.865C186.404 42.369 186.31 42.817 186.124 43.209C185.946 43.601 185.69 43.9323 185.354 44.203C185.027 44.4643 184.64 44.665 184.192 44.805C183.753 44.945 183.282 45.015 182.778 45.015Z" fill="white"/>
<defs>
<linearGradient id="paint0_linear_197_292" x1="-246.579" y1="1256.67" x2="-121.226" y2="2640.79" gradientUnits="userSpaceOnUse">
<stop stop-color="#2298BD"/>
<stop offset="1" stop-color="#0ED7B5"/>
</linearGradient>
</defs>
</svg>
