<svg width="233" height="80" viewBox="0 0 233 80" fill="none" xmlns="http://www.w3.org/2000/svg">
<rect width="232.872" height="79.5745" rx="8" fill="#14161D"/>
<path fill-rule="evenodd" clip-rule="evenodd" d="M57.0352 28.0567C58.0152 28.0513 58.9952 28.0567 59.9752 28.073C61.2728 28.2274 62.4828 28.6607 63.6052 29.373C64.2247 29.8056 64.7697 30.331 65.2402 30.9492C65.5624 31.5621 65.7074 32.223 65.6752 32.9317C65.6245 34.2843 65.3795 35.5951 64.9402 36.8642C64.3262 38.7039 63.5012 40.4156 62.4652 41.9992C62.4902 42.01 62.5152 42.0209 62.5402 42.0317C63.1456 41.9574 63.7505 41.8815 64.3552 41.8042C64.8508 41.7826 65.2658 41.9668 65.6002 42.3567C65.8657 42.8275 65.8556 43.2934 65.5702 43.7542C65.26 44.1227 64.905 44.4315 64.5052 44.6805C63.3791 45.3158 62.1791 45.6246 60.9052 45.6067C60.7447 45.5928 60.5847 45.5874 60.4252 45.5905C60.3738 46.2551 60.3188 46.9213 60.2602 47.5892C60.1725 48.6108 59.8925 49.5641 59.4202 50.4492C58.9028 51.2799 58.1978 51.8377 57.3052 52.123C53.9875 53.222 52.1825 51.9057 51.8902 48.1742C51.8405 47.5361 51.8155 46.897 51.8152 46.2567C50.6178 46.6818 49.4178 46.6872 48.2152 46.273C47.8654 46.1459 47.5504 45.9563 47.2702 45.7042C45.9846 46.5154 44.7896 46.38 43.6852 45.298C43.2285 44.78 42.8335 44.2112 42.5002 43.5917C41.608 41.7755 40.928 39.8688 40.4602 37.8717C40.2049 36.8894 40.0149 35.8928 39.8902 34.8817C39.673 30.8708 41.408 28.6879 45.0952 28.333C46.7932 28.2398 48.4582 28.451 50.0902 28.9667C50.7691 28.6133 51.4841 28.3912 52.2352 28.3005C53.2724 28.2008 54.3074 28.2279 55.3402 28.3817C55.9051 28.2464 56.4701 28.138 57.0352 28.0567Z" fill="#040704"/>
<path fill-rule="evenodd" clip-rule="evenodd" d="M64.2648 30.8863C64.2924 30.9705 64.3424 31.0355 64.4148 31.0813C64.6193 31.3182 64.7543 31.5999 64.8198 31.9263C64.9178 32.6408 64.9178 33.3558 64.8198 34.0713C64.2083 37.1758 63.0034 39.9763 61.2048 42.4726C61.5241 42.649 61.8641 42.7194 62.2248 42.6838C62.8601 42.6696 63.4901 42.5991 64.1148 42.4726C64.4642 42.4001 64.7592 42.503 64.9998 42.7813C65.0442 43.0595 64.9742 43.2978 64.7898 43.4963C64.0446 44.1734 63.1896 44.5906 62.2248 44.7476C61.598 44.8493 60.968 44.8818 60.3348 44.8451C60.1874 44.8325 60.0424 44.8055 59.8998 44.7638C59.8767 44.7685 59.8567 44.7793 59.8398 44.7963C59.6688 46.3217 59.4488 47.8383 59.1798 49.3463C58.9313 50.3197 58.3763 50.9968 57.5148 51.3776C56.6342 51.7406 55.7242 51.8814 54.7848 51.8001C53.664 51.5392 52.949 50.808 52.6398 49.6063C52.5276 48.9178 52.4576 48.2244 52.4298 47.5263C52.4198 46.6921 52.4098 45.858 52.3998 45.0238C51.8334 45.4812 51.1984 45.7466 50.4948 45.8201C49.8005 45.8885 49.1205 45.8127 48.4548 45.5926C48.2453 45.5088 48.0503 45.3951 47.8698 45.2513C47.5977 44.9363 47.6127 44.6384 47.9148 44.3576C48.0531 44.2556 48.2031 44.1798 48.3648 44.1301C48.8988 44.0203 49.4288 43.8903 49.9548 43.7401C50.2564 43.5374 50.5164 43.2828 50.7348 42.9763C50.472 42.9572 50.212 42.9193 49.9548 42.8626C49.7439 42.8164 49.5439 42.7406 49.3548 42.6351C49.3048 42.6134 49.2548 42.6134 49.2048 42.6351C48.4457 43.4032 47.6957 44.1832 46.9548 44.9751C46.2527 45.601 45.5027 45.6768 44.7048 45.2026C44.5111 45.063 44.3311 44.9059 44.1648 44.7313C43.9954 44.5098 43.8204 44.2932 43.6398 44.0813C42.9847 43.0085 42.4547 41.8602 42.0498 40.6363C41.3909 38.7127 40.911 36.741 40.6098 34.7213C40.5152 33.5638 40.6852 32.4588 41.1198 31.4063C41.8182 30.131 42.8432 29.3564 44.1948 29.0826C44.472 29.0211 44.752 28.9778 45.0348 28.9526C46.7962 28.8685 48.5162 29.1014 50.1948 29.6513C50.8568 29.248 51.5668 29.0042 52.3248 28.9201C53.2917 28.8204 54.2517 28.8692 55.2048 29.0663C57.0312 28.549 58.8712 28.4786 60.7248 28.8551C62.0936 29.1683 63.2736 29.8454 64.2648 30.8863Z" fill="#FBFCFD"/>
<path fill-rule="evenodd" clip-rule="evenodd" d="M57.6052 29.2937C58.7314 29.2101 59.8414 29.313 60.9352 29.6025C62.0667 29.9403 63.0317 30.574 63.8302 31.5037C64.0053 31.7643 64.1053 32.0568 64.1302 32.3812C64.1793 33.1049 64.1293 33.8199 63.9802 34.5262C63.5931 36.3374 62.9631 38.0274 62.0902 39.5962C61.701 40.3732 61.261 41.1207 60.7702 41.8387C60.6824 41.7877 60.6524 41.7119 60.6802 41.6112C61.1077 40.9531 61.2877 40.2165 61.2202 39.4012C61.1453 38.698 61.0803 37.9938 61.0252 37.2887C61.0412 36.7721 61.1062 36.2629 61.2202 35.7612C61.2437 35.4072 61.2687 35.0551 61.2952 34.705C61.272 34.6268 61.257 34.5456 61.2502 34.4612C61.0455 33.8217 60.7655 33.2259 60.4102 32.6737C59.4181 31.1866 58.1331 30.1196 56.5552 29.4725C56.9042 29.3941 57.2542 29.3346 57.6052 29.2937Z" fill="#346790"/>
<path fill-rule="evenodd" clip-rule="evenodd" d="M52.8348 29.5165C54.5868 29.4384 56.2068 29.888 57.6948 30.8652C58.8914 31.7441 59.8014 32.887 60.4248 34.294C59.8956 34.2825 59.3656 34.3095 58.8348 34.3752C57.5908 34.6701 57.0858 35.4988 57.3198 36.8615C57.4763 37.4972 57.6963 38.1038 57.9798 38.6815C58.4757 39.5985 58.9857 40.5085 59.5098 41.4115C59.7479 41.7508 60.0029 42.0758 60.2748 42.3865C59.7342 42.5117 59.3793 42.8583 59.2098 43.4265C59.053 45.3844 58.793 47.3236 58.4298 49.244C58.2234 49.9874 57.7884 50.502 57.1248 50.7877C56.4113 51.0838 55.6713 51.1921 54.9048 51.1127C54.346 50.984 53.921 50.6536 53.6298 50.1215C53.5961 49.9768 53.5361 49.8468 53.4498 49.7315C53.311 49.157 53.231 48.572 53.2098 47.9765C53.1824 46.459 53.1524 44.9423 53.1198 43.4265C52.8184 42.6836 52.2934 42.3478 51.5448 42.419C51.6275 42.107 51.7325 41.8037 51.8598 41.509C52.1881 40.8624 52.4681 40.1908 52.6998 39.494C52.9188 38.1585 52.8288 36.8477 52.4298 35.5615C52.1112 34.86 51.5862 34.4863 50.8548 34.4402C50.4515 34.4074 50.0515 34.4291 49.6548 34.5052C49.1437 34.6537 48.6437 34.827 48.1548 35.0252C48.243 34.2368 48.418 33.4731 48.6798 32.734C49.1564 31.4919 49.9514 30.5765 51.0648 29.9877C51.3529 29.8729 51.6429 29.7645 51.9348 29.6627C52.2392 29.6123 52.5392 29.5635 52.8348 29.5165Z" fill="#336790"/>
<path fill-rule="evenodd" clip-rule="evenodd" d="M45.215 29.5833C45.9067 29.5657 46.5967 29.5928 47.285 29.6646C47.7622 29.7744 48.2422 29.8719 48.725 29.9571C48.9896 30.0125 49.2496 30.0883 49.505 30.1846C48.6054 31.0558 48.0004 32.1229 47.69 33.3858C47.5369 34.0136 47.4369 34.6528 47.39 35.3033C47.4282 36.18 47.4382 37.0575 47.42 37.9358C47.3917 38.453 47.3467 38.9676 47.285 39.4796C47.3261 40.6126 47.7661 41.5172 48.605 42.1933C47.8612 42.9611 47.1212 43.7357 46.385 44.5171C45.9431 44.914 45.4931 44.9249 45.035 44.5496C44.6251 44.1652 44.2751 43.7265 43.985 43.2333C43.388 42.0779 42.893 40.8754 42.5 39.6258C42.1226 38.386 41.8026 37.1294 41.54 35.8558C41.4612 35.4253 41.4012 34.9919 41.36 34.5558C41.1999 31.572 42.4849 29.9145 45.215 29.5833Z" fill="#336790"/>
<path fill-rule="evenodd" clip-rule="evenodd" d="M64.2651 30.8828C64.3379 30.9287 64.3881 30.9937 64.4158 31.0778C64.343 31.032 64.2928 30.967 64.2651 30.8828Z" fill="#879099"/>
<path fill-rule="evenodd" clip-rule="evenodd" d="M146.345 44.0149C146.345 43.7982 146.345 43.5815 146.345 43.3649C146.935 43.3649 147.525 43.3649 148.115 43.3649C148.162 45.2257 149.002 46.4553 150.635 47.0536C151.633 47.3756 152.653 47.5218 153.695 47.4924C154.588 47.5159 155.468 47.413 156.335 47.1836C157.745 46.8321 158.465 45.8734 158.495 44.3074C158.468 43.2444 158.008 42.5023 157.115 42.0811C156.585 41.8888 156.045 41.7371 155.495 41.6261C154.107 41.3556 152.717 41.0956 151.325 40.8461C150.48 40.6846 149.649 40.4571 148.835 40.1636C147.485 39.5691 146.805 38.4749 146.795 36.8811C146.769 35.2329 147.439 34.0629 148.805 33.3711C149.799 32.9587 150.829 32.7312 151.895 32.6886C153.357 32.5629 154.807 32.6496 156.245 32.9486C157.002 33.1202 157.702 33.4343 158.345 33.8911C159.398 34.7698 159.898 35.9344 159.845 37.3849C159.235 37.3849 158.625 37.3849 158.015 37.3849C157.996 35.8744 157.336 34.8506 156.035 34.3136C155.104 33.9932 154.149 33.8361 153.17 33.8424C152.198 33.8356 151.243 33.971 150.305 34.2486C149.047 34.7358 148.482 35.7053 148.61 37.1574C148.719 37.8872 149.074 38.4235 149.675 38.7661C149.808 38.8248 149.938 38.8898 150.065 38.9611C150.607 39.1484 151.157 39.3001 151.715 39.4161C152.91 39.6717 154.11 39.8992 155.315 40.0986C156.364 40.2797 157.384 40.5722 158.375 40.9761C159.279 41.3596 159.884 42.0475 160.19 43.0399C160.246 43.2532 160.286 43.4699 160.31 43.6899C160.505 45.9072 159.64 47.3968 157.715 48.1586C156.722 48.5125 155.702 48.7075 154.655 48.7436C153.285 48.8296 151.926 48.7429 150.575 48.4836C149.569 48.2848 148.649 47.8731 147.815 47.2486C146.89 46.4087 146.4 45.3307 146.345 44.0149Z" fill="white"/>
<path fill-rule="evenodd" clip-rule="evenodd" d="M169.085 32.6396C170.562 32.5701 172.012 32.7488 173.435 33.1759C175.406 33.8275 176.881 35.1329 177.86 37.0921C178.52 38.7384 178.72 40.45 178.46 42.2271C178.175 44.1522 177.31 45.6797 175.865 46.8096C176.676 47.4279 177.496 48.0346 178.325 48.6296C178.358 48.6694 178.363 48.7127 178.34 48.7596C177.987 49.0895 177.642 49.4307 177.305 49.7834C177.265 49.805 177.225 49.805 177.185 49.7834C176.33 49.1308 175.47 48.4862 174.605 47.8496C173.724 48.3131 172.794 48.5894 171.815 48.6784C170.227 48.872 168.647 48.8178 167.075 48.5159C164.961 48.0964 163.276 46.9535 162.02 45.0871C161.127 43.5251 160.757 41.8242 160.91 39.9846C161.134 37.0242 162.479 34.9063 164.945 33.6309C166.271 33.0198 167.651 32.6893 169.085 32.6396ZM169.235 33.8746C170.58 33.7994 171.88 34.0215 173.135 34.5409C175.563 35.748 176.793 37.8063 176.825 40.7159C176.743 44.1404 175.183 46.307 172.145 47.2159C170.315 47.686 168.505 47.6102 166.715 46.9884C164.073 45.8745 162.713 43.7783 162.635 40.6996C162.728 37.2024 164.338 35.0195 167.465 34.1509C168.053 34.0111 168.643 33.919 169.235 33.8746Z" fill="white"/>
<path fill-rule="evenodd" clip-rule="evenodd" d="M79.3852 41.8329C77.0953 41.8329 74.8051 41.8329 72.5152 41.8329C72.5152 44.0104 72.5152 46.1879 72.5152 48.3654C71.9653 48.3654 71.4151 48.3654 70.8652 48.3654C70.8652 43.2629 70.8652 38.1604 70.8652 33.0579C73.3267 33.0333 75.7969 33.0116 78.2752 32.9929C79.0798 32.963 79.8799 33.0118 80.6752 33.1391C82.5622 33.5907 83.6173 34.8528 83.8402 36.9254C83.9752 39.335 82.9801 40.8895 80.8552 41.5891C80.3737 41.7325 79.8838 41.8137 79.3852 41.8329ZM72.5452 34.2604C74.8357 34.2458 77.1256 34.262 79.4152 34.3091C80.0788 34.3681 80.6788 34.6065 81.2152 35.0241C81.694 35.4895 81.979 36.0691 82.0702 36.7629C82.1749 37.4845 82.1149 38.1887 81.8902 38.8754C81.4969 39.7151 80.872 40.2405 80.0152 40.4516C79.6876 40.5309 79.3576 40.5905 79.0252 40.6304C76.8652 40.6304 74.7052 40.6304 72.5452 40.6304C72.5452 38.5071 72.5452 36.3837 72.5452 34.2604Z" fill="white"/>
<path fill-rule="evenodd" clip-rule="evenodd" d="M180.275 33.0312C180.325 33.0312 180.375 33.0312 180.425 33.0312C180.745 33.0312 181.065 33.0312 181.385 33.0312C181.385 37.7221 181.385 42.4129 181.385 47.1037C184.905 47.1037 188.425 47.1037 191.945 47.1037C191.945 47.4396 191.945 47.7754 191.945 48.1112C191.945 48.1329 191.945 48.1546 191.945 48.1762C191.916 48.2336 191.906 48.2986 191.915 48.3712C187.855 48.3712 183.795 48.3712 179.735 48.3712C179.735 43.2687 179.735 38.1662 179.735 33.0637C179.921 33.0742 180.101 33.0634 180.275 33.0312Z" fill="white"/>
<path fill-rule="evenodd" clip-rule="evenodd" d="M59.165 35.0116C59.6064 35.0013 60.0464 35.0121 60.485 35.0441C60.5198 35.1727 60.5248 35.3027 60.5 35.4341C60.3396 36.2167 60.2696 37.0075 60.29 37.8066C60.4233 38.5144 60.4833 39.2294 60.47 39.9516C60.4306 40.1674 60.3906 40.3841 60.35 40.6016C60.3003 40.7525 60.2353 40.8933 60.155 41.0241C60.0173 40.7499 59.8723 40.4791 59.72 40.2116C59.1482 39.3715 58.6682 38.4723 58.28 37.5141C58.1993 37.2104 58.1193 36.907 58.04 36.6041C57.8847 35.8841 58.1197 35.3912 58.745 35.1253C58.8921 35.1007 59.0321 35.0628 59.165 35.0116Z" fill="#356890"/>
<path opacity="0.861" fill-rule="evenodd" clip-rule="evenodd" d="M112.955 39.3628C112.955 39.0161 112.955 38.6695 112.955 38.3228C112.115 38.3228 111.275 38.3228 110.435 38.3228C110.435 37.2286 110.435 36.1345 110.435 35.0403C109.965 35.0403 109.495 35.0403 109.025 35.0403C109.035 36.0425 109.025 37.0392 108.995 38.0303C108.995 37.0228 108.995 36.0153 108.995 35.0078C109.485 35.0078 109.975 35.0078 110.465 35.0078C110.465 36.102 110.465 37.1961 110.465 38.2903C111.305 38.2903 112.145 38.2903 112.985 38.2903C112.995 38.6536 112.985 39.0111 112.955 39.3628Z" fill="#1C2125"/>
<path fill-rule="evenodd" clip-rule="evenodd" d="M112.955 39.3694C112.865 39.3694 112.775 39.3694 112.685 39.3694C111.94 39.3369 111.19 39.3261 110.435 39.3369C110.425 41.6499 110.435 43.9574 110.465 46.2594C110.457 46.7568 110.657 47.1089 111.065 47.3156C111.24 47.3838 111.42 47.4272 111.605 47.4456C112.071 47.5439 112.526 47.506 112.97 47.3319C112.985 47.7 112.99 48.0684 112.985 48.4369C112.174 48.5717 111.364 48.5663 110.555 48.4206C110.206 48.349 109.886 48.2082 109.595 47.9981C109.222 47.6406 109.032 47.191 109.025 46.6494C109.025 44.2119 109.025 41.7744 109.025 39.3369C108.395 39.3369 107.765 39.3369 107.135 39.3369C107.095 38.9988 107.095 38.6576 107.135 38.3131C107.755 38.2969 108.375 38.2914 108.995 38.2969C108.995 38.2102 108.995 38.1236 108.995 38.0369C109.025 37.0458 109.035 36.0491 109.025 35.0469C109.495 35.0469 109.965 35.0469 110.435 35.0469C110.435 36.1411 110.435 37.2352 110.435 38.3294C111.275 38.3294 112.115 38.3294 112.955 38.3294C112.955 38.6761 112.955 39.0227 112.955 39.3694Z" fill="white"/>
<path fill-rule="evenodd" clip-rule="evenodd" d="M50.1648 35.1124C50.4463 35.1021 50.7263 35.1183 51.0048 35.1611C51.4198 35.2857 51.6848 35.5728 51.7998 36.0224C52.0229 36.8723 52.1129 37.739 52.0698 38.6224C52.0136 39.1399 51.8936 39.6383 51.7098 40.1174C51.4662 40.5777 51.2462 41.0543 51.0498 41.5474C50.9654 41.7838 50.8904 42.0221 50.8248 42.2624C49.61 42.23 48.735 41.6233 48.1998 40.4424C48.063 40.0438 48.013 39.6321 48.0498 39.2074C48.1039 38.8299 48.1439 38.4507 48.1698 38.0699C48.1835 37.3437 48.1835 36.6179 48.1698 35.8924C48.7856 35.4876 49.4507 35.2276 50.1648 35.1124Z" fill="#346790"/>
<path fill-rule="evenodd" clip-rule="evenodd" d="M58.9849 35.3398C59.237 35.3277 59.487 35.344 59.7349 35.3885C59.8162 35.4491 59.8412 35.5304 59.8099 35.6323C59.5307 36.0437 59.1757 36.1358 58.7449 35.9085C58.6669 35.8405 58.6069 35.7592 58.5649 35.6648C58.5727 35.6099 58.5928 35.5612 58.6249 35.5185C58.7493 35.4614 58.8693 35.4018 58.9849 35.3398Z" fill="#FBFCFD"/>
<path fill-rule="evenodd" clip-rule="evenodd" d="M50.3149 35.5014C50.5761 35.4949 50.8361 35.5111 51.0949 35.5502C51.5486 35.7362 51.5686 35.9637 51.1549 36.2327C50.7065 36.4204 50.3515 36.2958 50.0899 35.8589C50.0687 35.7786 50.0787 35.7027 50.1199 35.6314C50.1893 35.5913 50.2543 35.548 50.3149 35.5014Z" fill="#FBFCFD"/>
<path fill-rule="evenodd" clip-rule="evenodd" d="M88.7749 37.9721C89.863 37.921 90.9331 38.0456 91.9849 38.3458C94.2142 39.1423 95.3443 40.816 95.3749 43.3671C95.3791 45.7273 94.3792 47.3469 92.3749 48.2258C91.0258 48.6916 89.6458 48.8433 88.2349 48.6808C87.0031 48.5831 85.9129 48.1173 84.9649 47.2833C83.9551 46.2325 83.4553 44.9433 83.4649 43.4158C83.4379 41.1763 84.3478 39.5729 86.1949 38.6058C87.025 38.2344 87.8848 38.0231 88.7749 37.9721ZM88.9549 39.0771C89.8891 39.0312 90.799 39.1666 91.6849 39.4833C93.0145 40.0907 93.7294 41.1795 93.8299 42.7496C94.027 45.7862 92.722 47.4167 89.9149 47.6408C88.9771 47.731 88.0669 47.601 87.1849 47.2508C85.9996 46.6612 85.2847 45.6699 85.0399 44.2771C84.8416 43.0594 85.0315 41.9219 85.6099 40.8646C86.2087 39.9952 87.0037 39.4481 87.9949 39.2233C88.3177 39.1612 88.6375 39.1124 88.9549 39.0771Z" fill="white"/>
<path fill-rule="evenodd" clip-rule="evenodd" d="M106.295 40.995C106.295 41.1033 106.295 41.2117 106.295 41.32C105.805 41.32 105.315 41.32 104.825 41.32C104.833 41.268 104.823 41.2247 104.795 41.19C104.747 40.5162 104.468 39.9908 103.955 39.6137C103.301 39.236 102.601 39.041 101.855 39.0287C101.027 38.9787 100.207 39.0437 99.3952 39.2237C98.9425 39.3308 98.5474 39.5529 98.2102 39.89C97.8034 40.4495 97.7632 41.0345 98.0902 41.645C98.3716 41.9519 98.7064 42.1631 99.0952 42.2787C99.5512 42.3896 100.011 42.4762 100.475 42.5387C101.364 42.6589 102.254 42.7673 103.145 42.8637C103.843 42.9427 104.522 43.1052 105.185 43.3512C106.482 43.9026 106.977 44.9155 106.67 46.39C106.493 47.036 106.139 47.5289 105.605 47.8687C104.961 48.252 104.271 48.4904 103.535 48.5837C102.266 48.761 100.997 48.7718 99.7252 48.6162C98.9452 48.5513 98.2054 48.3347 97.5052 47.9662C96.5809 47.346 96.091 46.4414 96.0352 45.2525C96.5752 45.2417 97.1152 45.2308 97.6552 45.22C97.6297 45.9171 97.8598 46.4859 98.3452 46.9262C98.8729 47.3024 99.4531 47.5299 100.085 47.6087C101.147 47.768 102.207 47.7572 103.265 47.5762C103.823 47.4906 104.323 47.2631 104.765 46.8937C105.174 46.4234 105.289 45.8763 105.11 45.2525C104.907 44.7541 104.562 44.4236 104.075 44.2612C102.286 43.9772 100.496 43.6956 98.7052 43.4162C96.8077 43.0953 96.0928 41.9307 96.5602 39.9225C96.8143 39.3005 97.2295 38.8509 97.8052 38.5737C98.6584 38.2437 99.5383 38.0596 100.445 38.0212C101.64 37.9232 102.82 38.0207 103.985 38.3137C104.708 38.5069 105.313 38.9023 105.8 39.5C106.099 39.945 106.264 40.4433 106.295 40.995Z" fill="white"/>
<path fill-rule="evenodd" clip-rule="evenodd" d="M124.085 48.5306C124.12 47.7886 124.125 47.0411 124.1 46.2881C124.079 46.3058 124.064 46.3274 124.055 46.3531C123.568 47.0052 122.958 47.4764 122.225 47.7668C120.517 48.3329 118.797 48.3762 117.065 47.8968C114.906 47.1652 113.836 45.5673 113.855 43.1031C113.848 40.6581 114.918 39.071 117.065 38.3418C118.319 37.9907 119.589 37.9041 120.875 38.0818C121.527 38.1765 122.148 38.3824 122.735 38.6993C123.219 39.0928 123.663 39.5316 124.07 40.0156C124.085 39.4524 124.09 38.889 124.085 38.3256C124.575 38.3256 125.065 38.3256 125.555 38.3256C125.56 41.7814 125.555 45.2373 125.54 48.6931C125.395 50.2801 124.65 51.3905 123.305 52.0243C122.485 52.3682 121.635 52.5632 120.755 52.6093C119.546 52.6884 118.346 52.6125 117.155 52.3818C115.552 52.0746 114.612 51.0563 114.335 49.3268C114.841 49.2786 115.351 49.2623 115.865 49.2781C115.964 49.9086 116.224 50.4448 116.645 50.8868C117.25 51.2894 117.91 51.5169 118.625 51.5693C119.538 51.6507 120.448 51.6291 121.355 51.5043C122.942 51.232 123.852 50.2407 124.085 48.5306ZM119.165 39.1056C120.153 39.0221 121.113 39.1575 122.045 39.5118C123.408 40.2195 124.088 41.4003 124.085 43.0543C124.079 45.1522 123.138 46.4631 121.265 46.9868C120.13 47.2229 119 47.1904 117.875 46.8893C116.568 46.5029 115.764 45.5983 115.46 44.1756C115.255 43.0898 115.375 42.0498 115.82 41.0556C116.325 40.1996 117.03 39.6308 117.935 39.3493C118.345 39.2393 118.755 39.1581 119.165 39.1056Z" fill="white"/>
<path fill-rule="evenodd" clip-rule="evenodd" d="M128.615 43.007C128.585 44.789 128.575 46.5765 128.585 48.3695C128.115 48.3695 127.645 48.3695 127.175 48.3695C127.175 45.0329 127.175 41.6962 127.175 38.3595C127.645 38.3595 128.115 38.3595 128.585 38.3595C128.585 38.9554 128.585 39.5512 128.585 40.147C128.694 40.158 128.744 40.1039 128.735 39.9845C129.122 38.8991 129.852 38.2762 130.925 38.1158C131.164 38.0742 131.404 38.0417 131.645 38.0183C132.225 38.002 132.805 37.9966 133.385 38.002C133.395 38.4576 133.385 38.9126 133.355 39.367C132.4 39.1571 131.46 39.2167 130.535 39.5458C129.543 40.0194 128.948 40.8373 128.75 41.9995C128.689 42.3337 128.644 42.6696 128.615 43.007Z" fill="white"/>
<path fill-rule="evenodd" clip-rule="evenodd" d="M145.025 43.2301C145.025 43.3601 145.025 43.4901 145.025 43.6201C141.585 43.6201 138.145 43.6201 134.705 43.6201C134.697 43.6823 134.707 43.7365 134.735 43.7826C134.87 45.5915 135.73 46.7885 137.315 47.3738C138.445 47.7151 139.585 47.7584 140.735 47.5038C141.975 47.195 142.815 46.3988 143.255 45.1151C143.78 45.1043 144.3 45.1152 144.815 45.1476C144.489 46.3683 143.809 47.2837 142.775 47.8938C141.444 48.5658 140.044 48.8366 138.575 48.7063C137.49 48.6539 136.47 48.3505 135.515 47.7963C133.976 46.7531 133.206 45.2418 133.205 43.2626C133.239 41.0015 134.209 39.4253 136.115 38.5338C137.359 38.0662 138.639 37.8929 139.955 38.0138C140.981 38.0641 141.941 38.3566 142.835 38.8913C144.262 39.9144 144.991 41.3607 145.025 43.2301ZM138.545 39.0051C139.465 38.9184 140.356 39.0538 141.215 39.4113C142.06 39.8171 142.714 40.4508 143.18 41.3126C143.393 41.7497 143.498 42.2156 143.495 42.7101C140.575 42.7209 137.655 42.7101 134.735 42.6776C134.895 41.6475 135.315 40.77 135.995 40.0451C136.757 39.4414 137.607 39.0948 138.545 39.0051Z" fill="white"/>
<path opacity="0.862" fill-rule="evenodd" clip-rule="evenodd" d="M112.685 39.3646C111.945 39.3646 111.205 39.3646 110.465 39.3646C110.465 41.6613 110.465 43.958 110.465 46.2546C110.435 43.9526 110.425 41.6451 110.435 39.3321C111.19 39.3214 111.94 39.3322 112.685 39.3646Z" fill="#1B2024"/>
<path opacity="0.4" fill-rule="evenodd" clip-rule="evenodd" d="M107.135 39.3359C107.765 39.3359 108.395 39.3359 109.025 39.3359C109.025 41.7734 109.025 44.2109 109.025 46.6484C108.995 44.2273 108.985 41.8006 108.995 39.3684C108.37 39.3792 107.749 39.3683 107.135 39.3359Z" fill="#1E1E20"/>
<path opacity="0.557" fill-rule="evenodd" clip-rule="evenodd" d="M128.735 39.9856C128.745 40.105 128.695 40.1591 128.585 40.1481C128.585 39.5523 128.585 38.9564 128.585 38.3606C128.115 38.3606 127.645 38.3606 127.175 38.3606C127.175 41.6973 127.175 45.0339 127.175 48.3706C127.645 48.3706 128.115 48.3706 128.585 48.3706C128.575 46.5776 128.585 44.7901 128.615 43.0081C128.615 44.8064 128.615 46.6048 128.615 48.4031C128.125 48.4031 127.635 48.4031 127.145 48.4031C127.145 45.0448 127.145 41.6864 127.145 38.3281C127.635 38.3281 128.125 38.3281 128.615 38.3281C128.605 38.9243 128.615 39.5202 128.645 40.1156C128.676 40.0701 128.706 40.0267 128.735 39.9856Z" fill="#1C1D20"/>
<path opacity="0.114" fill-rule="evenodd" clip-rule="evenodd" d="M72.5449 34.2656C72.5449 36.3889 72.5449 38.5123 72.5449 40.6356C74.7049 40.6356 76.8649 40.6356 79.0249 40.6356C76.8601 40.6681 74.6899 40.6789 72.5149 40.6681C72.505 38.5285 72.5149 36.3943 72.5449 34.2656Z" fill="#191B1D"/>
<path opacity="0.857" fill-rule="evenodd" clip-rule="evenodd" d="M106.295 40.9922C106.324 41.1047 106.334 41.2239 106.325 41.3497C105.815 41.3497 105.305 41.3497 104.795 41.3497C104.795 41.2955 104.795 41.2414 104.795 41.1872C104.823 41.2219 104.833 41.2652 104.825 41.3172C105.315 41.3172 105.805 41.3172 106.295 41.3172C106.295 41.2089 106.295 41.1005 106.295 40.9922Z" fill="#1C2024"/>
<path fill-rule="evenodd" clip-rule="evenodd" d="M60.6052 43.0078C60.8384 43.0902 61.0684 43.1823 61.2952 43.2841C61.883 43.3633 62.473 43.385 63.0652 43.3491C63.3843 43.2873 63.7043 43.2439 64.0252 43.2191C63.2193 43.8331 62.3193 44.1472 61.3252 44.1616C61.0452 44.1832 60.7652 44.1832 60.4852 44.1616C60.2979 44.1513 60.1179 44.108 59.9452 44.0316C59.8584 43.4553 60.0784 43.1141 60.6052 43.0078Z" fill="#386A92"/>
<path fill-rule="evenodd" clip-rule="evenodd" d="M50.0404 44.5703C50.4583 44.5736 50.7082 44.7957 50.7904 45.2366C50.7945 45.3698 50.7545 45.4836 50.6704 45.5778C49.8682 46.4538 48.8982 46.7841 47.7604 46.5691C47.4598 46.5442 47.1799 46.4521 46.9204 46.2928C47.4065 46.1582 47.8965 46.0336 48.3904 45.9191C48.5888 45.8511 48.7788 45.7645 48.9604 45.6591C49.3113 45.2812 49.6713 44.9182 50.0404 44.5703Z" fill="#366891"/>
<path opacity="0.86" fill-rule="evenodd" clip-rule="evenodd" d="M148.115 43.3646C147.525 43.3646 146.935 43.3646 146.345 43.3646C146.345 43.5813 146.345 43.798 146.345 44.0146C146.315 43.7932 146.305 43.5657 146.315 43.3321C146.92 43.3214 147.52 43.3322 148.115 43.3646Z" fill="#1B2024"/>
<path opacity="0.114" fill-rule="evenodd" clip-rule="evenodd" d="M145.025 43.2344C145.054 43.3687 145.065 43.5096 145.055 43.6569C141.615 43.6569 138.175 43.6569 134.735 43.6569C134.735 43.7002 134.735 43.7436 134.735 43.7869C134.707 43.7408 134.697 43.6866 134.705 43.6244C138.145 43.6244 141.585 43.6244 145.025 43.6244C145.025 43.4944 145.025 43.3644 145.025 43.2344Z" fill="#19191A"/>
<path opacity="0.251" fill-rule="evenodd" clip-rule="evenodd" d="M143.255 45.1183C143.78 45.0752 144.31 45.0752 144.845 45.1183C144.841 45.138 144.831 45.1488 144.815 45.1508C144.3 45.1184 143.78 45.1076 143.255 45.1183Z" fill="#202428"/>
<path opacity="0.557" fill-rule="evenodd" clip-rule="evenodd" d="M70.8648 33.0625C70.8648 38.165 70.8648 43.2675 70.8648 48.37C71.4147 48.37 71.9649 48.37 72.5148 48.37C72.5148 46.1925 72.5148 44.015 72.5148 41.8375C74.8047 41.8375 77.0949 41.8375 79.3848 41.8375C77.1099 41.87 74.8299 41.8808 72.5448 41.87C72.5448 44.0475 72.5448 46.225 72.5448 48.4025C71.9748 48.4025 71.4048 48.4025 70.8348 48.4025C70.8249 43.2837 70.8348 38.1704 70.8648 33.0625Z" fill="#1C1E21"/>
<path opacity="0.556" fill-rule="evenodd" clip-rule="evenodd" d="M180.425 33.0287C180.749 32.9963 181.079 32.9855 181.415 32.9962C181.415 37.687 181.415 42.3778 181.415 47.0687C184.935 47.0687 188.455 47.0687 191.975 47.0687C191.985 47.4211 191.975 47.7678 191.945 48.1087C191.945 47.7728 191.945 47.437 191.945 47.1012C188.425 47.1012 184.905 47.1012 181.385 47.1012C181.385 42.4103 181.385 37.7195 181.385 33.0287C181.065 33.0287 180.745 33.0287 180.425 33.0287Z" fill="#1A1D20"/>
<path opacity="0.251" fill-rule="evenodd" clip-rule="evenodd" d="M124.085 48.5316C124.095 47.8001 124.085 47.0743 124.055 46.3541C124.064 46.3284 124.079 46.3067 124.1 46.2891C124.125 47.0421 124.12 47.7896 124.085 48.5316Z" fill="#1F2225"/>
<path opacity="0.714" fill-rule="evenodd" clip-rule="evenodd" d="M180.275 33.0312C180.101 33.0634 179.921 33.0742 179.735 33.0638C179.735 38.1663 179.735 43.2688 179.735 48.3713C183.795 48.3713 187.855 48.3713 191.915 48.3713C191.906 48.2986 191.916 48.2336 191.945 48.1763C191.945 48.2521 191.945 48.3279 191.945 48.4038C187.865 48.4038 183.785 48.4038 179.705 48.4038C179.705 43.2796 179.705 38.1554 179.705 33.0312C179.895 33.0312 180.085 33.0312 180.275 33.0312Z" fill="#1A2024"/>
</svg>
