<svg width="233" height="80" viewBox="0 0 233 80" fill="none" xmlns="http://www.w3.org/2000/svg">
<rect width="232.872" height="79.5745" rx="8" fill="#14161D"/>
<path fill-rule="evenodd" clip-rule="evenodd" d="M70.9052 12.8359C70.5105 12.8359 70.1441 12.9202 69.8058 13.0326C70.5246 13.5104 70.9193 14.1427 71.1167 14.8593C71.1308 14.9576 71.1589 15.0279 71.1731 15.1262C71.1872 15.2105 71.2012 15.2948 71.2012 15.3792C71.2576 16.6156 70.877 16.7702 70.6092 17.5008C70.2004 18.4422 70.3132 19.4539 70.8065 20.2689C70.8488 20.3672 70.9052 20.4796 70.9757 20.578C70.4401 17.0231 73.4142 16.4892 73.9639 15.3792C74.0062 14.4096 73.2028 13.7633 72.5685 13.3137C71.9624 12.9483 71.4126 12.8359 70.9052 12.8359ZM75.3876 13.6368C75.3312 13.96 75.3735 13.8757 75.3594 14.0443C75.3453 14.1567 75.3453 14.2972 75.3312 14.4096C75.3031 14.522 75.2748 14.6344 75.2326 14.7469C75.2044 14.8593 75.1621 14.9717 75.1198 15.0841C75.0634 15.1965 75.0211 15.2948 74.9648 15.4072C74.9225 15.4635 74.8943 15.5197 74.852 15.5759C74.8238 15.618 74.7956 15.6602 74.7674 15.7023C74.697 15.8007 74.6265 15.899 74.556 15.9833C74.4714 16.0676 74.4009 16.166 74.3023 16.2363V16.2503C74.2177 16.3206 74.1331 16.4049 74.0345 16.4751C73.7385 16.7 73.4002 16.8686 73.0901 17.0793C72.9914 17.1496 72.8927 17.2058 72.8081 17.2901C72.7095 17.3603 72.6249 17.4306 72.5403 17.5149C72.4417 17.5992 72.3712 17.6835 72.2866 17.7819C72.2161 17.8662 72.1316 17.9645 72.0752 18.0629C72.0047 18.1612 71.9342 18.2596 71.8778 18.358C71.8214 18.4704 71.7792 18.5687 71.7228 18.6811C71.6805 18.7935 71.6382 18.8919 71.61 19.0043C71.5677 19.1308 71.5396 19.2432 71.5114 19.3556C71.4972 19.4118 71.4972 19.482 71.4832 19.5382C71.4691 19.5945 71.4691 19.6506 71.455 19.7068C71.455 19.8193 71.4409 19.9457 71.4409 20.0581C71.4409 20.1424 71.4409 20.2267 71.455 20.311C71.455 20.4234 71.4691 20.5358 71.4973 20.6623C71.5114 20.7747 71.5396 20.8871 71.5678 20.9995C71.6101 21.1119 71.6383 21.2243 71.6806 21.3367C71.7087 21.407 71.751 21.4773 71.7792 21.5335L68.5373 20.2829C67.9875 20.1284 67.4519 19.9879 66.9022 19.8614C66.6062 19.7912 66.3102 19.7209 66.0142 19.6506C65.1684 19.482 64.3086 19.3556 63.4488 19.2713C63.4206 19.2713 63.4065 19.2572 63.3783 19.2572C62.5326 19.1729 61.7009 19.1307 60.8552 19.1307C60.235 19.1307 59.6148 19.1588 59.0087 19.201C58.1489 19.2572 57.289 19.3696 56.4292 19.5101C56.2178 19.5382 56.0064 19.5804 55.7949 19.6225C55.358 19.7068 54.9351 19.8052 54.5263 19.9035C54.3149 19.9598 54.1035 20.0159 53.892 20.0721C53.6806 20.1565 53.4833 20.2548 53.2859 20.3391C53.1309 20.4094 52.9758 20.4796 52.8208 20.5499C52.7926 20.564 52.7644 20.564 52.7503 20.578C52.6093 20.6482 52.4825 20.7044 52.3556 20.7747C52.3133 20.7887 52.2851 20.8028 52.2569 20.8168C52.1019 20.8871 51.9469 20.9714 51.82 21.0416C51.7213 21.0838 51.6227 21.14 51.5381 21.1822C51.4958 21.2102 51.4394 21.2384 51.4112 21.2524C51.2844 21.3227 51.1575 21.3929 51.0447 21.4632C50.9179 21.5334 50.8051 21.6037 50.7064 21.6739C50.6078 21.7442 50.5091 21.8004 50.4245 21.8706C50.4104 21.8847 50.3964 21.8847 50.3822 21.8987C50.2977 21.9549 50.199 22.0252 50.1144 22.0954C50.1144 22.0954 50.1003 22.1095 50.0863 22.1235C50.0158 22.1797 49.9453 22.2359 49.8748 22.2921C49.8467 22.3062 49.8184 22.3343 49.7903 22.3484C49.7198 22.4046 49.6493 22.4748 49.5788 22.531C49.5647 22.5591 49.5365 22.5732 49.5224 22.5872C49.4379 22.6715 49.3533 22.7418 49.2687 22.8261C49.2546 22.8261 49.2546 22.8402 49.2405 22.8542C49.156 22.9244 49.0714 23.0087 48.9868 23.0931C48.9727 23.1071 48.9727 23.1211 48.9586 23.1211C48.8882 23.1914 48.8177 23.2616 48.7472 23.3459C48.719 23.374 48.6767 23.4022 48.6485 23.4302C48.5781 23.5146 48.4935 23.5989 48.4089 23.6832C48.3948 23.7112 48.3666 23.7253 48.3525 23.7534C48.2398 23.8658 48.1411 23.9782 48.0283 24.0906C48.0142 24.1047 48.0002 24.1187 47.986 24.1328C47.7605 24.3717 47.5209 24.6105 47.2672 24.8213C47.0134 25.0461 46.7456 25.2569 46.4778 25.4395C46.1959 25.6362 45.9281 25.8048 45.6321 25.9735C45.3502 26.128 45.0542 26.2685 44.7441 26.395C44.4481 26.5214 44.138 26.6339 43.8279 26.7322C43.2358 26.8587 42.6297 27.0975 42.1082 27.1397C41.9954 27.1397 41.8686 27.1678 41.7558 27.1818C41.629 27.2099 41.5162 27.2381 41.4034 27.2661C41.2907 27.3083 41.1779 27.3504 41.0651 27.3926C40.9524 27.4348 40.8396 27.491 40.7269 27.5472C40.6282 27.6174 40.5154 27.6736 40.4167 27.7439C40.3181 27.8141 40.2194 27.8984 40.1348 27.9827C40.0362 28.053 39.9375 28.1514 39.8529 28.2357C39.7684 28.334 39.6838 28.4183 39.6133 28.5167C39.5428 28.6291 39.4583 28.7274 39.4019 28.8398C39.3314 28.9382 39.2609 29.0506 39.2045 29.163C39.1481 29.2895 39.0918 29.4019 39.0495 29.5283C39.0072 29.6407 38.9649 29.7672 38.9226 29.8937C38.8945 30.0061 38.8662 30.1185 38.8522 30.2309C38.8522 30.245 38.838 30.259 38.838 30.273C38.8099 30.3995 38.8099 30.5681 38.7957 30.6524C38.7816 30.7508 38.7676 30.8351 38.7676 30.9334C38.7676 30.9897 38.7676 31.0599 38.7817 31.1161C38.7958 31.2145 38.8099 31.2988 38.8381 31.3831C38.8663 31.4674 38.8945 31.5517 38.9368 31.636V31.65C38.9791 31.7344 39.0354 31.8187 39.0918 31.903C39.1482 31.9873 39.2046 32.0716 39.2751 32.1559C39.3455 32.2261 39.4301 32.3104 39.5147 32.3807C39.5993 32.465 39.6838 32.5353 39.7825 32.6055C40.1208 32.9006 40.2054 32.9989 40.6423 33.2237C40.7128 33.2659 40.7833 33.294 40.8679 33.3362C40.882 33.3362 40.896 33.3502 40.9101 33.3502C40.9101 33.3783 40.9101 33.3924 40.9243 33.4205C40.9384 33.5329 40.9665 33.6453 40.9947 33.7577C41.0229 33.8842 41.0652 33.9966 41.1075 34.0949C41.1498 34.1792 41.178 34.2635 41.2203 34.3479C41.2344 34.3759 41.2484 34.4041 41.2626 34.4181C41.319 34.5305 41.3753 34.6289 41.4317 34.7272C41.5022 34.8256 41.5727 34.9239 41.6431 35.0223C41.7136 35.1066 41.7982 35.205 41.8827 35.2893C41.9673 35.3736 42.0519 35.4438 42.1506 35.5281C42.1506 35.5281 42.1647 35.5422 42.1787 35.5422C42.2633 35.6125 42.3479 35.6827 42.4325 35.7389C42.5311 35.8092 42.6298 35.8654 42.7426 35.9216C42.8412 35.9778 42.954 36.034 43.0668 36.0761C43.1513 36.1183 43.25 36.1464 43.3487 36.1745C43.3628 36.1886 43.3768 36.1886 43.4051 36.2026C43.4615 36.2167 43.5319 36.2307 43.5883 36.2447C43.546 37.0035 43.5319 37.7201 43.6447 37.973C43.7716 38.254 44.3918 37.3969 45.012 36.4133C44.9274 37.3829 44.871 38.521 45.012 38.8582C45.167 39.2095 46.0128 38.1135 46.7457 36.9051C56.7394 34.6008 65.8592 41.4857 66.8177 51.2089C66.6345 49.6914 64.7598 48.8484 63.9 49.0591C63.4771 50.0989 62.7582 51.4337 61.6024 52.2627C61.701 51.3354 61.6588 50.3799 61.4614 49.4526C61.1513 50.7453 60.5452 51.9536 59.7136 52.9934C58.3745 53.0917 57.0354 52.4454 56.3307 51.4759C56.2742 51.4337 56.2602 51.3494 56.2179 51.2932C56.1756 51.1949 56.1333 51.0965 56.1051 50.9982C56.0628 50.8998 56.0347 50.8015 56.0206 50.7031C56.0064 50.6047 56.0064 50.5064 56.0064 50.394C56.0064 50.3237 56.0064 50.2535 56.0064 50.1832C56.0206 50.0849 56.0487 49.9865 56.0769 49.8881C56.1051 49.7898 56.1333 49.6914 56.1756 49.5931C56.232 49.4947 56.2742 49.3964 56.3447 49.298C56.5844 48.6236 56.5844 48.0756 56.1474 47.7524C56.0628 47.6962 55.9782 47.6541 55.8796 47.6119C55.8232 47.5978 55.7527 47.5697 55.6963 47.5557C55.6541 47.5416 55.6259 47.5276 55.5836 47.5135C55.4849 47.4854 55.3862 47.4573 55.2876 47.4433C55.1889 47.4152 55.0902 47.4011 54.9916 47.4011C54.8929 47.387 54.7801 47.373 54.6815 47.373C54.611 47.373 54.5405 47.3871 54.47 47.3871C54.3573 47.3871 54.2586 47.4012 54.1599 47.4293C54.0613 47.4433 53.9626 47.4573 53.8639 47.4855C53.7653 47.5136 53.6666 47.5417 53.5679 47.5839C53.4692 47.626 53.3847 47.6682 53.286 47.7103C53.2014 47.7525 53.1169 47.8087 53.0182 47.8508C49.7339 49.9865 51.6932 54.9887 53.9344 56.4359C53.0887 56.5905 52.2288 56.7731 51.9892 56.9558C51.9751 56.9699 51.9611 56.9839 51.9611 56.9839C52.5672 57.3492 53.2015 57.6583 53.8639 57.9253C54.7661 58.2203 55.7245 58.4873 56.1474 58.5997V58.6138C57.3173 58.8527 58.5014 58.937 59.6995 58.8667C65.9438 58.4311 71.0605 53.696 71.9908 47.4574C72.0189 47.5839 72.0472 47.6962 72.0753 47.8227C72.1176 48.0756 72.174 48.3426 72.2022 48.6096V48.6236C72.2304 48.7501 72.2445 48.8766 72.2586 48.989V49.0452C72.2727 49.1716 72.2868 49.2981 72.2868 49.4105C72.3009 49.5651 72.3149 49.7196 72.3149 49.8742V50.099C72.3149 50.1693 72.3291 50.2536 72.3291 50.3238C72.3291 50.4081 72.3149 50.4924 72.3149 50.5767V50.7734C72.3149 50.8718 72.3008 50.9561 72.3008 51.0545C72.3008 51.1107 72.3008 51.1669 72.2867 51.2371C72.2867 51.3355 72.2726 51.4338 72.2726 51.5462C72.2585 51.5884 72.2585 51.6305 72.2585 51.6727C72.2443 51.7851 72.2303 51.8835 72.2162 51.9959C72.2162 52.038 72.2162 52.0802 72.202 52.1223C72.1879 52.2628 72.1598 52.3893 72.1457 52.5298V52.5439V52.558C72.1175 52.6844 72.0892 52.8249 72.0611 52.9514V52.9935C72.0329 53.12 72.0047 53.2464 71.9765 53.3729C71.9765 53.387 71.9624 53.4151 71.9624 53.4291C71.9342 53.5556 71.906 53.682 71.8637 53.8085V53.8507C71.8214 53.9912 71.7791 54.1176 71.751 54.2441C71.7368 54.2582 71.7368 54.2722 71.7368 54.2722C71.6945 54.4127 71.6523 54.5532 71.61 54.6937C71.5536 54.8342 71.5113 54.9607 71.4549 55.1012C71.3985 55.2417 71.3563 55.3822 71.2999 55.5086C71.2435 55.6492 71.1871 55.7756 71.1307 55.9161H71.1166C71.0602 56.0426 71.0038 56.1831 70.9334 56.3095C70.9192 56.3517 70.9052 56.3798 70.8911 56.4079C70.877 56.422 70.877 56.436 70.8629 56.4501C69.9467 58.2907 68.5935 59.9066 66.9021 61.1712C66.7893 61.2414 66.6765 61.3257 66.5638 61.41C66.5356 61.4381 66.4933 61.4522 66.4651 61.4803C66.3664 61.5505 66.2678 61.6208 66.155 61.691L66.1973 61.7753H66.2114C66.4088 61.7473 66.6061 61.7191 66.8034 61.691H66.8176C67.184 61.6348 67.5505 61.5646 67.917 61.4943C68.0157 61.4802 68.1284 61.4522 68.2271 61.4241C68.2976 61.41 68.354 61.396 68.4244 61.3819C68.5231 61.3678 68.6218 61.3398 68.7204 61.3257C68.805 61.2976 68.8896 61.2835 68.9742 61.2554C70.3837 60.9182 71.751 60.4545 73.0619 59.9065C70.8207 62.9556 67.8183 65.4145 64.3085 67.0304C65.9295 66.9179 67.5505 66.651 69.1151 66.2014C74.7956 64.5293 79.574 60.7215 82.4354 55.5929C81.8574 58.8387 80.5607 61.9299 78.6437 64.6277C80.0109 63.7284 81.2654 62.6886 82.4072 61.5083C85.5646 58.2204 87.6366 54.0473 88.3414 49.5651C88.8206 51.7851 88.9616 54.0754 88.7501 56.3376C98.9271 42.1884 89.5959 27.5192 85.6914 23.6552C85.6773 23.6272 85.6633 23.6131 85.6633 23.585C85.6491 23.5991 85.6491 23.5991 85.6491 23.6131C85.6491 23.599 85.6491 23.599 85.635 23.585C85.635 23.7536 85.6209 23.9222 85.6068 24.0908C85.5646 24.414 85.5223 24.7231 85.4659 25.0322C85.3954 25.3413 85.3108 25.6505 85.2263 25.9596C85.1276 26.2546 85.0148 26.5638 84.888 26.8588C84.7611 27.1399 84.6202 27.4349 84.4651 27.7159C84.3101 27.9829 84.1409 28.2639 83.9577 28.5168C83.7744 28.7838 83.5771 29.0367 83.3798 29.2756C83.1683 29.5285 82.9428 29.7533 82.7173 29.9781C82.5763 30.1046 82.4495 30.217 82.3085 30.3294C82.1957 30.4278 82.0971 30.5121 81.9843 30.6104C81.7306 30.8071 81.4769 30.9898 81.195 31.1584C80.9271 31.327 80.6452 31.4956 80.3633 31.6361C80.0673 31.7767 79.7713 31.9031 79.4753 32.0296C79.1793 32.142 78.8692 32.2403 78.5591 32.3246C78.249 32.4089 77.9248 32.4792 77.6147 32.5354C77.2905 32.5916 76.9663 32.6197 76.6562 32.6478C76.4307 32.6619 76.2052 32.6759 75.9796 32.6759C75.6554 32.6759 75.3312 32.6478 75.0211 32.6197C74.6969 32.5916 74.3727 32.5494 74.0626 32.4791C73.7384 32.4229 73.4283 32.3386 73.1182 32.2403H73.1041C73.4142 32.2122 73.7243 32.1841 74.0344 32.1279C74.3586 32.0717 74.6687 32.0014 74.9788 31.9171C75.2889 31.8328 75.599 31.7345 75.895 31.622C76.2051 31.5096 76.5011 31.3691 76.783 31.2286C77.079 31.0881 77.3469 30.9336 77.6288 30.7649C77.8966 30.5823 78.1644 30.3996 78.4181 30.2029C78.6718 30.0062 78.9115 29.7954 79.137 29.5706C79.3766 29.3598 79.588 29.121 79.7995 28.8821C80.0109 28.6292 80.2082 28.3763 80.3915 28.1234C80.4197 28.0812 80.4479 28.025 80.4761 27.9829C80.617 27.7581 80.758 27.5332 80.8848 27.3084C81.0399 27.0274 81.1808 26.7464 81.3077 26.4513C81.4346 26.1562 81.5473 25.8612 81.646 25.5521C81.7447 25.257 81.8151 24.9479 81.8856 24.6388C81.942 24.3156 81.9984 24.0065 82.0266 23.6973C82.0547 23.3742 82.083 23.051 82.083 22.7419C82.083 22.5171 82.0688 22.2923 82.0548 22.0674C82.0266 21.7443 81.9843 21.4351 81.942 21.126C81.8856 20.8029 81.8152 20.4937 81.7306 20.1846C81.6319 19.8896 81.5333 19.5804 81.4205 19.2854C81.3077 18.9903 81.1668 18.6952 81.0258 18.4142C80.8708 18.1332 80.7157 17.8522 80.5466 17.5852C80.3633 17.3182 80.1801 17.0653 79.9828 16.8124C79.7713 16.5735 79.5599 16.3347 79.3344 16.0958C79.2216 15.9834 79.0947 15.8569 78.9679 15.7445C78.3336 15.2528 77.6711 14.7891 77.0086 14.3676C76.9099 14.3113 76.8254 14.2692 76.7267 14.227C76.2615 13.932 75.8245 13.7773 75.3876 13.6368Z" fill="#EA2845"/>
<path d="M106.364 49.4587C106.779 49.2643 107.169 49.1428 107.534 49.0699C108.436 48.9241 108.948 48.8026 109.095 48.7054C109.338 48.5596 109.509 48.3652 109.582 48.1708C109.68 47.8306 109.728 47.1259 109.728 46.0081V43.8941L109.753 42.1688L109.68 39.593V38.0621C109.68 37.0415 109.606 36.191 109.436 35.5592C109.387 35.3162 109.168 35.0732 108.826 34.8302C108.363 34.49 107.608 34.1741 106.511 33.8582L106.486 32.6918C106.681 32.6433 106.876 32.5946 107.047 32.5703C107.217 32.546 107.876 32.3759 109.021 32.0843C109.923 31.7684 110.508 31.5254 110.752 31.4039C110.85 31.3554 110.972 31.2824 111.167 31.1852C111.362 31.0151 111.581 30.8693 111.825 30.6992C112.312 30.3591 112.897 29.7516 113.58 28.9254L114.872 28.8281L114.823 31.574C114.799 31.8413 114.799 32.06 114.799 32.2301C114.799 32.3759 114.799 32.7404 114.823 33.3479C116.188 32.1815 117.407 31.3796 118.528 30.9179C119.967 30.3104 121.356 30.0188 122.648 30.0188C124.184 30.0188 125.549 30.4076 126.695 31.1609C127.865 31.9142 128.621 32.789 128.962 33.761C129.327 34.7573 129.498 36.7742 129.498 39.763L129.401 47.7334C129.401 48.0979 129.474 48.4138 129.596 48.6568C129.766 48.7783 130.229 48.8998 130.961 49.0213L132.155 49.24C132.301 49.4587 132.375 49.7017 132.375 50.0176C132.375 50.212 132.375 50.4793 132.35 50.8195L127.548 50.4793L126.134 50.5278H125.013L121.771 50.7708H120.942C120.917 50.5521 120.917 50.4063 120.917 50.2848C120.917 49.9932 120.942 49.6773 120.966 49.3372C121.185 49.2886 121.77 49.2156 122.672 49.0941C122.916 49.0698 123.184 48.9969 123.501 48.9241C123.818 48.8025 124.013 48.6568 124.062 48.5352C124.184 48.2437 124.257 47.7334 124.257 46.9558C124.257 45.5707 124.232 44.5258 124.208 43.7968L124.233 40.978C124.233 37.5274 124.038 35.389 123.599 34.5628C122.965 33.3236 122.039 32.7161 120.795 32.7161C119.893 32.7161 118.943 32.9591 117.968 33.4207C116.968 33.8824 115.969 34.5871 114.921 35.5348L114.872 35.9479L114.921 37.4788L114.896 39.1069L114.994 43.0192L114.945 43.6267C114.945 46.2754 115.043 47.782 115.262 48.1222C115.481 48.4623 116.286 48.8268 117.7 49.2399C117.748 49.5072 117.773 49.7259 117.773 49.8474C117.773 50.0419 117.7 50.3334 117.602 50.7465C117.09 50.7709 116.651 50.7709 116.31 50.7709C115.969 50.7709 115.433 50.7223 114.701 50.6251L112.093 50.5765C110.777 50.5765 108.899 50.6251 106.437 50.7466C106.364 50.5765 106.34 50.4064 106.34 50.2363C106.34 50.1148 106.34 49.8475 106.364 49.4587Z" fill="#EA2845"/>
<path d="M135.153 37.7699C135.592 36.3848 135.958 35.4614 136.299 35.024C137.201 33.6875 138.176 32.6426 139.2 31.8893C140.248 31.136 141.174 30.65 142.003 30.407C143.1 30.0911 143.953 29.9453 144.636 29.9453C146.172 29.9453 147.415 30.0668 148.341 30.3098C149.292 30.5285 150.096 30.8687 150.73 31.3061C151.632 31.9379 152.363 32.594 152.924 33.2258C153.485 33.8819 153.924 34.6595 154.265 35.5343C154.63 36.4091 154.825 37.4783 154.874 38.7176L152.144 38.669C151.388 38.669 149.755 38.5961 147.195 38.4503C146.245 38.4017 145.611 38.3531 145.245 38.3531C145.123 38.3531 144.246 38.3774 142.613 38.3774H140.492C140.467 38.6204 140.443 38.8148 140.443 38.9606C140.443 39.8354 140.565 40.7345 140.76 41.7065C140.979 42.6542 141.296 43.4804 141.711 44.2094C142.149 44.9384 142.661 45.5459 143.295 46.0562C143.929 46.5907 144.587 46.9552 145.245 47.1982L146.659 47.6599C147.927 47.6599 148.756 47.6114 149.194 47.5384C149.974 47.3683 150.657 47.1739 151.242 46.9309C151.852 46.6636 152.558 46.2262 153.412 45.6187C153.997 46.0562 154.484 46.4206 154.899 46.7851C153.46 48.3403 151.949 49.5067 150.413 50.2114C148.878 50.9161 147.147 51.2563 145.245 51.2563C143.953 51.2563 142.905 51.1591 142.076 50.9161C141.004 50.6245 140.004 50.1871 139.127 49.5796C138.249 48.9721 137.493 48.2188 136.86 47.344C136.226 46.4449 135.738 45.5215 135.421 44.5739C135.031 43.3346 134.812 42.3383 134.812 41.6093C134.812 40.1756 134.934 38.912 135.153 37.7699ZM149.389 36.725C149.365 35.8016 149.194 34.9511 148.853 34.1006C148.512 33.2744 147.976 32.6426 147.244 32.1809C146.537 31.7192 145.806 31.4762 145.075 31.4762C143.978 31.4762 143.003 31.9622 142.101 32.9099C141.223 33.8819 140.736 35.1698 140.614 36.8222L146.196 36.8465C146.562 36.8465 147.074 36.8222 147.707 36.7736C148.195 36.725 148.536 36.7007 148.731 36.7007C148.877 36.7007 149.097 36.7006 149.389 36.725Z" fill="#EA2845"/>
<path d="M158.75 43.8674C159.238 43.7701 159.604 43.7216 159.823 43.7216C159.945 43.7216 160.116 43.7216 160.335 43.7459L160.554 43.9889C161.456 45.5441 162.017 46.4675 162.31 46.8077C162.87 47.4638 163.431 47.9984 163.992 48.4115C164.357 48.6545 164.942 48.9461 165.747 49.2134C166.283 49.4078 166.868 49.505 167.477 49.505C168.501 49.505 169.379 49.1891 170.11 48.533C170.841 47.8526 171.207 47.1479 171.207 46.3703C171.207 45.86 171.061 45.4226 170.793 45.0581C170.525 44.6936 169.964 44.3291 169.135 43.9646C168.721 43.7945 167.697 43.5029 166.039 43.0898C164.406 42.6767 163.431 42.4094 163.09 42.2879C162.31 41.9963 161.627 41.5832 161.042 41.0729C160.433 40.5383 159.994 39.9551 159.677 39.299C159.262 38.3756 159.043 37.5737 159.043 36.9176C159.043 35.6784 159.238 34.6821 159.579 33.8802C159.945 33.1026 160.457 32.3979 161.115 31.7904C161.578 31.3287 162.285 30.9156 163.236 30.5511C164.187 30.1866 165.235 29.9922 166.307 29.9922C167.867 29.9922 169.233 30.0894 170.403 30.3081C171.573 30.5268 172.572 30.8427 173.377 31.2558C173.499 31.6203 173.62 32.4951 173.815 33.8316C173.986 35.1924 174.084 35.9943 174.084 36.2373C174.084 36.3588 174.059 36.4802 174.01 36.6018C173.572 36.7233 173.23 36.7962 172.938 36.7962C172.792 36.7962 172.548 36.7718 172.231 36.7476C172.085 36.5289 171.89 36.1644 171.646 35.727C170.866 34.269 170.061 33.2484 169.233 32.6652C168.404 32.0577 167.477 31.7661 166.38 31.7661C165.259 31.7661 164.308 32.1063 163.553 32.7381C162.992 33.2241 162.724 33.8559 162.724 34.6821C162.724 35.2167 163.016 35.7513 163.602 36.3102C164.162 36.8691 165.162 37.3065 166.576 37.5981C168.721 38.0598 170.305 38.5458 171.305 39.0075C172.767 39.6879 173.815 40.5141 174.401 41.4374C174.986 42.3608 175.302 43.43 175.302 44.645C175.302 46.5404 174.571 48.1199 173.133 49.3835C171.719 50.6228 169.647 51.2546 166.892 51.2546C166.551 51.2546 165.6 51.1817 164.089 51.0116C163.406 50.9387 162.602 50.7686 161.676 50.5256C161.432 50.4527 160.847 50.234 159.872 49.8209C159.701 49.7237 159.579 49.6022 159.482 49.4807C159.433 49.3349 159.311 48.6545 159.165 47.4395C158.921 45.4469 158.775 44.2562 158.75 43.8674Z" fill="#EA2845"/>
<path d="M178.837 32.2043C180.762 31.4024 182.152 30.6005 183.005 29.8229C183.883 29.0453 184.785 27.7574 185.76 26.0078H187.149C187.295 26.4452 187.369 26.8826 187.369 27.3443C187.369 28.1948 187.344 28.8509 187.344 29.3369L187.271 30.7706C187.271 30.8435 187.271 31.0379 187.295 31.3295L187.856 31.3538C187.929 31.3538 188.709 31.3295 190.148 31.2566C190.269 31.2566 190.879 31.2322 191.976 31.208C192.073 31.6454 192.147 32.0342 192.147 32.3744C192.147 32.7632 192.073 33.2006 191.951 33.6866C191.415 33.7595 191.025 33.7838 190.733 33.7838C190.611 33.7838 190.343 33.7838 189.953 33.7353H188.685L188.246 33.7109L187.076 33.7595L187.027 43.0906C187.003 44.8888 187.027 46.0309 187.125 46.4683C187.222 46.93 187.417 47.3431 187.71 47.7562C188.076 47.9263 188.49 48.0235 188.953 48.0235C189.392 48.0235 189.709 47.9749 189.928 47.902C190.148 47.8048 190.513 47.5861 191.001 47.1973C191.098 47.1001 191.269 47.0029 191.464 46.8571C191.854 47.1487 192.195 47.4646 192.439 47.7805L192.537 48.0721C191.952 48.9712 191.147 49.6759 190.099 50.1862C189.075 50.6965 187.978 50.9395 186.808 50.9395C185.272 50.9395 184.053 50.4535 183.103 49.5058C182.152 48.5338 181.689 47.0515 181.689 45.0346L181.786 40.7579V33.7838L181.031 33.7595L179.251 33.7838L178.934 33.7109C178.837 33.5651 178.788 33.4436 178.788 33.2978C178.788 33.2006 178.812 32.8361 178.837 32.2043Z" fill="#EA2845"/>
</svg>
