<svg width="233" height="80" viewBox="0 0 233 80" fill="none" xmlns="http://www.w3.org/2000/svg">
<rect width="232.872" height="79.5745" rx="8" fill="#14161D"/>
<g clip-path="url(#clip0_197_112)">
<path fill-rule="evenodd" clip-rule="evenodd" d="M179.8 36.3975C179.667 36.424 179.534 36.7159 179.534 36.875C179.507 37.9369 179.48 40.7504 179.48 42.6614C179.48 42.7146 179.56 42.8208 179.64 42.8208C180.04 42.8472 181.001 42.8737 181.828 42.8737C182.975 42.8737 183.641 42.7146 184.015 42.5556C184.975 42.0776 185.429 41.0424 185.429 39.9008C185.429 37.3265 183.615 36.3443 180.92 36.3443C180.734 36.3178 180.201 36.3178 179.8 36.3975ZM186.683 48.2621C186.683 45.6344 184.735 44.1744 181.214 44.1744C181.054 44.1744 179.934 44.1479 179.667 44.2008C179.587 44.2276 179.48 44.2808 179.48 44.3605C179.48 46.2447 179.453 49.2444 179.534 50.4121C179.587 50.9163 179.961 51.6331 180.414 51.8454C180.894 52.1109 181.988 52.1638 182.735 52.1638C184.842 52.1638 186.683 50.996 186.683 48.2621ZM174.359 34.9378C174.625 34.9378 175.425 35.0172 177.479 35.0172C179.427 35.0172 180.974 34.9642 182.868 34.9642C185.188 34.9642 188.39 35.7869 188.39 39.2375C188.39 40.9362 187.189 42.2901 185.615 42.9537C185.536 42.9801 185.536 43.0331 185.615 43.0595C187.856 43.6172 189.83 44.9973 189.83 47.5983C189.83 50.1466 188.23 51.7657 185.909 52.7744C184.495 53.3848 182.735 53.597 180.947 53.597C179.587 53.597 175.932 53.438 173.905 53.4912C173.692 53.4112 174.092 52.4557 174.278 52.2967C174.759 52.2699 175.132 52.2434 175.639 52.0841C176.359 51.8986 176.439 51.686 176.546 50.5979C176.599 49.6689 176.599 46.3773 176.599 44.0418C176.599 40.8301 176.626 38.6536 176.599 37.592C176.573 36.7694 176.279 36.5036 175.693 36.3443C175.239 36.2649 174.492 36.1585 173.878 36.0791C173.745 35.9462 174.198 35.0436 174.359 34.9378ZM158.967 51.4473C159.607 51.9512 160.861 52.1635 161.981 52.1635C163.422 52.1635 164.862 51.8986 166.249 50.6506C167.663 49.377 168.65 47.4128 168.65 44.2808C168.65 41.2811 167.503 38.8392 165.156 37.4062C163.822 36.583 162.115 36.2384 160.141 36.2384C159.554 36.2384 158.994 36.2649 158.647 36.424C158.567 36.4772 158.38 36.7159 158.38 36.8485C158.327 37.3795 158.327 41.4669 158.327 43.856C158.327 46.3244 158.327 49.775 158.38 50.1731C158.38 50.5715 158.567 51.1818 158.967 51.4473H158.967ZM152.911 34.9375C153.419 34.9375 155.366 35.0172 156.299 35.0172C157.98 35.0172 159.18 34.9378 162.355 34.9378C165.022 34.9378 167.263 35.6543 168.863 37.0078C170.811 38.6801 171.825 40.9895 171.825 43.8027C171.825 47.8108 169.984 50.1202 168.143 51.4473C166.303 52.8009 163.902 53.597 160.488 53.597C158.674 53.597 155.553 53.5441 152.965 53.5173H152.938C152.805 53.2786 153.152 52.3496 153.365 52.3231C154.059 52.2434 154.246 52.2167 154.592 52.0844C155.152 51.8718 155.259 51.5799 155.339 50.5979C155.419 48.7663 155.393 46.5634 155.393 44.0682C155.393 42.2901 155.419 38.8127 155.366 37.6979C155.286 36.7691 154.886 36.5301 154.085 36.3707C153.685 36.2914 153.152 36.1849 152.405 36.1056C152.298 35.9195 152.778 35.0966 152.911 34.9375Z" fill="#8E714E"/>
<path fill-rule="evenodd" clip-rule="evenodd" d="M120.634 52.4803C119.968 52.4007 119.487 52.2948 118.901 52.0293C118.821 51.9761 118.687 51.7109 118.687 51.6045C118.634 50.6755 118.634 48.0212 118.634 46.2431C118.634 44.8096 118.394 43.5622 117.78 42.6863C117.06 41.6773 116.02 41.0938 114.686 41.0938C113.512 41.0938 111.938 41.8899 110.631 43.0047C110.604 43.0312 110.391 43.2173 110.418 42.9251C110.418 42.6331 110.471 42.0492 110.498 41.6509C110.525 41.2793 110.311 41.0938 110.311 41.0938C109.457 41.5183 107.057 42.0757 106.176 42.1551C105.536 42.2883 105.376 42.8986 106.043 43.1109H106.07C106.79 43.3231 107.27 43.5622 107.643 43.8012C107.91 44.0135 107.884 44.3054 107.884 44.5444C107.91 46.5348 107.91 49.5874 107.83 51.2596C107.804 51.9232 107.617 52.1619 107.137 52.2681L107.19 52.2416C106.817 52.3213 106.523 52.4007 106.07 52.4539C105.91 52.6132 105.91 53.4626 106.07 53.6484C106.363 53.6484 107.91 53.5687 109.191 53.5687C110.951 53.5687 111.858 53.6484 112.312 53.6484C112.498 53.4361 112.552 52.6397 112.445 52.4539C111.938 52.4274 111.565 52.3745 111.218 52.2681C110.738 52.1616 110.604 51.9232 110.578 51.3658C110.525 49.9587 110.525 46.9861 110.525 44.969C110.525 44.4115 110.685 44.1461 110.844 43.9867C111.458 43.456 112.445 43.0844 113.325 43.0844C114.179 43.0844 114.739 43.3499 115.166 43.6951C115.753 44.1725 115.939 44.8628 116.019 45.367C116.153 46.5083 116.1 48.7645 116.1 50.7287C116.1 51.7903 116.02 52.0558 115.62 52.1884C115.433 52.2681 114.953 52.3745 114.392 52.4271C114.206 52.6132 114.259 53.4361 114.392 53.6219C115.166 53.6219 116.073 53.5423 117.407 53.5423C119.06 53.5423 120.128 53.6219 120.555 53.6219C120.688 53.4626 120.741 52.6929 120.634 52.4803ZM128.023 42.3415C126.61 42.3415 125.729 43.4296 125.729 45.128C125.729 46.8535 126.503 48.8442 128.69 48.8442C129.064 48.8442 129.757 48.6848 130.077 48.3132C130.584 47.8357 130.931 46.8799 130.931 45.8712C130.931 43.6683 129.837 42.3415 128.023 42.3415ZM127.837 54.0729C127.303 54.0729 126.93 54.2323 126.69 54.3652C125.569 55.0813 125.063 55.7717 125.063 56.5948C125.063 57.3642 125.356 57.9746 125.996 58.5055C126.77 59.1691 127.837 59.4878 129.197 59.4878C131.918 59.4878 133.118 58.0278 133.118 56.5948C133.118 55.5858 132.611 54.9223 131.571 54.551C130.824 54.2323 129.464 54.0729 127.837 54.0729ZM128.023 60.9743C126.396 60.9743 125.222 60.6291 124.209 59.8594C123.222 59.1162 122.795 58.0013 122.795 57.2316C122.795 57.0194 122.849 56.4352 123.329 55.9045C123.622 55.5858 124.262 54.9755 125.783 53.9403C125.836 53.9139 125.863 53.8874 125.863 53.8339C125.863 53.781 125.809 53.7278 125.756 53.7016C124.502 53.2238 124.129 52.4539 124.022 52.0293V51.9761C123.996 51.8168 123.942 51.6577 124.182 51.4984C124.369 51.3658 124.636 51.2064 124.929 51.0209C125.383 50.7551 125.863 50.4632 126.156 50.2242C126.21 50.1713 126.21 50.1183 126.21 50.0651C126.21 50.0119 126.156 49.9587 126.103 49.9325C124.236 49.3219 123.302 47.9416 123.302 45.8712C123.302 44.5177 123.916 43.2967 125.009 42.527C125.756 41.9431 127.623 41.2263 128.85 41.2263H128.93C130.184 41.2528 130.878 41.5183 131.864 41.8634C132.398 42.0492 132.905 42.1286 133.599 42.1286C134.639 42.1286 135.092 41.8102 135.466 41.4389C135.492 41.4918 135.546 41.6247 135.573 41.9696C135.599 42.3147 135.492 42.8189 135.226 43.1906C135.012 43.4825 134.532 43.6951 134.052 43.6951H133.919C133.438 43.6418 133.225 43.5886 133.225 43.5886L133.118 43.6418C133.092 43.6951 133.118 43.748 133.145 43.8276L133.172 43.8809C133.225 44.1196 133.332 44.8361 133.332 45.0222C133.332 47.1986 132.452 48.1538 131.518 48.8706C130.611 49.5342 129.571 49.9587 128.397 50.0651C128.37 50.0651 128.264 50.0651 128.023 50.0916C127.89 50.0916 127.703 50.1183 127.677 50.1183H127.65C127.437 50.1713 126.903 50.4367 126.903 50.8877C126.903 51.2858 127.143 51.7639 128.29 51.8435C128.53 51.87 128.77 51.87 129.037 51.8967C130.558 52.0026 132.452 52.1355 133.332 52.4274C134.559 52.8784 135.332 53.9668 135.332 55.2674C135.332 57.2319 133.919 59.0633 131.571 60.2043C130.424 60.7088 129.277 60.9743 128.023 60.9743ZM143.228 42.4741C142.668 42.4741 142.161 42.6064 141.788 42.8719C140.748 43.509 140.214 44.7831 140.214 46.6409C140.214 50.1183 141.974 52.5603 144.482 52.5603C145.229 52.5603 145.816 52.3477 146.322 51.9232C147.096 51.2858 147.496 50.0119 147.496 48.2335C147.496 44.7831 145.762 42.4738 143.228 42.4738L143.228 42.4741ZM143.709 53.8342C139.174 53.8342 137.547 50.5164 137.547 47.4109C137.547 45.2344 138.427 43.5622 140.187 42.3677C141.441 41.598 142.935 41.1734 144.269 41.1734C147.736 41.1734 150.164 43.6418 150.164 47.1986C150.164 49.6138 149.204 51.5248 147.363 52.6929C146.483 53.2768 144.962 53.8342 143.708 53.8342H143.709ZM96.1733 42.4738C95.6131 42.4738 95.1064 42.6064 94.7326 42.8719C93.6926 43.509 93.159 44.7831 93.159 46.6409C93.159 50.1183 94.9194 52.5603 97.427 52.5603C98.1739 52.5603 98.7607 52.3477 99.2677 51.9232C100.041 51.2858 100.441 50.0119 100.441 48.2335C100.441 44.7831 98.7341 42.4738 96.1733 42.4738ZM96.6535 53.8342C92.1187 53.8342 90.4915 50.5164 90.4915 47.4109C90.4915 45.2344 91.3717 43.5622 93.1321 42.3677C94.3861 41.598 95.8799 41.1734 97.2137 41.1734C100.682 41.1734 103.109 43.6418 103.109 47.1986C103.109 49.6138 102.149 51.5248 100.308 52.6929C99.4542 53.2768 97.9337 53.8342 96.6535 53.8342ZM66.1637 53.5687C66.1103 53.4893 66.0568 53.2503 66.0837 52.9584C66.0837 52.7458 66.1371 52.6132 66.1637 52.5603C66.7239 52.4803 67.0173 52.4007 67.3373 52.3213C67.8709 52.1884 68.0843 51.8967 68.1109 51.2332C68.1912 49.6406 68.1912 46.6145 68.1643 44.5177V44.4645C68.1643 44.2257 68.1643 43.9335 67.8709 43.7212C67.444 43.456 66.9373 43.2173 66.2704 43.0309C66.0305 42.9518 65.8703 42.8189 65.8969 42.6599C65.8969 42.5005 66.0571 42.3147 66.4039 42.2615C67.2841 42.1818 69.5778 41.6247 70.4849 41.2263C70.5384 41.2793 70.6185 41.4389 70.6185 41.6512L70.5919 41.9428C70.565 42.2351 70.5384 42.5802 70.5384 42.9251C70.5384 43.0312 70.6454 43.1109 70.7517 43.1109C70.8052 43.1109 70.8587 43.0844 70.9119 43.0577C72.6191 41.7306 74.1661 41.2528 74.9663 41.2528C76.2737 41.2528 77.2874 41.8634 78.061 43.1373C78.1142 43.2173 78.1676 43.2438 78.2477 43.2438C78.3009 43.2438 78.3807 43.2173 78.4075 43.1641C79.9815 41.9696 81.5554 41.2528 82.5955 41.2528C85.0762 41.2528 86.5435 43.0844 86.5435 46.1899C86.5435 47.0658 86.5435 48.2071 86.5169 49.2425C86.5169 50.1713 86.4903 51.0206 86.4903 51.6313C86.4903 51.7636 86.6768 52.1884 86.9702 52.2681C87.3436 52.4539 87.8506 52.5335 88.5175 52.6397H88.5441C88.5976 52.8255 88.4909 53.5155 88.3843 53.6484C88.2241 53.6484 87.9839 53.6484 87.7174 53.6219C87.0421 53.5869 86.3661 53.5691 85.6899 53.5687C84.0362 53.5687 83.1826 53.5952 82.3553 53.6484C82.3024 53.4361 82.2755 52.799 82.3553 52.6397C82.8357 52.5603 83.0756 52.4803 83.3693 52.4009C83.9029 52.2416 84.0362 52.0026 84.0631 51.3126C84.0631 50.8084 84.1694 46.5083 84.0093 45.4732C83.8494 44.4115 83.049 43.1641 81.2883 43.1641C80.6215 43.1641 79.5814 43.4296 78.5677 44.199C78.5145 44.2522 78.4607 44.3848 78.4607 44.4645V44.4912C78.5677 45.0483 78.5677 45.6857 78.5677 46.6677V48.3929C78.5677 49.5874 78.5408 50.7022 78.5677 51.5513C78.5677 52.1355 78.9146 52.2681 79.208 52.3745C79.3681 52.4007 79.4745 52.4274 79.608 52.4539C79.8479 52.5071 80.0882 52.5603 80.4616 52.6397C80.5151 52.7461 80.5151 53.091 80.435 53.3829C80.4082 53.5423 80.3547 53.6216 80.3281 53.6484C79.4213 53.6219 78.4876 53.5952 77.1273 53.5952C76.7272 53.5952 76.0335 53.6219 75.4467 53.6219C74.9663 53.6219 74.513 53.6484 74.2465 53.6484C74.2196 53.5952 74.1661 53.4097 74.1661 53.1174C74.1661 52.8787 74.2196 52.6929 74.2731 52.6397C74.4063 52.6132 74.513 52.5868 74.6466 52.5868C74.9663 52.5335 75.2334 52.4803 75.4999 52.4274C75.9537 52.2948 76.1136 52.0558 76.1401 51.4719C76.2202 50.1448 76.3003 46.3493 76.1135 45.3935C75.7936 43.8541 74.9134 43.0844 73.4993 43.0844C72.6725 43.0844 71.6319 43.4825 70.7786 44.1199C70.6451 44.2257 70.5384 44.4909 70.5384 44.7299V46.2961C70.5384 48.2071 70.5384 50.5961 70.565 51.6313C70.5919 51.9494 70.6983 52.3213 71.3119 52.4539C71.4455 52.4803 71.6588 52.5335 71.9256 52.5603L72.4055 52.6397C72.4592 52.799 72.4323 53.4361 72.3257 53.6484C72.0589 53.6484 71.7389 53.6219 71.3651 53.6219C70.8052 53.5952 70.0849 53.5687 69.2847 53.5687C68.3511 53.5687 67.6842 53.5952 67.1506 53.6219C66.7771 53.5687 66.4837 53.5687 66.1637 53.5687Z" fill="#442D22"/>
<path fill-rule="evenodd" clip-rule="evenodd" d="M52.1326 59.9397L51.0391 59.5678C51.0391 59.5678 51.1727 54.0206 49.1718 53.6225C47.8383 52.0828 49.3857 -11.6726 54.187 53.41C54.187 53.41 52.533 54.2326 52.2396 55.6396C51.9193 57.02 52.1326 59.9397 52.1326 59.9397Z" fill="white"/>
<path fill-rule="evenodd" clip-rule="evenodd" d="M52.1326 59.9397L51.0391 59.5678C51.0391 59.5678 51.1727 54.0206 49.1718 53.6225C47.8383 52.0828 49.3857 -11.6726 54.187 53.41C54.187 53.41 52.533 54.2326 52.2396 55.6396C51.9193 57.02 52.1326 59.9397 52.1326 59.9397Z" fill="#A6A385"/>
<path fill-rule="evenodd" clip-rule="evenodd" d="M52.7197 54.5796C52.7197 54.5796 62.2963 48.3154 60.0552 35.2827C57.8948 25.8074 52.7997 22.7019 52.2395 21.5074C51.6261 20.658 51.0391 19.1719 51.0391 19.1719L51.4394 45.5283C51.4394 45.555 50.6124 53.5974 52.72 54.5799" fill="white"/>
<path fill-rule="evenodd" clip-rule="evenodd" d="M52.7197 54.5796C52.7197 54.5796 62.2963 48.3154 60.0552 35.2827C57.8948 25.8074 52.7997 22.7019 52.2395 21.5074C51.6261 20.658 51.0391 19.1719 51.0391 19.1719L51.4394 45.5283C51.4394 45.555 50.6124 53.5974 52.72 54.5799" fill="#499D4A"/>
<path fill-rule="evenodd" clip-rule="evenodd" d="M50.4791 54.9215C50.4791 54.9215 41.4892 48.8167 42.0228 38.0672C42.5296 27.3174 48.8783 22.0354 50.1053 21.0799C50.9057 20.2306 50.9323 19.9119 50.9858 19.0625C51.546 20.257 51.4393 36.9259 51.5191 38.8898C51.7591 46.4544 51.0925 53.4886 50.4791 54.9215Z" fill="white"/>
<path fill-rule="evenodd" clip-rule="evenodd" d="M50.4791 54.9215C50.4791 54.9215 41.4892 48.8167 42.0228 38.0672C42.5296 27.3174 48.8783 22.0354 50.1053 21.0799C50.9057 20.2306 50.9323 19.9119 50.9858 19.0625C51.546 20.257 51.4393 36.9259 51.5191 38.8898C51.7591 46.4544 51.0925 53.4886 50.4791 54.9215Z" fill="#58AA50"/>
</g>
<defs>
<clipPath id="clip0_197_112">
<rect width="148" height="42" fill="white" transform="translate(42 19)"/>
</clipPath>
</defs>
</svg>
