<svg width="233" height="80" viewBox="0 0 233 80" fill="none" xmlns="http://www.w3.org/2000/svg">
<rect width="232.872" height="79.5745" rx="8" fill="#14161D"/>
<path d="M90.3472 57.6862V28.0563H91.9526V32.7174C92.1422 32.5109 92.3174 32.2916 92.4768 32.0609C93.1328 30.6966 94.1635 29.548 95.4478 28.7495C96.7322 27.9511 98.2172 27.5361 99.7286 27.553C103.387 27.4436 106.358 28.8003 108.105 32.0609C109.217 34.0865 109.829 36.3492 109.89 38.66C109.951 40.9708 109.459 43.2627 108.455 45.3441C106.828 48.9986 102.808 50.8149 98.5054 50.1474C97.1664 50.0332 95.8772 49.5848 94.7555 48.8433C93.6337 48.1017 92.7152 47.0906 92.0837 45.9021V57.6862H90.3472ZM91.9526 38.5384C92.0946 39.9827 92.1492 41.0112 92.313 42.0178C92.9465 45.9787 95.2836 48.3311 98.9532 48.7579C100.676 49.0416 102.444 48.718 103.956 47.8421C105.467 46.9662 106.629 45.5923 107.243 43.9545C107.948 42.2699 108.287 40.4542 108.238 38.6281C108.189 36.802 107.753 35.0072 106.959 33.363C106.304 31.895 105.189 30.6805 103.785 29.9028C102.38 29.1251 100.761 28.8265 99.1716 29.052C97.6796 29.1603 96.2584 29.7316 95.1055 30.6866C93.9527 31.6416 93.1255 32.9328 92.7389 34.3806C92.3969 35.7501 92.1343 37.1384 91.9526 38.5384Z" fill="white"/>
<path d="M142.638 42.5616C142.395 44.6478 141.404 46.5744 139.849 47.9833C138.294 49.3921 136.282 50.1872 134.185 50.2208C127.458 50.56 124.302 46.0848 123.799 40.9204C123.45 38.1158 123.905 35.2697 125.11 32.7142C125.949 30.9612 127.323 29.5212 129.033 28.6026C130.743 27.6839 132.701 27.3344 134.622 27.6044C136.449 27.7596 138.181 28.4865 139.573 29.6824C140.964 30.8783 141.945 32.4825 142.376 34.2679C142.718 35.8939 142.97 37.5377 143.13 39.1916H125.448C125.121 43.8746 127.633 47.6385 131.193 48.5467C135.627 49.6409 139.417 47.7151 140.793 43.4917C141.099 42.4085 141.656 42.2553 142.638 42.5616ZM125.448 37.6926H141.251C141.153 32.7032 138.052 29.0925 133.847 29.0378C129.085 28.9612 125.656 32.4406 125.448 37.6926Z" fill="white"/>
<path d="M145.894 42.6755H147.445C147.502 43.8188 147.873 44.9241 148.517 45.87C149.16 46.8158 150.052 47.5656 151.093 48.0369C152.4 48.6264 153.824 48.9129 155.257 48.875C156.69 48.8371 158.097 48.4759 159.371 47.8181C160.066 47.5044 160.648 46.9847 161.038 46.3293C161.429 45.6738 161.609 44.9141 161.555 44.1527C161.595 43.4183 161.395 42.6908 160.985 42.0807C160.575 41.4706 159.978 41.011 159.284 40.7717C157.58 40.1371 155.767 39.787 154.031 39.2289C152.224 38.7135 150.457 38.0662 148.745 37.2923C145.949 35.9246 145.774 30.596 148.941 28.911C150.563 27.9941 152.388 27.4987 154.25 27.4701C156.112 27.4414 157.951 27.8803 159.601 28.7469C160.6 29.3 161.406 30.1451 161.914 31.1694C162.421 32.1938 162.605 33.3487 162.44 34.4803H161.108C161.108 34.4146 160.988 34.3599 160.988 34.2943C160.824 30.038 157.263 28.725 153.441 29.097C152.3 29.238 151.191 29.5748 150.164 30.0927C149.547 30.3754 149.033 30.843 148.693 31.4309C148.353 32.0189 148.203 32.6982 148.264 33.3752C148.266 34.0524 148.477 34.7124 148.868 35.2649C149.259 35.8173 149.811 36.235 150.448 36.4607C152.13 37.0734 153.889 37.4673 155.614 37.9488C157.001 38.3317 158.443 38.5834 159.786 39.0429C160.734 39.3543 161.566 39.9468 162.17 40.742C162.775 41.5373 163.124 42.4977 163.172 43.4962C163.334 44.5902 163.148 45.7075 162.64 46.6896C162.132 47.6717 161.329 48.4685 160.343 48.967C156.695 51.0349 150.689 50.4879 148.013 47.8728C147.335 47.1895 146.798 46.3785 146.435 45.4865C146.071 44.5944 145.887 43.6391 145.894 42.6755Z" fill="white"/>
<path d="M182.83 34.4751H181.378C181.378 34.2781 181.301 34.1031 181.279 33.939C181.256 32.8481 180.859 31.7985 180.155 30.9659C179.451 30.1333 178.483 29.5683 177.413 29.3654C175.394 28.785 173.24 28.8888 171.286 29.6608C170.514 29.8826 169.834 30.3488 169.348 30.9897C168.861 31.6306 168.595 32.4119 168.589 33.2168C168.561 34.0073 168.807 34.783 169.285 35.413C169.762 36.0429 170.442 36.4884 171.21 36.6744C173.394 37.3527 175.633 37.7685 177.85 38.3813C178.568 38.554 179.276 38.7696 179.969 39.0268C181.003 39.3976 181.902 40.0725 182.548 40.9632C183.193 41.8539 183.556 42.919 183.588 44.0193C183.619 45.1196 183.319 46.2039 182.726 47.1306C182.133 48.0573 181.275 48.7832 180.264 49.2135C178.722 49.9146 177.052 50.2856 175.359 50.3025C173.667 50.3195 171.989 49.9821 170.434 49.3119C169.156 48.7594 168.077 47.8277 167.342 46.6423C166.608 45.4568 166.254 44.0745 166.328 42.6813H166.94H167.748C168.01 43.9509 168.578 45.1371 169.401 46.1374C170.225 47.1376 171.279 47.9217 172.473 48.4218C173.667 48.9218 174.965 49.1227 176.254 49.0071C177.543 48.8915 178.784 48.4628 179.87 47.7582C180.532 47.4138 181.081 46.8864 181.453 46.2387C181.825 45.5909 182.003 44.85 181.967 44.1037C182 43.3689 181.793 42.6434 181.377 42.0372C180.961 41.431 180.359 40.9772 179.663 40.7446C177.959 40.11 176.146 39.7708 174.41 39.2128C172.593 38.7053 170.815 38.0653 169.091 37.298C166.361 35.9522 166.142 30.6674 169.255 28.9824C170.897 28.0271 172.757 27.514 174.656 27.4929C176.555 27.4718 178.426 27.9435 180.089 28.862C181.04 29.4307 181.805 30.264 182.292 31.2606C182.778 32.2572 182.965 33.374 182.83 34.4751Z" fill="white"/>
<path d="M87.694 49.687C87.1222 49.9039 86.4909 49.9035 85.9194 49.6858C85.3479 49.468 84.8758 49.0481 84.5923 48.5053C82.8122 45.8356 80.8463 43.2862 78.9569 40.6821L78.1378 39.5879C75.888 42.6078 73.6382 45.5073 71.585 48.5163C71.3175 49.035 70.8709 49.4386 70.3284 49.652C69.7859 49.8654 69.1845 49.8739 68.6362 49.6761L77.0784 38.3296L69.226 28.0773C69.7912 27.8728 70.4096 27.87 70.9767 28.0694C71.5437 28.2687 72.0248 28.658 72.3386 29.1715C74.1624 31.8412 76.1829 34.3906 78.1924 37.0932C80.2129 34.4125 82.2115 31.8522 84.079 29.2043C84.348 28.694 84.7948 28.3005 85.3345 28.0988C85.8742 27.8971 86.4691 27.9011 87.006 28.1101L83.9589 32.1585C82.5937 33.9639 81.2504 35.7802 79.8306 37.5418C79.7162 37.6444 79.6247 37.7701 79.5621 37.9105C79.4994 38.051 79.467 38.2031 79.467 38.357C79.467 38.5108 79.4994 38.6629 79.5621 38.8034C79.6247 38.9438 79.7162 39.0695 79.8306 39.1721C82.4408 42.6406 85.0292 46.12 87.694 49.687Z" fill="white"/>
<path d="M123.538 27.9688V29.5006C122.433 29.428 121.326 29.5883 120.287 29.971C119.248 30.3538 118.301 30.9506 117.506 31.7228C116.712 32.4951 116.088 33.4256 115.674 34.4545C115.261 35.4833 115.068 36.5875 115.107 37.6959C115.107 41.2993 115.107 44.9027 115.107 48.5062C115.107 48.8891 115.107 49.2721 115.107 49.7316H113.545V28.0563H115.074V32.4986C116.963 29.2599 119.879 28.0563 123.538 27.9688Z" fill="white"/>
<path d="M48.4097 38.1858C48.639 37.0916 48.781 35.899 49.0977 34.7829C50.9871 28.0538 58.6867 25.2528 63.9835 29.4215C67.0852 31.8615 67.8606 35.3191 67.7077 39.2143H50.2335C49.9496 46.1732 54.9625 50.3748 61.3733 48.2302C62.4133 47.8575 63.3442 47.2313 64.0821 46.4079C64.82 45.5846 65.3416 44.5902 65.5999 43.5144C65.9385 42.4202 66.4845 42.2342 67.5221 42.5515C67.3511 43.8835 66.881 45.1594 66.1471 46.2832C65.4131 47.4071 64.4344 48.3496 63.2846 49.0399C61.3847 50.0807 59.2049 50.4931 57.057 50.218C54.9091 49.9428 52.903 48.9943 51.3257 47.508C49.7652 45.7502 48.8216 43.5291 48.639 41.1838C48.639 40.8118 48.497 40.4398 48.4206 40.0896C48.4133 39.4404 48.4097 38.8058 48.4097 38.1858ZM50.2554 37.7153H66.0586C65.9603 32.6712 62.7822 29.0933 58.5447 29.0605C53.8267 28.9948 50.452 32.4961 50.2445 37.6934L50.2554 37.7153Z" fill="white"/>
</svg>
