<svg width="233" height="80" viewBox="0 0 233 80" fill="none" xmlns="http://www.w3.org/2000/svg">
<rect width="232.872" height="79.5745" rx="8" fill="#14161D"/>
<g clip-path="url(#clip0_586_353)">
<path d="M86.825 55.0827L69.4125 46.9355L52 55.0827V30.7996L69.4125 22.6523L86.825 30.7996V55.0827ZM69.4125 42.2278L82.5775 48.3949V33.5195L69.4125 27.3525L56.2475 33.5195V48.3949L69.4125 42.2278Z" fill="#A39794"/>
<path d="M180 55.0828H175.538L173.873 49.5347H165.47L163.768 55.0828H159.298L166.813 30.7568H172.605L172.67 30.9657L180 55.0828ZM166.82 45.2145H172.54L169.7 35.8017L166.82 45.2145Z" fill="#005E8D"/>
<path d="M105.195 55.083H93.2749V30.7646H105.195C108.177 30.7646 110.6 33.2128 110.6 36.2045V49.6406C110.6 52.6424 108.167 55.0805 105.187 55.0805H105.195V55.083ZM97.6224 50.715H104.145C105.31 50.715 106.262 49.7589 106.262 48.5839V37.2714C106.262 36.0988 105.312 35.1402 104.145 35.1402H97.6224V50.715Z" fill="#005E8D"/>
<path d="M127.993 55.0825H121.478C118.495 55.0825 116.073 52.6343 116.073 49.6426V36.2065C116.073 33.2047 118.505 30.7666 121.478 30.7666H127.993C130.975 30.7666 133.398 33.2148 133.398 36.2065V49.6426C133.398 52.6418 130.968 55.0825 127.993 55.0825ZM122.565 35.1321C121.413 35.1321 120.485 36.0882 120.485 37.2632V48.5758C120.485 49.7483 121.423 50.7069 122.565 50.7069H126.905C128.058 50.7069 128.985 49.7508 128.985 48.5758V37.2632C128.985 36.0907 128.048 35.1321 126.905 35.1321H122.565Z" fill="#005E8D"/>
<path d="M155.93 55.0903H151.295L147.755 46.928H143.128V55.0903H138.8V30.7568H150.155C153.13 30.7568 155.548 33.205 155.548 36.1967V41.4781C155.548 43.6721 154.233 45.6448 152.245 46.4952L155.93 55.0903ZM143.13 42.5524H149.1C150.265 42.5524 151.21 41.5963 151.21 40.4213V37.2686C151.21 36.0961 150.265 35.1374 149.1 35.1374H143.13V42.5575V42.5524Z" fill="#005E8D"/>
</g>
<defs>
<clipPath id="clip0_586_353">
<rect width="128" height="39" fill="white" transform="translate(52 20)"/>
</clipPath>
</defs>
</svg>
