<svg width="80" height="81" viewBox="0 0 80 81" fill="none" xmlns="http://www.w3.org/2000/svg">
<rect y="0.382812" width="80" height="80" rx="40" fill="white"/>
<path d="M43.5702 33.7783C43.6205 33.6777 43.6499 33.568 43.6567 33.4558C43.6635 33.3435 43.6474 33.2311 43.6096 33.1252C43.5718 33.0193 43.5129 32.9222 43.4365 32.8396C43.3601 32.7571 43.2679 32.6909 43.1652 32.645L27.4952 25.6566C25.0019 24.545 22.4169 27.015 23.6519 29.3266L28.9052 39.1666C29.3136 39.9333 29.3136 40.8333 28.9052 41.5983L23.6519 51.4383C22.4169 53.75 25.0019 56.22 27.4952 55.1083L33.3686 52.4883C34.0737 52.1743 34.6481 51.6253 34.9936 50.935L43.5702 33.7783Z" fill="#E6AA14"/>
<path opacity="0.5" d="M45.8874 34.7329C45.9831 34.541 46.1491 34.3934 46.3509 34.3207C46.5527 34.2481 46.7747 34.2561 46.9707 34.3429L55.0091 37.9279C57.2157 38.9113 57.2157 41.8529 55.0091 42.8363L40.1791 49.4496C40.0223 49.519 39.848 49.5383 39.6798 49.505C39.5116 49.4717 39.3578 49.3873 39.2394 49.2634C39.1209 49.1395 39.0436 48.982 39.0179 48.8125C38.9921 48.643 39.0193 48.4697 39.0957 48.3163L45.8874 34.7329Z" fill="#FED706"/>
</svg>
